<?xml version="1.0" standalone="no"?>
<!DOCTYPE svg PUBLIC "-//W3C//DTD SVG 20010904//EN"
 "http://www.w3.org/TR/2001/REC-SVG-20010904/DTD/svg10.dtd">
<svg version="1.0" xmlns="http://www.w3.org/2000/svg"
 width="300.000000pt" height="78.000000pt" viewBox="0 0 300.000000 78.000000"
 preserveAspectRatio="xMidYMid meet">
<metadata>
Created by potrace 1.10, written by Peter Selinger 2001-2011
</metadata>
<g transform="translate(0.000000,78.000000) scale(0.100000,-0.100000)"
fill="#000000" stroke="none">
<path d="M840 760 c-11 -11 -20 -25 -20 -31 0 -6 -18 -9 -45 -8 -55 4 -66 -6
-77 -68 -22 -125 -22 -130 3 -143 13 -7 26 -14 27 -16 2 -1 -6 -16 -18 -32
-20 -27 -21 -33 -10 -113 6 -46 13 -86 16 -88 2 -2 -6 -19 -17 -38 -15 -24
-20 -43 -15 -65 3 -17 1 -47 -6 -66 -12 -31 -11 -35 11 -53 37 -30 51 -24 51
21 0 22 4 40 10 40 5 0 14 19 21 43 25 91 47 142 54 125 3 -9 -3 -34 -14 -56
-15 -30 -17 -42 -8 -45 9 -3 9 -7 -1 -20 -8 -9 -12 -34 -10 -64 3 -43 5 -48
29 -51 33 -4 41 20 28 79 -8 33 -6 47 6 66 17 26 11 48 -11 39 -8 -3 -14 -1
-14 5 0 16 31 23 41 8 6 -10 9 -11 9 -1 0 7 -7 15 -16 19 -8 3 -13 12 -10 20
3 8 1 11 -4 8 -6 -3 -10 1 -10 10 0 9 5 13 10 10 6 -3 10 -1 10 4 0 6 -8 11
-18 11 -25 0 -18 52 10 69 11 7 21 11 22 9 17 -33 46 -102 46 -112 0 -7 -14
-44 -31 -81 -16 -37 -28 -74 -26 -83 3 -14 5 -14 12 3 4 11 20 49 36 84 34 75
35 80 9 131 -11 21 -17 46 -14 54 4 9 -5 29 -20 47 l-27 32 21 14 c13 9 19 21
16 30 -6 13 -3 13 18 -1 14 -9 38 -16 54 -16 31 0 58 22 48 39 -3 5 -1 11 5
13 7 2 4 10 -7 18 -12 10 -15 11 -10 2 4 -7 2 -19 -4 -27 -15 -17 -30 -20 -30
-4 0 5 4 8 9 4 5 -3 12 -1 16 5 3 5 1 10 -5 10 -6 0 -8 5 -5 10 3 6 3 10 -2
10 -17 0 -31 -16 -34 -39 -4 -22 -5 -23 -17 -8 -11 13 -10 19 7 36 17 17 18
22 6 38 -8 10 -15 27 -15 37 0 35 -10 10 -20 -50 l-9 -59 3 69 c3 58 7 72 30
92 34 33 33 50 -6 74 -42 25 -63 25 -88 0z m110 -25 c0 -13 -14 -35 -22 -35
-6 0 -5 6 2 15 8 9 9 15 2 15 -6 0 -14 -4 -17 -10 -3 -5 -11 -10 -17 -10 -6 0
-3 10 8 23 l18 22 -24 -22 c-24 -22 -24 -23 -5 -38 11 -8 15 -15 8 -15 -7 0
-10 -7 -7 -15 4 -9 0 -15 -9 -15 -11 0 -14 7 -10 23 5 21 5 21 -10 2 -17 -22
-11 -49 9 -41 10 4 12 -9 10 -55 -4 -82 -26 -104 -26 -26 0 32 -6 70 -14 86
-20 37 -24 85 -8 87 6 1 17 2 23 3 5 0 7 6 3 13 -4 7 -3 8 4 4 7 -4 20 -3 29
3 15 8 53 -1 53 -14z m-124 -90 c32 -79 32 -134 0 -164 -20 -19 -28 -21 -45
-12 -12 7 -21 16 -21 21 0 5 -14 22 -31 38 -34 32 -34 62 -1 62 28 0 45 -25
38 -54 -7 -30 21 -43 54 -26 26 14 26 36 -1 43 -14 4 -18 10 -13 18 6 10 9 10
12 1 5 -17 19 -15 19 3 0 18 -18 20 -35 3 -17 -17 -27 -2 -12 17 16 20 15 82
-2 103 -11 12 -11 14 0 11 7 -2 24 -31 38 -64z m-42 29 c8 -20 8 -19 -26 -28
-23 -5 -28 -3 -28 12 0 10 3 22 7 25 12 13 41 7 47 -9z m-14 -54 c0 -16 -7
-20 -30 -20 -35 0 -40 17 -7 30 33 13 37 12 37 -10z m170 -29 c0 -6 -4 -13
-10 -16 -5 -3 -10 1 -10 9 0 9 5 16 10 16 6 0 10 -4 10 -9z m-235 -61 c3 -5 1
-10 -4 -10 -6 0 -11 5 -11 10 0 6 2 10 4 10 3 0 8 -4 11 -10z m125 6 c0 -11
-19 -15 -25 -6 -3 5 1 10 9 10 9 0 16 -2 16 -4z m20 -60 c0 -3 -4 -8 -10 -11
-5 -3 -10 -1 -10 4 0 6 5 11 10 11 6 0 10 -2 10 -4z m-77 -28 c16 -8 25 -19
22 -26 -3 -8 -5 -19 -5 -27 0 -7 -11 -15 -25 -17 -20 -4 -25 -1 -27 16 -2 35
-3 41 -11 54 -5 7 -3 12 5 12 8 0 26 -6 41 -12z m77 -8 c0 -5 -7 -10 -16 -10
-8 0 -12 5 -9 10 3 6 10 10 16 10 5 0 9 -4 9 -10z m-137 -20 c-3 -12 -8 -19
-11 -16 -5 6 5 36 12 36 2 0 2 -9 -1 -20z m167 -5 c10 -12 9 -15 -7 -15 -10 0
-24 -5 -31 -12 -9 -9 -12 -7 -12 9 0 19 11 30 31 32 4 1 12 -6 19 -14z m-60
-36 c0 -5 -4 -9 -10 -9 -5 0 -10 7 -10 16 0 8 5 12 10 9 6 -3 10 -10 10 -16z
m-67 -30 c10 38 29 24 21 -15 -5 -27 -4 -35 5 -30 6 4 11 16 11 27 0 10 5 19
11 19 7 0 9 -9 6 -22 -3 -13 -9 -40 -13 -61 -3 -21 -12 -41 -20 -44 -7 -2 -11
-12 -9 -22 2 -10 -5 -35 -15 -57 -11 -23 -19 -32 -19 -21 -1 10 4 28 11 40 10
19 9 20 -4 9 -12 -10 -17 -10 -27 1 -14 17 -4 28 17 20 14 -5 15 -3 5 8 -17
18 -16 34 1 20 23 -20 27 13 5 55 -10 21 -19 52 -19 69 l1 30 13 -24 c13 -23
13 -23 19 -2z m-3 -109 c0 -5 -2 -10 -4 -10 -3 0 -8 5 -11 10 -3 6 -1 10 4 10
6 0 11 -4 11 -10z m98 -55 c-8 -17 -15 -22 -21 -16 -7 7 -6 15 3 26 20 24 31
18 18 -10z m-4 -97 c3 -16 3 -28 -1 -28 -19 1 -30 18 -31 49 -1 29 1 32 12 20
8 -8 16 -26 20 -41z m-114 -5 c0 -8 -6 -21 -14 -29 -13 -12 -15 -12 -18 4 -2
9 -2 27 0 40 4 18 7 20 18 11 8 -6 14 -18 14 -26z"/>
<path d="M852 700 c-7 -11 -12 -25 -12 -32 0 -7 7 0 15 16 18 33 15 45 -3 16z"/>
<path d="M871 584 c0 -11 3 -14 6 -6 3 7 2 16 -1 19 -3 4 -6 -2 -5 -13z"/>
<path d="M768 423 c7 -3 16 -2 19 1 4 3 -2 6 -13 5 -11 0 -14 -3 -6 -6z"/>
<path d="M196 744 c-29 -29 -8 -58 22 -31 9 8 28 18 41 22 l24 7 -22 -23 c-23
-25 -26 -36 -10 -41 5 -2 7 -11 4 -21 -8 -19 -25 -23 -25 -6 0 5 -4 7 -10 4
-5 -3 -10 0 -10 7 0 10 -2 10 -9 0 -6 -10 -10 -7 -15 12 -3 14 -13 26 -21 26
-11 0 -7 -13 15 -50 16 -27 27 -57 24 -65 -4 -8 -1 -15 6 -15 6 0 8 5 4 12 -4
7 -3 8 4 4 7 -4 12 -17 11 -29 0 -12 -3 -16 -6 -9 -2 6 -14 12 -25 12 -15 0
-18 4 -13 18 5 14 4 15 -6 5 -21 -21 -24 -15 -21 32 2 25 1 53 -4 63 -4 9 -6
22 -5 29 2 17 -47 10 -66 -10 -12 -12 -16 -32 -14 -72 1 -30 -2 -55 -6 -55 -4
0 -8 -15 -7 -32 1 -26 7 -36 28 -46 26 -13 26 -15 11 -32 -9 -10 -14 -28 -12
-41 2 -13 2 -18 0 -11 -8 21 -21 13 -19 -13 0 -14 4 -25 9 -25 4 0 7 -7 7 -15
0 -8 -3 -15 -7 -15 -5 0 -9 -19 -10 -42 -2 -24 -12 -71 -24 -106 -15 -45 -18
-67 -10 -75 7 -7 6 -18 -6 -38 -14 -23 -14 -30 -4 -43 16 -19 41 -21 41 -3 0
8 4 7 10 -3 7 -11 10 -8 10 16 0 17 6 37 14 43 8 7 29 56 46 109 18 53 33 98
35 100 2 2 14 -7 28 -20 23 -21 24 -25 10 -43 -9 -12 -12 -32 -9 -52 3 -22 0
-33 -10 -37 -11 -4 -13 -15 -9 -43 12 -70 14 -73 51 -73 37 0 40 6 23 43 -9
21 -5 36 25 99 42 87 44 110 15 157 -11 19 -18 42 -16 53 3 10 1 18 -5 18 -5
0 -6 5 -3 10 3 6 1 10 -4 10 -6 0 -11 6 -11 14 0 8 -5 16 -11 18 -19 6 8 48
31 48 10 0 26 -7 35 -16 12 -13 18 -14 30 -4 22 18 14 50 -18 83 -20 19 -26
33 -22 47 7 21 -11 29 -18 8 -2 -7 -3 -5 -2 4 2 10 -1 21 -6 24 -5 3 2 15 16
26 33 26 32 44 -7 68 -40 24 -71 25 -92 4z m104 -45 c0 -21 -7 -23 -29 -10
-12 8 -12 12 -2 25 16 19 31 12 31 -15z m-152 -40 c2 -11 -6 -18 -23 -21 -28
-6 -40 5 -31 28 8 20 50 14 54 -7z m113 -80 c4 -16 3 -29 -2 -29 -4 0 -10 -12
-12 -27 -3 -19 -5 -13 -6 17 -1 27 -9 55 -21 70 -28 36 -25 45 8 20 15 -12 30
-35 33 -51z m-121 39 c0 -23 -16 -39 -33 -32 -22 8 -22 20 1 33 23 14 32 13
32 -1z m160 -37 c0 -6 -4 -13 -10 -16 -5 -3 -10 1 -10 9 0 9 5 16 10 16 6 0
10 -4 10 -9z m-161 -16 c2 -2 0 -20 -3 -40 l-7 -35 -23 23 c-26 25 -38 52 -28
62 6 6 52 -2 61 -10z m166 -25 c-10 -11 -20 -18 -23 -15 -7 6 18 35 31 35 5 0
2 -9 -8 -20z m-135 -2 c0 6 10 12 22 12 14 0 18 -4 13 -9 -17 -16 -48 -17 -52
-1 -4 13 -3 13 6 0 7 -10 11 -11 11 -2z m164 -14 c-10 -8 -14 -13 -7 -10 6 4
14 2 17 -2 4 -7 -25 -9 -43 -3 -10 3 23 31 37 31 13 0 12 -3 -4 -16z m-104 -1
c0 -3 -8 -15 -17 -26 -17 -20 -17 -20 2 -13 16 6 17 5 8 -5 -17 -17 -61 -20
-70 -6 -16 26 -13 45 6 40 11 -3 28 0 38 6 21 12 33 14 33 4z m-78 -79 c13 -5
16 -13 12 -33 -15 -59 -30 -60 -51 -2 -13 36 -9 56 10 47 7 -4 20 -9 29 -12z
m74 -11 c-4 -10 -4 -14 0 -10 4 4 13 2 21 -4 11 -10 10 -14 -7 -26 -25 -18
-27 -16 -30 17 -3 35 -2 40 11 40 6 0 8 -7 5 -17z m-40 -58 c-4 -14 -12 -25
-18 -25 -9 0 -9 3 0 12 7 7 12 21 12 32 0 10 3 17 6 13 4 -3 4 -18 0 -32z m96
-47 c13 -29 21 -57 19 -63 -1 -5 -4 -18 -6 -27 -2 -9 -13 -38 -25 -64 -21 -50
-33 -50 -45 -2 -6 24 -3 30 24 45 17 10 31 21 31 25 0 9 -29 -1 -50 -16 -13
-10 -13 -9 0 8 8 10 23 22 35 26 18 8 17 9 -7 9 -16 1 -28 5 -28 10 0 5 12 12
28 14 23 3 22 4 -9 6 -19 0 -43 7 -53 14 -17 13 -16 15 14 40 17 15 36 27 40
27 5 0 20 -24 32 -52z m-160 30 c15 -9 22 -20 20 -33 -3 -20 -3 -20 13 -1 13
17 15 17 15 4 0 -9 -4 -19 -9 -23 -5 -3 -17 -28 -26 -55 -9 -28 -22 -50 -28
-51 -9 0 -9 -2 0 -5 7 -3 9 -12 6 -20 -3 -7 -10 -11 -16 -7 -6 3 -7 1 -3 -6
10 -16 -2 -48 -20 -55 -12 -5 -15 0 -13 22 2 15 -1 34 -5 42 -5 8 -6 12 -1 8
9 -9 35 9 35 24 0 6 -7 4 -16 -3 -15 -12 -16 -11 -9 11 14 45 33 145 28 153
-6 10 1 9 29 -5z m116 -263 c8 -29 8 -35 -5 -35 -8 0 -11 -4 -8 -10 3 -5 1
-10 -4 -10 -6 0 -11 18 -11 40 0 22 -5 40 -11 40 -5 0 -8 4 -4 10 10 17 32 0
43 -35z m-168 -29 c0 -8 -11 -16 -25 -18 -24 -5 -25 0 -2 29 11 15 27 8 27
-11z"/>
<path d="M220 330 c0 -5 5 -10 10 -10 6 0 10 5 10 10 0 6 -4 10 -10 10 -5 0
-10 -4 -10 -10z"/>
<path d="M1482 740 c-11 -12 -24 -27 -29 -33 -10 -12 31 -104 51 -119 13 -9
18 -48 6 -48 -6 0 -10 5 -10 10 0 6 -7 10 -16 10 -10 0 -14 6 -10 15 3 8 1 15
-4 15 -6 0 -10 -4 -10 -10 0 -5 -4 -10 -9 -10 -5 0 -6 20 -4 45 3 24 2 52 -2
62 -5 10 -9 22 -9 27 -1 5 -13 10 -27 12 -39 4 -56 -35 -61 -136 -3 -82 -2
-85 20 -88 26 -4 28 -11 5 -27 -27 -20 -29 -210 -3 -278 13 -34 17 -63 13 -92
-6 -45 -3 -49 39 -59 l27 -6 -1 65 c0 38 4 71 11 78 14 14 14 50 1 63 -6 6 -8
18 -4 27 5 15 8 14 24 -6 13 -15 17 -34 14 -61 -2 -24 1 -43 8 -47 8 -5 9 -11
1 -21 -6 -7 -10 -33 -9 -58 1 -43 2 -45 34 -48 24 -2 32 1 32 12 0 19 -36 22
-43 4 -3 -7 -4 5 -2 27 3 48 19 56 34 18 11 -27 11 -27 6 -2 -3 18 2 32 15 44
30 27 29 154 -2 203 -12 20 -21 48 -20 63 1 16 -4 29 -13 33 -22 8 -18 34 9
61 14 14 26 35 28 47 2 13 11 24 23 27 19 3 19 3 3 -16 -24 -26 -23 -45 2 -61
17 -10 23 -10 35 2 21 21 19 34 -15 73 -16 18 -30 42 -30 52 0 10 -7 24 -15
31 -14 12 -13 15 5 35 37 39 20 71 -43 82 -28 4 -39 1 -55 -17z m98 -15 c14
-16 7 -45 -11 -45 -8 0 -8 4 1 15 15 18 -1 20 -18 3 -16 -16 -16 4 1 22 6 8 2
6 -11 -4 -21 -18 -21 -20 -6 -38 11 -12 13 -18 5 -18 -7 0 -9 -5 -5 -11 4 -8
-1 -9 -17 -5 l-24 7 23 -20 c17 -15 22 -30 22 -70 0 -27 -5 -53 -11 -57 -8 -5
-9 6 -4 35 5 33 3 46 -15 71 -14 20 -19 38 -15 52 4 15 3 19 -3 10 -7 -10 -11
-10 -22 3 -18 22 2 44 24 26 12 -10 14 -9 12 6 -3 16 9 23 55 32 4 0 12 -6 19
-14z m-147 -76 c-5 -4 -18 -10 -30 -14 -20 -5 -23 -3 -23 22 0 19 3 24 9 15 6
-11 10 -10 15 5 7 17 8 17 22 -1 8 -11 11 -23 7 -27z m124 -91 c-2 -18 -4 -6
-4 27 0 33 2 48 4 33 2 -15 2 -42 0 -60z m-127 59 c0 -19 -20 -36 -36 -30 -20
7 -17 31 4 36 29 8 32 7 32 -6z m147 -9 c-3 -8 -6 -5 -6 6 -1 11 2 17 5 13 3
-3 4 -12 1 -19z m13 -27 c0 -6 -4 -13 -10 -16 -5 -3 -10 1 -10 9 0 9 5 16 10
16 6 0 10 -4 10 -9z m-181 -8 c21 -5 22 -10 17 -44 -4 -23 -2 -39 4 -39 5 0 7
6 4 14 -4 11 0 13 14 9 11 -2 29 0 41 6 17 10 21 9 21 -3 0 -8 -8 -20 -17 -26
-16 -10 -15 -11 6 -6 17 3 21 2 13 -6 -23 -23 -60 -17 -99 18 -21 19 -41 34
-45 34 -6 0 -5 25 1 48 1 4 14 2 40 -5z m38 -35 c-3 -8 -6 -5 -6 6 -1 11 2 17
5 13 3 -3 4 -12 1 -19z m43 2 c0 -5 -7 -10 -15 -10 -8 0 -15 5 -15 10 0 6 7
10 15 10 8 0 15 -4 15 -10z m146 -23 c1 -9 -2 -15 -7 -11 -5 3 -6 10 -3 16 4
6 1 8 -7 6 -8 -3 -13 -11 -11 -17 1 -7 -2 -10 -8 -6 -8 5 -7 11 1 21 15 18 31
14 35 -9z m-194 -74 c24 -7 11 -32 -15 -27 -13 3 -16 1 -7 -2 15 -7 30 -24 30
-35 0 -3 -13 -4 -30 -1 -28 4 -30 7 -28 44 1 31 4 38 17 32 9 -3 24 -8 33 -11z
m68 -7 c0 -7 7 -19 15 -26 17 -14 11 -30 -11 -30 -8 0 -14 9 -14 19 0 11 -4
23 -10 26 -15 9 -12 25 5 25 8 0 15 -6 15 -14z m-30 -46 c0 -16 -4 -30 -9 -30
-5 0 -9 14 -9 30 1 17 5 30 10 30 4 0 8 -13 8 -30z m-55 -26 c16 -4 20 -13 20
-47 -1 -23 -6 -51 -13 -62 -12 -19 -13 -18 -7 5 6 24 5 24 -10 -2 -9 -16 -20
-28 -25 -28 -15 0 -22 57 -12 94 6 19 7 37 4 40 -7 7 17 7 43 0z m130 -49 c13
-31 22 -62 18 -70 -6 -16 -50 -31 -60 -21 -4 3 1 6 11 6 12 0 6 9 -19 31 -25
22 -35 39 -35 61 0 17 4 27 10 23 6 -3 10 -15 10 -26 0 -10 4 -19 9 -19 5 0 8
12 7 28 -8 63 18 56 49 -13z m-115 -93 c0 -3 -7 -13 -16 -23 -12 -13 -12 -19
-3 -25 8 -5 10 -3 4 6 -5 9 -4 11 4 6 9 -6 9 -11 0 -22 -15 -18 -25 -11 -37
25 -9 26 -8 28 10 23 13 -3 19 -1 15 5 -3 5 0 10 8 10 8 0 15 -3 15 -5z m140
-24 c-1 -27 -29 -82 -30 -57 0 31 12 79 21 79 5 0 9 -10 9 -22z m-37 -20 c-7
-41 -12 -46 -23 -28 -13 21 -12 26 6 44 22 23 24 20 17 -16z m-109 -79 c9 -46
7 -69 -4 -44 -5 11 -9 14 -9 7 -1 -10 -4 -10 -15 0 -7 7 -12 19 -10 25 11 38
14 43 22 43 5 0 12 -14 16 -31z"/>
<path d="M2182 753 c-7 -3 -18 -16 -23 -30 -8 -21 -13 -24 -39 -18 -24 5 -34
1 -55 -21 -43 -46 -32 -157 19 -197 8 -6 7 -10 -1 -14 -7 -2 -13 -13 -13 -23
0 -10 -5 -22 -11 -26 -6 -3 -8 -16 -5 -29 3 -13 -1 -42 -9 -65 -8 -23 -15 -58
-15 -77 0 -39 31 -105 67 -141 17 -17 21 -28 14 -35 -22 -22 -12 -38 21 -35
27 2 33 8 40 36 6 21 5 38 -1 46 -7 9 -7 16 1 24 8 8 5 26 -12 67 -14 36 -19
60 -13 66 9 9 54 -83 58 -120 4 -39 18 -71 32 -71 12 0 14 -8 9 -33 -6 -33 -6
-33 34 -34 33 -1 40 2 40 19 0 11 -5 28 -11 39 -7 15 -7 24 1 34 9 11 6 31
-13 87 -14 40 -32 105 -40 143 -9 39 -20 84 -25 102 -9 26 -7 34 9 49 16 15
19 15 19 2 0 -15 20 -28 41 -28 5 0 14 11 21 24 9 21 7 29 -16 56 -14 17 -26
42 -26 55 0 13 -10 31 -22 39 -25 18 -42 21 -33 6 3 -5 2 -10 -4 -10 -5 0 -12
6 -14 13 -4 7 -6 6 -6 -4 -1 -9 6 -20 14 -23 13 -4 14 -10 5 -26 -8 -16 -8
-20 2 -18 7 2 16 12 20 23 4 14 6 9 7 -17 1 -20 4 -43 7 -52 3 -9 1 -16 -4
-16 -6 0 -13 8 -15 18 -4 14 -5 13 -6 -4 0 -11 -11 -29 -23 -40 -13 -10 -17
-12 -10 -4 17 20 15 35 -3 20 -8 -7 -15 -19 -15 -26 0 -8 -9 -14 -20 -14 -22
0 -27 15 -7 24 6 3 -2 3 -20 0 -19 -3 -34 0 -39 7 -5 9 -2 10 9 6 10 -3 17 -2
17 3 0 6 -9 10 -19 10 -11 0 -23 5 -26 10 -9 15 14 40 36 40 12 0 24 12 33 33
11 27 11 36 -1 60 -7 15 -11 27 -8 27 2 0 14 -17 24 -39 20 -38 20 -39 2 -55
-11 -10 -21 -32 -23 -51 l-4 -34 36 15 c37 16 82 51 48 38 -13 -4 -18 -1 -18
10 0 9 -7 16 -16 16 -24 0 -6 20 19 21 l22 0 -21 9 c-12 5 -27 23 -33 41 -14
41 -14 52 1 43 6 -4 16 0 22 8 6 8 23 18 39 22 23 5 29 2 39 -19 9 -20 9 -28
-1 -38 -11 -10 -12 -7 -6 13 5 19 4 21 -4 10 -5 -8 -13 -11 -17 -7 -4 3 -1 13
6 22 17 20 3 19 -18 -1 -18 -19 -26 -48 -10 -38 6 4 14 0 19 -7 13 -21 43 2
47 34 5 38 -60 69 -106 50z m-48 -114 c-6 -11 -31 -12 -37 -1 -2 4 -2 1 -1 -5
4 -16 -12 -17 -22 -2 -4 7 4 20 17 30 22 17 25 17 36 2 7 -9 10 -20 7 -24z
m133 -41 c-3 -7 -5 -2 -5 12 0 14 2 19 5 13 2 -7 2 -19 0 -25z m-147 -2 c0 -8
-11 -16 -25 -18 -19 -4 -25 -1 -25 13 0 9 8 19 18 22 22 5 32 -1 32 -17z m70
-28 c0 -6 -6 -5 -15 2 -8 7 -15 14 -15 16 0 2 7 1 15 -2 8 -4 15 -11 15 -16z
m90 -2 c0 -8 -4 -18 -10 -21 -5 -3 -10 3 -10 14 0 12 5 21 10 21 6 0 10 -6 10
-14z m-115 -5 c3 -5 1 -12 -5 -16 -5 -3 -10 1 -10 9 0 18 6 21 15 7z m152 -36
c3 -9 3 -19 -1 -22 -7 -7 -36 16 -36 28 0 15 30 10 37 -6z m-169 -107 c1 -24
-2 -28 -16 -23 -9 4 -25 10 -34 12 -19 6 -23 15 -10 27 4 4 8 12 8 17 1 5 2
11 3 14 0 2 12 0 25 -6 16 -8 23 -20 24 -41z m61 21 c-6 -12 -7 -19 -2 -16 5
3 14 -3 21 -14 20 -31 -22 -25 -43 7 -14 22 -15 28 -4 35 27 17 41 11 28 -12z
m-64 -72 c24 -23 -14 -113 -44 -102 -11 3 -10 0 3 -10 18 -14 15 -20 -7 -16
-5 1 -5 -3 -2 -9 4 -6 14 -9 24 -5 13 5 14 4 3 -7 -10 -10 -16 -10 -32 0 -12
7 -20 8 -20 2 0 -13 45 -24 66 -16 10 4 14 1 11 -6 -2 -7 -17 -12 -33 -11 -27
2 -28 2 -6 -7 13 -5 21 -14 17 -20 -3 -5 0 -7 9 -4 11 4 13 0 9 -16 -8 -32
-33 -20 -64 30 -34 55 -35 88 -8 168 19 58 22 61 42 51 11 -7 26 -16 32 -22z
m40 22 c11 -17 -1 -21 -15 -4 -8 9 -8 15 -2 15 6 0 14 -5 17 -11z m33 -35 c19
-6 22 -13 22 -63 0 -36 3 -51 9 -42 6 9 11 -8 17 -50 7 -55 9 -60 15 -34 6 28
7 27 8 -12 0 -23 -4 -45 -9 -48 -11 -7 -40 54 -43 86 -1 11 -5 19 -9 19 -7 0
-58 103 -58 116 0 2 7 4 15 4 18 0 20 16 3 23 -18 8 3 8 30 1z m22 -222 c0
-15 -2 -15 -10 -2 -13 20 -13 33 0 25 6 -3 10 -14 10 -23z m-78 -46 c-3 -26
-9 -34 -22 -33 -10 1 -17 4 -15 8 3 3 9 18 14 33 15 37 28 32 23 -8z m148 -37
c0 -4 -13 -9 -29 -11 l-30 -4 17 28 c15 26 18 27 29 11 7 -9 13 -20 13 -24z"/>
<path d="M2100 290 c-13 -8 -13 -10 2 -10 9 0 20 5 23 10 8 13 -5 13 -25 0z"/>
<path d="M2853 691 c-22 -24 -32 -28 -58 -24 -51 8 -74 -21 -71 -89 2 -30 6
-60 10 -66 4 -7 4 -12 0 -12 -3 0 1 -11 10 -25 16 -24 16 -27 -1 -50 -10 -13
-21 -25 -25 -25 -13 0 -9 -28 5 -33 9 -3 9 -7 1 -18 -6 -8 -12 -41 -13 -74 -2
-33 -5 -63 -7 -67 -3 -5 0 -8 6 -8 7 0 10 -15 9 -40 -2 -22 2 -45 8 -51 9 -9
7 -19 -9 -39 -24 -33 -17 -50 21 -50 30 0 51 31 51 75 0 13 5 27 10 30 6 3 10
27 10 53 0 26 5 65 11 87 l11 40 24 -75 c13 -41 24 -81 24 -88 0 -7 5 -23 12
-35 6 -12 12 -35 12 -52 1 -28 4 -30 44 -33 43 -3 55 11 32 34 -6 6 -12 58
-14 115 -2 84 -7 114 -25 151 -12 25 -20 51 -19 58 2 6 -7 19 -19 27 -15 10
-23 11 -23 4 0 -6 -10 -11 -22 -11 -19 0 -16 3 13 19 20 11 46 17 57 15 24 -7
40 15 21 27 -11 6 -10 9 4 15 11 4 14 10 9 18 -16 19 -23 64 -11 71 15 10 -21
33 -43 27 -10 -2 -18 1 -18 7 0 7 -5 9 -10 6 -8 -5 -7 -11 1 -21 6 -7 15 -11
20 -8 5 3 9 -5 9 -17 0 -18 -2 -19 -15 -9 -8 7 -25 10 -40 6 -21 -5 -25 -3
-25 16 0 13 -7 35 -14 51 -8 15 -11 27 -7 27 4 0 15 -18 25 -40 20 -45 31 -51
31 -16 0 13 -3 22 -6 20 -4 -2 -10 3 -13 12 -10 25 -7 37 7 31 12 -5 40 17 31
25 -2 3 10 5 27 5 l31 0 -23 -19 c-23 -17 -23 -19 -6 -32 18 -14 18 -15 0 -25
-27 -15 -11 -13 31 4 47 20 46 49 -3 82 -44 30 -58 29 -88 -6z m107 -30 c0
-11 -5 -23 -12 -27 -8 -5 -9 -2 -4 11 5 14 4 16 -7 7 -8 -7 -17 -9 -20 -5 -7
6 21 32 36 33 4 0 7 -9 7 -19z m-153 -47 c7 -18 -12 -34 -39 -34 -18 0 -25 30
-11 43 12 13 44 7 50 -9z m-4 -70 c-16 -12 -16 -13 5 -7 17 4 22 1 22 -15 0
-11 6 -25 14 -31 11 -9 18 -6 34 14 27 34 35 32 27 -7 -8 -37 -22 -58 -38 -58
-5 0 -3 8 6 18 10 10 17 25 17 33 0 8 -6 5 -16 -9 -12 -17 -25 -22 -61 -22
-35 0 -44 3 -40 14 3 8 1 28 -6 45 -10 27 -9 33 8 45 14 10 24 11 33 4 10 -8
9 -13 -5 -24z m77 0 c0 -7 -27 -34 -34 -34 -4 0 -1 9 6 20 12 19 28 27 28 14z
m64 -47 c8 -5 6 -11 -6 -21 -10 -7 -14 -17 -10 -21 4 -5 1 -5 -6 -1 -7 4 -9
13 -5 19 4 6 6 27 6 47 -1 25 1 28 4 10 3 -14 10 -28 17 -33z m-94 -51 c0 -9
-30 -14 -35 -6 -4 6 3 10 14 10 12 0 21 -2 21 -4z m-44 -26 c8 0 11 -6 8 -15
-4 -8 -11 -12 -18 -8 -6 3 -6 1 2 -8 20 -21 15 -41 -10 -37 -16 2 -24 12 -29
35 -7 36 -2 46 19 38 7 -3 20 -5 28 -5z m94 -29 c0 -12 -39 -21 -45 -11 -3 5
3 11 12 13 29 8 33 7 33 -2z m-96 -94 c6 -22 -17 -79 -39 -97 -34 -28 -48 31
-19 76 9 13 14 27 11 31 -4 3 -9 -2 -13 -11 -12 -32 -22 -15 -12 23 l10 40 28
-21 c16 -11 31 -30 34 -41z m116 31 c7 -18 13 -39 13 -45 -1 -7 2 -13 6 -13 8
0 2 -161 -5 -169 -11 -12 -34 30 -40 71 -5 36 -2 54 10 75 l17 28 -25 -28
c-30 -32 -34 -20 -9 21 l17 27 -21 -18 c-21 -18 -21 -18 -19 20 3 69 32 85 56
31z m-76 7 c-7 -17 -20 -20 -28 -6 -7 10 3 21 20 21 8 0 11 -6 8 -15z m-59
-162 c-4 -10 -8 -27 -9 -38 -2 -35 -31 -23 -34 14 -3 27 0 33 12 28 8 -3 18
-2 21 3 10 17 18 11 10 -7z m-11 -100 c-4 -16 -11 -32 -17 -38 -7 -7 -8 -6 -3
2 5 9 0 13 -15 13 -21 0 -22 1 -4 20 10 11 22 17 26 14 5 -3 9 0 9 5 0 6 2 11
5 11 3 0 2 -12 -1 -27z m193 -19 c11 -18 11 -21 -2 -21 -8 0 -15 4 -15 9 0 4
-5 8 -11 8 -5 0 -7 -4 -4 -10 3 -5 1 -10 -4 -10 -12 0 -15 33 -4 44 10 10 25
2 40 -20z"/>
<path d="M2820 479 c0 -5 5 -7 10 -4 6 3 10 8 10 11 0 2 -4 4 -10 4 -5 0 -10
-5 -10 -11z"/>
<path d="M2765 250 c3 -5 8 -10 11 -10 2 0 4 5 4 10 0 6 -5 10 -11 10 -5 0 -7
-4 -4 -10z"/>
<path d="M2911 226 c-7 -8 -11 -23 -8 -33 4 -15 5 -14 6 4 0 12 7 23 14 26 6
2 9 7 6 11 -3 4 -12 0 -18 -8z"/>
<path d="M882 256 c7 -8 15 -12 17 -11 5 6 -10 25 -20 25 -5 0 -4 -6 3 -14z"/>
</g>
</svg>
