<?xml version="1.0" standalone="no"?>
<!DOCTYPE svg PUBLIC "-//W3C//DTD SVG 20010904//EN"
 "http://www.w3.org/TR/2001/REC-SVG-20010904/DTD/svg10.dtd">
<svg version="1.0" xmlns="http://www.w3.org/2000/svg"
 width="300.000000pt" height="78.000000pt" viewBox="0 0 300.000000 78.000000"
 preserveAspectRatio="xMidYMid meet">
<metadata>
Created by potrace 1.10, written by Peter Selinger 2001-2011
</metadata>
<g transform="translate(0.000000,78.000000) scale(0.100000,-0.100000)"
fill="#000000" stroke="none">
<path d="M2073 760 c-40 -24 -41 -41 -7 -74 23 -20 27 -34 30 -92 l3 -69 -9
59 c-10 60 -20 85 -20 50 0 -10 -7 -27 -15 -37 -12 -16 -11 -21 6 -38 17 -17
18 -23 7 -36 -12 -15 -13 -14 -17 8 -3 23 -17 39 -34 39 -5 0 -5 -4 -2 -10 3
-5 1 -10 -5 -10 -6 0 -8 -5 -5 -10 4 -6 11 -8 16 -5 5 4 9 1 9 -4 0 -16 -15
-13 -30 4 -6 8 -8 20 -4 27 5 9 2 8 -10 -2 -11 -8 -14 -16 -7 -18 6 -2 8 -8 5
-13 -10 -17 17 -39 48 -39 16 0 40 7 54 16 21 14 24 14 18 1 -3 -9 3 -21 16
-30 l21 -14 -27 -32 c-15 -18 -24 -38 -20 -47 3 -8 -3 -33 -14 -54 -26 -51
-25 -56 9 -131 16 -35 32 -73 35 -84 6 -16 9 -17 17 -5 7 11 9 8 8 -15 -4 -60
-1 -67 29 -63 25 3 27 7 30 51 2 27 -2 54 -8 62 -6 7 -8 19 -4 28 3 8 -2 30
-11 47 -9 17 -13 39 -10 48 7 17 29 -33 54 -125 7 -24 16 -43 21 -43 6 0 10
-18 10 -40 0 -45 14 -51 51 -21 22 18 23 22 11 53 -7 19 -9 49 -6 66 5 22 0
41 -15 65 -11 19 -19 36 -17 38 3 2 10 42 16 88 11 80 10 86 -10 113 -12 16
-20 31 -18 32 1 2 14 9 27 16 25 13 25 18 3 143 -11 62 -22 72 -77 68 -27 -1
-45 2 -45 8 0 17 -38 51 -57 51 -10 0 -33 -9 -50 -20z m52 -16 c9 3 13 2 10
-4 -3 -6 -1 -11 4 -11 6 -1 16 -2 23 -3 6 0 13 -7 16 -15 3 -8 0 -11 -6 -7 -6
4 -8 -1 -5 -13 3 -10 -2 -32 -11 -49 -9 -18 -16 -56 -16 -89 0 -68 -16 -62
-26 10 -6 41 -4 51 15 68 18 17 20 23 9 37 -21 28 -21 28 -15 5 3 -16 1 -23
-10 -23 -9 0 -13 6 -9 15 3 8 0 15 -7 15 -7 0 -3 7 8 15 19 15 19 16 0 33 -18
16 -18 16 -6 0 8 -11 9 -18 3 -18 -6 0 -14 5 -17 10 -3 6 -11 10 -17 10 -7 0
-6 -6 2 -15 7 -9 8 -15 2 -15 -5 0 -13 8 -16 17 -9 23 22 47 41 32 7 -6 20 -9
28 -5z m88 -46 c-19 -25 -22 -64 -7 -92 16 -31 11 -47 -8 -28 -17 17 -35 15
-35 -3 0 -18 14 -20 19 -3 3 9 6 9 12 -1 5 -8 1 -14 -13 -18 -28 -7 -27 -31 4
-45 30 -14 55 3 48 32 -7 25 13 50 39 50 35 0 33 -30 -6 -67 -20 -19 -36 -39
-36 -43 0 -18 -31 -17 -54 1 -21 16 -26 29 -26 64 0 25 6 59 14 77 8 18 19 45
25 61 6 15 16 27 22 27 8 0 8 -4 2 -12z m55 -36 c3 -20 1 -22 -25 -16 -35 9
-35 8 -27 28 10 25 48 16 52 -12z m-3 -34 c34 -15 32 -28 -5 -28 -23 0 -30 4
-30 20 0 23 1 24 35 8z m-185 -44 c0 -8 -4 -12 -10 -9 -5 3 -10 10 -10 16 0 5
5 9 10 9 6 0 10 -7 10 -16z m120 -48 c0 -11 -19 -15 -25 -6 -3 5 1 10 9 10 9
0 16 -2 16 -4z m110 -6 c0 -5 -5 -10 -11 -10 -5 0 -7 5 -4 10 3 6 8 10 11 10
2 0 4 -4 4 -10z m-140 -60 c0 -5 -2 -10 -4 -10 -3 0 -8 5 -11 10 -3 6 -1 10 4
10 6 0 11 -4 11 -10z m103 -22 c-8 -13 -9 -19 -11 -54 -2 -17 -7 -20 -28 -16
-16 3 -23 9 -20 18 3 7 1 16 -4 19 -16 10 -12 19 13 31 32 16 60 17 50 2z
m-98 -8 c3 -5 -1 -10 -9 -10 -9 0 -16 5 -16 10 0 6 4 10 9 10 6 0 13 -4 16
-10z m123 -31 c-3 -8 -7 -3 -11 10 -4 17 -3 21 5 13 5 -5 8 -16 6 -23z m-144
15 c9 -3 16 -16 16 -27 0 -16 -3 -18 -12 -9 -7 7 -21 12 -31 12 -16 0 -17 3
-7 15 14 17 13 17 34 9z m42 -51 c-10 -10 -19 5 -10 18 6 11 8 11 12 0 2 -7 1
-15 -2 -18z m-45 4 c17 -13 31 -67 18 -67 -5 0 -9 -9 -9 -21 0 -11 -4 -17 -10
-14 -5 3 -7 0 -4 -8 3 -8 -2 -17 -10 -20 -9 -4 -16 -12 -16 -19 0 -10 3 -9 9
1 11 18 45 6 38 -13 -3 -7 -1 -18 5 -24 6 -6 7 -16 3 -22 -6 -9 -12 -6 -21 11
-9 18 -9 26 -1 31 9 6 9 8 0 8 -21 0 -25 -19 -9 -42 18 -26 21 -48 5 -48 -9 0
-34 48 -41 81 -2 7 -9 20 -15 27 -18 19 -16 40 9 99 25 57 26 58 49 40z m96
-28 c6 -21 6 -21 19 2 l13 24 1 -30 c0 -17 -9 -48 -19 -68 -13 -26 -15 -34 -5
-26 9 7 14 8 14 1 0 -6 -4 -14 -10 -17 -5 -3 -10 -11 -10 -17 0 -7 6 -6 15 2
18 15 20 0 3 -19 -11 -11 -10 -13 5 -8 10 4 17 1 17 -7 0 -21 -12 -27 -28 -13
-13 10 -14 9 -4 -10 7 -12 12 -30 11 -40 0 -11 -8 -2 -19 21 -10 22 -17 47
-15 57 2 10 -2 20 -9 22 -8 3 -17 23 -20 44 -4 21 -10 48 -13 61 -3 13 -1 22
6 22 6 0 11 -9 11 -19 0 -11 5 -23 11 -27 9 -5 10 3 5 30 -8 39 11 53 21 15z
m-59 -241 c-1 -31 -12 -47 -31 -48 -9 0 2 51 16 68 14 18 16 15 15 -20z m114
-50 c-4 -15 -6 -15 -18 -3 -17 17 -18 37 -1 54 10 10 13 7 18 -11 3 -13 3 -31
1 -40z"/>
<path d="M2147 679 c4 -13 8 -18 11 -10 2 7 -1 18 -6 23 -8 8 -9 4 -5 -13z"/>
<path d="M2121 584 c0 -11 3 -14 6 -6 3 7 2 16 -1 19 -3 4 -6 -2 -5 -13z"/>
<path d="M2135 300 c-3 -5 -1 -10 4 -10 6 0 11 5 11 10 0 6 -2 10 -4 10 -3 0
-8 -4 -11 -10z"/>
<path d="M2105 259 c-11 -16 -1 -19 13 -3 7 8 8 14 3 14 -5 0 -13 -5 -16 -11z"/>
<path d="M740 747 c-18 -9 -25 -21 -25 -41 0 -34 30 -59 44 -37 5 7 13 11 19
7 16 -10 8 19 -10 38 -21 20 -35 21 -18 1 7 -9 10 -19 6 -22 -4 -4 -12 -1 -17
7 -8 11 -9 9 -4 -10 6 -20 5 -23 -6 -13 -10 10 -10 18 -1 38 10 21 16 24 39
19 16 -4 33 -12 38 -19 6 -6 16 -10 23 -8 16 6 15 -10 -2 -52 -9 -20 -22 -35
-31 -35 -9 0 -13 -5 -10 -10 4 -6 11 -8 16 -5 20 13 27 -7 8 -26 -11 -11 -25
-17 -31 -13 -7 4 -8 3 -4 -4 4 -6 24 -19 44 -28 20 -10 39 -19 42 -20 15 -7
-4 67 -21 82 -18 16 -18 17 2 55 10 22 22 39 24 39 3 0 -1 -12 -8 -27 -12 -24
-12 -33 -1 -60 9 -21 21 -33 33 -33 22 0 45 -25 36 -40 -3 -5 -15 -10 -26 -10
-10 0 -19 -4 -19 -10 0 -5 7 -6 17 -3 11 5 14 3 8 -6 -5 -8 -19 -11 -39 -8
-17 3 -25 3 -18 0 19 -8 14 -23 -9 -23 -11 0 -18 4 -15 9 3 4 -3 16 -14 26
-22 20 -28 8 -7 -15 6 -8 2 -6 -10 4 -13 11 -24 29 -24 40 -1 17 -2 18 -6 4
-2 -10 -9 -18 -15 -18 -5 0 -7 7 -4 16 3 9 6 32 7 52 1 26 3 31 7 17 4 -11 13
-21 20 -23 10 -2 10 2 2 18 -9 16 -8 22 5 26 8 3 15 14 14 23 0 10 -2 11 -6 4
-2 -7 -9 -13 -14 -13 -6 0 -7 5 -4 10 9 15 -8 12 -33 -6 -12 -8 -22 -26 -22
-39 0 -13 -12 -38 -26 -55 -23 -27 -25 -35 -16 -56 7 -13 16 -24 21 -24 21 0
41 13 41 28 0 13 3 13 19 -2 16 -15 18 -23 9 -49 -5 -18 -16 -63 -25 -102 -8
-38 -26 -103 -40 -143 -19 -56 -22 -76 -13 -87 8 -10 8 -19 1 -34 -6 -11 -11
-28 -11 -39 0 -17 7 -20 40 -19 40 1 40 1 34 34 -5 25 -3 33 9 33 14 0 28 32
32 71 4 37 49 129 58 120 6 -6 1 -31 -13 -66 -19 -46 -21 -58 -10 -65 11 -7
11 -11 1 -23 -8 -11 -9 -26 -3 -49 7 -28 13 -34 40 -36 33 -3 43 13 21 35 -7
7 -3 18 14 35 36 36 67 102 67 141 0 19 -7 54 -15 77 -8 23 -12 52 -9 65 3 13
1 26 -5 29 -6 4 -11 16 -11 26 0 10 -6 21 -12 23 -9 4 -10 8 -2 14 29 23 44
61 44 114 0 46 -4 61 -25 83 -21 22 -31 26 -55 21 -25 -6 -31 -3 -39 18 -15
38 -55 47 -101 24z m187 -110 c-2 -6 -9 -13 -15 -15 -8 -2 -10 3 -6 15 5 14 4
15 -4 4 -6 -8 -17 -11 -26 -8 -14 5 -15 11 -6 27 10 19 12 19 36 4 13 -9 23
-22 21 -27z m-190 -39 c-3 -7 -5 -2 -5 12 0 14 2 19 5 13 2 -7 2 -19 0 -25z
m193 -8 c0 -13 -6 -16 -25 -12 -23 4 -33 21 -19 34 11 12 44 -5 44 -22z m-100
-15 c-7 -9 -15 -13 -19 -10 -3 3 1 10 9 15 21 14 24 12 10 -5z m-90 -16 c0
-11 -4 -17 -10 -14 -5 3 -10 13 -10 21 0 8 5 14 10 14 6 0 10 -9 10 -21z m110
-5 c0 -8 -5 -12 -10 -9 -6 4 -8 11 -5 16 9 14 15 11 15 -7z m-130 -23 c0 -12
-29 -35 -36 -28 -11 10 5 37 21 37 8 0 15 -4 15 -9z m185 -81 c-3 -5 -1 -11 5
-15 15 -9 12 -22 -7 -28 -10 -2 -26 -8 -35 -12 -27 -11 -21 50 6 63 23 10 40
6 31 -8z m-86 1 c11 -7 10 -13 -4 -35 -21 -32 -63 -38 -43 -7 7 11 16 17 20
15 12 -8 9 11 -4 24 -9 9 -9 12 3 12 7 0 20 -4 28 -9z m16 -61 c-3 -5 -11 -10
-16 -10 -6 0 -7 5 -4 10 3 6 11 10 16 10 6 0 7 -4 4 -10z m94 -52 c27 -80 26
-113 -8 -168 -31 -50 -56 -62 -64 -30 -4 16 -2 20 9 16 7 -3 13 -2 11 3 -1 4
14 22 33 39 35 33 35 42 0 20 -15 -10 -22 -10 -32 0 -11 11 -10 12 3 7 10 -4
20 -1 24 5 3 6 3 10 -2 9 -22 -4 -25 2 -7 16 13 10 14 13 3 10 -29 -11 -69 79
-45 101 9 9 47 33 53 34 0 0 11 -28 22 -62z m-116 15 c-18 -7 -16 -23 2 -23
19 0 19 3 -10 -65 -20 -43 -29 -55 -42 -51 -13 5 -14 4 -3 -9 10 -12 9 -21 -4
-49 -9 -19 -16 -39 -16 -46 0 -6 -6 -10 -12 -8 -8 3 -14 24 -15 49 -1 37 0 40
6 14 6 -26 8 -22 15 34 6 42 11 59 17 50 6 -9 9 7 9 43 0 45 3 57 18 61 24 7
50 7 35 0z m73 -165 c-16 -9 -36 -3 -36 11 0 5 12 6 26 3 22 -4 24 -6 10 -14z
m-112 -53 c-4 -8 -8 -15 -10 -15 -2 0 -4 7 -4 15 0 8 4 15 10 15 5 0 7 -7 4
-15z m91 -51 c11 -27 10 -30 -5 -31 -13 -1 -19 7 -22 33 -5 41 9 40 27 -2z
m-125 -35 c7 -13 4 -15 -21 -11 -33 5 -33 6 -18 34 12 22 14 20 39 -23z"/>
<path d="M875 290 c3 -5 14 -10 23 -10 15 0 15 2 2 10 -20 13 -33 13 -25 0z"/>
<path d="M1430 747 c-33 -17 -37 -43 -11 -71 19 -20 20 -24 6 -36 -8 -7 -15
-21 -15 -31 0 -10 -13 -34 -30 -52 -34 -39 -36 -52 -15 -73 12 -12 18 -12 35
-2 22 14 27 54 8 61 -7 2 -10 8 -6 12 11 11 28 -4 28 -25 0 -11 11 -30 25 -44
28 -28 32 -54 10 -62 -9 -4 -14 -17 -13 -33 1 -15 -8 -43 -20 -63 -31 -49 -32
-176 -2 -203 13 -12 18 -26 15 -44 -5 -25 -5 -25 6 2 15 38 31 30 34 -18 2
-22 1 -34 -2 -27 -7 18 -43 15 -43 -4 0 -11 8 -14 33 -12 31 3 32 5 33 48 1
25 -3 51 -9 58 -8 10 -7 16 1 21 7 4 10 23 8 47 -3 27 1 46 14 61 16 20 19 21
24 6 4 -9 2 -21 -4 -27 -13 -13 -13 -49 1 -63 7 -7 11 -40 11 -78 l-1 -65 27
6 c42 10 45 14 39 59 -4 29 0 58 13 92 26 68 24 258 -3 278 -23 16 -21 23 6
27 21 3 22 6 19 88 -5 101 -22 140 -61 136 -14 -2 -26 -7 -27 -12 0 -5 -4 -17
-9 -27 -4 -10 -5 -38 -2 -63 3 -33 2 -43 -6 -35 -16 16 -27 13 -21 -4 4 -9 0
-15 -10 -15 -9 0 -16 -4 -16 -10 0 -5 -4 -10 -10 -10 -12 0 -7 39 6 48 20 15
61 107 51 119 -47 57 -69 65 -117 40z m51 -17 c11 0 17 -4 14 -10 -3 -5 3 -10
14 -10 26 0 36 -17 20 -36 -10 -12 -14 -12 -21 -2 -6 9 -7 5 -3 -10 4 -14 -1
-32 -14 -51 -12 -16 -21 -38 -21 -50 0 -24 53 -55 82 -48 14 4 18 2 14 -9 -3
-8 -1 -14 4 -14 6 0 8 16 4 39 -6 35 -4 39 20 45 15 4 31 4 36 1 12 -7 13 -45
3 -45 -5 0 -25 -15 -46 -34 -39 -35 -76 -41 -99 -18 -8 8 -5 9 12 5 23 -6 23
-6 4 13 -10 11 -22 16 -25 11 -9 -13 -19 20 -19 65 0 29 6 45 23 59 l22 20
-24 -7 c-16 -4 -21 -3 -17 5 4 6 2 11 -5 11 -7 0 -5 8 7 22 17 19 17 21 2 15
-10 -3 -20 -2 -23 3 -4 6 -1 10 5 10 6 0 8 4 5 10 -4 6 -11 5 -20 -3 -9 -8
-10 -16 -3 -24 7 -9 7 -13 -1 -13 -18 0 -25 29 -11 46 7 8 20 12 27 9 8 -3 24
-5 34 -5z m119 -62 c0 -10 2 -10 9 0 7 11 9 11 14 -1 3 -7 2 -19 -2 -26 -12
-18 -62 4 -55 24 7 18 34 20 34 3z m-153 -110 c-2 -18 -4 -6 -4 27 0 33 2 48
4 33 2 -15 2 -42 0 -60z m-20 50 c-3 -8 -6 -5 -6 6 -1 11 2 17 5 13 3 -3 4
-12 1 -19z m184 12 c14 0 11 -27 -5 -33 -16 -6 -36 11 -36 31 0 9 6 12 16 8 9
-3 20 -6 25 -6z m-181 -46 c0 -8 -4 -12 -10 -9 -5 3 -10 10 -10 16 0 5 5 9 10
9 6 0 10 -7 10 -16z m127 -36 c-3 -8 -6 -5 -6 6 -1 11 2 17 5 13 3 -3 4 -12 1
-19z m-17 2 c0 -5 -7 -10 -15 -10 -8 0 -15 5 -15 10 0 6 7 10 15 10 8 0 15 -4
15 -10z m-141 -14 c8 -10 9 -16 1 -21 -6 -4 -9 -1 -8 6 2 6 -3 14 -11 17 -8 2
-11 0 -7 -6 3 -6 2 -13 -3 -16 -7 -5 -8 11 -2 32 3 7 20 0 30 -12z m209 -105
c2 -36 0 -39 -28 -43 -17 -3 -30 -2 -30 1 0 11 15 28 30 35 9 3 6 5 -7 2 -32
-6 -35 17 -4 31 38 17 38 17 39 -26z m-88 20 c0 -6 -4 -13 -10 -16 -5 -3 -10
-15 -10 -26 0 -10 -6 -19 -14 -19 -22 0 -28 16 -11 30 8 7 15 19 15 26 0 8 7
14 15 14 8 0 15 -4 15 -9z m15 -83 c-4 -56 -8 -66 -40 -95 -21 -20 -29 -33
-20 -33 8 0 15 -4 15 -9 0 -15 -57 8 -64 25 -7 18 45 125 59 121 5 -2 9 -18 9
-35 -1 -18 2 -32 6 -32 9 0 20 50 20 91 0 16 4 29 10 29 5 0 8 -26 5 -62z m83
6 c-3 -3 -2 -21 4 -40 10 -37 3 -94 -12 -94 -5 0 -16 12 -25 28 -15 26 -16 26
-10 2 6 -24 5 -24 -7 -5 -18 28 -17 98 2 107 18 8 55 10 48 2z m-14 -151 c12
5 13 1 5 -20 -15 -41 -20 -45 -35 -32 -16 13 -8 33 9 22 7 -3 4 3 -5 14 -22
24 -24 40 -3 23 8 -7 21 -10 29 -7z m-159 -34 c4 -22 4 -43 1 -46 -7 -7 -26
42 -26 68 0 35 18 20 25 -22z m45 -2 c0 -15 -18 -43 -23 -37 -3 3 -8 20 -12
38 -7 32 -6 33 14 23 12 -7 21 -17 21 -24z m110 -78 c5 -15 2 -29 -6 -37 -11
-10 -14 -10 -15 0 0 7 -4 4 -9 -7 -11 -25 -13 -2 -4 44 8 36 25 36 34 0z"/>
<path d="M2713 740 c-40 -24 -41 -42 -8 -68 14 -11 21 -23 16 -26 -5 -3 -8
-14 -6 -24 1 -9 0 -11 -2 -4 -7 21 -25 13 -18 -8 4 -14 -2 -28 -22 -47 -32
-33 -40 -65 -18 -83 12 -10 18 -9 30 4 9 9 25 16 35 16 23 0 50 -42 31 -48 -6
-2 -11 -10 -11 -18 0 -8 -5 -14 -11 -14 -5 0 -7 -4 -4 -10 3 -5 2 -10 -3 -10
-6 0 -8 -8 -5 -18 2 -11 -5 -34 -16 -53 -29 -47 -27 -70 15 -157 30 -63 34
-78 25 -99 -17 -37 -14 -43 23 -43 37 0 39 3 51 73 4 28 2 39 -9 43 -10 4 -13
15 -10 37 3 20 0 40 -9 52 -14 18 -13 22 10 43 14 13 26 22 28 20 2 -2 17 -47
35 -100 17 -53 38 -102 46 -109 8 -6 14 -26 14 -43 0 -24 3 -27 10 -16 6 10
10 11 10 3 0 -18 25 -16 41 3 10 13 10 20 -4 43 -12 20 -13 31 -6 38 8 8 5 29
-10 75 -11 34 -22 81 -24 104 -2 23 -7 47 -12 54 -4 7 -4 15 1 19 12 8 16 51
5 51 -5 0 -11 -6 -14 -12 -2 -7 -2 -2 0 11 2 13 -3 31 -12 41 -15 17 -15 19
11 32 21 10 27 20 28 46 1 17 -3 32 -7 32 -4 0 -7 25 -6 55 2 40 -2 60 -14 72
-19 20 -68 27 -66 10 1 -7 -1 -20 -5 -29 -5 -10 -6 -38 -4 -63 3 -47 0 -53
-21 -32 -10 10 -11 9 -6 -5 5 -14 2 -18 -13 -18 -11 0 -23 -6 -25 -12 -3 -7
-6 -3 -6 9 -1 12 4 25 11 29 7 4 8 3 4 -4 -4 -7 -2 -12 4 -12 7 0 10 7 6 15
-3 8 8 38 24 65 22 37 26 50 15 50 -8 0 -18 -12 -21 -26 -5 -19 -9 -22 -15
-12 -7 10 -9 10 -9 0 0 -7 -4 -10 -10 -7 -5 3 -10 1 -10 -4 0 -17 -17 -13 -25
6 -3 10 -1 19 4 21 15 5 13 13 -5 37 -13 17 -16 18 -24 5 -5 -8 -10 -19 -10
-25 0 -5 4 -3 10 5 5 8 12 11 17 7 7 -8 -14 -27 -29 -27 -13 0 -9 37 6 49 15
12 42 6 68 -16 30 -27 51 3 22 31 -21 21 -52 20 -91 -4z m192 -85 c0 -16 -6
-19 -25 -17 -31 5 -34 7 -26 27 9 24 51 15 51 -10z m-124 -43 c-13 -18 -22
-47 -22 -74 -2 -29 -3 -34 -6 -15 -2 15 -8 27 -12 27 -18 0 3 56 28 77 34 28
39 22 12 -15z m110 8 c23 -13 24 -26 2 -34 -17 -7 -33 9 -33 32 0 15 6 15 31
2z m-171 -46 c0 -8 -4 -12 -10 -9 -5 3 -10 10 -10 16 0 5 5 9 10 9 6 0 10 -7
10 -16z m202 -19 c-2 -11 -14 -30 -27 -42 l-23 -22 -6 22 c-10 38 -7 55 12 60
31 9 47 2 44 -18z m-212 -10 c20 -24 6 -28 -15 -5 -10 11 -13 20 -8 20 6 0 16
-7 23 -15z m120 -7 c0 -9 4 -8 11 2 9 13 10 13 6 0 -4 -16 -35 -15 -51 1 -6 5
-2 9 12 9 12 0 22 -6 22 -12z m-141 -12 c8 -10 9 -16 1 -21 -5 -3 -10 1 -10 9
0 8 -8 17 -17 19 -15 4 -15 5 -2 6 9 0 22 -5 28 -13z m147 -13 c24 4 28 -12
11 -40 -9 -14 -53 -11 -70 6 -9 10 -8 11 8 5 19 -7 19 -7 3 13 -24 27 -23 36
3 22 12 -6 32 -9 45 -6z m58 -61 c7 -12 -17 -81 -31 -86 -17 -7 -27 32 -12 50
10 12 9 13 -5 8 -24 -9 -19 10 7 22 29 15 35 16 41 6z m-99 -12 c3 -5 -1 -10
-9 -10 -9 0 -16 5 -16 10 0 6 4 10 9 10 6 0 13 -4 16 -10z m-5 -41 c0 -22 -8
-23 -32 -5 -13 9 -14 16 -6 24 15 15 38 4 38 -19z m42 -36 c7 -9 7 -13 0 -13
-12 0 -22 25 -21 48 1 13 3 12 6 -3 3 -11 10 -26 15 -32z m-46 -5 c16 -12 31
-24 34 -26 11 -9 -36 -32 -69 -33 -31 -2 -32 -3 -8 -6 15 -2 27 -9 27 -14 0
-5 -12 -9 -27 -10 -25 0 -26 -1 -8 -9 12 -4 27 -16 35 -26 13 -17 13 -18 0 -8
-21 15 -50 25 -50 16 0 -4 14 -15 31 -25 27 -15 30 -21 24 -45 -12 -48 -24
-48 -45 2 -12 26 -23 55 -25 64 -2 9 -5 22 -6 27 -5 14 39 115 50 115 5 0 21
-10 37 -22z m121 0 c-2 -28 17 -116 35 -162 10 -27 16 -51 13 -54 -3 -3 -5 0
-5 6 0 7 -4 12 -8 12 -5 0 -7 -14 -4 -30 3 -24 1 -29 -11 -24 -19 7 -31 39
-21 55 4 7 3 9 -3 6 -6 -4 -13 0 -17 8 -3 8 -1 15 5 15 6 0 3 7 -5 16 -9 8
-16 21 -16 27 0 7 -9 30 -21 51 -11 21 -18 43 -15 49 2 7 5 4 5 -5 1 -10 6
-18 12 -18 6 0 9 8 7 18 -2 9 5 22 17 29 27 15 33 15 32 1z m-105 -236 c-7 -2
-12 -21 -12 -43 0 -21 -5 -39 -11 -39 -5 0 -7 5 -4 10 3 6 -1 10 -9 10 -13 0
-13 5 -4 33 12 35 27 49 42 40 6 -4 5 -8 -2 -11z m168 -61 c8 -16 6 -17 -15
-13 -24 4 -33 21 -19 35 9 9 22 0 34 -22z"/>
<path d="M2760 329 c0 -5 5 -7 10 -4 6 3 10 8 10 11 0 2 -4 4 -10 4 -5 0 -10
-5 -10 -11z"/>
<path d="M2910 206 c0 -4 7 -14 15 -22 8 -9 15 -11 15 -6 0 5 -7 15 -15 22 -8
7 -15 9 -15 6z"/>
<path d="M68 704 c-27 -14 -48 -42 -48 -63 0 -6 16 -18 36 -26 42 -17 57 -19
31 -4 -18 10 -18 11 0 25 17 13 17 15 -6 34 l-23 20 23 -2 c27 -3 49 -19 42
-30 -2 -5 1 -8 6 -8 6 0 11 5 11 12 0 9 3 9 11 1 11 -11 3 -57 -9 -49 -4 2 -7
-7 -7 -20 0 -35 11 -29 31 16 10 22 21 40 25 40 4 0 1 -12 -7 -27 -7 -16 -14
-38 -14 -50 0 -19 -4 -22 -29 -17 -16 4 -32 1 -35 -5 -4 -6 -12 -9 -17 -6 -5
4 -10 -5 -10 -19 -2 -44 -4 -47 -23 -61 -22 -17 -11 -39 16 -31 11 2 37 -4 57
-15 26 -14 31 -19 16 -20 -11 0 -14 -3 -7 -6 19 -8 4 -22 -18 -16 -20 5 -28
23 -10 23 6 0 10 5 10 11 0 7 -8 6 -22 -4 -13 -8 -22 -21 -20 -27 1 -7 -7 -33
-19 -58 -18 -37 -23 -67 -25 -151 -2 -57 -8 -109 -14 -115 -23 -23 -11 -37 32
-34 40 3 43 5 44 33 0 17 6 40 12 52 7 12 12 28 12 35 0 7 11 47 24 88 l24 75
11 -40 c6 -22 11 -61 11 -87 0 -26 5 -50 10 -53 6 -3 10 -17 10 -30 0 -44 21
-75 51 -75 38 0 45 17 21 50 -16 20 -18 30 -9 39 6 6 10 29 8 51 -1 25 2 40 9
40 6 0 9 3 6 8 -2 4 -5 34 -7 67 -1 33 -7 66 -13 74 -8 11 -8 15 2 18 13 5 17
33 5 33 -5 0 -16 12 -26 25 -16 22 -16 27 -3 47 8 13 15 26 16 31 0 4 0 8 1
10 0 1 2 29 3 61 3 74 -17 101 -69 93 -26 -4 -36 0 -58 24 -28 33 -40 35 -79
13z m4 -38 c10 -7 15 -16 11 -19 -3 -4 -12 -2 -20 5 -11 9 -12 7 -7 -7 5 -13
4 -16 -4 -11 -13 8 -17 46 -4 46 4 0 15 -7 24 -14z m158 -47 c0 -5 5 -7 10 -4
6 3 10 -3 10 -14 0 -13 -6 -21 -17 -21 -28 0 -47 16 -40 34 7 18 37 22 37 5z
m5 -89 c-4 -14 -7 -35 -7 -47 0 -20 -5 -23 -43 -23 -28 0 -47 6 -56 17 -12 15
-12 16 2 11 20 -8 39 9 39 35 0 15 5 18 23 14 20 -5 20 -5 5 7 -25 18 -3 39
24 23 14 -9 17 -19 13 -37z m-87 0 c7 -11 10 -20 6 -20 -7 0 -34 27 -34 34 0
13 16 5 28 -14z m-38 -27 c0 -14 7 -35 17 -45 9 -10 11 -18 6 -18 -16 0 -30
21 -38 58 -4 20 -3 32 4 32 6 0 11 -12 11 -27z m75 -63 c-3 -5 -12 -7 -20 -3
-21 7 -19 13 6 13 11 0 18 -4 14 -10z m56 -46 c-4 -38 -8 -44 -32 -44 -22 0
-25 19 -6 39 7 9 7 11 1 8 -7 -4 -14 0 -17 7 -4 10 2 16 16 19 36 7 42 2 38
-29z m-114 -46 c4 -7 8 -30 9 -51 2 -38 2 -38 -19 -20 l-21 18 17 -27 c25 -41
21 -53 -9 -21 l-25 28 17 -28 c25 -41 7 -147 -26 -147 -4 0 -10 37 -12 83 -4
68 -1 90 16 129 21 48 38 59 53 36z m146 -68 c-3 -3 -11 4 -19 14 -19 27 -18
6 2 -22 17 -25 16 -73 -2 -79 -18 -6 -57 56 -57 89 0 21 9 37 29 53 l29 24 11
-37 c6 -20 9 -39 7 -42z m-93 55 c0 -8 -7 -15 -15 -15 -9 0 -12 6 -9 15 4 8
10 15 15 15 5 0 9 -7 9 -15z m67 -158 c11 4 14 -2 11 -28 -3 -37 -32 -49 -34
-14 -1 11 -5 29 -9 40 -6 16 -5 18 5 8 7 -6 19 -9 27 -6z m-7 -92 c4 2 15 -4
25 -15 18 -19 17 -20 -4 -20 -15 0 -20 -4 -15 -12 5 -9 4 -10 -3 -3 -6 6 -13
24 -16 40 -4 17 -4 24 -1 17 3 -6 9 -10 14 -7z m-162 -33 c2 -12 -2 -22 -8
-22 -6 0 -8 5 -5 10 3 6 1 10 -4 10 -6 0 -11 -4 -11 -8 0 -5 -7 -9 -15 -9 -8
0 -11 5 -8 11 23 41 46 45 51 8z"/>
<path d="M165 480 c3 -5 14 -10 23 -10 15 0 15 2 2 10 -20 13 -33 13 -25 0z"/>
<path d="M70 232 c0 -6 5 -14 11 -17 6 -4 8 -13 5 -21 -3 -8 -1 -14 4 -14 15
0 12 36 -5 50 -9 8 -15 9 -15 2z"/>
<path d="M215 250 c-3 -5 -2 -10 4 -10 5 0 13 5 16 10 3 6 2 10 -4 10 -5 0
-13 -4 -16 -10z"/>
<path d="M110 599 c0 -6 -8 -9 -20 -6 -20 5 -46 -16 -36 -31 3 -5 1 -24 -4
-43 -7 -22 -6 -37 1 -44 7 -7 8 -5 4 8 -4 10 -2 17 4 17 6 0 11 10 11 23 1 23
23 60 32 52 3 -3 11 1 17 9 8 10 9 16 1 21 -5 3 -10 1 -10 -6z"/>
</g>
</svg>
