<?xml version="1.0" standalone="no"?>
<!DOCTYPE svg PUBLIC "-//W3C//DTD SVG 20010904//EN"
 "http://www.w3.org/TR/2001/REC-SVG-20010904/DTD/svg10.dtd">
<svg version="1.0" xmlns="http://www.w3.org/2000/svg"
 width="127.000000pt" height="80.000000pt" viewBox="0 0 127.000000 80.000000"
 preserveAspectRatio="xMidYMid meet">
<metadata>
Created by potrace 1.10, written by Peter Selinger 2001-2011
</metadata>
<g transform="translate(0.000000,80.000000) scale(0.100000,-0.100000)"
fill="#000000" stroke="none">
<path d="M186 765 c-18 -19 -33 -25 -68 -25 -24 0 -49 -5 -56 -12 -21 -21 -15
-143 9 -190 20 -39 20 -43 5 -75 -9 -19 -16 -41 -16 -51 0 -9 -9 -46 -20 -80
-11 -35 -20 -82 -20 -103 0 -59 20 -129 41 -142 18 -11 17 -12 -3 -34 -27 -29
-14 -46 33 -41 33 3 34 5 37 48 1 25 3 81 2 124 0 72 9 106 30 106 4 0 22 -39
40 -86 18 -48 41 -95 51 -105 10 -10 19 -35 21 -56 3 -36 5 -38 39 -41 30 -3
36 0 34 15 -4 39 -18 84 -27 89 -5 3 -2 16 7 30 13 21 14 28 2 52 -8 15 -29
81 -47 147 -17 66 -36 131 -41 144 -7 15 -6 28 2 37 9 11 15 8 33 -19 33 -48
51 -46 79 10 13 26 27 61 31 77 6 26 6 27 -9 12 -24 -23 -28 -20 -9 9 13 19
14 28 5 39 -20 23 -46 12 -48 -20 -1 -16 1 -21 3 -11 3 9 9 17 13 17 13 0 9
-25 -6 -39 -11 -10 -16 -6 -29 24 -10 25 -25 41 -45 48 -18 7 -27 17 -24 25 3
8 5 18 5 23 0 6 5 7 11 4 6 -4 8 -13 5 -20 -9 -25 7 -24 27 2 30 38 29 62 -4
79 -40 20 -67 17 -93 -11z m39 -5 c-3 -5 -12 -10 -18 -10 -7 0 -6 4 3 10 19
12 23 12 15 0z m55 -10 c8 -5 11 -10 5 -10 -5 0 -4 -4 3 -9 10 -6 10 -10 -3
-21 -13 -11 -14 -10 -9 5 6 14 4 16 -6 10 -10 -6 -12 -4 -6 10 13 34 -24 -6
-39 -42 -8 -19 -19 -32 -24 -29 -5 4 -15 -2 -21 -11 -10 -16 -11 -16 -5 2 4
11 9 32 11 48 3 22 1 25 -9 16 -12 -11 -16 -27 -18 -71 0 -18 -10 -23 -22 -11
-4 3 -2 12 3 18 11 14 9 42 -5 65 -8 13 -7 13 8 1 14 -11 18 -11 23 3 4 10 13
14 23 12 9 -3 27 1 41 8 31 18 32 18 50 6z m-162 -42 c19 -19 14 -56 -8 -68
-25 -13 -27 5 -2 20 14 8 12 9 -10 4 -21 -5 -26 -2 -25 13 2 18 17 42 28 43 3
0 10 -5 17 -12z m122 -61 c17 -13 18 -34 6 -84 -14 -54 -32 -58 -27 -7 2 29
-3 53 -13 68 -12 19 -12 26 -3 29 18 8 21 7 37 -6z m-157 -17 c3 -10 -1 -24
-8 -30 -9 -7 -12 -3 -13 20 -1 34 13 41 21 10z m70 -36 c-3 -8 -9 -14 -15 -14
-5 0 -7 -4 -3 -9 3 -5 1 -12 -4 -15 -5 -4 -13 -1 -16 5 -4 5 -13 8 -21 5 -20
-8 -17 11 7 46 20 27 22 28 39 13 10 -9 16 -23 13 -31z m124 -13 c-13 -25 -12
-29 3 -39 13 -8 21 -7 29 1 16 16 26 0 11 -18 -7 -9 -10 -18 -7 -21 3 -3 10 4
17 15 6 12 15 21 20 21 5 0 0 -16 -11 -35 -26 -43 -38 -44 -46 -5 -3 17 -14
35 -24 41 -14 7 -16 14 -10 27 6 9 13 31 17 47 5 21 8 25 11 13 3 -10 -2 -31
-10 -47z m-72 0 c10 -57 0 -71 -51 -71 l-45 0 30 33 c17 17 31 41 31 53 0 49
26 38 35 -15z m109 -22 c-11 -18 -24 -8 -24 19 1 26 1 26 15 8 8 -10 12 -23 9
-27z m46 7 c0 -3 -4 -8 -10 -11 -5 -3 -10 -1 -10 4 0 6 5 11 10 11 6 0 10 -2
10 -4z m-245 -15 c7 -12 -12 -24 -25 -16 -11 7 -4 25 10 25 5 0 11 -4 15 -9z
m63 -58 c-10 -2 -26 -2 -35 0 -10 3 -2 5 17 5 19 0 27 -2 18 -5z m-29 -29 c3
-3 0 -9 -5 -14 -7 -7 -17 -3 -30 11 -19 22 -19 22 6 14 14 -4 27 -9 29 -11z
m63 -6 c-7 -7 -12 -8 -12 -2 0 14 12 26 19 19 2 -3 -1 -11 -7 -17z m-97 -14
c26 -17 35 -64 13 -64 -26 0 -43 20 -43 50 0 35 -1 35 30 14z m61 -62 c-13
-12 -17 8 -9 44 l8 39 3 -39 c2 -21 1 -41 -2 -44z m64 65 c0 -8 -9 -22 -20
-32 -19 -18 -20 -17 -20 1 0 20 17 44 32 44 4 0 8 -6 8 -13z m2 -66 c-7 -34
-7 -89 1 -84 5 3 7 14 4 24 -3 10 -2 21 3 24 8 5 22 -49 25 -101 1 -17 8 -40
17 -52 17 -26 12 -78 -9 -86 -17 -7 -33 1 -33 16 0 7 6 6 15 -2 8 -7 15 -9 15
-5 0 9 -36 55 -41 52 -2 -1 4 6 13 15 16 16 15 20 -15 51 -58 61 -95 137 -67
137 6 0 10 -7 10 -15 0 -8 5 -15 10 -15 6 0 10 8 10 18 0 10 5 23 12 30 14 14
34 10 30 -7z m-92 -52 c0 -4 -9 -18 -21 -33 -16 -20 -24 -24 -34 -16 -8 7 -16
7 -19 2 -8 -13 18 -34 29 -24 5 4 5 1 1 -5 -4 -7 -2 -13 4 -13 6 0 8 -5 5 -10
-4 -7 -12 -7 -25 0 -30 16 -68 -8 -40 -25 6 -4 8 -10 5 -15 -3 -4 9 -20 27
-35 32 -27 48 -65 27 -65 -5 0 -7 5 -4 10 3 6 1 10 -4 10 -16 0 -13 -18 5 -28
19 -11 15 -54 -6 -59 -13 -4 -13 -3 0 6 12 9 11 11 -8 11 -20 0 -21 2 -10 21
11 17 10 22 -4 33 -18 13 -50 112 -45 142 1 10 11 49 22 86 l19 66 38 -26 c21
-15 38 -30 38 -33z m-60 -142 c0 -4 5 -5 10 -2 6 4 7 11 4 17 -5 7 -2 8 5 3 9
-5 10 -10 2 -18 -7 -7 -7 -14 0 -24 8 -9 8 -13 1 -13 -15 0 -52 50 -52 69 1
13 3 13 15 -3 8 -11 15 -24 15 -29z m160 11 c0 -6 -7 -5 -15 2 -8 7 -15 17
-15 22 0 6 7 5 15 -2 8 -7 15 -17 15 -22z m64 -113 c-3 -8 2 -22 12 -32 17
-17 17 -18 -4 -21 -13 -2 -19 -8 -16 -14 4 -6 1 -9 -7 -6 -16 6 -14 55 3 75
14 17 19 16 12 -2z"/>
<path d="M204 715 c-10 -26 1 -35 13 -10 6 14 7 25 2 25 -5 0 -12 -7 -15 -15z"/>
<path d="M224 615 c9 -30 12 -32 14 -15 2 13 -3 29 -11 37 -13 13 -13 10 -3
-22z"/>
<path d="M109 293 c-13 -16 -12 -17 4 -4 9 7 17 15 17 17 0 8 -8 3 -21 -13z"/>
<path d="M916 774 c-33 -32 -10 -53 26 -24 27 20 48 12 48 -19 0 -14 -1 -14
-10 -1 -5 8 -10 11 -10 5 0 -5 -5 -3 -10 5 -8 13 -10 13 -10 -2 0 -9 6 -18 13
-20 16 -6 17 -58 0 -58 -6 0 -17 8 -22 18 -6 9 -11 12 -11 5 0 -6 12 -21 28
-33 15 -12 21 -18 14 -15 -11 6 -11 3 0 -14 10 -16 10 -23 0 -33 -6 -6 -12
-22 -12 -33 0 -12 -9 -30 -21 -41 l-21 -19 18 32 c16 28 17 36 6 67 -7 20 -10
41 -6 47 4 7 3 9 -3 6 -16 -10 -23 18 -13 53 6 21 5 28 -2 24 -6 -4 -14 -1
-18 6 -4 7 -13 11 -19 9 -8 -3 -5 -12 8 -26 12 -12 17 -24 12 -27 -5 -3 0 -31
12 -62 27 -75 17 -106 -35 -109 -43 -2 -45 1 -19 29 13 14 20 38 21 71 4 90 2
105 -19 105 -11 0 -22 -8 -24 -17 -4 -16 -5 -16 -6 -1 0 9 6 24 15 33 15 15
14 15 -12 9 -16 -4 -35 -11 -41 -17 -18 -13 -17 -134 2 -186 13 -39 13 -44 -5
-74 -11 -18 -20 -41 -20 -52 0 -11 -9 -49 -20 -83 -11 -35 -20 -82 -20 -103 0
-59 20 -129 41 -142 18 -11 17 -12 -3 -34 -27 -29 -14 -46 33 -41 33 3 34 5
37 48 1 25 3 81 2 124 0 72 9 106 30 106 4 0 22 -39 40 -86 18 -48 41 -95 51
-105 10 -10 19 -35 21 -56 3 -36 5 -38 39 -41 30 -3 36 0 34 15 -4 39 -18 84
-27 89 -5 3 -2 16 7 30 13 21 14 28 2 52 -15 30 -71 226 -81 283 -5 29 -2 39
18 58 22 20 24 29 19 70 -4 34 -1 51 9 62 13 13 13 16 1 28 -10 9 -11 17 -5
23 7 7 7 19 1 35 -6 16 -5 22 1 18 6 -3 10 -12 10 -20 0 -8 5 -17 10 -20 6 -3
10 3 10 14 0 13 -12 26 -30 36 -37 19 -64 19 -84 -1z m-64 -132 c17 -4 19 -11
15 -38 -3 -18 -13 -44 -23 -59 -17 -25 -19 -26 -31 -9 -14 19 -18 38 -5 31 4
-3 7 7 8 21 0 15 4 35 8 45 5 10 4 17 -3 17 -6 0 -15 -15 -20 -32 l-9 -33 -1
33 c-1 21 5 35 14 38 12 5 13 10 4 20 -6 8 -8 21 -4 31 6 14 10 10 18 -21 6
-25 17 -40 29 -44z m8 40 c-10 -4 -9 -6 1 -13 7 -4 10 -11 6 -15 -16 -16 -29
13 -15 35 8 13 14 17 17 9 2 -7 -2 -14 -9 -16z m121 -135 c-10 -9 -11 -8 -5 6
3 10 9 15 12 12 3 -3 0 -11 -7 -18z m-81 -47 c11 -7 4 -10 -25 -9 -31 0 -36 2
-20 9 26 11 28 11 45 0z m29 -32 c-11 -21 -11 -22 4 -9 15 12 17 11 17 -7 0
-11 -6 -25 -14 -31 -11 -9 -15 -6 -19 16 -3 16 -1 34 5 41 16 19 20 14 7 -10z
m-71 -3 c2 -2 2 -11 0 -20 -2 -14 -7 -12 -28 10 l-25 27 25 -7 c14 -4 27 -9
28 -10z m-27 -26 c29 -20 40 -60 17 -58 -36 2 -53 17 -53 48 0 17 2 31 3 31 2
0 17 -9 33 -21z m68 -37 c-3 -35 1 -62 10 -62 5 0 11 12 13 28 2 16 9 27 18
27 8 0 14 -6 12 -13 -7 -35 -7 -92 -1 -108 5 -12 7 -3 5 24 -1 24 1 45 5 47 6
4 13 -23 26 -97 9 -60 -42 -37 -78 35 -11 20 -24 37 -30 37 -6 0 -7 9 -3 23 4
12 6 42 6 67 -2 36 0 41 9 27 5 -9 9 -25 8 -35z m-39 -73 c0 -4 -9 -18 -21
-33 -16 -20 -24 -24 -34 -16 -8 7 -16 7 -19 2 -8 -13 18 -34 29 -24 5 4 5 1 1
-5 -4 -7 -2 -13 4 -13 6 0 8 -5 5 -10 -4 -7 -12 -7 -25 0 -30 16 -68 -8 -40
-25 6 -4 8 -10 5 -15 -3 -4 9 -20 27 -35 32 -27 48 -65 27 -65 -5 0 -7 5 -4
10 3 6 1 10 -4 10 -16 0 -13 -18 5 -28 19 -11 15 -54 -6 -59 -13 -4 -13 -3 0
6 12 9 11 11 -8 11 -20 0 -21 2 -10 21 11 17 10 22 -4 33 -18 13 -50 112 -45
142 1 10 11 49 22 86 l19 66 38 -26 c21 -15 38 -30 38 -33z m-60 -142 c0 -4 5
-5 10 -2 6 4 7 11 4 17 -5 7 -2 8 5 3 9 -5 10 -10 2 -18 -7 -7 -7 -14 0 -24 8
-9 8 -13 1 -13 -15 0 -52 50 -52 69 1 13 3 13 15 -3 8 -11 15 -24 15 -29z
m155 4 c-5 -12 -2 -11 14 3 18 17 20 16 33 -3 8 -11 12 -35 10 -54 -3 -27 -8
-34 -25 -33 -11 1 -23 8 -25 16 -5 13 -3 13 11 1 10 -7 17 -10 17 -6 0 13 -37
54 -43 48 -4 -3 -5 4 -2 15 2 12 0 24 -6 27 -5 4 -9 11 -9 17 0 6 6 6 15 -2 9
-7 13 -20 10 -29z m70 -101 c-3 -5 2 -21 11 -35 16 -24 16 -25 -5 -25 -14 0
-20 -4 -15 -11 4 -7 1 -10 -7 -7 -16 6 -14 55 3 75 12 15 22 17 13 3z"/>
<path d="M819 293 c-13 -16 -12 -17 4 -4 16 13 21 21 13 21 -2 0 -10 -8 -17
-17z"/>
<path d="M951 694 c0 -11 3 -14 6 -6 3 7 2 16 -1 19 -3 4 -6 -2 -5 -13z"/>
<path d="M1024 659 c-2 -4 8 -9 23 -11 22 -2 28 -9 29 -28 2 -23 -10 -39 -29
-40 -5 0 -6 4 -3 9 3 5 -2 8 -11 7 -9 0 -18 5 -20 12 -4 9 2 11 24 6 33 -8 21
10 -14 21 -20 6 -23 3 -23 -24 0 -26 4 -31 35 -37 19 -3 56 -3 82 0 26 4 64 8
85 9 20 1 40 6 44 10 15 15 11 33 -7 34 -22 2 -24 -7 -6 -26 10 -11 9 -13 -6
-7 -10 3 -21 6 -23 6 -15 0 0 32 19 40 18 7 15 9 -20 9 -42 1 -43 0 -43 -30 0
-22 -4 -30 -14 -26 -7 3 -18 1 -24 -5 -6 -6 -15 -7 -21 -4 -19 12 -12 34 12
39 21 4 21 4 -3 6 -20 2 -22 4 -7 9 13 6 5 10 -28 18 -25 6 -48 7 -51 3z m166
-29 c0 -5 -4 -10 -10 -10 -5 0 -10 5 -10 10 0 6 5 10 10 10 6 0 10 -4 10 -10z"/>
<path d="M940 625 c0 -5 5 -17 10 -25 5 -8 10 -10 10 -5 0 6 -5 17 -10 25 -5
8 -10 11 -10 5z"/>
</g>
</svg>
