<?xml version="1.0" standalone="no"?>
<!DOCTYPE svg PUBLIC "-//W3C//DTD SVG 20010904//EN"
 "http://www.w3.org/TR/2001/REC-SVG-20010904/DTD/svg10.dtd">
<svg version="1.0" xmlns="http://www.w3.org/2000/svg"
 width="35.000000pt" height="79.000000pt" viewBox="0 0 35.000000 79.000000"
 preserveAspectRatio="xMidYMid meet">
<metadata>
Created by potrace 1.10, written by Peter Selinger 2001-2011
</metadata>
<g transform="translate(0.000000,79.000000) scale(0.100000,-0.100000)"
fill="#000000" stroke="none">
<path d="M81 526 c-35 -19 -33 -49 5 -90 41 -45 54 -45 48 -1 -4 35 3 41 44
36 19 -3 14 27 -8 49 -23 23 -55 25 -89 6z m74 -24 c-3 -3 -11 0 -18 7 -9 10
-8 11 6 5 10 -3 15 -9 12 -12z m-31 -6 c22 -11 24 -15 10 -20 -11 -4 -14 -13
-10 -31 4 -17 2 -25 -7 -25 -15 0 -19 29 -6 46 6 7 3 16 -6 24 -13 11 -14 10
-9 -5 6 -14 4 -16 -6 -10 -10 6 -12 4 -6 -10 5 -15 4 -16 -9 -5 -13 11 -13 15
-3 21 7 5 9 9 3 9 -5 0 -3 5 5 10 18 12 13 12 44 -4z"/>
<path d="M190 459 c0 -6 -5 -7 -12 -3 -7 5 -9 2 -6 -8 4 -8 2 -21 -3 -29 -7
-11 -9 -11 -9 -1 0 7 -5 10 -10 7 -8 -5 -7 -12 2 -23 7 -9 8 -13 2 -9 -18 10
-34 -16 -28 -44 4 -13 8 -39 11 -57 3 -18 9 -35 15 -38 5 -3 6 6 2 22 -5 18
-3 25 4 20 6 -4 16 3 22 14 14 27 38 25 50 -2 l9 -23 0 22 c1 12 6 25 11 28 6
4 8 11 5 16 -4 5 -1 9 4 9 6 0 10 -11 9 -25 -1 -14 -6 -25 -10 -25 -4 0 -8 -8
-8 -18 0 -25 -26 -59 -37 -48 -4 5 -2 11 5 13 6 3 12 9 12 14 0 6 -4 8 -9 5
-5 -3 -12 2 -15 11 -6 15 -8 15 -23 0 -16 -16 -16 -18 2 -32 19 -14 19 -14 -9
-12 -33 2 -59 35 -50 63 5 16 4 16 -5 4 -9 -12 -11 -11 -12 10 -3 40 -4 44
-13 59 -6 9 -5 12 2 7 6 -3 13 -2 17 4 4 6 -5 10 -19 10 -16 0 -26 6 -26 15 0
15 -21 21 -33 9 -8 -8 14 -54 25 -54 5 0 6 5 3 10 -3 6 -2 10 4 10 6 0 13 -11
16 -25 15 -74 16 -80 5 -65 -5 8 -10 10 -10 4 0 -16 25 -35 35 -26 5 4 5 2 2
-4 -4 -7 8 -25 27 -42 23 -20 31 -34 26 -43 -5 -7 -6 -17 -4 -21 3 -5 0 -7 -8
-6 -7 2 -12 -4 -10 -14 1 -9 -8 -24 -22 -33 -31 -21 -78 -16 -82 7 -2 19 -44
76 -44 61 0 -26 42 -90 70 -107 l32 -19 -31 -19 c-37 -23 -40 -38 -8 -38 15 0
18 3 9 8 -9 6 -5 12 13 22 31 17 32 33 3 48 -21 11 -21 12 -3 10 11 -2 25 0
31 4 6 4 11 -8 12 -33 2 -33 0 -39 -18 -39 -11 0 -20 -4 -20 -9 0 -8 23 -8
126 5 42 5 95 33 64 34 -9 0 -21 -5 -28 -12 -15 -15 -16 -3 -1 24 11 20 11 20
34 -2 22 -21 23 -21 28 -1 2 10 0 24 -7 31 -8 8 -7 13 4 20 8 5 18 10 21 10
11 0 7 -90 -3 -97 -7 -3 -8 -1 -4 5 4 7 2 12 -3 12 -6 0 -11 -6 -11 -12 0 -10
-2 -10 -9 0 -7 11 -9 10 -15 -3 -5 -13 0 -16 27 -13 32 3 32 4 33 57 1 44 -2
54 -17 58 -14 4 -17 11 -13 30 5 17 0 34 -16 55 -20 27 -20 31 -6 47 24 27 12
153 -18 179 -24 22 -86 37 -86 21z m34 -19 c-24 -9 -37 -35 -30 -59 7 -21 -28
-68 -38 -52 -4 6 -1 14 7 17 9 3 12 14 10 28 -6 32 24 76 51 75 l21 0 -21 -9z
m41 -40 c0 -19 -4 -24 -20 -22 -28 5 -39 18 -31 37 10 27 51 15 51 -15z m-110
-29 c3 -5 1 -12 -4 -15 -5 -3 -11 1 -15 9 -6 16 9 21 19 6z m88 -15 c3 -8 3
-17 0 -20 -9 -9 -34 15 -27 25 8 13 21 11 27 -5z m37 -81 c-27 -44 -38 -39
-14 7 10 18 17 38 15 43 -1 6 3 5 10 -2 9 -9 6 -20 -11 -48z m-75 -13 c-8 -8
-25 10 -19 20 4 6 9 5 15 -3 4 -7 6 -15 4 -17z m8 -39 c-7 -2 -19 -2 -25 0 -7
3 -2 5 12 5 14 0 19 -2 13 -5z m67 -20 c0 -16 2 -44 3 -63 1 -23 -2 -34 -10
-32 -7 1 -13 -2 -13 -8 0 -15 -26 -12 -39 4 -11 13 -15 12 -32 -2 -19 -16 -19
-17 4 -29 12 -7 16 -12 10 -13 -7 0 -13 -7 -13 -16 0 -13 6 -10 25 10 17 18
25 22 25 12 0 -23 -36 -43 -70 -38 -28 4 -29 5 -13 18 16 12 16 13 1 8 -14 -5
-16 0 -13 32 4 40 38 80 58 67 5 -3 7 -1 4 4 -12 19 25 24 45 7 17 -16 17 -18
1 -38 -12 -15 -10 -14 7 3 16 15 21 25 13 28 -7 2 -10 10 -7 18 4 9 -4 13 -29
11 -41 -2 -39 9 6 28 18 8 33 15 34 15 1 1 2 -11 3 -26z m-60 -113 c0 -5 -2
-10 -4 -10 -3 0 -8 5 -11 10 -3 6 -1 10 4 10 6 0 11 -4 11 -10z m80 -10 c0 -5
-4 -10 -10 -10 -5 0 -10 5 -10 10 0 6 5 10 10 10 6 0 10 -4 10 -10z"/>
<path d="M247 399 c4 -13 8 -18 11 -10 2 7 -1 18 -6 23 -8 8 -9 4 -5 -13z"/>
<path d="M169 123 c-13 -16 -12 -17 4 -4 9 7 17 15 17 17 0 8 -8 3 -21 -13z"/>
<path d="M20 393 c0 -4 7 -33 15 -63 8 -30 13 -54 12 -55 -23 -5 -42 -28 -44
-51 -1 -19 0 -21 4 -7 6 31 29 46 58 39 30 -8 68 -43 60 -55 -2 -5 2 -14 9
-20 10 -9 16 -9 21 -1 7 12 -44 78 -61 79 -6 1 -18 9 -28 20 -15 16 -15 19 -1
31 8 7 15 23 15 35 0 18 -4 22 -20 18 -14 -4 -20 0 -20 10 0 9 -4 19 -10 22
-5 3 -10 3 -10 -2z m50 -53 c0 -5 -4 -10 -10 -10 -5 0 -10 5 -10 10 0 6 5 10
10 10 6 0 10 -4 10 -10z"/>
<path d="M29 223 c-8 -9 -9 -14 -4 -11 6 3 18 -5 28 -18 21 -28 12 -32 -16 -6
-24 20 -17 5 21 -45 28 -38 50 -45 26 -8 -8 13 -13 29 -9 35 4 6 -3 22 -16 36
-12 13 -18 24 -12 24 5 0 20 -11 33 -26 18 -18 21 -27 12 -33 -9 -5 -5 -14 12
-31 l25 -23 -5 29 c-7 39 -45 94 -65 94 -9 0 -23 -8 -30 -17z"/>
</g>
</svg>
