<?xml version="1.0" standalone="no"?>
<!DOCTYPE svg PUBLIC "-//W3C//DTD SVG 20010904//EN"
 "http://www.w3.org/TR/2001/REC-SVG-20010904/DTD/svg10.dtd">
<svg version="1.0" xmlns="http://www.w3.org/2000/svg"
 width="35.000000pt" height="79.000000pt" viewBox="0 0 35.000000 79.000000"
 preserveAspectRatio="xMidYMid meet">
<metadata>
Created by potrace 1.10, written by Peter Selinger 2001-2011
</metadata>
<g transform="translate(0.000000,79.000000) scale(0.100000,-0.100000)"
fill="#000000" stroke="none">
<path d="M180 520 c-24 -24 -27 -55 -5 -46 10 4 15 -1 16 -17 1 -17 2 -18 6
-4 5 18 23 24 23 8 0 -20 -13 -41 -21 -35 -5 3 -9 -1 -9 -8 0 -10 -2 -10 -9 1
-5 8 -7 21 -3 29 3 10 1 13 -6 8 -7 -4 -12 -3 -12 3 0 16 -62 1 -86 -21 -30
-26 -42 -152 -18 -179 14 -16 14 -20 -6 -47 -16 -21 -21 -38 -16 -55 4 -19 1
-26 -13 -30 -15 -4 -18 -14 -17 -58 1 -53 1 -54 33 -57 27 -3 32 0 27 13 -6
13 -8 14 -15 3 -7 -10 -9 -10 -9 0 0 6 -5 12 -11 12 -5 0 -7 -5 -3 -12 4 -6 3
-8 -4 -5 -10 7 -14 97 -3 97 3 0 13 -5 21 -10 11 -7 12 -12 4 -20 -7 -7 -9
-21 -7 -31 5 -20 6 -20 28 1 23 22 23 22 34 2 15 -27 14 -39 -1 -24 -7 7 -19
12 -28 12 -31 -1 22 -29 64 -34 103 -13 126 -13 126 -5 0 5 -9 9 -20 9 -18 0
-20 6 -19 38 3 36 4 38 33 33 30 -4 30 -4 8 -14 -29 -13 -28 -30 3 -47 18 -10
22 -16 13 -22 -9 -5 -6 -8 10 -8 31 0 28 15 -9 38 l-31 19 32 19 c28 17 70 81
70 107 0 15 -42 -42 -44 -61 -4 -23 -51 -28 -82 -7 -14 9 -23 24 -22 33 2 10
-3 16 -10 14 -8 -1 -11 1 -8 6 2 4 1 14 -4 21 -5 9 3 23 26 43 19 17 31 35 27
42 -3 6 -3 8 2 4 10 -9 35 10 35 26 0 6 -5 4 -10 -4 -11 -15 -10 -9 5 65 3 14
10 25 16 25 6 0 7 -4 4 -10 -3 -5 -2 -10 3 -10 11 0 33 46 25 54 -12 12 -33 6
-33 -9 0 -9 -10 -15 -26 -15 -14 0 -23 -4 -19 -10 4 -6 11 -7 17 -4 7 5 8 2 2
-7 -9 -15 -10 -19 -13 -59 -1 -21 -3 -22 -12 -10 -9 12 -10 12 -5 -4 9 -28
-17 -61 -50 -64 -27 -2 -27 -1 -8 12 18 14 18 16 2 32 -16 16 -18 16 -24 1 -3
-9 -10 -14 -15 -11 -5 3 -9 0 -9 -5 0 -14 6 -14 33 0 21 11 21 10 -2 -11 -23
-23 -24 -23 -37 -5 -8 10 -14 27 -14 37 0 10 -4 18 -8 18 -4 0 -9 11 -10 25
-1 14 3 25 9 25 5 0 8 -4 4 -9 -3 -5 -1 -12 5 -16 5 -3 10 -16 11 -28 l0 -22
9 23 c12 27 36 29 50 2 6 -11 16 -18 22 -14 7 5 9 -2 4 -20 -4 -16 -3 -25 2
-22 6 3 12 20 15 38 3 18 7 44 11 57 6 27 -10 54 -27 44 -6 -3 -7 -1 -3 5 4 6
13 9 21 6 18 -7 78 58 80 87 1 13 -8 25 -26 35 -38 19 -65 18 -89 -6z m35 -10
c-3 -5 -12 -10 -18 -10 -7 0 -6 4 3 10 19 12 23 12 15 0z m55 -10 c8 -5 11
-10 5 -10 -5 0 -4 -4 3 -9 10 -6 10 -10 -3 -21 -13 -11 -14 -10 -9 5 6 14 4
16 -6 10 -10 -6 -12 -4 -6 10 5 15 4 16 -9 5 -9 -8 -12 -17 -6 -24 13 -17 9
-46 -6 -46 -9 0 -11 8 -7 25 4 18 1 27 -11 31 -14 6 -13 8 7 19 29 17 30 17
48 5z m-105 -76 c9 -14 15 -37 12 -50 -2 -14 1 -25 10 -28 8 -3 11 -11 8 -17
-10 -16 -48 29 -41 48 10 24 -3 53 -27 63 l-22 9 21 0 c13 1 29 -10 39 -25z
m-63 -6 c-7 -7 -12 -19 -12 -27 0 -10 5 -7 13 8 14 27 32 29 32 5 0 -23 -44
-39 -51 -19 -8 20 2 45 18 45 9 0 9 -3 0 -12z m208 -2 c0 -3 -4 -8 -10 -11 -5
-3 -10 -1 -10 4 0 6 5 11 10 11 6 0 10 -2 10 -4z m-96 -51 c-4 -8 -10 -12 -15
-9 -11 6 -2 24 11 24 5 0 7 -7 4 -15z m-80 -4 c7 -10 -18 -34 -27 -25 -7 8 3
34 13 34 5 0 11 -4 14 -9z m-67 -38 c-4 -3 3 -21 14 -40 12 -19 19 -36 16 -39
-8 -8 -49 65 -42 76 3 5 9 10 12 10 4 0 3 -3 0 -7z m70 -126 c6 -4 10 -17 8
-27 -2 -10 8 -28 23 -41 26 -23 26 -23 8 -1 -11 12 -14 22 -9 22 18 0 35 -28
38 -65 3 -31 1 -36 -13 -31 -15 5 -15 4 1 -8 16 -13 15 -14 -13 -18 -34 -5
-70 15 -70 38 0 10 8 6 25 -12 19 -20 25 -23 25 -10 0 9 -6 16 -12 16 -7 1 -3
6 9 13 22 12 22 13 4 29 -17 14 -20 14 -35 0 -12 -12 -20 -13 -40 -4 -21 9
-24 16 -20 49 3 21 5 48 5 60 -1 21 1 22 27 11 15 -7 32 -16 39 -21z m26 26
c-7 -2 -19 -2 -25 0 -7 3 -2 5 12 5 14 0 19 -2 13 -5z m-13 -127 c0 -3 -4 -8
-10 -11 -5 -3 -10 -1 -10 4 0 6 5 11 10 11 6 0 10 -2 10 -4z m-80 -16 c0 -5
-4 -10 -10 -10 -5 0 -10 5 -10 10 0 6 5 10 10 10 6 0 10 -4 10 -10z"/>
<path d="M84 174 c2 -6 0 -16 -5 -21 -6 -6 -1 -17 13 -29 l23 -19 -18 21 c-16
20 -16 21 0 36 10 8 25 18 33 21 8 3 0 5 -18 4 -20 -1 -31 -6 -28 -13z"/>
<path d="M313 381 c-4 -16 -11 -21 -24 -18 -15 4 -19 0 -19 -18 0 -12 7 -28
15 -35 14 -12 14 -15 -1 -31 -10 -11 -22 -19 -28 -20 -17 -1 -68 -67 -61 -79
5 -8 11 -8 21 1 7 6 11 15 9 20 -8 12 30 47 60 55 29 7 52 -8 58 -39 4 -14 5
-12 4 7 -2 23 -22 47 -44 51 -1 1 5 27 13 59 8 32 12 61 9 64 -3 3 -8 -4 -12
-17z m-13 -47 c0 -8 -4 -12 -10 -9 -5 3 -10 10 -10 16 0 5 5 9 10 9 6 0 10 -7
10 -16z"/>
<path d="M253 207 c-12 -17 -24 -45 -27 -61 l-5 -29 25 23 c18 18 21 26 12 32
-10 5 -6 14 14 34 24 24 29 26 45 13 16 -13 17 -12 4 4 -20 26 -43 21 -68 -16z"/>
<path d="M280 195 c-6 -8 -9 -19 -5 -25 4 -6 -1 -22 -9 -35 -24 -37 -2 -30 26
8 38 50 45 65 21 45 -27 -24 -40 -23 -18 2 10 11 13 20 8 20 -6 0 -16 -7 -23
-15z"/>
</g>
</svg>
