<?xml version="1.0" standalone="no"?>
<!DOCTYPE svg PUBLIC "-//W3C//DTD SVG 20010904//EN"
 "http://www.w3.org/TR/2001/REC-SVG-20010904/DTD/svg10.dtd">
<svg version="1.0" xmlns="http://www.w3.org/2000/svg"
 width="35.000000pt" height="54.000000pt" viewBox="0 0 35.000000 54.000000"
 preserveAspectRatio="xMidYMid meet">
<metadata>
Created by potrace 1.10, written by Peter Selinger 2001-2011
</metadata>
<g transform="translate(0.000000,54.000000) scale(0.100000,-0.100000)"
fill="#000000" stroke="none">
<path d="M180 520 c-18 -18 -28 -50 -15 -50 3 0 24 9 47 20 46 22 83 15 52
-11 -16 -13 -17 -12 -11 5 7 17 5 17 -9 5 -9 -8 -24 -14 -33 -14 -8 0 -17 -9
-19 -20 -4 -20 -4 -20 12 0 16 20 21 10 10 -19 -3 -9 -10 -13 -15 -10 -5 3 -9
-1 -9 -8 0 -10 -2 -10 -9 1 -5 8 -7 21 -3 29 3 10 1 13 -6 8 -7 -4 -12 -3 -12
3 0 16 -62 1 -86 -21 -30 -26 -42 -152 -18 -179 14 -16 14 -20 -6 -47 -16 -21
-21 -38 -16 -55 4 -19 1 -26 -13 -30 -15 -4 -18 -14 -17 -58 1 -53 1 -54 33
-57 27 -3 32 0 27 13 -6 13 -8 14 -15 3 -7 -10 -9 -10 -9 0 0 6 -5 12 -11 12
-5 0 -7 -5 -3 -12 4 -6 3 -8 -4 -5 -10 7 -14 97 -3 97 3 0 13 -5 21 -10 11 -7
12 -12 4 -20 -7 -7 -9 -21 -7 -31 5 -20 6 -20 28 1 23 22 23 22 34 2 15 -27
14 -39 -1 -24 -7 7 -19 12 -28 12 -31 -1 22 -29 64 -34 103 -13 126 -13 126
-5 0 5 -9 9 -20 9 -18 0 -20 6 -19 38 3 36 4 38 33 33 30 -4 30 -4 8 -14 -29
-13 -28 -30 3 -47 18 -10 22 -16 13 -22 -9 -5 -6 -8 10 -8 31 0 28 15 -9 38
l-31 19 34 21 c76 47 90 183 21 197 -1 1 5 27 13 59 8 32 12 61 9 64 -3 3 -8
-4 -12 -17 -4 -16 -11 -21 -24 -18 -15 4 -19 0 -19 -18 0 -12 6 -28 14 -35 19
-15 10 -37 -17 -46 -23 -7 -72 -62 -72 -80 0 -7 -4 -16 -9 -21 -5 -4 -7 -3 -3
2 3 6 2 17 -3 24 -5 9 3 23 26 43 19 17 31 35 27 42 -3 6 -3 8 2 4 10 -9 35
10 35 26 0 6 -5 4 -10 -4 -11 -15 -10 -9 5 65 3 14 10 25 16 25 6 0 7 -4 4
-10 -3 -5 -2 -10 3 -10 11 0 33 46 25 54 -12 12 -33 6 -33 -9 0 -9 -10 -15
-26 -15 -14 0 -23 -4 -19 -10 4 -6 11 -7 17 -4 7 5 8 2 2 -7 -9 -15 -10 -19
-13 -59 -1 -20 -3 -22 -12 -10 -8 12 -9 11 -4 -6 3 -13 -1 -29 -12 -41 -10
-10 -15 -14 -12 -8 4 5 9 24 12 40 3 17 8 41 11 54 6 27 -10 54 -27 44 -6 -3
-7 -1 -3 5 4 6 13 9 21 6 18 -7 78 58 80 87 1 13 -8 25 -26 35 -38 19 -65 18
-89 -6z m35 -10 c-3 -5 -12 -10 -18 -10 -7 0 -6 4 3 10 19 12 23 12 15 0z m75
-34 c0 -2 -7 -9 -15 -16 -13 -11 -14 -10 -9 4 5 14 24 23 24 12z m-43 -36 c-1
-11 -8 -20 -15 -20 -9 0 -12 6 -8 16 3 9 6 20 6 25 0 6 4 8 9 4 6 -3 9 -14 8
-25z m-82 -16 c9 -14 15 -37 12 -50 -2 -14 1 -25 10 -28 8 -3 11 -11 8 -17
-10 -16 -48 29 -41 48 10 24 -3 53 -27 63 l-22 9 21 0 c13 1 29 -10 39 -25z
m-30 -19 c0 -11 -8 -21 -19 -23 -15 -3 -18 0 -13 17 3 13 1 19 -5 15 -5 -3 -8
-15 -5 -25 3 -11 1 -17 -4 -13 -11 6 -12 38 -2 48 14 14 48 1 48 -19z m175 11
c0 -3 -4 -8 -10 -11 -5 -3 -10 -1 -10 4 0 6 5 11 10 11 6 0 10 -2 10 -4z m-96
-51 c-4 -8 -10 -12 -15 -9 -11 6 -2 24 11 24 5 0 7 -7 4 -15z m-80 -4 c7 -10
-18 -34 -27 -25 -7 8 3 34 13 34 5 0 11 -4 14 -9z m-39 -10 c-3 -5 -1 -12 5
-16 5 -3 10 -16 11 -28 l0 -22 9 23 c12 27 36 29 50 2 6 -11 15 -18 21 -15 5
4 9 0 9 -7 -1 -19 -25 -48 -40 -48 -9 0 -8 5 4 19 15 16 15 20 1 31 -12 10
-16 9 -21 -4 -3 -9 -10 -13 -15 -10 -5 3 -9 1 -9 -5 0 -5 6 -11 13 -14 6 -2 8
-8 4 -13 -11 -11 -37 23 -37 48 0 10 -4 18 -8 18 -4 0 -9 11 -10 25 -1 14 3
25 9 25 5 0 8 -4 4 -9z m205 -17 c0 -8 -4 -12 -10 -9 -5 3 -10 10 -10 16 0 5
5 9 10 9 6 0 10 -7 10 -16z m-233 -11 c-4 -3 3 -21 14 -40 12 -19 19 -36 16
-39 -8 -8 -49 65 -42 76 3 5 9 10 12 10 4 0 3 -3 0 -7z m98 -54 c-4 -5 -12 -9
-18 -8 -9 0 -8 2 1 6 6 2 9 10 6 15 -4 7 -2 8 5 4 6 -4 9 -12 6 -17z m163 -21
c17 -17 15 -68 -4 -89 -8 -9 -17 -26 -18 -36 -4 -24 -50 -29 -82 -8 -18 12
-24 24 -22 43 7 66 91 125 126 90z m-191 -53 c9 -8 3 -10 -23 -9 -26 2 -34 -2
-30 -11 3 -8 0 -16 -7 -18 -8 -3 -3 -13 13 -28 17 -17 19 -18 7 -3 -16 20 -16
22 3 39 20 18 21 18 36 -1 8 -10 12 -12 8 -5 -4 9 6 6 24 -8 18 -12 32 -27 32
-33 0 -7 -7 -6 -18 3 -10 8 -8 4 4 -8 26 -24 29 -67 4 -58 -11 4 -10 1 3 -9
16 -13 15 -14 -13 -18 -34 -5 -70 15 -70 38 0 10 8 6 25 -12 19 -20 25 -23 25
-10 0 9 -6 16 -12 16 -7 1 -3 6 9 13 23 12 23 13 4 29 -17 14 -21 15 -32 2
-15 -18 -29 -18 -56 1 -19 14 -21 19 -12 43 6 15 11 39 11 54 -1 25 1 26 26
16 15 -7 33 -17 39 -23z m26 28 c-7 -2 -19 -2 -25 0 -7 3 -2 5 12 5 14 0 19
-2 13 -5z m-13 -127 c0 -3 -4 -8 -10 -11 -5 -3 -10 -1 -10 4 0 6 5 11 10 11 6
0 10 -2 10 -4z m-80 -16 c0 -5 -4 -10 -10 -10 -5 0 -10 5 -10 10 0 6 5 10 10
10 6 0 10 -4 10 -10z"/>
<path d="M256 209 c-14 -17 -26 -36 -27 -42 0 -7 -2 -20 -4 -31 -3 -16 -1 -15
21 5 18 16 21 25 12 30 -17 10 31 62 50 54 7 -2 10 0 7 5 -11 18 -33 10 -59
-21z"/>
<path d="M280 195 c-6 -8 -9 -19 -5 -25 4 -6 -1 -22 -9 -35 -24 -37 -2 -30 26
8 38 50 45 65 21 45 -27 -24 -40 -23 -18 2 10 11 13 20 8 20 -6 0 -16 -7 -23
-15z"/>
</g>
</svg>
