<?xml version="1.0" standalone="no"?>
<!DOCTYPE svg PUBLIC "-//W3C//DTD SVG 20010904//EN"
 "http://www.w3.org/TR/2001/REC-SVG-20010904/DTD/svg10.dtd">
<svg version="1.0" xmlns="http://www.w3.org/2000/svg"
 width="270.000000pt" height="73.000000pt" viewBox="0 0 270.000000 73.000000"
 preserveAspectRatio="xMidYMid meet">
<metadata>
Created by potrace 1.10, written by Peter Selinger 2001-2011
</metadata>
<g transform="translate(0.000000,73.000000) scale(0.100000,-0.100000)"
fill="#000000" stroke="none">
<path d="M2463 713 c-24 -16 -30 -47 -12 -59 7 -4 9 0 5 14 -5 14 0 25 16 36
32 23 58 20 58 -5 0 -16 4 -20 18 -14 13 5 14 4 5 -6 -15 -15 -3 -41 40 -86
24 -26 29 -37 24 -62 -5 -26 -4 -29 13 -26 12 2 24 -4 30 -15 13 -25 13 -26
-11 -27 -17 -2 -18 1 -8 13 10 12 9 13 -3 9 -8 -3 -19 0 -25 7 -16 21 -22 57
-9 61 8 3 8 8 -1 18 -11 11 -13 10 -13 -3 0 -11 -6 -15 -18 -11 -10 2 -27 -6
-41 -21 -31 -33 -42 -33 -63 4 -10 17 -28 35 -40 40 l-23 9 23 0 c13 1 21 5
17 10 -3 5 -1 12 5 16 5 3 10 11 10 18 0 6 -20 -9 -45 -33 -37 -36 -43 -48
-38 -69 9 -40 33 -83 61 -113 24 -26 24 -29 9 -46 -9 -10 -17 -23 -17 -28 0
-5 -15 -21 -34 -36 -19 -15 -50 -56 -70 -92 -20 -36 -41 -68 -46 -71 -5 -3 -7
-18 -4 -34 5 -22 0 -33 -26 -54 -17 -15 -35 -27 -39 -27 -4 0 -8 -7 -8 -15 0
-8 7 -15 14 -15 8 0 11 5 8 10 -3 6 1 10 10 10 9 0 14 4 11 8 -5 9 43 57 49
50 1 -2 6 -19 9 -38 5 -21 4 -30 -2 -22 -7 10 -14 9 -38 -3 l-29 -16 40 3 c37
3 40 5 43 36 2 23 8 32 21 32 21 0 91 73 91 94 0 8 22 30 49 49 l49 36 7 -39
c4 -21 22 -64 41 -96 19 -31 34 -65 34 -75 0 -11 6 -19 13 -19 8 0 7 -4 -3
-10 -11 -7 -4 -10 27 -10 40 0 41 1 37 27 -3 14 -9 34 -15 44 -6 11 -6 20 1
24 13 8 13 57 -1 92 -6 15 -12 71 -13 124 -1 80 -4 101 -20 118 -17 19 -43 20
-31 1 3 -4 -2 -13 -10 -20 -8 -7 -15 -9 -15 -5 0 4 -6 3 -13 -3 -14 -12 -58
-12 -51 -1 2 4 14 5 27 2 21 -5 21 -5 3 9 -13 10 -16 17 -7 22 6 4 14 0 17 -9
6 -14 10 -13 28 10 20 25 24 26 45 14 20 -13 24 -12 47 14 30 35 30 50 2 88
-12 16 -27 44 -33 61 -5 17 -22 39 -37 47 -15 9 -37 28 -48 44 -24 31 -62 35
-97 10z m115 -50 c-2 -5 7 -18 20 -30 12 -13 22 -29 22 -35 0 -7 -14 1 -31 19
-17 17 -28 36 -25 42 8 12 17 15 14 4z m61 -62 c0 -14 -1 -14 -6 -1 -3 8 -10
24 -15 35 -9 20 -9 20 6 1 9 -11 16 -27 15 -35z m17 -33 c4 -6 2 -14 -5 -16
-8 -3 -4 -9 11 -16 12 -6 24 -20 26 -31 2 -18 2 -19 -8 -2 -6 9 -17 17 -24 17
-14 0 -26 21 -26 46 0 17 16 18 26 2z m-206 -23 c7 -9 11 -16 9 -18 -55 -31
-69 -31 -69 3 0 30 40 40 60 15z m128 -4 c18 -11 12 -43 -9 -46 -12 -2 -15 4
-12 24 4 20 2 23 -6 11 -6 -8 -11 -24 -11 -35 0 -16 -2 -17 -9 -6 -6 9 -4 23
6 38 17 25 21 27 41 14z m-108 -35 c0 -1 -5 -17 -11 -35 -9 -25 -14 -29 -25
-20 -15 12 -19 41 -7 52 6 7 43 10 43 3z m58 -27 c12 -18 10 -25 -13 -55 -14
-19 -31 -34 -37 -34 -7 0 1 14 17 30 16 17 24 30 17 30 -6 0 -18 -9 -26 -21
-16 -24 -38 -17 -29 9 7 19 43 62 52 62 4 0 12 -9 19 -21z m72 -3 c0 -7 -7
-19 -15 -26 -13 -10 -18 -11 -28 -1 -9 10 -8 15 7 27 25 18 36 18 36 0z m19
-83 c-12 -15 -12 -16 4 -10 9 3 17 2 17 -2 0 -5 3 -18 6 -28 5 -17 5 -17 -10
1 -10 12 -23 17 -41 14 -14 -3 -25 -1 -25 3 0 5 7 9 15 9 8 0 19 9 25 21 7 11
14 18 17 15 3 -3 0 -13 -8 -23z m-92 -27 c4 -5 -5 -6 -22 -3 -27 5 -28 4 -10
-9 18 -14 18 -14 -2 -14 -12 0 -25 5 -28 10 -4 6 -12 7 -18 3 -8 -4 -8 -1 1 9
13 16 65 19 79 4z m110 -53 c-4 -3 -7 0 -8 8 0 8 -7 -11 -15 -41 -8 -31 -12
-70 -9 -88 6 -31 4 -33 -17 -30 -13 2 -24 11 -26 22 -3 11 0 16 7 12 6 -4 4
11 -4 35 -21 58 -19 76 10 105 l25 25 22 -20 c12 -12 18 -24 15 -28z m-151 15
c4 4 3 0 -2 -8 -6 -8 -14 -28 -18 -44 -4 -15 -9 -26 -12 -24 -2 3 -20 -10 -39
-29 -21 -21 -41 -33 -50 -29 -8 3 -17 1 -20 -4 -4 -6 -1 -11 4 -11 6 -1 16 -3
21 -4 6 -1 17 -3 25 -4 8 0 15 -5 15 -11 0 -15 -61 -80 -75 -80 -8 0 0 13 16
29 16 16 29 35 29 42 0 7 -18 -5 -40 -26 -42 -41 -51 -35 -25 15 9 17 12 30 9
30 -4 0 0 8 8 18 9 9 19 28 23 42 11 35 96 112 110 100 7 -6 16 -6 21 -2z m34
-18 c-20 -28 -19 -34 5 -31 17 2 -58 -59 -97 -80 -54 -28 -56 -24 -6 14 23 18
48 43 54 55 11 22 54 72 61 72 3 0 -5 -13 -17 -30z m118 -82 c-1 -41 -7 -70
-17 -82 -12 -14 -13 -20 -3 -23 6 -3 9 -9 6 -15 -4 -6 -1 -9 7 -6 8 3 20 15
26 29 13 24 13 24 13 2 0 -20 -45 -63 -54 -52 -33 43 -34 50 -10 74 24 24 34
52 14 40 -5 -3 -10 -3 -10 0 0 12 22 95 26 95 2 0 3 -28 2 -62z m16 -72 c-3
-14 -11 -26 -16 -26 -5 0 -7 6 -4 13 3 6 9 20 12 30 10 27 16 13 8 -17z m4
-98 c19 -19 14 -28 -13 -28 -18 0 -25 5 -25 20 0 22 20 26 38 8z"/>
<path d="M2506 679 c2 -18 -2 -26 -12 -26 -10 0 -14 7 -11 19 4 12 1 18 -6 15
-7 -2 -11 -19 -10 -37 1 -18 -2 -41 -7 -49 -5 -11 1 -26 21 -51 16 -19 29 -29
29 -22 0 19 -4 27 -12 25 -4 -2 -13 7 -19 20 -10 19 -10 20 2 11 17 -14 77
-16 85 -3 3 5 11 6 17 2 6 -4 -7 15 -30 42 -22 28 -43 57 -46 65 -2 8 -3 3 -1
-11z m-9 -49 c-3 -13 0 -20 10 -20 8 0 11 5 8 10 -3 6 -3 15 1 21 11 19 24
-13 13 -33 -10 -19 -39 -25 -39 -7 0 5 -5 7 -12 3 -6 -4 -9 -3 -6 2 3 5 8 17
11 27 9 24 21 22 14 -3z m63 -41 c0 -5 -7 -9 -15 -9 -9 0 -12 6 -9 15 6 15 24
11 24 -6z"/>
<path d="M1682 684 c-16 -11 -22 -24 -20 -42 2 -15 9 -26 16 -24 19 3 15 -7
-18 -45 -41 -46 -41 -94 1 -156 17 -26 33 -47 36 -47 2 0 1 5 -3 12 -4 7 -3 8
5 4 14 -9 -3 -36 -22 -36 -6 0 -17 -6 -26 -14 -64 -57 -81 -77 -81 -94 0 -11
-7 -38 -15 -61 -13 -39 -13 -44 10 -86 13 -25 20 -45 15 -45 -4 0 -10 -10 -13
-21 -4 -14 -11 -20 -21 -16 -8 3 -18 2 -21 -3 -4 -6 9 -10 30 -10 36 0 38 3
49 53 4 15 12 27 19 27 7 0 21 19 31 43 33 78 38 85 70 90 17 3 38 8 47 11 11
5 21 -7 37 -47 13 -30 39 -73 58 -96 35 -41 35 -41 70 -26 32 13 35 13 45 -6
6 -12 8 -23 5 -27 -3 -3 -6 0 -6 7 0 10 -7 9 -26 -4 -15 -9 -23 -12 -20 -6 4
6 2 11 -3 11 -6 0 -11 -5 -11 -11 0 -5 -4 -7 -10 -4 -5 3 -10 1 -10 -4 0 -14
55 -14 81 -1 22 12 25 43 5 59 -8 7 -12 20 -9 29 2 10 -11 41 -31 69 -29 42
-37 64 -42 120 -4 37 -13 80 -20 95 -10 19 -11 29 -3 34 15 9 5 81 -15 103 -9
10 -16 27 -16 39 0 12 -4 22 -9 22 -6 0 -8 10 -6 22 6 29 -13 52 -31 37 -7 -6
-19 -8 -26 -4 -7 4 -4 -1 6 -9 11 -9 24 -16 29 -16 5 0 7 -7 4 -15 -4 -8 -2
-17 3 -20 6 -4 9 -21 9 -38 l-2 -32 -4 30 c-3 17 -12 38 -20 48 -9 9 -12 17
-7 18 5 0 -1 4 -13 9 -25 10 -51 49 -30 46 6 -1 18 -5 25 -10 28 -17 25 6 -3
29 -35 29 -62 31 -93 9z m5 -35 c-8 -21 -13 -26 -15 -15 -2 10 2 23 8 31 18
22 20 18 7 -16z m88 -51 c7 -5 7 -8 0 -8 -6 0 -17 6 -24 13 -11 10 -13 9 -8
-5 6 -18 -19 -46 -31 -33 -4 4 -2 10 5 12 7 2 10 10 7 18 -3 7 0 16 6 20 8 5
5 12 -9 22 -12 8 -19 19 -16 24 4 5 18 -6 33 -23 15 -18 31 -36 37 -40z m-62
35 c3 -5 1 -17 -4 -28 -4 -11 -8 -15 -8 -8 -1 6 -4 18 -7 27 -6 16 11 23 19 9z
m64 -65 c-2 -7 -10 -12 -16 -10 -7 1 -10 -2 -6 -8 3 -5 1 -10 -4 -10 -14 0
-14 13 1 28 16 16 31 15 25 0z m-25 -58 c-1 -6 2 -9 7 -6 13 9 34 -21 27 -40
-3 -8 -11 -12 -17 -9 -6 4 -8 13 -5 21 3 8 -1 14 -8 14 -7 0 -21 9 -31 20 -25
27 -63 26 -75 -2 -7 -18 -9 -19 -9 -5 -1 10 6 29 15 43 l17 24 41 -24 c22 -14
40 -30 38 -36z m58 24 c0 -14 -4 -23 -10 -19 -5 3 -8 11 -6 18 1 7 1 9 -1 4
-3 -4 -9 -4 -15 -1 -5 3 -4 -2 2 -13 7 -10 26 -27 44 -37 18 -11 26 -21 18
-23 -6 -3 -9 -9 -6 -14 7 -13 -15 -41 -27 -33 -5 3 -7 10 -3 15 3 5 10 7 15 4
5 -4 9 -1 9 4 0 6 -4 11 -10 11 -5 0 -10 7 -10 15 0 9 -12 27 -27 40 -28 23
-28 23 -8 43 24 24 35 19 35 -14z m49 -18 c9 -10 8 -15 -4 -20 -10 -4 -15 1
-15 14 0 24 4 25 19 6z m-164 -6 c4 -6 11 -7 17 -4 6 4 8 2 4 -4 -3 -5 -2 -12
3 -14 5 -1 -1 -10 -13 -19 -29 -22 -57 -5 -45 29 9 23 24 29 34 12z m45 -93
c-9 -16 -9 -21 2 -28 17 -11 26 -11 33 1 3 6 -1 7 -9 4 -21 -8 -20 10 0 27 14
11 19 10 34 -8 10 -12 20 -20 24 -18 3 3 3 2 0 -2 -3 -5 -7 -6 -9 -3 -1 3 -12
-4 -24 -14 -12 -11 -21 -16 -21 -12 0 4 -5 4 -10 1 -8 -5 -7 -12 2 -22 10 -13
9 -15 -7 -11 -12 2 -19 11 -17 20 1 8 -9 26 -23 39 -31 30 -31 43 -3 63 20 14
23 14 32 -1 6 -11 5 -23 -4 -36z m138 31 c-2 -12 -9 -23 -16 -24 -8 -2 -8 0
-1 3 8 4 7 8 -2 14 -11 7 -11 9 -1 9 7 0 10 5 7 10 -3 6 -1 10 5 10 6 0 10
-10 8 -22z m-8 -109 c0 -45 -5 -47 -47 -16 l-32 23 22 14 c19 11 21 11 12 -1
-5 -8 -2 -6 7 4 10 11 15 24 11 31 -4 6 1 5 10 -3 11 -8 17 -28 17 -52z m-144
-3 c3 -8 20 -20 37 -27 29 -11 30 -13 10 -16 -28 -5 -83 23 -83 42 0 19 29 20
36 1z m17 -101 c-36 -16 -74 -9 -95 15 -9 11 -20 20 -24 20 -4 0 0 -8 9 -18
10 -10 14 -22 10 -26 -5 -4 1 -14 11 -22 16 -11 16 -14 4 -14 -8 0 -20 10 -26
23 l-11 22 0 -25 c-1 -15 7 -30 20 -39 16 -9 18 -15 10 -21 -7 -4 -13 -13 -14
-21 -7 -46 -40 -51 -62 -9 -17 32 -20 54 -5 30 7 -11 10 1 10 41 0 61 9 77 60
112 l35 23 48 -40 48 -40 -28 -11z m125 35 c6 0 13 8 15 18 3 9 6 -3 7 -28 2
-25 4 -57 5 -72 2 -30 -24 -61 -42 -50 -7 4 -21 29 -32 56 -12 26 -31 56 -44
67 -22 18 -22 18 -1 19 11 0 31 -11 44 -25 18 -20 26 -22 37 -13 12 10 10 14
-11 25 -14 8 -26 19 -26 25 0 6 8 4 18 -5 10 -10 24 -17 30 -17z m46 -134 c-4
-29 -10 -44 -16 -38 -6 6 -5 25 3 51 16 53 21 47 13 -13z m36 -50 c-18 -22
-32 -9 -29 27 4 49 11 54 27 19 12 -25 13 -34 2 -46z m-59 2 c17 -24 18 -29 6
-19 -18 14 -42 51 -33 51 3 0 15 -15 27 -32z"/>
<path d="M1851 365 c0 -12 -6 -26 -13 -33 -9 -9 -9 -12 0 -12 16 0 25 23 19
47 -4 16 -5 15 -6 -2z"/>
<path d="M1653 273 c17 -17 83 -30 73 -15 -4 7 -18 12 -32 12 -14 0 -23 4 -20
8 2 4 -4 8 -15 8 -15 0 -17 -3 -6 -13z"/>
<path d="M1603 194 c0 -44 4 -61 14 -61 15 0 17 19 4 32 -5 6 -12 28 -14 50
-3 27 -4 20 -4 -21z"/>
<path d="M1867 233 c-3 -5 -1 -17 4 -28 7 -17 8 -17 8 8 1 27 -4 34 -12 20z"/>
<path d="M153 650 c-34 -20 -43 -50 -20 -67 15 -12 47 -13 47 -1 0 4 5 8 10 8
6 0 10 -7 10 -16 0 -11 -6 -15 -20 -11 -11 3 -22 1 -25 -3 -3 -5 -22 -7 -43
-4 -34 4 -32 0 8 -12 12 -5 12 -7 -3 -15 -12 -7 -22 -7 -31 0 -7 6 -15 9 -17
6 -3 -2 -6 8 -7 22 -1 14 -7 32 -13 39 -14 17 -39 18 -40 2 0 -7 -2 -26 -4
-43 -5 -35 9 -55 39 -55 18 -1 19 -2 5 -13 -23 -17 -38 -50 -34 -73 2 -10 4
-25 4 -32 1 -8 10 -12 24 -10 17 2 23 11 25 35 3 29 6 31 48 35 42 3 44 2 44
-24 0 -17 9 -34 23 -45 l24 -17 -61 -32 c-33 -18 -65 -38 -70 -46 -12 -20 12
-158 29 -158 7 0 15 -8 18 -17 2 -10 8 -26 12 -35 5 -13 1 -20 -16 -27 -15 -6
-18 -10 -8 -10 9 -1 23 7 33 18 15 16 15 19 1 31 -9 7 -13 15 -10 18 3 3 16
-5 30 -18 28 -26 35 -66 10 -57 -8 4 -17 2 -20 -3 -7 -11 -65 -10 -65 2 0 4
-4 8 -8 8 -5 0 -9 -7 -9 -16 0 -14 9 -16 60 -11 33 3 64 10 69 15 17 17 -15
86 -41 90 -12 2 -27 15 -34 30 -6 15 -14 29 -18 32 -3 3 -6 12 -7 20 0 8 -3
31 -7 50 -6 34 -5 36 43 61 l50 26 26 -28 c24 -25 34 -49 21 -49 -4 0 -20 7
-38 16 -18 9 -27 12 -22 6 6 -6 24 -18 40 -26 l30 -16 -26 0 c-14 0 -38 11
-53 25 -34 31 -47 33 -19 2 11 -12 24 -29 28 -37 8 -13 7 -13 -10 0 -19 14
-19 14 -4 -10 8 -14 19 -34 23 -44 7 -19 6 -19 -12 -3 -10 10 -25 35 -32 58
-8 22 -17 42 -20 44 -12 8 9 -88 25 -112 16 -24 32 -33 19 -11 -4 8 -3 10 2 5
5 -5 9 -14 9 -19 0 -6 6 -13 13 -16 11 -3 13 6 10 38 -2 32 1 45 14 54 14 8
21 6 32 -9 15 -20 15 -19 17 5 l1 25 7 -25 8 -25 13 27 c7 16 18 28 23 28 5 0
46 -36 91 -80 68 -66 88 -80 114 -80 29 0 32 -3 32 -32 0 -26 -3 -30 -11 -18
-9 13 -10 13 -6 0 2 -8 12 -17 22 -18 14 -3 17 1 11 22 -9 35 4 108 18 103 10
-3 16 -36 16 -101 0 -21 4 -26 12 -18 7 7 8 29 2 68 -8 48 -13 59 -32 64 -12
3 -31 19 -42 37 -11 18 -29 38 -41 45 -21 13 -89 110 -89 127 0 5 -12 19 -26
30 -26 20 -27 25 -25 107 2 77 0 89 -20 110 -12 13 -33 24 -45 24 -13 0 -34
11 -48 25 -30 30 -51 31 -93 5z m77 -71 c-1 -10 -5 -9 -14 4 -7 9 -18 17 -24
17 -16 0 -23 16 -16 34 5 12 11 10 30 -13 13 -16 24 -35 24 -42z m-64 39 c0
-23 -13 -23 -20 0 -3 9 -4 5 -2 -10 2 -15 -1 -25 -5 -22 -10 6 -12 38 -4 46
12 11 31 3 31 -14z m90 -15 c-8 -8 -36 5 -36 17 0 7 6 7 21 0 11 -7 18 -14 15
-17z m60 -11 c32 -26 40 -146 13 -192 -17 -28 -24 -32 -54 -28 -41 5 -44 1
-12 -12 22 -9 22 -9 1 -9 -12 -1 -27 6 -34 14 -7 9 -15 13 -18 10 -3 -3 -11 0
-19 6 -18 16 -17 86 1 86 11 0 12 -5 5 -18 -12 -23 -12 -62 1 -54 6 3 10 14
10 23 0 10 7 28 16 40 14 21 18 22 33 9 9 -8 23 -17 31 -20 11 -4 9 -6 -5 -6
-12 -1 -26 4 -33 11 -9 9 -12 9 -12 0 0 -7 13 -15 30 -18 16 -4 27 -10 24 -15
-12 -20 16 -7 30 13 19 27 21 49 3 23 -9 -11 -16 -14 -20 -8 -4 6 0 16 8 23
18 15 20 91 3 108 -7 7 -20 12 -30 12 -10 0 -18 5 -18 10 0 15 23 12 46 -8z
m-271 -38 c0 -28 -4 -39 -15 -39 -8 0 -16 9 -17 20 -2 11 0 14 3 7 3 -6 10 -9
15 -6 6 3 5 11 -2 20 -8 10 -8 14 0 14 6 0 11 5 11 11 0 5 -4 7 -10 4 -5 -3
-10 -1 -10 5 0 7 6 10 13 8 7 -3 12 -21 12 -44z m258 12 c22 -17 22 -58 -1
-86 -18 -22 -50 -21 -36 1 3 5 9 7 14 4 4 -3 10 2 13 9 4 10 0 13 -11 11 -23
-5 -79 -25 -119 -42 -42 -18 -66 -13 -74 12 -5 19 -6 19 -17 -2 -7 -12 -13
-36 -15 -54 -2 -30 -27 -56 -27 -29 0 6 4 8 10 5 5 -3 10 -1 10 4 0 6 -5 11
-12 11 -9 0 -9 3 0 12 8 8 9 15 1 25 -11 12 -9 14 7 12 3 0 12 8 19 18 10 14
11 21 2 33 -10 13 -10 13 4 3 9 -7 19 -10 22 -7 3 4 20 7 38 8 18 1 34 7 37
14 2 8 -2 10 -14 5 -12 -4 -15 -3 -10 6 5 7 14 10 20 8 7 -3 19 -1 26 3 8 5
22 4 32 -1 20 -11 24 -39 6 -40 -26 -1 -53 -8 -73 -18 -11 -5 -29 -11 -40 -13
-15 -3 -17 -5 -5 -9 8 -4 26 -2 40 4 14 6 41 16 60 22 28 9 35 16 33 36 -1 13
0 30 2 37 6 16 35 15 58 -2z m69 -224 c-4 -41 -24 -62 -60 -62 -33 0 -26 35 8
36 14 0 24 6 23 12 -2 7 1 12 5 12 4 0 8 8 8 19 0 15 -5 14 -28 -12 -16 -16
-31 -27 -34 -24 -9 8 59 65 71 61 6 -3 9 -21 7 -42z m-135 -32 c3 -23 3 -23
-17 -5 -24 22 -26 34 -3 31 9 -2 18 -13 20 -26z m189 -32 c8 -16 12 -28 9 -28
-4 0 1 -7 9 -16 14 -13 22 -49 17 -76 0 -5 4 -8 10 -8 7 0 8 11 4 29 -4 17 -2
32 5 36 6 3 9 1 8 -7 -2 -7 3 -12 9 -11 7 2 20 -8 28 -21 19 -28 37 -89 25
-81 -5 3 -12 1 -15 -5 -4 -6 -26 6 -55 30 -26 22 -52 40 -56 40 -5 0 -22 16
-38 36 -15 20 -42 40 -58 46 l-30 11 41 18 c34 15 41 23 41 46 1 27 1 27 16 8
9 -11 22 -32 30 -47z m-159 15 c-3 -10 -5 -4 -5 12 0 17 2 24 5 18 2 -7 2 -21
0 -30z m-109 -138 c-3 -3 -9 2 -12 12 -6 14 -5 15 5 6 7 -7 10 -15 7 -18z
m-44 -10 c3 -8 1 -15 -4 -15 -6 0 -10 7 -10 15 0 8 2 15 4 15 2 0 6 -7 10 -15z"/>
<path d="M280 540 c-9 -6 -10 -10 -3 -10 6 0 15 5 18 10 8 12 4 12 -15 0z"/>
<path d="M406 277 c3 -10 9 -15 12 -12 3 3 0 11 -7 18 -10 9 -11 8 -5 -6z"/>
<path d="M505 160 c10 -11 20 -20 22 -20 2 0 -2 9 -9 20 -7 11 -17 20 -22 20
-5 0 -1 -9 9 -20z"/>
<path d="M873 650 c-34 -20 -43 -50 -20 -67 15 -12 47 -13 47 -1 0 4 5 8 10 8
6 0 10 -7 10 -16 0 -11 -6 -15 -20 -11 -11 3 -22 1 -25 -3 -3 -5 -22 -7 -43
-4 -34 4 -32 0 8 -12 12 -5 12 -7 -3 -15 -12 -7 -22 -7 -31 0 -7 6 -15 9 -17
6 -3 -2 -6 8 -7 22 -1 14 -7 32 -13 39 -14 17 -39 18 -40 2 0 -7 -2 -26 -4
-43 -5 -35 9 -55 39 -55 18 -1 19 -2 5 -13 -23 -17 -38 -50 -34 -73 2 -10 4
-25 4 -32 1 -8 10 -12 24 -10 17 2 23 11 25 35 3 29 6 31 48 35 42 3 44 2 44
-24 0 -17 9 -34 23 -45 l24 -17 -61 -32 c-33 -18 -65 -38 -70 -46 -12 -20 12
-158 29 -158 7 0 15 -8 18 -17 2 -10 8 -26 12 -35 5 -13 1 -20 -16 -27 -15 -6
-18 -10 -8 -10 9 -1 23 7 33 18 15 16 15 19 1 31 -9 7 -13 15 -10 18 3 3 16
-5 30 -18 28 -26 35 -66 10 -57 -8 4 -17 2 -20 -3 -7 -11 -65 -10 -65 2 0 4
-4 8 -8 8 -5 0 -9 -7 -9 -16 0 -14 9 -16 60 -11 33 3 64 10 69 15 17 17 -15
86 -43 92 -18 5 -29 20 -46 65 -32 88 -30 96 26 126 l49 26 26 -28 c24 -25 34
-49 21 -49 -4 0 -20 7 -38 16 -18 9 -27 12 -22 6 6 -6 24 -18 40 -26 l30 -16
-26 0 c-14 0 -38 11 -53 25 -34 31 -47 33 -19 2 11 -12 24 -29 28 -37 8 -13 7
-13 -10 0 -19 14 -19 14 -4 -10 8 -14 19 -34 23 -45 7 -20 7 -20 -13 0 -11 11
-27 38 -35 60 -13 36 -15 38 -15 12 -1 -33 22 -91 40 -102 8 -6 10 -4 4 6 -5
8 -4 11 1 6 5 -5 9 -14 9 -19 0 -6 6 -13 13 -16 11 -3 13 6 10 38 -2 32 1 45
14 54 14 8 21 6 32 -9 15 -20 15 -19 17 5 l1 25 7 -25 8 -25 13 27 c7 16 18
28 23 28 5 0 46 -36 91 -80 68 -66 88 -80 114 -80 29 0 32 -3 32 -32 0 -25 -3
-29 -10 -18 -7 10 -10 11 -10 2 0 -19 31 -27 41 -11 7 12 9 12 9 0 0 -8 3 -11
7 -7 5 4 0 14 -10 21 -15 11 -17 21 -12 60 5 27 12 44 19 42 10 -3 16 -36 16
-101 0 -21 4 -26 12 -18 7 7 8 29 2 68 -8 48 -13 59 -32 64 -12 3 -31 19 -42
37 -11 18 -29 38 -41 45 -21 13 -89 110 -89 127 0 5 -12 19 -26 30 -26 20 -27
25 -25 107 2 77 0 89 -20 110 -12 13 -33 24 -45 24 -13 0 -34 11 -48 25 -30
30 -51 31 -93 5z m73 -38 c-5 15 -3 16 15 5 16 -10 17 -13 4 -15 -8 -2 -15
-11 -15 -20 -1 -15 -2 -15 -15 2 -8 10 -25 19 -39 19 -14 0 -27 6 -30 16 -3 9
-4 3 -2 -12 2 -19 0 -25 -6 -19 -17 17 -4 47 20 46 12 -1 22 3 22 8 0 5 12 -4
26 -19 16 -18 24 -22 20 -11z m90 -20 c32 -26 40 -146 13 -192 -17 -28 -24
-32 -54 -28 -41 5 -44 1 -12 -12 22 -9 22 -9 1 -9 -12 -1 -27 6 -34 14 -7 9
-15 13 -18 10 -3 -3 -11 0 -19 6 -18 16 -17 86 1 86 11 0 12 -5 5 -18 -12 -23
-12 -62 1 -54 6 3 10 14 10 23 0 10 7 28 16 40 15 22 17 22 34 7 10 -9 25 -15
33 -13 9 2 15 -1 15 -7 -1 -12 -38 -7 -55 7 -9 7 -13 7 -13 -1 0 -6 13 -14 30
-17 16 -4 27 -10 24 -15 -3 -5 -1 -9 5 -9 14 0 46 49 37 57 -3 3 -6 1 -6 -6 0
-7 -5 -9 -11 -5 -8 4 -8 9 0 17 15 15 14 90 -1 105 -7 7 -20 12 -30 12 -10 0
-18 5 -18 10 0 15 23 12 46 -8z m-271 -38 c0 -28 -4 -39 -15 -39 -8 0 -16 9
-17 20 -2 11 0 14 3 7 3 -6 10 -9 15 -6 6 3 5 11 -2 20 -8 10 -8 14 0 14 6 0
11 5 11 11 0 5 -4 7 -10 4 -5 -3 -10 -1 -10 5 0 7 6 10 13 8 7 -3 12 -21 12
-44z m258 12 c22 -17 22 -58 -1 -86 -18 -22 -50 -21 -36 1 3 5 9 7 14 4 4 -3
10 2 13 9 4 10 0 13 -11 11 -23 -5 -79 -25 -119 -42 -42 -18 -66 -13 -74 12
-5 19 -6 19 -17 -2 -7 -12 -13 -36 -15 -54 -2 -30 -27 -56 -27 -29 0 6 5 8 10
5 6 -3 10 -1 10 4 0 6 -5 11 -12 11 -9 0 -9 3 0 12 8 8 9 15 1 25 -11 12 -9
14 7 12 3 0 12 8 19 18 10 14 11 21 2 33 -10 13 -10 13 4 3 9 -7 19 -10 22 -7
3 4 20 7 38 8 18 1 34 7 37 14 2 8 -2 10 -14 5 -12 -4 -15 -3 -10 6 5 7 14 10
20 8 7 -3 19 -1 26 3 18 11 50 -6 50 -25 0 -12 -22 -21 -32 -13 -2 1 -14 -5
-28 -12 -14 -7 -38 -16 -55 -20 -20 -4 -25 -8 -15 -12 8 -3 26 -1 40 5 14 6
41 16 60 22 28 9 35 16 33 36 -1 13 0 30 2 37 6 16 35 15 58 -2z m69 -224 c-4
-41 -24 -62 -60 -62 -33 0 -26 35 8 36 14 0 24 6 23 12 -2 7 1 12 7 12 5 0 7
6 4 14 -4 10 -11 8 -30 -11 -14 -14 -28 -23 -31 -20 -8 8 60 65 72 61 6 -3 9
-21 7 -42z m-135 -32 c3 -23 3 -23 -17 -5 -24 22 -26 34 -3 31 9 -2 18 -13 20
-26z m189 -32 c8 -16 12 -28 9 -28 -4 0 1 -7 10 -16 10 -10 15 -29 13 -47 -2
-19 2 -32 11 -35 10 -3 12 3 6 26 -3 18 -2 33 5 37 6 3 9 1 8 -7 -2 -7 3 -12
9 -11 7 2 20 -8 28 -21 19 -28 37 -89 25 -81 -5 3 -12 1 -15 -5 -4 -6 -26 6
-55 30 -26 22 -52 40 -56 40 -5 0 -22 16 -38 36 -15 20 -42 40 -58 46 l-30 11
41 18 c34 15 41 23 41 46 1 27 1 27 16 8 9 -11 22 -32 30 -47z m-159 15 c-3
-10 -5 -4 -5 12 0 17 2 24 5 18 2 -7 2 -21 0 -30z m-109 -138 c-3 -3 -9 2 -12
12 -6 14 -5 15 5 6 7 -7 10 -15 7 -18z m-44 -10 c3 -8 1 -15 -4 -15 -6 0 -10
7 -10 15 0 8 2 15 4 15 2 0 6 -7 10 -15z"/>
<path d="M1000 540 c-9 -6 -10 -10 -3 -10 6 0 15 5 18 10 8 12 4 12 -15 0z"/>
<path d="M1126 277 c3 -10 9 -15 12 -12 3 3 0 11 -7 18 -10 9 -11 8 -5 -6z"/>
<path d="M1225 160 c10 -11 20 -20 22 -20 2 0 -2 9 -9 20 -7 11 -17 20 -22 20
-5 0 -1 -9 9 -20z"/>
<path d="M1525 51 c-31 -29 -42 -51 -25 -51 6 0 10 7 10 15 0 8 3 15 8 15 4 0
15 12 25 25 23 32 19 31 -18 -4z"/>
</g>
</svg>
