<?xml version="1.0" standalone="no"?>
<!DOCTYPE svg PUBLIC "-//W3C//DTD SVG 20010904//EN"
 "http://www.w3.org/TR/2001/REC-SVG-20010904/DTD/svg10.dtd">
<svg version="1.0" xmlns="http://www.w3.org/2000/svg"
 width="100.000000pt" height="27.000000pt" viewBox="0 0 100.000000 27.000000"
 preserveAspectRatio="xMidYMid meet">
<metadata>
Created by potrace 1.10, written by Peter Selinger 2001-2011
</metadata>
<g transform="translate(0.000000,27.000000) scale(0.100000,-0.100000)"
fill="#e81111" stroke="none">
<path d="M48 251 c-59 -41 -62 -182 -5 -229 27 -22 104 -26 133 -7 14 9 23 19
20 22 -3 4 1 15 11 25 13 14 13 18 2 18 -8 1 -3 7 11 15 15 9 19 15 10 15 -12
1 -12 3 3 14 16 13 16 14 -5 20 -18 5 -20 8 -9 15 11 7 9 10 -9 16 -15 5 -19
10 -11 14 9 6 8 11 -3 21 -9 7 -13 16 -11 21 3 4 -5 15 -18 24 -28 18 -91 16
-119 -4z m102 3 l25 -6 -25 -10 c-14 -5 -35 -11 -47 -12 -13 -2 -29 -9 -38
-16 -20 -17 -19 -1 2 22 15 17 15 18 1 13 -19 -7 -31 -32 -22 -46 3 -5 15 -3
27 6 27 19 34 19 34 1 0 -8 -5 -12 -11 -10 -6 2 -19 -8 -29 -22 l-18 -25 32
20 c17 11 37 18 43 17 6 -2 8 -1 4 1 -18 10 -6 33 16 33 29 0 46 -20 19 -21
-15 0 -14 -2 3 -9 36 -14 40 -32 8 -30 -54 4 -61 1 -61 -25 0 -15 5 -25 13
-25 8 0 14 -4 14 -9 0 -19 -29 -19 -59 0 l-32 20 18 -25 c10 -14 23 -24 29
-22 6 2 11 -2 11 -10 0 -18 -7 -18 -34 1 -12 9 -24 11 -27 6 -9 -14 3 -39 22
-46 14 -5 14 -4 -1 13 -24 27 -21 35 7 17 13 -9 28 -15 32 -13 5 1 24 -2 43
-6 47 -11 21 -25 -42 -22 -39 2 -55 8 -69 26 -10 13 -17 29 -14 37 3 7 1 13
-4 13 -6 0 -10 20 -10 45 0 25 4 45 10 45 5 0 7 7 4 15 -3 8 5 24 18 37 24 24
64 32 108 22z m67 -118 c10 -9 0 -14 -37 -18 -30 -2 -35 0 -38 19 -3 20 0 21
33 13 20 -5 39 -11 42 -14z m-12 -37 c-4 -6 -17 -14 -29 -19 -17 -7 -18 -9 -3
-9 30 -1 8 -21 -24 -21 -35 0 -37 15 -6 41 24 20 73 27 62 8z"/>
<path d="M738 234 c-104 -56 -56 -215 64 -214 38 0 144 28 113 29 -17 1 -18 3
-5 12 12 9 12 10 -3 5 -10 -3 -26 -6 -35 -7 -14 0 -13 -2 3 -9 20 -9 20 -9 0
-9 -11 -1 -30 -4 -43 -7 -18 -5 -21 -3 -16 12 11 36 27 64 36 64 5 0 6 -5 2
-12 -4 -7 -3 -8 4 -4 17 10 15 26 -4 26 -8 0 -12 4 -9 10 3 6 -1 7 -9 4 -9 -3
-16 -1 -16 5 0 6 7 11 15 11 18 0 20 16 3 26 -7 4 -8 3 -4 -4 4 -7 2 -12 -3
-12 -6 0 -12 17 -12 38 -2 33 -2 34 -6 7 -6 -45 -12 -57 -23 -50 -8 5 -7 12 2
23 11 14 10 15 -7 9 -19 -7 -19 -6 -2 7 12 9 14 16 8 21 -19 11 -12 25 12 21
12 -3 33 -5 47 -6 22 -1 23 -2 5 -9 -16 -7 -14 -9 15 -15 33 -8 34 -9 10 -15
-14 -4 -20 -10 -14 -13 13 -8 34 -5 58 8 16 10 15 12 -15 19 -27 6 -30 9 -14
13 15 3 9 8 -25 18 -58 18 -98 17 -132 -2z m27 -53 c5 -18 4 -22 -6 -16 -8 3
-5 -2 7 -12 l21 -18 -21 -18 c-12 -10 -15 -15 -8 -12 15 8 15 6 1 -33 -13 -38
-31 -33 -54 15 -20 42 -14 90 17 122 22 25 28 21 43 -28z m43 -101 c3 -32 -11
-60 -25 -47 -4 4 -1 13 5 19 8 8 7 15 -6 25 -16 12 -15 13 3 7 16 -6 18 -5 8
7 -7 7 -13 17 -13 22 0 5 6 7 13 5 6 -3 13 -19 15 -38z"/>
<path d="M900 160 c-30 -9 -20 -14 46 -19 8 0 12 -6 8 -12 -3 -6 -15 -9 -25
-6 -10 3 -21 2 -24 -3 -5 -8 55 -23 63 -15 3 3 -1 5 -9 5 -8 1 0 7 16 14 l30
13 -39 7 c-29 6 -36 10 -25 17 12 7 12 9 -1 8 -8 -1 -26 -5 -40 -9z"/>
<path d="M885 90 c-3 -6 2 -10 12 -10 10 0 29 -3 43 -6 24 -5 24 -5 5 7 -27
17 -53 21 -60 9z"/>
</g>
</svg>
