<?xml version="1.0" standalone="no"?>
<!DOCTYPE svg PUBLIC "-//W3C//DTD SVG 20010904//EN"
 "http://www.w3.org/TR/2001/REC-SVG-20010904/DTD/svg10.dtd">
<svg version="1.0" xmlns="http://www.w3.org/2000/svg"
 width="226.000000pt" height="28.000000pt" viewBox="0 0 226.000000 28.000000"
 preserveAspectRatio="xMidYMid meet">
<metadata>
Created by potrace 1.10, written by Peter Selinger 2001-2011
</metadata>
<g transform="translate(0.000000,28.000000) scale(0.100000,-0.100000)"
fill="#000000" stroke="none">
<path d="M1470 261 c0 -5 5 -13 10 -16 6 -3 10 -2 10 4 0 5 -4 13 -10 16 -5 3
-10 2 -10 -4z"/>
<path d="M2240 251 c0 -25 6 -27 13 -6 4 8 2 17 -3 20 -6 4 -10 -3 -10 -14z"/>
<path d="M1527 239 c5 -16 3 -20 -6 -14 -10 6 -11 3 -2 -13 16 -30 14 -39 -4
-16 -14 18 -15 17 -5 -8 7 -22 6 -29 -8 -38 -16 -9 -16 -11 0 -20 14 -9 15
-16 8 -38 -10 -25 -9 -26 5 -8 18 23 20 14 4 -16 -9 -16 -8 -19 2 -13 9 6 11
2 6 -14 -4 -17 -2 -20 7 -12 11 10 14 48 5 67 -5 8 -4 73 1 84 7 19 4 63 -6
71 -9 8 -11 5 -7 -12z m3 -99 c0 -5 -4 -10 -10 -10 -5 0 -10 5 -10 10 0 6 5
10 10 10 6 0 10 -4 10 -10z"/>
<path d="M771 241 c-9 -6 -10 -10 -2 -16 8 -4 9 -11 3 -18 -11 -14 -10 -117 1
-134 4 -6 2 -15 -4 -19 -8 -5 -7 -9 2 -15 9 -5 23 2 41 22 23 23 28 38 28 77
0 50 -21 92 -46 92 -8 0 -12 5 -9 10 8 12 4 12 -14 1z m59 -99 c0 -51 -15 -83
-34 -76 -19 7 -28 32 -14 40 7 5 8 2 3 -6 -5 -9 -4 -11 3 -6 9 5 8 12 -1 26
-9 16 -9 24 0 40 9 14 10 21 1 26 -7 4 -8 3 -4 -4 4 -7 5 -12 2 -12 -14 0 -14
21 1 35 16 16 17 16 30 -1 7 -10 13 -38 13 -62z"/>
<path d="M16 188 c-9 -12 -16 -27 -16 -33 1 -5 8 3 16 18 8 16 20 25 26 21 7
-4 8 -3 4 4 -10 16 -13 15 -30 -10z"/>
<path d="M136 185 c24 -39 24 -40 24 -28 0 6 -9 21 -21 34 l-20 24 17 -30z"/>
<path d="M2236 185 c4 -10 3 -16 -2 -13 -5 4 -9 -11 -9 -32 0 -21 4 -36 9 -32
5 3 6 -3 2 -14 -6 -15 -5 -17 6 -6 16 16 17 90 1 104 -11 8 -12 7 -7 -7z"/>
<path d="M1400 180 c0 -5 7 -10 16 -10 8 0 12 5 9 10 -3 6 -10 10 -16 10 -5 0
-9 -4 -9 -10z"/>
<path d="M1470 176 c0 -2 7 -7 16 -10 8 -3 12 -2 9 4 -6 10 -25 14 -25 6z"/>
<path d="M0 123 c0 -6 9 -21 21 -34 l20 -24 -17 30 c-24 39 -24 40 -24 28z"/>
<path d="M137 97 l-17 -32 20 24 c17 20 26 41 18 41 -2 0 -11 -15 -21 -33z"/>
<path d="M1480 110 c-9 -6 -10 -10 -3 -10 6 0 15 5 18 10 8 12 4 12 -15 0z"/>
<path d="M1400 100 c0 -5 4 -10 9 -10 6 0 13 5 16 10 3 6 -1 10 -9 10 -9 0
-16 -4 -16 -10z"/>
<path d="M2240 29 c0 -11 4 -18 10 -14 5 3 7 12 3 20 -7 21 -13 19 -13 -6z"/>
<path d="M1477 33 c-4 -3 -7 -11 -7 -17 0 -6 5 -5 12 2 6 6 9 14 7 17 -3 3 -9
2 -12 -2z"/>
</g>
</svg>
