<?xml version="1.0" standalone="no"?>
<!DOCTYPE svg PUBLIC "-//W3C//DTD SVG 20010904//EN"
 "http://www.w3.org/TR/2001/REC-SVG-20010904/DTD/svg10.dtd">
<svg version="1.0" xmlns="http://www.w3.org/2000/svg"
 width="100.000000pt" height="27.000000pt" viewBox="0 0 100.000000 27.000000"
 preserveAspectRatio="xMidYMid meet">
<metadata>
Created by potrace 1.10, written by Peter Selinger 2001-2011
</metadata>
<g transform="translate(0.000000,27.000000) scale(0.100000,-0.100000)"
fill="#000000" stroke="none">
<path d="M832 255 c-12 -9 -20 -20 -17 -25 3 -4 -2 -13 -11 -20 -11 -10 -12
-15 -3 -21 8 -4 4 -9 -11 -14 -18 -6 -20 -9 -9 -16 11 -7 9 -10 -9 -15 -21 -6
-21 -7 -5 -20 15 -11 15 -13 3 -14 -9 0 -5 -6 10 -15 14 -8 19 -14 11 -15 -11
0 -11 -4 2 -18 10 -10 14 -21 11 -25 -3 -3 6 -13 20 -22 29 -19 106 -15 133 7
55 45 55 181 0 226 -26 22 -98 25 -125 7z m131 -26 c10 -12 16 -28 13 -36 -3
-7 -1 -13 4 -13 6 0 10 -20 10 -45 0 -25 -4 -45 -10 -45 -5 0 -7 -6 -4 -13 3
-8 -4 -24 -14 -37 -14 -18 -30 -24 -69 -26 -63 -3 -89 11 -42 22 19 4 38 7 43
6 4 -2 19 4 32 13 28 18 31 10 7 -17 -15 -17 -15 -18 -1 -13 19 7 31 32 22 46
-3 5 -15 3 -27 -6 -27 -19 -34 -19 -34 -1 0 8 5 12 11 10 6 -2 19 8 29 22 l18
25 -32 -20 c-30 -19 -59 -19 -59 0 0 5 6 9 14 9 8 0 14 10 14 25 0 26 -8 29
-62 25 -32 -2 -28 16 8 30 17 7 18 9 3 9 -27 1 -10 21 19 21 22 0 34 -23 17
-33 -5 -2 -3 -3 3 -1 6 1 26 -6 43 -17 l32 -20 -18 25 c-10 14 -23 24 -29 22
-6 -2 -11 2 -11 10 0 18 7 18 34 -1 12 -9 24 -11 27 -6 9 14 -3 39 -22 46 -14
5 -14 4 1 -13 24 -27 21 -35 -7 -17 -13 9 -28 15 -32 14 -5 -1 -22 1 -37 6
-43 11 -13 26 43 21 31 -3 50 -12 63 -27z m-107 -104 c-3 -9 -12 -12 -23 -9
-10 4 -3 -4 14 -17 41 -30 42 -49 4 -49 -32 0 -54 19 -24 21 14 0 15 2 3 6
-31 11 -42 26 -28 34 10 7 9 9 -4 9 -28 0 -21 19 10 26 15 3 32 7 37 8 13 4
18 -11 11 -29z"/>
<path d="M125 235 c-31 -9 -36 -13 -20 -17 16 -4 13 -7 -14 -13 -30 -7 -31 -9
-15 -19 24 -13 45 -16 58 -8 6 3 0 9 -14 13 -24 6 -23 7 10 15 29 6 31 8 15
15 -18 7 -17 8 5 9 14 1 35 3 48 6 23 4 30 -10 11 -21 -6 -5 -4 -12 8 -21 17
-13 17 -14 -2 -7 -17 6 -18 5 -7 -9 9 -11 10 -18 2 -23 -11 -7 -17 5 -23 50
-4 27 -4 26 -6 -7 0 -21 -6 -38 -12 -38 -5 0 -7 5 -3 12 4 7 3 8 -4 4 -17 -10
-15 -26 3 -26 8 0 15 -5 15 -11 0 -6 -7 -8 -16 -5 -8 3 -12 2 -9 -4 3 -6 -1
-10 -9 -10 -19 0 -21 -16 -4 -26 7 -4 8 -3 4 4 -4 7 -3 12 2 12 9 0 25 -28 36
-64 5 -15 2 -17 -16 -12 -13 3 -32 6 -43 7 -20 0 -20 0 0 9 16 7 17 9 3 9 -9
1 -25 4 -35 7 -15 5 -15 4 -3 -5 13 -9 12 -11 -5 -12 -31 -1 75 -29 113 -29
92 0 149 89 107 170 -29 56 -95 72 -180 45z m170 -52 c20 -42 14 -90 -17 -122
-22 -25 -28 -21 -43 28 -5 18 -4 22 6 16 8 -3 5 2 -7 12 l-21 18 21 18 c12 10
15 15 9 12 -16 -8 -16 -6 -2 33 13 38 31 33 54 -15z m-75 -71 c0 -4 -6 -14
-12 -21 -11 -12 -9 -13 7 -7 18 6 19 5 3 -7 -13 -10 -14 -17 -6 -25 14 -14 4
-27 -11 -17 -12 7 -15 68 -4 78 9 10 23 9 23 -1z"/>
<path d="M59 162 c11 -8 6 -12 -25 -18 l-39 -7 30 -13 c17 -7 24 -13 16 -14
-8 0 -12 -2 -9 -5 8 -8 68 7 63 15 -3 5 -14 6 -24 3 -10 -3 -22 0 -25 6 -4 6
0 12 8 12 9 1 25 2 35 3 23 1 41 16 20 16 -8 0 -25 3 -39 6 -19 4 -21 3 -11
-4z"/>
<path d="M53 82 c-17 -13 -16 -14 7 -8 14 3 33 6 43 6 10 0 16 4 12 9 -8 14
-40 10 -62 -7z"/>
</g>
</svg>
