<?xml version="1.0" standalone="no"?>
<!DOCTYPE svg PUBLIC "-//W3C//DTD SVG 20010904//EN"
 "http://www.w3.org/TR/2001/REC-SVG-20010904/DTD/svg10.dtd">
<svg version="1.0" xmlns="http://www.w3.org/2000/svg"
 width="270.000000pt" height="73.000000pt" viewBox="0 0 270.000000 73.000000"
 preserveAspectRatio="xMidYMid meet">
<metadata>
Created by potrace 1.10, written by Peter Selinger 2001-2011
</metadata>
<g transform="translate(0.000000,73.000000) scale(0.100000,-0.100000)"
fill="#000000" stroke="none">
<path d="M140 703 c-11 -16 -33 -35 -48 -44 -15 -8 -32 -30 -37 -47 -6 -17
-21 -45 -33 -61 -28 -38 -28 -53 2 -88 23 -26 27 -27 47 -14 21 12 25 11 44
-12 19 -24 21 -25 32 -9 6 9 15 13 19 9 5 -5 0 -16 -11 -24 -20 -15 -20 -15 2
-10 13 3 25 2 27 -2 7 -11 -37 -11 -51 1 -7 6 -13 7 -13 3 0 -4 -7 -2 -15 5
-8 7 -13 16 -10 20 12 19 -14 18 -31 -1 -16 -17 -19 -38 -20 -118 -1 -53 -7
-109 -13 -124 -14 -35 -14 -84 -1 -92 7 -4 7 -13 1 -24 -6 -10 -12 -30 -15
-44 -4 -26 -3 -27 37 -27 31 0 38 3 27 10 -10 6 -11 10 -2 10 6 0 12 8 12 19
0 10 15 44 34 75 19 32 37 75 41 96 l7 39 49 -36 c27 -19 49 -41 49 -49 0 -21
70 -94 91 -94 13 0 19 -9 21 -32 3 -31 6 -33 43 -36 l40 -3 -29 16 c-24 12
-31 13 -38 3 -6 -8 -7 1 -2 22 3 19 8 36 9 38 6 7 54 -41 49 -50 -3 -4 2 -8
11 -8 9 0 13 -4 10 -10 -3 -5 0 -10 8 -10 7 0 14 7 14 15 0 8 -4 15 -8 15 -4
0 -22 12 -39 27 -26 21 -31 32 -26 54 3 16 1 31 -4 34 -5 3 -26 35 -46 71 -20
36 -51 77 -70 92 -19 15 -34 31 -34 36 0 5 -8 18 -17 28 -15 17 -15 20 9 46
28 30 52 73 61 113 5 21 -1 33 -38 69 -25 24 -45 39 -45 33 0 -7 5 -15 10 -18
6 -4 8 -11 5 -16 -4 -5 4 -9 17 -10 l23 0 -23 -9 c-12 -5 -30 -23 -40 -40 -21
-37 -32 -37 -62 -4 -20 20 -22 27 -11 34 8 4 20 6 28 3 7 -3 21 1 30 8 15 13
15 12 4 -8 -6 -13 -15 -22 -19 -20 -8 2 -12 -6 -12 -25 0 -7 13 3 29 22 16 19
27 40 24 46 -5 12 -33 15 -33 2 0 -15 -29 -8 -39 10 -11 20 2 52 13 33 4 -6 4
-15 1 -21 -3 -5 0 -10 8 -10 10 0 13 7 10 20 -7 27 5 25 17 -2 7 -19 9 -20 10
-5 5 47 4 61 -7 64 -7 3 -9 -3 -6 -15 3 -12 -1 -19 -11 -19 -10 0 -14 8 -12
26 2 14 1 18 -1 9 -8 -30 -28 -39 -41 -18 -10 16 -9 18 3 14 10 -4 15 0 15 15
0 25 26 28 58 5 16 -11 21 -22 16 -36 -4 -14 -2 -18 5 -14 19 12 12 43 -14 60
-37 24 -70 20 -95 -11z m20 -62 c0 -4 -9 -16 -20 -26 -16 -14 -17 -21 -8 -32
9 -11 9 -16 -3 -23 -10 -7 -16 -4 -20 7 -4 14 -7 14 -14 3 -5 -8 -4 -15 2 -17
12 -4 6 -41 -10 -61 -6 -7 -17 -10 -25 -7 -12 4 -12 3 -3 -9 9 -11 8 -15 -3
-19 -21 -8 -29 8 -16 32 6 12 18 18 30 16 16 -3 18 0 13 26 -4 24 1 36 31 69
46 51 47 64 1 20 -19 -19 -35 -29 -35 -22 0 7 10 22 23 35 12 12 21 26 19 30
-1 4 7 3 18 -3 11 -6 20 -14 20 -19z m-83 -21 c-7 -17 -13 -26 -15 -21 -3 10
15 51 22 51 3 0 -1 -14 -7 -30z m82 -39 c-15 -5 -22 6 -14 19 6 9 10 9 16 -1
5 -8 4 -15 -2 -18z m-89 -15 c0 -25 -12 -46 -26 -46 -7 0 -18 -8 -24 -17 -10
-17 -10 -16 -8 2 2 11 14 25 26 31 15 7 19 13 11 16 -7 2 -9 10 -5 16 10 16
26 15 26 -2z m224 -12 c18 -7 22 -39 6 -49 -8 -5 -20 0 -59 22 -6 4 20 33 29
33 5 0 15 -3 24 -6z m-131 -27 c10 -15 12 -29 6 -38 -7 -11 -9 -10 -9 6 0 11
-5 27 -11 35 -8 12 -10 9 -6 -11 3 -20 0 -26 -12 -24 -21 3 -27 35 -9 46 20
13 24 11 41 -14z m115 -40 c2 -10 -2 -25 -9 -33 -14 -17 -20 -10 -34 34 -6 21
-4 23 16 20 13 -2 25 -11 27 -21z m-61 -9 c11 -13 23 -31 26 -40 9 -26 -13
-33 -29 -9 -8 12 -20 21 -26 21 -7 0 1 -13 17 -30 16 -16 24 -30 17 -30 -6 0
-23 15 -37 34 -23 30 -25 37 -13 55 16 26 20 26 45 -1z m-81 -2 c15 -12 16
-17 7 -27 -10 -10 -15 -9 -28 1 -16 13 -21 40 -7 40 5 0 17 -6 28 -14z m-20
-96 c8 0 14 -4 14 -9 0 -4 -11 -6 -25 -3 -18 3 -31 -2 -41 -14 -15 -18 -15
-18 -10 -1 3 10 6 23 6 28 0 4 8 6 18 2 14 -5 15 -3 5 8 -7 7 -13 18 -12 24 0
5 7 0 16 -12 8 -13 22 -23 29 -23z m137 -19 c9 -11 9 -13 0 -8 -6 4 -14 3 -18
-3 -3 -5 -16 -10 -28 -10 -20 0 -20 0 -2 14 18 13 17 14 -10 9 -23 -3 -26 -2
-15 6 20 14 59 10 73 -8z m-120 -33 l25 -31 -19 -54 c-10 -29 -13 -51 -8 -47
7 4 9 -1 7 -12 -2 -11 -13 -20 -26 -22 -22 -3 -23 -1 -16 32 3 20 3 44 -2 53
-10 25 -11 29 -13 61 -1 21 -3 24 -11 12 -5 -8 -10 -11 -10 -6 0 10 31 44 42
45 4 1 18 -13 31 -31z m90 -57 c7 -14 31 -40 55 -58 24 -18 41 -33 37 -33 -14
0 -83 41 -115 69 -27 23 -31 30 -17 31 17 0 17 3 -4 33 l-23 32 28 -25 c15
-13 32 -36 39 -49z m121 -41 c9 -22 21 -40 27 -40 5 0 8 -4 5 -9 -3 -5 1 -22
9 -37 27 -52 17 -60 -25 -19 -22 21 -40 34 -40 27 0 -7 5 -12 11 -12 5 0 8 -4
4 -9 -3 -5 7 -19 21 -30 18 -14 22 -21 11 -21 -16 0 -77 64 -77 80 0 6 7 11
15 11 8 1 20 3 25 4 6 1 15 3 21 4 5 0 8 5 4 11 -3 5 -12 7 -20 3 -17 -6 -105
78 -105 100 0 7 -6 19 -12 26 -9 10 -9 12 -1 7 6 -3 14 -2 18 4 11 17 92 -58
109 -100z m-259 -9 c5 -23 4 -31 -4 -27 -20 13 -11 -15 13 -39 24 -24 23 -31
-10 -74 -9 -11 -54 32 -54 52 1 21 2 20 16 -5 8 -16 19 -28 25 -28 6 0 8 4 5
9 -4 5 0 11 6 14 10 3 9 9 -3 23 -10 13 -16 40 -16 84 -1 65 6 62 22 -9z m-15
-82 c0 -18 -18 -9 -23 12 -4 16 -3 18 9 8 8 -6 14 -15 14 -20z m10 -89 c0 -15
-7 -20 -25 -20 -27 0 -32 9 -13 28 18 18 38 14 38 -8z"/>
<path d="M260 286 c0 -2 8 -10 18 -17 15 -13 16 -12 3 4 -13 16 -21 21 -21 13z"/>
<path d="M928 677 c-16 -13 -28 -26 -28 -30 0 -9 30 -4 48 7 12 7 12 4 2 -13
-6 -12 -21 -26 -33 -31 -12 -5 -18 -9 -13 -9 5 -1 2 -9 -7 -18 -8 -10 -17 -31
-20 -48 l-4 -30 -2 32 c0 17 3 34 9 38 5 3 7 12 3 20 -3 8 -1 15 4 15 5 0 18
7 29 16 10 8 13 13 6 9 -7 -4 -19 -2 -26 4 -18 15 -37 -8 -31 -37 2 -12 0 -22
-6 -22 -5 0 -9 -10 -9 -22 0 -12 -7 -29 -16 -39 -20 -22 -30 -94 -15 -103 8
-5 7 -15 -3 -34 -7 -15 -16 -58 -20 -95 -5 -56 -13 -78 -42 -120 -20 -28 -33
-59 -31 -69 3 -9 -1 -22 -9 -29 -20 -16 -17 -47 5 -59 26 -13 81 -13 81 1 0 5
-4 7 -10 4 -5 -3 -10 -1 -10 4 0 6 -5 11 -11 11 -5 0 -7 -5 -3 -11 3 -6 -5 -3
-20 6 -19 13 -26 14 -26 4 0 -7 -3 -10 -6 -7 -3 4 -1 15 5 27 10 19 13 19 45
6 35 -15 35 -15 70 26 19 23 45 66 58 96 16 40 26 52 37 47 9 -3 30 -8 47 -11
32 -5 37 -12 70 -91 10 -23 24 -42 31 -42 7 0 15 -12 19 -28 11 -51 12 -52 62
-52 59 0 62 13 13 55 l-35 30 19 -27 c11 -15 23 -28 28 -28 4 0 7 -4 7 -9 0
-18 -52 -9 -57 10 -3 11 -9 19 -13 19 -5 0 2 20 15 45 23 42 23 47 10 86 -8
23 -15 50 -15 61 0 17 -17 37 -81 94 -9 8 -20 14 -26 14 -19 0 -36 27 -22 36
8 4 9 3 5 -4 -4 -7 -5 -12 -3 -12 3 0 19 21 36 47 42 62 42 110 1 156 -33 38
-37 48 -17 45 6 -2 13 9 15 24 2 18 -4 31 -20 42 -31 22 -58 20 -90 -7z m100
-42 c-2 -12 -7 -7 -15 16 -12 30 -11 32 3 17 9 -8 14 -23 12 -33z m-47 4 c-14
-11 -18 -20 -11 -24 6 -4 9 -13 6 -20 -3 -8 0 -16 7 -18 7 -2 9 -8 5 -12 -12
-13 -37 15 -31 33 5 14 3 15 -8 5 -28 -27 -28 -11 0 20 17 17 31 36 31 40 0 5
5 5 12 1 8 -5 4 -13 -11 -25z m25 -15 c-3 -9 -6 -21 -7 -27 0 -7 -4 -3 -8 8
-9 22 -5 35 11 35 5 0 7 -7 4 -16z m-58 -56 c15 -15 15 -28 1 -28 -5 0 -7 5
-4 10 4 6 1 9 -6 8 -6 -2 -14 3 -16 10 -6 15 9 16 25 0z m-18 -53 c-7 -8 -15
-13 -18 -10 -3 2 1 12 9 22 8 9 9 14 2 10 -6 -4 -13 -4 -16 0 -2 5 -2 3 -1 -4
2 -7 -1 -15 -6 -18 -11 -7 -14 38 -4 48 3 3 15 -3 27 -13 17 -16 18 -22 7 -35z
m129 -10 c0 -18 -1 -18 -9 3 -12 28 -50 29 -75 2 -10 -11 -24 -20 -31 -20 -7
0 -11 -6 -8 -14 3 -8 0 -17 -6 -21 -7 -4 -14 2 -17 14 -7 27 -23 27 -23 1 0
-11 -4 -20 -10 -20 -5 0 -10 -5 -10 -11 0 -5 4 -8 9 -4 5 3 12 1 15 -4 4 -5 2
-12 -3 -15 -12 -8 -34 21 -26 34 3 5 0 10 -7 10 -7 1 -2 10 11 21 13 11 30 18
37 15 7 -3 16 -1 19 5 4 5 11 6 17 3 6 -4 8 -2 4 4 -3 6 12 22 36 36 l43 26
17 -23 c10 -12 17 -31 17 -42z m-199 5 c0 -13 -5 -18 -15 -14 -12 5 -13 10 -4
20 15 19 19 18 19 -6z m178 -17 c4 -29 -22 -48 -39 -27 -15 18 -22 47 -9 39 5
-3 12 -1 15 5 10 16 30 6 33 -17z m-203 -33 c-3 -5 0 -10 7 -11 10 0 10 -2 -1
-6 -11 -5 -11 -7 0 -15 11 -8 11 -9 -1 -5 -18 4 -27 47 -10 47 6 0 8 -4 5 -10z
m172 -26 c3 -8 -4 -24 -16 -35 -11 -11 -22 -24 -22 -29 -1 -6 -2 -16 -3 -22 0
-7 -10 -14 -21 -17 -17 -3 -18 -1 -6 13 12 14 10 22 -3 14 -2 -2 -13 5 -23 15
-11 9 -22 14 -25 11 -3 -3 -9 1 -14 8 -4 7 -4 10 1 6 4 -4 15 3 25 15 15 18
20 19 34 8 20 -17 21 -35 0 -27 -8 3 -12 2 -9 -4 8 -12 16 -12 34 -1 12 8 12
12 2 25 -7 8 -10 24 -6 36 5 16 10 18 26 9 11 -6 23 -17 26 -25z m-151 -43
c-3 -5 2 -17 12 -28 9 -10 13 -12 7 -4 -9 12 -7 12 12 1 l22 -14 -32 -23 c-17
-13 -35 -23 -39 -23 -13 0 -9 75 4 88 14 14 22 16 14 3z m154 -56 c0 -19 -55
-47 -83 -42 -20 3 -19 5 10 16 17 7 34 19 37 27 7 19 36 18 36 -1z m104 -81
c3 -9 6 -39 6 -67 0 -37 3 -48 10 -37 15 24 12 2 -5 -30 -22 -42 -55 -37 -62
9 -1 8 -7 17 -14 21 -8 6 -6 12 10 21 13 9 21 24 20 39 l0 25 -11 -22 c-6 -13
-18 -23 -26 -23 -12 0 -12 3 4 14 10 8 16 18 11 22 -4 4 0 16 10 26 9 10 13
18 9 18 -4 0 -15 -9 -24 -20 -19 -23 -52 -28 -95 -16 l-29 9 48 42 48 42 42
-29 c23 -15 45 -35 48 -44z m-282 16 c6 0 20 7 30 17 10 9 18 11 18 5 0 -6
-12 -17 -26 -25 -21 -11 -23 -15 -11 -25 11 -9 19 -7 37 13 13 14 33 25 44 25
20 0 19 -1 -5 -24 -14 -13 -33 -44 -43 -69 -19 -52 -37 -63 -60 -38 -13 14
-14 31 -9 87 4 38 9 61 11 52 2 -10 8 -18 14 -18z m-31 -173 c-8 -8 -11 -5
-11 10 0 11 -2 36 -5 54 -5 31 -4 30 11 -9 12 -32 13 -47 5 -55z m-23 22 c4
-49 12 -54 39 -23 13 16 21 22 17 14 -14 -29 -37 -49 -48 -42 -6 3 -15 7 -20
7 -5 0 -14 8 -20 18 -8 13 -8 20 2 26 8 4 13 11 13 15 -3 18 0 27 7 22 4 -2 9
-19 10 -37z"/>
<path d="M843 356 c1 -16 9 -32 17 -34 12 -4 13 -2 4 9 -7 8 -14 23 -17 34 -4
13 -5 9 -4 -9z"/>
<path d="M1026 278 c3 -4 -6 -8 -20 -8 -14 0 -28 -5 -32 -12 -10 -15 56 -2 73
15 11 10 9 13 -6 13 -11 0 -17 -4 -15 -8z"/>
<path d="M1091 234 c0 -11 3 -14 6 -6 3 7 2 16 -1 19 -3 4 -6 -2 -5 -13z"/>
<path d="M1091 193 c0 -12 -5 -25 -11 -28 -5 -3 -10 -14 -10 -23 0 -15 1 -15
16 0 10 9 14 26 11 44 -3 21 -4 23 -6 7z"/>
<path d="M820 216 c0 -31 6 -34 13 -6 3 11 1 23 -4 26 -5 3 -9 -6 -9 -20z"/>
<path d="M1734 645 c-14 -14 -35 -25 -48 -25 -12 0 -33 -11 -45 -24 -20 -21
-22 -33 -20 -110 2 -82 1 -87 -25 -107 -14 -11 -26 -25 -26 -30 0 -17 -68
-114 -89 -127 -12 -7 -30 -27 -41 -45 -11 -18 -30 -34 -42 -37 -19 -5 -24 -16
-32 -64 -6 -39 -5 -61 2 -68 8 -8 12 -3 12 18 0 65 6 98 16 101 14 5 27 -68
18 -103 -6 -21 -3 -25 11 -22 10 1 20 10 22 18 4 13 3 13 -6 0 -8 -12 -11 -8
-11 18 0 29 3 32 32 32 26 0 46 14 114 80 45 44 86 80 91 80 5 0 16 -12 23
-28 l13 -27 8 25 7 25 1 -25 c2 -24 2 -25 17 -5 11 15 18 17 32 9 13 -9 16
-22 14 -54 -3 -32 -1 -41 10 -38 7 3 13 10 13 16 0 5 4 14 9 19 5 5 6 3 2 -4
-13 -23 3 -14 19 10 8 13 19 45 24 71 10 53 0 50 -18 -5 -7 -20 -21 -45 -32
-55 -19 -17 -20 -17 -13 2 4 10 15 30 23 44 15 24 15 24 -4 10 -17 -13 -18
-13 -10 0 4 8 17 25 28 38 28 30 15 28 -19 -3 -15 -14 -39 -25 -53 -25 l-26 0
30 16 c17 8 35 20 40 26 6 6 -4 3 -22 -6 -18 -9 -34 -16 -38 -16 -13 0 -3 24
21 49 l26 28 49 -26 c56 -30 58 -38 26 -126 -17 -45 -28 -60 -46 -65 -28 -6
-60 -75 -43 -92 5 -5 36 -12 69 -15 51 -5 60 -3 60 11 0 9 -4 16 -9 16 -4 0
-8 -4 -8 -8 0 -12 -58 -13 -65 -2 -3 5 -12 7 -20 3 -25 -9 -18 31 10 57 14 13
27 21 30 18 3 -3 -1 -11 -10 -18 -14 -12 -14 -15 1 -31 10 -11 24 -19 33 -18
10 0 7 4 -8 10 -17 7 -21 14 -16 27 4 9 10 25 12 35 3 9 11 17 18 17 17 0 41
138 29 158 -5 8 -37 28 -70 46 l-61 32 24 17 c14 11 23 28 23 45 0 26 2 27 44
24 42 -4 45 -6 48 -35 2 -24 8 -33 26 -35 13 -2 22 2 23 10 0 7 2 22 4 32 4
23 -11 56 -34 73 -14 11 -13 12 5 13 30 0 44 20 39 55 -2 17 -4 36 -4 43 -1
16 -26 15 -40 -2 -6 -7 -12 -25 -13 -39 -1 -14 -4 -24 -7 -22 -2 3 -10 0 -17
-6 -9 -7 -19 -7 -31 0 -15 8 -15 10 -3 15 40 12 42 16 8 12 -21 -3 -40 -1 -43
4 -3 4 -14 6 -25 3 -14 -4 -20 0 -20 11 0 9 5 16 10 16 6 0 10 -4 10 -8 0 -12
32 -11 48 1 22 17 13 47 -20 67 -43 26 -64 25 -94 -5z m71 -35 c-3 -6 -11 -10
-17 -10 -6 0 -17 -8 -24 -17 -9 -13 -13 -14 -14 -5 0 8 10 26 23 41 17 22 24
25 30 14 4 -7 5 -18 2 -23z m43 5 c2 -9 0 -21 -6 -27 -6 -6 -8 0 -6 19 2 15 1
20 -2 11 -7 -24 -20 -23 -20 1 0 24 30 21 34 -4z m-93 -4 c-3 -6 -14 -11 -23
-11 -15 1 -15 2 2 15 21 16 32 13 21 -4z m-45 -11 c0 -5 -8 -10 -18 -10 -10 0
-23 -5 -30 -12 -15 -15 -16 -90 -1 -105 8 -8 8 -13 0 -17 -6 -4 -11 -2 -11 5
0 7 -3 9 -6 6 -9 -8 23 -57 37 -57 6 0 8 4 5 9 -3 5 8 11 24 15 17 3 30 11 30
17 0 8 -4 8 -12 1 -18 -14 -53 -19 -55 -7 -1 6 5 9 14 7 8 -2 23 4 33 13 18
16 20 15 39 -16 11 -18 18 -36 15 -40 -2 -4 0 -10 6 -14 13 -8 13 30 1 54 -7
13 -6 18 5 18 18 0 19 -70 1 -86 -8 -6 -16 -9 -19 -6 -3 3 -11 -1 -18 -10 -7
-8 -22 -15 -34 -14 -21 0 -21 0 2 9 31 13 28 17 -13 12 -30 -4 -37 0 -54 28
-27 46 -19 166 13 192 23 20 46 23 46 8z m250 -11 c0 -5 -4 -7 -10 -4 -5 3
-10 1 -10 -4 0 -6 5 -11 11 -11 8 0 8 -4 0 -14 -7 -9 -8 -17 -2 -20 5 -3 12 0
15 6 3 7 5 4 3 -7 -4 -36 -32 -23 -33 15 -1 19 0 38 3 43 6 11 23 9 23 -4z
m-225 -49 c0 -30 4 -35 35 -45 19 -6 46 -16 60 -22 14 -6 32 -8 40 -4 12 4 10
6 -5 9 -11 2 -29 8 -40 13 -20 10 -47 17 -72 18 -19 1 -15 29 5 40 10 5 24 6
32 1 7 -4 19 -6 26 -3 6 2 15 -1 20 -8 5 -9 2 -10 -10 -6 -12 5 -16 3 -14 -5
3 -7 19 -13 37 -14 18 -1 35 -4 38 -8 3 -3 13 0 22 7 14 10 14 10 4 -3 -9 -12
-8 -19 3 -34 8 -11 14 -16 14 -12 0 4 5 4 11 0 8 -4 8 -9 0 -17 -7 -7 -7 -14
0 -24 8 -9 8 -13 0 -13 -6 0 -11 -5 -11 -11 0 -5 5 -7 10 -4 6 3 10 1 10 -5 0
-27 -25 -1 -27 29 -2 18 -8 42 -15 54 -11 21 -12 21 -17 2 -8 -25 -32 -30 -74
-12 -40 17 -96 37 -119 42 -11 2 -15 -1 -11 -11 3 -7 9 -12 13 -9 5 3 11 1 14
-4 14 -22 -18 -23 -36 -1 -35 43 -13 103 37 97 16 -1 20 -9 20 -37z m-46 -207
c2 -2 2 -6 -2 -9 -3 -3 -17 5 -31 19 -19 19 -26 21 -30 11 -3 -8 -1 -14 4 -14
6 0 9 -5 8 -12 -2 -6 8 -12 22 -12 34 -1 41 -36 8 -36 -36 0 -56 21 -60 62 -5
47 9 53 47 19 16 -14 32 -27 34 -28z m-47 -63 l40 -17 -30 -11 c-16 -6 -43
-26 -58 -46 -16 -20 -33 -36 -38 -36 -4 0 -30 -18 -56 -40 -40 -34 -49 -38
-60 -25 -14 16 -9 51 7 48 6 -1 19 7 29 19 19 21 19 21 -3 9 -13 -6 -23 -8
-23 -3 0 10 19 28 35 34 6 1 9 7 7 11 -1 5 2 5 8 2 7 -4 8 -19 5 -37 -6 -23
-4 -29 6 -26 9 3 13 16 11 35 -2 17 3 37 10 44 7 8 14 21 16 29 2 8 13 31 25
50 l22 35 3 -28 c3 -22 12 -33 44 -47z m138 60 c0 -4 -9 -15 -20 -25 -20 -18
-20 -18 -16 6 5 29 3 26 21 26 8 0 15 -3 15 -7z m-63 -37 c-3 -10 -5 -4 -5 12
0 17 2 24 5 18 2 -7 2 -21 0 -30z m116 -128 c-3 -9 -8 -14 -10 -11 -3 3 -2 9
2 15 9 16 15 13 8 -4z m47 -20 c0 -8 -4 -15 -10 -15 -5 0 -7 7 -4 15 4 8 8 15
10 15 2 0 4 -7 4 -15z"/>
<path d="M1687 539 c7 -7 15 -10 18 -7 3 3 -2 9 -12 12 -14 6 -15 5 -6 -5z"/>
<path d="M1565 279 c-4 -6 -5 -12 -2 -15 2 -3 7 2 10 11 7 17 1 20 -8 4z"/>
<path d="M2454 645 c-14 -14 -35 -25 -48 -25 -12 0 -33 -11 -45 -24 -20 -21
-22 -33 -20 -110 2 -82 1 -87 -25 -107 -14 -11 -26 -25 -26 -30 0 -17 -68
-114 -89 -127 -12 -7 -30 -27 -41 -45 -11 -18 -30 -34 -42 -37 -19 -5 -24 -16
-32 -64 -6 -39 -5 -61 2 -68 8 -8 12 -3 12 18 0 65 6 98 16 101 14 5 27 -68
18 -103 -6 -21 -3 -25 11 -22 10 1 20 10 22 18 4 13 3 13 -6 0 -8 -12 -11 -8
-11 18 0 29 3 32 32 32 26 0 46 14 114 80 45 44 86 80 91 80 5 0 16 -12 23
-28 l13 -27 8 25 7 25 1 -25 c2 -24 2 -25 17 -5 11 15 18 17 32 9 13 -9 16
-22 14 -54 -3 -32 -1 -41 10 -38 7 3 13 10 13 16 0 5 4 14 9 19 5 5 6 3 2 -4
-13 -23 3 -14 19 10 8 13 19 45 24 71 10 53 0 50 -18 -5 -7 -20 -20 -44 -31
-54 -18 -16 -18 -16 -13 4 3 11 11 26 19 32 8 6 14 16 14 21 0 6 -8 4 -17 -3
-15 -12 -16 -12 -8 1 4 8 17 25 28 38 28 30 15 28 -19 -3 -15 -14 -39 -25 -53
-25 l-26 0 30 16 c17 8 35 20 40 26 6 6 -4 3 -22 -6 -18 -9 -34 -16 -38 -16
-13 0 -3 24 21 49 l26 28 50 -26 c48 -25 49 -27 43 -61 -4 -19 -7 -42 -7 -50
-1 -8 -4 -17 -7 -20 -4 -3 -12 -17 -18 -32 -7 -15 -22 -28 -34 -30 -26 -4 -58
-73 -41 -90 5 -5 36 -12 69 -15 51 -5 60 -3 60 11 0 9 -4 16 -9 16 -4 0 -8 -4
-8 -8 0 -12 -58 -13 -65 -2 -3 5 -12 7 -20 3 -25 -9 -18 31 10 57 14 13 27 21
30 18 3 -3 -1 -11 -10 -18 -14 -12 -14 -15 1 -31 10 -11 24 -19 33 -18 10 0 7
4 -8 10 -17 7 -21 14 -16 27 4 9 10 25 12 35 3 9 11 17 18 17 17 0 41 138 29
158 -5 8 -37 28 -70 46 l-61 32 24 17 c14 11 23 28 23 45 0 26 2 27 44 24 42
-4 45 -6 48 -35 2 -24 8 -33 26 -35 13 -2 22 2 23 10 0 7 2 22 4 32 4 23 -11
56 -34 73 -14 11 -13 12 5 13 30 0 44 20 39 55 -2 17 -4 36 -4 43 -1 16 -26
15 -40 -2 -6 -7 -12 -25 -13 -39 -1 -14 -4 -24 -7 -22 -2 3 -10 0 -17 -6 -9
-7 -19 -7 -31 0 -15 8 -15 10 -3 15 40 12 42 16 8 12 -21 -3 -40 -1 -43 4 -3
4 -14 6 -25 3 -14 -4 -20 0 -20 11 0 9 5 16 10 16 6 0 10 -4 10 -8 0 -12 32
-11 48 1 22 17 13 47 -20 67 -43 26 -64 25 -94 -5z m71 -35 c-3 -6 -11 -10
-17 -10 -6 0 -17 -8 -24 -17 -9 -13 -13 -14 -14 -5 0 8 10 26 23 41 17 22 24
25 30 14 4 -7 5 -18 2 -23z m42 4 c3 -18 2 -18 -6 1 -8 17 -10 18 -10 3 -1
-24 -17 -23 -17 1 0 25 30 20 33 -5z m-92 -3 c-3 -6 -14 -11 -23 -11 -15 1
-15 2 2 15 21 16 32 13 21 -4z m-45 -11 c0 -5 -8 -10 -18 -10 -10 0 -23 -5
-30 -12 -15 -15 -16 -90 -1 -105 8 -8 8 -13 0 -17 -6 -4 -11 -2 -11 5 0 7 -3
9 -6 6 -9 -8 23 -57 37 -57 6 0 8 4 5 9 -3 5 8 11 24 15 17 3 30 11 30 17 0 8
-4 8 -12 1 -18 -14 -53 -19 -55 -7 -1 6 5 9 14 7 8 -2 23 4 33 13 17 15 19 15
34 -7 9 -12 16 -30 16 -40 0 -9 5 -20 10 -23 13 -8 13 31 1 54 -7 13 -6 18 5
18 18 0 19 -70 1 -86 -8 -6 -16 -9 -19 -6 -3 3 -11 -1 -18 -10 -7 -8 -22 -15
-34 -14 -21 0 -21 0 2 9 31 13 28 17 -13 12 -30 -4 -37 0 -54 28 -27 46 -19
166 13 192 23 20 46 23 46 8z m250 -11 c0 -5 -4 -7 -10 -4 -5 3 -10 1 -10 -4
0 -6 5 -11 11 -11 8 0 8 -4 0 -14 -7 -9 -8 -17 -2 -20 5 -3 12 0 15 6 3 7 5 4
3 -7 -4 -36 -32 -23 -33 15 -1 19 0 38 3 43 6 11 23 9 23 -4z m-225 -49 c0
-30 4 -35 35 -45 19 -5 45 -16 58 -23 16 -9 27 -10 40 -3 15 9 14 10 -8 11
-15 0 -30 4 -36 10 -9 9 -41 17 -71 19 -19 1 -15 29 5 40 10 5 24 6 32 1 7 -4
19 -6 26 -3 6 2 15 -1 20 -8 5 -9 2 -10 -10 -6 -12 5 -16 3 -14 -5 3 -7 19
-13 37 -14 18 -1 35 -4 38 -8 3 -3 13 0 22 7 14 10 14 10 4 -3 -9 -12 -8 -19
3 -34 8 -11 14 -16 14 -12 0 4 5 4 11 0 8 -4 8 -9 0 -17 -7 -7 -7 -14 0 -24 8
-9 8 -13 0 -13 -6 0 -11 -5 -11 -11 0 -5 5 -7 10 -4 6 3 10 1 10 -5 0 -27 -25
-1 -27 29 -2 18 -8 42 -15 54 -11 21 -12 21 -17 2 -8 -25 -32 -30 -74 -12 -40
17 -96 37 -119 42 -11 2 -15 -1 -11 -11 3 -7 9 -12 13 -9 5 3 11 1 14 -4 14
-22 -18 -23 -36 -1 -37 45 -15 104 37 97 16 -1 20 -9 20 -37z m-46 -207 c2 -2
1 -6 -2 -9 -4 -4 -19 7 -35 23 -23 26 -28 27 -28 12 0 -11 4 -19 8 -19 4 0 7
-5 6 -12 -2 -6 8 -12 22 -12 34 -1 41 -36 8 -36 -36 0 -56 21 -60 62 -5 47 9
53 47 19 16 -14 32 -27 34 -28z m-47 -63 l40 -17 -30 -11 c-16 -6 -43 -26 -58
-46 -16 -20 -33 -36 -38 -36 -4 0 -30 -18 -56 -40 -29 -24 -51 -36 -55 -30 -3
6 -10 8 -15 5 -12 -8 6 53 25 81 8 13 21 23 28 21 6 -1 11 4 9 11 -1 8 2 11 9
7 6 -4 9 -20 5 -36 -3 -17 -1 -29 5 -29 6 0 8 4 4 9 -3 5 -1 12 4 15 5 3 7 14
4 24 -2 11 12 47 34 83 35 60 38 62 41 36 3 -22 12 -33 44 -47z m138 60 c0 -4
-9 -15 -20 -25 -20 -18 -20 -18 -16 6 5 29 3 26 21 26 8 0 15 -3 15 -7z m-63
-37 c-3 -10 -5 -4 -5 12 0 17 2 24 5 18 2 -7 2 -21 0 -30z m116 -128 c-3 -9
-8 -14 -10 -11 -3 3 -2 9 2 15 9 16 15 13 8 -4z m47 -20 c0 -8 -4 -15 -10 -15
-5 0 -7 7 -4 15 4 8 8 15 10 15 2 0 4 -7 4 -15z"/>
<path d="M2407 539 c7 -7 15 -10 18 -7 3 3 -2 9 -12 12 -14 6 -15 5 -6 -5z"/>
<path d="M2285 279 c-4 -6 -5 -12 -2 -15 2 -3 7 2 10 11 7 17 1 20 -8 4z"/>
<path d="M2181 158 c-14 -23 -14 -23 8 -4 22 20 25 26 13 26 -4 0 -13 -10 -21
-22z"/>
</g>
</svg>
