<?xml version="1.0" standalone="no"?>
<!DOCTYPE svg PUBLIC "-//W3C//DTD SVG 20010904//EN"
 "http://www.w3.org/TR/2001/REC-SVG-20010904/DTD/svg10.dtd">
<svg version="1.0" xmlns="http://www.w3.org/2000/svg"
 width="245.000000pt" height="80.000000pt" viewBox="0 0 245.000000 80.000000"
 preserveAspectRatio="xMidYMid meet">
<metadata>
Created by potrace 1.10, written by Peter Selinger 2001-2011
</metadata>
<g transform="translate(0.000000,80.000000) scale(0.100000,-0.100000)"
fill="#000000" stroke="none">
<path d="M197 794 c-12 -12 -8 -41 8 -54 9 -7 14 -19 11 -26 -3 -8 0 -11 10
-7 10 4 14 -2 14 -22 0 -14 5 -35 10 -45 8 -15 7 -18 -3 -14 -10 4 -13 -3 -9
-25 l4 -29 42 17 c31 14 41 24 42 42 2 26 -24 84 -33 75 -3 -3 -1 -11 4 -18
14 -18 22 -68 11 -68 -5 0 -16 -7 -24 -15 -17 -16 -34 -20 -34 -7 0 5 11 14
24 20 23 10 24 14 13 41 -6 17 -15 31 -19 31 -4 0 -3 -12 2 -26 14 -35 12 -42
-5 -20 -21 27 -19 49 5 64 17 10 19 16 9 33 -10 19 -12 19 -28 5 -20 -18 -35
-10 -46 23 -5 16 -4 21 4 17 6 -4 11 -14 11 -22 0 -8 5 -14 11 -14 5 0 7 5 4
10 -3 6 1 10 9 10 19 0 21 16 4 26 -7 4 -8 3 -4 -4 9 -15 -16 -16 -30 -2 -6 6
-13 7 -17 4z"/>
<path d="M877 782 c-9 -10 -22 -33 -28 -50 -7 -19 -18 -32 -28 -32 -10 0 -28
-11 -41 -25 -20 -21 -22 -31 -17 -80 3 -30 13 -69 21 -86 15 -29 14 -33 -4
-57 -29 -37 -15 -107 33 -159 18 -20 18 -27 8 -68 -6 -25 -9 -50 -6 -56 4 -5
3 -15 -2 -21 -4 -7 -8 -32 -9 -55 -2 -49 21 -77 58 -71 24 3 25 10 12 75 -5
29 -4 33 14 33 17 0 23 10 33 55 7 30 16 55 22 55 5 0 31 18 58 41 43 36 49
46 49 79 0 42 -26 70 -65 70 -12 0 -26 5 -33 12 -8 8 -15 8 -25 0 -8 -7 -17
-8 -21 -4 -4 4 -6 1 -4 -7 2 -7 -3 -16 -9 -18 -7 -3 -13 0 -13 5 0 16 30 43
41 37 5 -4 9 3 9 13 0 13 9 22 25 26 14 4 25 13 25 22 0 11 -6 13 -20 9 -12
-4 -20 -2 -20 5 0 7 -7 10 -15 6 -8 -3 -15 -1 -15 3 0 5 7 12 16 15 13 5 14 9
4 21 -7 8 -10 28 -8 44 2 17 1 28 -3 26 -4 -3 -12 2 -19 10 -18 22 3 18 34 -6
25 -20 34 -48 19 -63 -4 -3 -8 -15 -10 -25 -2 -15 3 -18 25 -16 15 2 35 6 45
10 11 5 17 3 17 -6 0 -7 3 -10 6 -6 3 3 -1 16 -10 29 -9 12 -16 29 -16 37 0 8
-14 29 -30 46 l-31 32 21 25 c27 34 25 43 -9 67 -36 26 -63 27 -84 3z m58 -6
c11 -7 25 -14 30 -15 17 -2 11 -34 -7 -37 -12 -1 -18 4 -18 17 0 37 -28 20
-35 -21 -7 -43 -19 -58 -31 -39 -4 7 -3 9 4 6 6 -5 8 0 5 12 -3 10 0 22 7 26
8 5 8 10 0 20 -9 10 -6 15 11 20 17 6 19 9 8 16 -8 5 -9 9 -4 9 6 0 19 -6 30
-14z m-62 -56 c-3 -11 -9 -17 -15 -14 -5 3 -4 12 3 20 16 19 18 18 12 -6z m70
-14 c7 3 4 -1 -6 -9 -14 -11 -15 -16 -5 -20 9 -4 9 -6 1 -6 -17 -1 -26 17 -18
37 5 12 9 13 12 4 3 -6 10 -10 16 -6z m-39 -107 c1 -26 -4 -44 -12 -47 -10 -3
-12 5 -8 34 3 22 3 30 0 19 -10 -36 -25 -42 -18 -7 7 37 -16 82 -44 83 -14 0
-14 2 3 9 33 13 78 -38 79 -91z m-54 42 c5 -11 7 -26 4 -34 -7 -19 -44 -10
-45 12 0 12 -2 11 -9 -4 -7 -18 -8 -19 -15 -2 -16 39 45 65 65 28z m123 -72
c-5 -5 -7 7 -4 29 5 34 6 35 9 8 2 -16 0 -32 -5 -37z m-133 7 c0 -16 -27 -29
-41 -21 -5 4 -6 -2 -3 -12 5 -15 4 -16 -5 -3 -21 29 -13 50 19 50 19 0 30 -5
30 -14z m170 4 c0 -5 -4 -10 -10 -10 -5 0 -10 5 -10 10 0 6 5 10 10 10 6 0 10
-4 10 -10z m-122 -43 c14 -10 16 -47 2 -47 -5 0 -10 4 -10 8 0 4 -12 9 -27 10
-36 3 -53 20 -33 32 16 11 48 9 68 -3z m-25 -47 c33 -9 44 -16 35 -21 -7 -5
-20 -9 -28 -9 -13 0 -13 1 0 10 13 9 13 10 0 11 -47 5 -58 7 -69 13 -6 4 -11
12 -11 18 0 7 4 7 13 1 6 -6 34 -16 60 -23z m-6 -54 c1 -1 -5 -17 -14 -36
l-15 -35 -17 34 c-17 32 -19 33 -29 15 -6 -10 -12 -15 -12 -11 0 5 7 22 17 37
16 27 17 28 42 12 14 -9 27 -16 28 -16z m99 -17 c3 -6 15 -9 25 -6 10 3 22 0
26 -5 4 -7 1 -8 -7 -3 -8 5 -11 4 -6 -3 4 -6 13 -9 21 -5 14 5 21 -15 15 -42
-1 -5 -3 -16 -4 -24 -4 -21 -33 -33 -55 -22 -10 6 -21 8 -24 5 -3 -4 -5 3 -4
15 1 13 6 20 14 17 7 -3 13 -2 13 3 0 4 12 7 28 5 15 -2 19 -1 8 2 -15 5 -16
8 -5 15 21 13 -17 12 -42 -2 -16 -8 -25 -7 -40 7 -18 16 -18 18 -3 36 19 21
30 23 40 7z m-117 -104 c5 -3 13 0 17 6 4 8 3 9 -4 5 -16 -10 -15 -1 3 34 19
36 26 37 44 8 39 -63 40 -66 19 -141 -11 -40 -24 -76 -29 -82 -15 -15 -11 11
11 67 11 29 20 58 20 63 -1 9 -42 -61 -46 -77 -1 -5 -3 -11 -4 -15 -1 -5 -2
-11 -2 -14 1 -4 -8 -5 -19 -2 -18 5 -19 6 -2 20 17 14 17 14 1 9 -26 -8 -22 7
4 19 12 6 23 17 25 25 3 10 -1 9 -11 -4 -9 -11 -19 -16 -23 -12 -5 4 0 13 10
20 22 17 22 30 0 22 -13 -4 -12 -1 5 13 12 11 22 22 22 26 0 4 -6 2 -14 -4
-11 -10 -20 -10 -36 -1 -12 6 -19 14 -16 17 3 3 -1 15 -9 27 -8 11 -15 30 -15
41 1 13 7 6 20 -22 11 -23 24 -44 29 -48z m130 -19 c9 -10 7 -17 -6 -27 -16
-12 -17 -12 -6 2 10 12 10 18 1 27 -7 7 -9 12 -6 12 3 0 11 -6 17 -14z m-118
-170 c1 5 5 -7 9 -26 4 -19 11 -44 15 -55 5 -15 4 -16 -3 -6 -15 21 -42 23
-35 3 5 -13 3 -14 -7 -5 -7 6 -12 29 -12 50 0 56 1 57 17 43 8 -7 16 -9 16 -4z"/>
<path d="M961 744 c0 -11 3 -14 6 -6 3 7 2 16 -1 19 -3 4 -6 -2 -5 -13z"/>
<path d="M948 393 c7 -3 16 -2 19 1 4 3 -2 6 -13 5 -11 0 -14 -3 -6 -6z"/>
<path d="M883 292 c-6 -11 -8 -24 -3 -33 7 -11 10 -10 15 3 4 9 5 24 3 33 -3
13 -5 13 -15 -3z"/>
<path d="M1601 774 c-25 -32 -27 -48 -5 -40 10 4 14 1 11 -6 -2 -8 -16 -12
-35 -10 -61 7 -94 -32 -107 -126 -5 -40 -3 -58 9 -76 13 -21 13 -26 1 -36 -8
-7 -15 -23 -15 -37 0 -32 26 -92 43 -99 12 -4 11 -11 -4 -40 -9 -19 -22 -41
-28 -48 -7 -9 -9 -32 -4 -67 8 -52 10 -54 41 -57 l32 -3 -6 43 c-6 40 -5 42 9
23 22 -27 51 -9 55 34 3 27 7 31 23 26 15 -5 35 6 74 40 81 68 75 107 -20 151
-47 21 -58 34 -43 51 16 20 34 16 66 -16 27 -28 52 -34 68 -18 4 4 0 7 -9 7
-9 0 -17 5 -17 11 0 5 4 8 9 5 22 -14 17 24 -6 45 -15 13 -24 20 -21 14 3 -5
-3 -18 -13 -27 -24 -23 -37 -3 -14 22 16 18 16 23 1 82 -15 61 -15 64 4 90 26
36 25 43 -9 67 -39 28 -65 26 -90 -5z m65 1 c12 -8 24 -12 27 -8 4 3 9 -2 13
-11 4 -10 2 -22 -4 -28 -8 -8 -9 -4 -6 13 l5 24 -15 -25 c-15 -25 -15 -25 -16
-2 0 34 -27 26 -34 -10 -3 -18 -8 -43 -10 -55 -3 -15 0 -23 8 -23 13 0 26 -30
26 -60 0 -13 -1 -13 -11 0 -8 12 -10 12 -8 -5 2 -19 -16 -75 -24 -75 -2 0 0
23 4 52 6 40 5 59 -7 82 -8 17 -11 32 -5 34 5 2 7 11 4 21 -3 10 0 22 7 26 8
5 8 10 0 20 -9 10 -6 15 11 20 17 6 19 9 8 16 -8 5 -9 9 -4 9 6 0 20 -7 31
-15z m-6 -66 c0 -5 6 -7 13 -4 6 4 4 0 -6 -8 -11 -9 -14 -17 -7 -20 6 -3 5 -4
-2 -3 -16 3 -24 46 -9 46 6 0 11 -5 11 -11z m-63 -35 c1 -16 5 -52 8 -79 6
-39 4 -54 -8 -63 -22 -18 -33 4 -14 26 12 13 13 27 8 58 -10 53 -18 64 -45 64
-29 0 -46 -20 -56 -63 -7 -27 -8 -28 -9 -7 -2 54 47 103 94 96 14 -2 21 -11
22 -32z m-35 -21 c25 -22 23 -29 -12 -42 -36 -12 -49 4 -30 38 13 25 18 26 42
4z m116 -60 c-4 -51 4 -62 15 -18 4 19 5 19 6 -1 1 -22 -21 -47 -45 -50 -10
-2 -10 3 2 22 10 15 15 39 13 68 -2 24 0 42 5 39 4 -3 6 -30 4 -60z m-161 -13
c-3 -11 -1 -23 4 -26 5 -3 7 -10 3 -15 -3 -5 -10 -7 -15 -4 -13 9 -11 -1 6
-38 l16 -32 -21 24 c-13 16 -19 33 -16 45 3 12 6 31 6 44 0 12 5 22 11 22 6 0
9 -9 6 -20z m53 11 c0 -12 -29 -35 -36 -28 -11 10 5 37 21 37 8 0 15 -4 15 -9z
m12 -23 c-7 -7 -12 -8 -12 -2 0 14 12 26 19 19 2 -3 -1 -11 -7 -17z m-13 -61
c7 -19 9 -42 5 -51 -8 -20 -36 -17 -41 4 -4 13 -3 13 6 0 7 -9 11 -10 11 -3 0
6 -5 15 -10 18 -6 4 -8 10 -5 15 3 5 1 11 -4 15 -14 8 -2 35 14 35 8 0 18 -15
24 -33z m179 -5 c-9 -2 -19 -13 -21 -25 -4 -19 -4 -18 -6 5 -1 26 15 41 34 29
6 -3 2 -7 -7 -9z m-141 -8 c-3 -3 -12 -4 -19 -1 -8 3 -5 6 6 6 11 1 17 -2 13
-5z m-105 -64 c-16 -25 -16 -25 4 -8 19 16 22 16 52 -2 37 -23 56 -26 28 -5
-10 7 -15 18 -11 24 10 18 25 13 19 -6 -5 -17 -5 -17 9 0 16 19 32 24 21 5 -5
-8 -2 -9 9 -5 26 10 21 -29 -5 -48 -21 -15 -21 -16 -3 -13 15 2 21 -3 23 -24
3 -22 -2 -30 -23 -38 -44 -17 -75 -12 -84 13 -5 12 -7 25 -4 30 2 4 -6 7 -19
8 -22 0 -22 1 -3 9 16 7 17 9 3 9 -24 1 -35 25 -30 66 3 27 7 31 17 22 10 -9
9 -17 -3 -37z m115 34 c-3 -3 -12 -4 -19 -1 -8 3 -5 6 6 6 11 1 17 -2 13 -5z
m96 -54 c26 -21 33 -60 10 -60 -7 0 -13 -6 -14 -12 -1 -20 -67 -71 -84 -64
-17 6 -20 26 -4 26 5 0 7 -6 3 -12 -4 -7 2 -4 14 6 12 11 22 30 22 43 0 16 6
23 19 23 10 0 24 7 31 15 13 16 12 17 -22 19 -13 0 -24 9 -26 19 -5 23 19 22
51 -3z m-26 -36 c-3 -3 -12 -4 -19 -1 -8 3 -5 6 6 6 11 1 17 -2 13 -5z m-128
-92 c-5 -2 -16 1 -24 8 -11 9 -12 7 -8 -9 3 -12 1 -21 -6 -21 -12 0 -14 20 -5
44 5 14 8 14 29 -2 13 -9 19 -19 14 -20z m13 -32 c-36 -33 -52 -38 -52 -15 0
9 15 22 33 30 49 22 55 17 19 -15z m-71 -22 c10 -13 18 -38 19 -57 0 -33 -1
-34 -15 -15 -15 19 -15 19 -8 -1 3 -11 3 -17 -1 -14 -4 4 -9 17 -11 30 -3 13
-7 36 -11 52 -7 33 2 34 27 5z m80 -19 c-5 -13 -10 -17 -11 -9 0 13 -1 13 -10
0 -8 -12 -10 -12 -10 -1 0 13 31 43 38 37 1 -2 -2 -14 -7 -27z"/>
<path d="M1609 426 c-1 -3 -2 -9 -3 -13 -1 -5 -5 -14 -10 -21 -7 -11 -4 -12
13 -3 11 7 21 16 21 21 0 10 -19 24 -21 16z"/>
<path d="M1520 400 c0 -6 7 -10 15 -10 8 0 15 2 15 4 0 2 -7 6 -15 10 -8 3
-15 1 -15 -4z"/>
<path d="M1565 380 c-4 -6 -10 -8 -14 -5 -5 2 -7 -7 -5 -22 3 -32 22 -45 46
-32 22 12 24 23 2 15 -28 -11 -38 6 -13 21 15 9 17 12 5 9 -13 -5 -17 -2 -12
9 6 17 0 20 -9 5z"/>
<path d="M2277 782 c-9 -10 -22 -33 -28 -50 -7 -19 -18 -32 -28 -32 -10 0 -28
-11 -41 -25 -20 -21 -22 -31 -17 -80 3 -30 13 -69 21 -86 15 -29 14 -33 -4
-57 -29 -37 -15 -107 33 -159 18 -20 18 -27 8 -68 -6 -25 -9 -50 -6 -56 4 -5
3 -15 -2 -21 -4 -7 -8 -32 -9 -55 -2 -49 21 -77 58 -71 24 3 25 10 12 75 -5
29 -4 33 14 33 17 0 23 10 33 55 7 30 16 55 22 55 20 0 106 81 104 100 -1 14
-4 16 -14 8 -7 -5 -10 -14 -8 -19 10 -15 -33 -31 -54 -20 -10 6 -21 8 -24 5
-3 -4 -5 3 -4 15 1 13 6 20 14 17 7 -3 13 -2 13 3 0 4 12 7 28 5 15 -2 19 -1
8 2 -15 5 -16 8 -5 15 21 13 -17 12 -43 -2 -16 -9 -24 -7 -40 9 -18 18 -19 20
-2 36 10 10 23 14 33 10 9 -3 24 -7 33 -8 10 -1 21 -6 25 -11 5 -4 2 -5 -6 0
-9 5 -12 4 -7 -3 4 -6 14 -8 22 -5 9 3 20 0 25 -8 6 -9 9 -10 9 -2 0 16 -40
43 -65 43 -12 0 -26 5 -33 12 -8 8 -15 8 -28 -3 -16 -12 -17 -12 -9 1 5 9 5
12 -1 7 -5 -5 -9 -14 -9 -19 0 -6 -6 -13 -12 -16 -7 -2 -13 1 -13 6 0 16 30
43 41 37 5 -4 9 3 9 13 0 13 9 22 25 26 14 4 25 13 25 22 0 11 -6 13 -20 9
-12 -4 -20 -2 -20 5 0 7 -7 10 -15 6 -8 -3 -15 -1 -15 3 0 5 7 12 16 15 13 5
14 9 4 21 -7 8 -10 28 -8 44 2 17 1 28 -3 26 -4 -3 -12 2 -19 10 -18 22 3 18
34 -6 25 -20 34 -48 19 -63 -4 -3 -8 -15 -10 -25 -2 -15 3 -18 25 -16 15 2 35
6 45 10 11 5 17 3 17 -6 0 -7 3 -10 6 -6 3 3 -1 16 -10 29 -9 12 -16 29 -16
37 0 8 -14 29 -30 46 l-31 32 21 25 c27 34 25 43 -9 67 -36 26 -63 27 -84 3z
m59 -7 c12 -8 24 -12 27 -8 4 3 9 -2 13 -11 4 -10 2 -22 -4 -28 -8 -8 -9 -4
-6 13 l5 24 -15 -25 c-15 -25 -15 -25 -16 -2 0 39 -28 25 -35 -18 -7 -43 -19
-58 -31 -39 -4 7 -3 9 4 6 6 -5 8 0 5 12 -3 10 0 22 7 26 8 5 8 10 0 20 -9 10
-6 15 11 20 17 6 19 9 8 16 -8 5 -9 9 -4 9 6 0 20 -7 31 -15z m-63 -55 c-3
-11 -9 -17 -15 -14 -5 3 -4 12 3 20 16 19 18 18 12 -6z m70 -14 c7 3 4 -1 -6
-9 -14 -11 -15 -16 -5 -20 9 -4 9 -6 1 -6 -17 -1 -26 17 -18 37 5 12 9 13 12
4 3 -6 10 -10 16 -6z m-39 -107 c1 -26 -4 -44 -12 -47 -10 -3 -12 5 -8 34 3
22 3 30 0 19 -10 -34 -21 -37 -16 -5 5 35 -20 80 -46 81 -14 0 -14 2 3 9 33
13 78 -38 79 -91z m-54 42 c5 -11 7 -26 4 -34 -7 -19 -44 -10 -45 12 0 12 -2
11 -9 -4 -8 -19 -11 -18 -14 8 -6 36 46 51 64 18z m123 -72 c-5 -5 -7 7 -4 29
5 34 6 35 9 8 2 -16 0 -32 -5 -37z m-133 7 c0 -16 -27 -29 -41 -21 -5 4 -6 -2
-3 -12 5 -15 4 -16 -5 -3 -21 29 -13 50 19 50 19 0 30 -5 30 -14z m170 4 c0
-5 -4 -10 -10 -10 -5 0 -10 5 -10 10 0 6 5 10 10 10 6 0 10 -4 10 -10z m-122
-43 c14 -10 16 -47 2 -47 -5 0 -10 4 -10 8 0 4 -12 9 -27 10 -36 3 -53 20 -33
32 16 11 48 9 68 -3z m-24 -47 c45 -12 47 -15 28 -23 -18 -8 -25 -6 -36 9 -8
10 -18 16 -21 12 -10 -9 -45 9 -45 24 0 7 4 7 13 1 6 -6 34 -16 61 -23z m-7
-54 c1 -1 -5 -17 -14 -36 l-15 -35 -17 34 c-17 32 -19 33 -29 15 -6 -10 -12
-15 -12 -11 0 5 7 22 17 37 16 27 17 28 42 12 14 -9 27 -16 28 -16z m-15 -122
c7 -4 8 -3 4 4 -7 12 19 72 32 72 7 0 26 -26 48 -68 10 -20 8 -36 -8 -95 -11
-40 -24 -76 -29 -82 -15 -15 -11 10 12 70 12 31 19 59 16 61 -3 3 -8 -5 -12
-18 -4 -13 -14 -31 -23 -40 -8 -10 -12 -18 -7 -18 4 0 2 -7 -5 -15 -7 -8 -20
-15 -28 -15 -13 0 -12 3 4 16 19 15 19 16 -1 9 -16 -4 -15 -1 7 17 27 23 48
58 48 78 0 6 -4 8 -10 5 -5 -3 -10 -1 -10 6 0 9 -3 9 -14 0 -20 -17 -45 -3
-61 36 -22 53 -17 75 5 26 11 -23 25 -45 32 -49z m138 -24 c0 -4 -8 -14 -17
-21 -16 -12 -17 -12 -6 2 10 12 10 18 0 28 -9 10 -8 11 6 6 9 -4 17 -11 17
-15z m-97 -6 c8 -8 -24 -64 -35 -64 -14 0 -8 20 7 26 8 4 15 11 15 16 0 6 -7
7 -16 4 -14 -5 -15 -4 -4 9 13 16 23 19 33 9z m-32 -158 c1 5 5 -7 9 -26 4
-19 11 -44 15 -55 5 -15 4 -16 -3 -6 -15 21 -42 23 -35 3 5 -13 3 -14 -7 -5
-7 6 -12 29 -12 50 0 56 1 57 17 43 8 -7 16 -9 16 -4z"/>
<path d="M125 770 c-4 -6 -2 -17 4 -24 9 -11 8 -14 -6 -12 -13 1 -17 -5 -16
-21 3 -23 -27 -40 -47 -28 -5 3 -10 1 -10 -6 0 -7 -3 -9 -7 -6 -12 13 -43 -26
-43 -55 0 -31 40 -101 66 -116 13 -7 14 -13 5 -31 -7 -11 -15 -21 -19 -21 -4
0 -7 -75 -6 -168 0 -92 -3 -172 -7 -177 -4 -6 -5 -30 -2 -54 6 -44 28 -65 44
-40 6 10 9 10 9 2 0 -7 8 -13 18 -12 10 0 12 3 5 6 -7 2 -13 9 -13 14 0 6 5 7
11 3 8 -5 8 -1 0 14 -6 11 -11 35 -11 52 0 24 4 30 18 28 14 -2 18 7 22 52 4
36 7 46 10 30 4 -19 11 -25 30 -25 21 0 25 5 28 35 l2 35 -16 -33 c-20 -39
-28 -34 -32 21 -4 73 -3 80 9 91 9 8 10 6 7 -10 -3 -12 -2 -27 2 -33 10 -17
60 -24 76 -11 22 19 74 118 74 142 -1 28 -42 60 -73 58 -12 -1 -31 -2 -41 -1
-18 1 -18 2 3 25 21 22 22 30 15 78 -4 29 -7 63 -7 75 1 13 -1 22 -5 22 -25
-4 -31 3 -26 30 4 18 1 32 -7 36 -7 5 -10 4 -5 -3 3 -6 2 -13 -4 -17 -5 -3
-10 2 -10 12 0 12 -3 14 -8 6 -6 -9 -11 -7 -20 7 -12 20 -1 37 17 25 5 -3 12
-1 16 5 4 6 -4 10 -19 10 -14 0 -28 -5 -31 -10z m48 -65 c12 -5 12 -13 1 -56
-12 -44 -11 -53 1 -66 19 -19 19 -27 -2 -44 -14 -12 -15 -12 -9 -1 7 11 4 12
-13 2 -48 -25 -112 3 -117 51 -3 25 -1 30 6 19 7 -11 9 -8 7 14 -1 17 4 31 12
34 10 3 12 -3 6 -27 -4 -18 -3 -31 3 -31 5 0 9 7 8 16 0 9 5 19 13 22 11 3 12
-2 7 -23 -5 -20 -3 -26 6 -23 7 3 14 18 16 34 1 16 5 40 8 54 l6 25 19 -25
c10 -14 19 -20 19 -13 0 6 -4 15 -10 18 -10 6 -14 25 -6 25 2 0 11 -2 19 -5z
m-63 -51 c0 -2 -7 -4 -15 -4 -8 0 -15 4 -15 10 0 5 7 7 15 4 8 -4 15 -8 15
-10z m101 -11 c13 -16 12 -17 -3 -4 -10 7 -18 15 -18 17 0 8 8 3 21 -13z
m-194 -40 c-3 -10 -5 -4 -5 12 0 17 2 24 5 18 2 -7 2 -21 0 -30z m198 -28 c-9
-66 -20 -82 -57 -79 -30 3 -30 3 -8 -5 23 -8 24 -9 3 -10 -17 -1 -93 34 -93
43 0 8 115 -6 120 -15 4 -6 10 5 14 25 4 20 4 41 1 46 -4 6 -9 22 -11 37 -5
27 -5 27 15 9 14 -13 19 -27 16 -51z m-83 -141 c-2 -13 -10 -28 -18 -35 -10
-8 -15 -5 -20 15 -7 30 -19 33 -33 9 -10 -17 -10 -17 -11 0 0 11 9 21 19 24
11 3 17 11 14 18 -4 11 1 12 24 3 24 -9 29 -16 25 -34z m111 21 c17 5 32 -1
51 -17 24 -20 26 -26 17 -48 -20 -46 -72 -123 -78 -116 -3 3 5 20 18 38 l22
33 -30 -28 c-25 -23 -32 -25 -41 -14 -9 11 -7 21 11 47 20 30 60 59 43 31 -4
-6 -1 -11 6 -11 9 0 9 -3 -2 -10 -8 -5 -10 -10 -4 -10 6 0 19 10 30 23 10 12
15 19 10 15 -13 -11 -46 10 -56 35 -9 21 -9 21 -10 -3 0 -20 -2 -22 -10 -10
-8 12 -10 11 -10 -6 0 -11 -7 -29 -16 -40 -15 -19 -15 -18 -11 4 8 35 -2 26
-24 -23 -11 -25 -22 -79 -26 -125 -3 -44 -9 -83 -14 -85 -4 -3 -5 23 -2 57 3
35 4 61 2 58 -2 -3 -13 -16 -24 -30 -16 -19 -16 -22 -2 -11 21 16 21 11 2 -36
-12 -29 -18 -33 -29 -24 -18 15 -12 47 15 85 18 24 19 28 5 23 -14 -5 -15 -3
-6 13 5 10 15 22 20 25 6 3 10 11 10 17 0 6 -11 1 -25 -12 -27 -25 -35 -12 -9
14 8 9 11 16 5 16 -7 0 -10 18 -9 45 1 42 2 44 16 24 8 -11 20 -18 28 -15 12
5 14 -1 8 -31 -9 -49 11 -36 28 18 6 22 23 49 36 60 14 10 20 19 15 19 -6 0
-16 -7 -23 -15 -17 -21 -24 -11 -10 14 9 17 15 19 30 11 11 -6 30 -8 43 -5z
m-152 -382 c4 -32 1 -43 -13 -52 -26 -16 -31 -14 -25 11 3 12 1 30 -5 41 -7
14 -7 17 1 13 7 -5 11 1 11 14 0 38 25 16 31 -27z"/>
<path d="M141 623 c0 -13 -5 -23 -11 -23 -5 0 -7 -7 -4 -15 7 -18 8 -18 -33
-6 -26 8 -31 7 -26 -5 3 -9 12 -13 20 -10 8 3 11 1 8 -4 -10 -16 18 -11 41 8
16 13 19 23 13 47 -5 24 -7 25 -8 8z"/>
<path d="M100 441 c0 -5 5 -13 10 -16 6 -3 10 -2 10 4 0 5 -4 13 -10 16 -5 3
-10 2 -10 -4z"/>
<path d="M257 443 c-4 -3 -7 -13 -7 -21 0 -18 13 -7 16 13 2 17 1 18 -9 8z"/>
<path d="M92 748 c-14 -14 -16 -62 -2 -53 5 3 6 13 3 21 -3 9 0 20 8 24 7 5
11 11 8 14 -3 3 -11 0 -17 -6z"/>
<path d="M987 513 c-7 -37 15 -62 37 -43 19 15 21 41 4 58 -20 20 -35 14 -41
-15z m38 -3 c3 -11 3 -25 0 -30 -11 -18 -34 8 -28 30 7 26 20 25 28 0z"/>
<path d="M2387 513 c-7 -37 15 -62 37 -43 19 15 21 41 4 58 -20 20 -35 14 -41
-15z m38 -3 c3 -11 3 -25 0 -30 -11 -18 -34 8 -28 30 7 26 20 25 28 0z"/>
<path d="M2348 393 c7 -3 16 -2 19 1 4 3 -2 6 -13 5 -11 0 -14 -3 -6 -6z"/>
</g>
</svg>
