<?xml version="1.0" standalone="no"?>
<!DOCTYPE svg PUBLIC "-//W3C//DTD SVG 20010904//EN"
 "http://www.w3.org/TR/2001/REC-SVG-20010904/DTD/svg10.dtd">
<svg version="1.0" xmlns="http://www.w3.org/2000/svg"
 width="245.000000pt" height="80.000000pt" viewBox="0 0 245.000000 80.000000"
 preserveAspectRatio="xMidYMid meet">
<metadata>
Created by potrace 1.10, written by Peter Selinger 2001-2011
</metadata>
<g transform="translate(0.000000,80.000000) scale(0.100000,-0.100000)"
fill="#000000" stroke="none">
<path d="M88 779 c-33 -25 -34 -33 -8 -67 l21 -25 -31 -32 c-16 -17 -30 -38
-30 -46 0 -8 -7 -25 -16 -37 -9 -13 -13 -26 -10 -29 3 -4 6 -1 6 6 0 9 6 11
18 6 9 -4 29 -8 44 -10 22 -2 27 1 25 16 -2 10 -6 22 -10 25 -15 15 -6 43 19
63 31 24 52 28 34 6 -7 -8 -15 -13 -19 -10 -4 2 -5 -9 -3 -26 2 -16 -1 -35 -7
-43 -6 -7 -8 -16 -4 -19 14 -14 23 -6 23 21 0 41 11 73 23 65 5 -3 7 -2 4 4
-11 18 35 52 58 43 17 -7 17 -9 3 -9 -26 -1 -51 -46 -46 -81 5 -32 -6 -29 -16
5 -3 11 -3 3 0 -17 4 -30 2 -38 -11 -38 -8 0 -15 -4 -15 -10 0 -5 -7 -7 -15
-4 -8 4 -15 1 -15 -6 0 -7 -8 -9 -20 -5 -14 4 -20 2 -20 -9 0 -9 11 -18 25
-22 16 -4 25 -13 25 -26 0 -10 4 -17 9 -13 11 6 41 -21 41 -37 0 -5 -6 -8 -12
-5 -7 2 -12 11 -10 18 2 8 0 11 -4 7 -4 -4 -13 -3 -21 4 -10 8 -17 8 -25 0 -7
-7 -21 -12 -33 -12 -25 0 -65 -27 -65 -43 0 -9 2 -9 8 0 4 6 19 14 34 17 14 2
36 10 48 16 19 10 26 9 42 -7 18 -19 18 -20 -1 -37 -15 -14 -24 -15 -40 -7
-25 14 -63 15 -42 2 11 -7 10 -10 -5 -15 -11 -3 -7 -4 9 -2 15 2 27 -1 27 -5
0 -5 6 -6 13 -3 8 3 13 -4 14 -16 1 -12 -2 -18 -9 -14 -6 4 -8 3 -4 -4 3 -6 2
-14 -4 -17 -8 -5 -7 -12 2 -23 12 -15 11 -16 -5 -3 -10 8 -16 20 -13 28 3 8 1
11 -4 8 -13 -8 -52 13 -45 24 2 5 -1 14 -8 19 -10 8 -13 6 -14 -8 -2 -19 84
-100 104 -100 6 0 15 -25 22 -55 10 -45 16 -55 33 -55 18 0 19 -4 14 -33 -13
-65 -12 -72 12 -75 37 -6 60 22 58 71 -1 23 -5 48 -9 55 -5 6 -6 16 -2 21 3 6
0 31 -6 56 -10 41 -10 48 8 68 48 52 62 122 33 159 -18 24 -19 28 -4 57 8 17
18 56 21 86 5 49 3 59 -17 80 -13 14 -31 25 -41 25 -10 0 -21 13 -28 32 -24
68 -63 84 -113 47z m53 2 c-11 -7 -9 -10 9 -16 14 -5 19 -10 12 -17 -6 -6 -5
-19 4 -36 7 -14 11 -29 8 -34 -10 -16 -22 2 -29 42 -7 43 -35 57 -35 18 -1
-23 -1 -23 -16 2 l-15 25 5 -24 c3 -17 2 -21 -6 -13 -6 6 -8 18 -4 28 4 9 9
14 13 11 3 -4 15 0 27 8 11 8 25 15 31 15 5 0 4 -4 -4 -9z m-4 -95 c-4 -9 -12
-16 -19 -15 -10 0 -10 2 0 6 10 4 9 9 -5 20 -10 8 -12 12 -5 8 6 -3 12 -1 12
6 0 10 3 10 11 2 7 -7 9 -19 6 -27z m63 30 c0 -3 -4 -8 -10 -11 -5 -3 -10 -1
-10 4 0 6 5 11 10 11 6 0 10 -2 10 -4z m57 -68 c8 -12 9 -24 4 -45 -2 -5 -6 1
-11 12 -7 15 -9 16 -9 4 -1 -22 -38 -31 -45 -12 -14 37 38 71 61 41z m-175
-52 c2 -19 0 -32 -4 -30 -8 5 -12 64 -4 64 2 0 6 -15 8 -34z m-22 -16 c0 -5
-4 -10 -10 -10 -5 0 -10 5 -10 10 0 6 5 10 10 10 6 0 10 -4 10 -10z m210 -7
c0 -10 -5 -25 -11 -33 -9 -13 -10 -12 -5 3 3 10 2 16 -3 12 -14 -8 -41 5 -41
21 0 9 11 14 30 14 22 0 30 -5 30 -17z m-33 -36 c11 -11 -10 -27 -40 -29 -15
-1 -27 -6 -27 -10 0 -4 -4 -8 -10 -8 -13 0 -13 33 1 47 12 12 64 12 76 0z m15
-39 c-6 -6 -21 -12 -34 -13 -13 -1 -30 -3 -38 -4 -13 -1 -13 -2 0 -11 13 -9
13 -10 0 -10 -8 0 -21 4 -28 9 -9 5 2 12 35 21 26 7 52 17 57 21 14 13 22 1 8
-13z m28 -93 c-1 -5 -6 -1 -12 9 -10 18 -12 17 -29 -15 l-17 -34 -15 35 c-15
34 -14 35 11 51 26 15 28 15 44 -10 10 -14 18 -30 18 -36z m-31 -57 c-8 -13
-12 -26 -11 -30 1 -4 -7 -12 -19 -18 -15 -9 -24 -8 -35 1 -8 6 -14 8 -14 4 0
-4 10 -15 23 -26 16 -14 17 -17 5 -13 -23 8 -23 -5 -1 -22 10 -7 15 -16 10
-20 -10 -10 -38 28 -32 44 3 8 0 10 -7 6 -6 -4 -8 -3 -5 2 3 6 2 16 -4 24 -7
12 -9 12 -9 -3 0 -27 18 -59 48 -85 22 -18 23 -21 7 -17 -20 7 -20 6 -1 -9 16
-13 17 -16 4 -16 -8 0 -21 7 -28 15 -7 8 -9 15 -5 15 4 0 1 7 -6 16 -8 10 -19
29 -26 43 -20 44 -14 5 7 -49 22 -55 26 -80 11 -65 -5 6 -18 42 -29 82 -21 75
-20 78 19 141 18 29 25 28 44 -8 18 -35 19 -44 3 -34 -7 4 -8 3 -4 -5 11 -17
29 0 46 45 9 22 16 31 18 21 2 -9 -2 -26 -9 -39z m-16 -259 c0 -22 -6 -46 -13
-52 -10 -9 -12 -8 -7 5 7 20 -20 18 -35 -3 -7 -10 -8 -9 -2 6 4 11 9 35 12 52
2 18 8 31 12 28 5 -3 12 0 15 6 12 18 19 1 18 -42z"/>
<path d="M758 779 c-33 -25 -34 -32 -8 -67 19 -26 19 -29 4 -90 -15 -59 -15
-64 1 -82 23 -25 10 -45 -14 -22 -10 9 -15 22 -12 27 2 6 -3 3 -13 -4 -17 -14
-17 -16 -1 -27 10 -8 15 -21 12 -36 -4 -21 -4 -21 -6 -2 0 12 -10 24 -20 27
-14 3 -18 1 -14 -9 3 -8 9 -11 14 -8 5 3 9 0 9 -5 0 -6 -8 -11 -17 -11 -9 0
-13 -3 -9 -7 16 -16 41 -10 68 18 32 32 50 36 66 16 15 -17 4 -30 -43 -51 -95
-44 -101 -83 -20 -151 39 -34 59 -45 74 -40 16 5 20 1 23 -26 4 -43 33 -61 55
-34 14 19 15 17 9 -23 l-6 -43 32 3 c31 3 33 5 41 57 5 35 3 58 -4 67 -6 7
-19 29 -28 48 -15 29 -16 36 -4 40 17 7 43 67 43 99 0 14 -7 30 -15 37 -12 10
-12 15 1 36 29 43 -1 170 -45 194 -23 12 -74 14 -67 2 2 -4 0 -14 -5 -22 -9
-13 -10 -13 -6 0 2 8 0 23 -5 32 -6 14 -5 16 7 12 21 -8 19 9 -6 40 -24 31
-54 33 -91 5z m53 2 c-11 -7 -9 -10 8 -16 17 -5 20 -10 11 -20 -8 -10 -8 -15
0 -20 7 -4 10 -16 7 -26 -3 -11 -1 -19 3 -19 5 0 3 -15 -5 -34 -10 -24 -12
-48 -6 -85 4 -28 6 -51 4 -51 -8 0 -26 56 -24 75 2 17 0 17 -8 5 -10 -13 -11
-13 -11 0 0 30 13 60 26 60 8 0 11 8 8 23 -2 12 -7 37 -10 55 -7 36 -34 44
-34 10 -1 -23 -1 -23 -16 2 l-15 25 5 -24 c3 -17 2 -21 -6 -13 -6 6 -8 18 -4
28 4 9 9 14 13 11 3 -4 15 0 27 8 11 8 25 15 31 15 5 0 4 -4 -4 -9z m-3 -83
c-2 -12 -9 -23 -16 -24 -7 -1 -8 0 -2 3 7 3 4 11 -7 20 -10 8 -12 12 -5 8 6
-3 12 -1 12 4 0 6 5 11 11 11 6 0 9 -10 7 -22z m137 -18 c9 -10 18 -35 20 -56
l5 -39 -11 35 c-14 46 -27 60 -55 60 -27 0 -35 -11 -45 -64 -6 -31 -4 -45 9
-59 12 -14 13 -20 3 -30 -33 -33 -39 72 -8 144 13 31 19 36 40 32 14 -3 33
-13 42 -23z m-15 -31 c19 -34 6 -50 -30 -38 -35 13 -36 16 -13 41 21 23 30 23
43 -3z m-148 -34 c-3 -30 1 -54 12 -69 12 -19 12 -24 2 -22 -24 3 -46 28 -46
50 1 17 3 16 14 -9 13 -29 13 -29 8 17 -4 41 1 78 10 78 2 0 2 -20 0 -45z
m137 -45 c3 -25 3 -25 -18 -6 -26 23 -27 39 -3 34 9 -2 19 -14 21 -28z m31 8
c0 -13 3 -32 6 -44 3 -12 -3 -29 -16 -45 l-21 -24 16 32 c19 39 19 40 0 40 -9
0 -14 -6 -11 -13 3 -8 1 -16 -5 -19 -5 -4 -7 -10 -4 -15 3 -5 1 -11 -5 -15 -5
-3 -10 -12 -10 -18 0 -7 4 -6 11 3 9 13 10 13 6 0 -5 -21 -33 -24 -41 -4 -10
26 11 78 36 89 16 7 22 17 20 33 -2 12 2 22 7 22 6 0 11 -10 11 -22z m-70 -9
c0 -6 -4 -7 -10 -4 -5 3 -10 11 -10 16 0 6 5 7 10 4 6 -3 10 -11 10 -16z m-13
-75 c-3 -3 -12 -4 -19 -1 -8 3 -5 6 6 6 11 1 17 -2 13 -5z m97 -53 c-2 -47 -9
-61 -32 -62 -14 0 -13 -2 3 -9 19 -8 19 -9 -3 -9 -13 -1 -21 -4 -19 -8 3 -5 1
-18 -4 -30 -6 -17 -16 -23 -37 -23 -16 0 -32 3 -36 8 -4 4 -13 7 -19 7 -7 0
-12 14 -12 30 0 24 4 29 20 27 18 -3 18 -2 -2 13 -27 19 -32 58 -6 48 11 -4
14 -3 9 5 -11 19 5 14 21 -5 14 -17 14 -17 9 0 -6 19 9 24 19 6 4 -6 -1 -17
-11 -24 -28 -21 -9 -18 28 5 30 18 33 18 52 2 20 -17 20 -17 5 8 -12 18 -13
28 -5 37 18 19 21 15 20 -26z m-107 23 c-3 -3 -12 -4 -19 -1 -8 3 -5 6 6 6 11
1 17 -2 13 -5z m-70 -59 c-3 -7 -14 -12 -24 -11 -10 2 -22 1 -26 -1 -13 -8 14
-33 34 -33 13 0 19 -7 19 -23 0 -13 10 -32 22 -43 12 -10 18 -13 14 -6 -4 6
-2 12 3 12 16 0 13 -20 -4 -26 -17 -7 -83 44 -84 64 -1 6 -7 12 -15 12 -8 0
-13 8 -11 18 2 9 4 20 4 25 1 4 16 16 34 27 31 20 44 14 34 -15z m0 -31 c-3
-3 -12 -4 -19 -1 -8 3 -5 6 6 6 11 1 17 -2 13 -5z m138 -64 c-3 -5 -1 -10 5
-10 8 0 9 -7 5 -17 -4 -10 -7 -28 -6 -40 1 -31 -13 -29 -51 8 -18 17 -26 29
-18 26 8 -2 25 -7 38 -11 16 -5 22 -3 22 7 0 11 -7 13 -22 10 -22 -6 -22 -6 2
15 28 24 34 27 25 12z m51 -87 c-4 -16 -8 -39 -11 -52 -2 -13 -7 -26 -11 -30
-4 -3 -4 3 -1 14 7 20 7 20 -8 1 -14 -19 -15 -18 -15 13 0 31 26 80 43 81 5 0
6 -12 3 -27z m-76 -23 c0 -13 -1 -13 -10 0 -9 13 -10 13 -11 0 0 -10 -3 -8 -9
5 -14 31 -11 36 10 23 11 -7 20 -20 20 -28z"/>
<path d="M827 423 c-12 -12 -7 -22 16 -34 21 -11 21 -11 7 6 -8 10 -13 20 -12
22 6 8 -4 13 -11 6z"/>
<path d="M910 400 c-9 -6 -10 -10 -3 -10 6 0 15 5 18 10 8 12 4 12 -15 0z"/>
<path d="M876 376 c5 -12 2 -15 -12 -10 -12 3 -10 0 5 -9 25 -15 15 -32 -13
-21 -22 8 -20 -3 2 -15 24 -13 43 0 46 33 2 15 1 24 -2 21 -3 -2 -11 0 -19 7
-11 8 -12 7 -7 -6z"/>
<path d="M1488 779 c-33 -25 -34 -33 -8 -67 l21 -25 -31 -32 c-16 -17 -30 -38
-30 -46 0 -8 -7 -25 -16 -37 -9 -13 -13 -26 -10 -29 3 -4 6 -1 6 6 0 9 6 11
18 6 9 -4 29 -8 44 -10 22 -2 27 1 25 16 -2 10 -6 22 -10 25 -15 15 -6 43 19
63 31 24 52 28 34 6 -7 -8 -15 -13 -19 -10 -4 2 -5 -9 -3 -26 2 -16 -1 -35 -7
-43 -6 -7 -8 -16 -4 -19 14 -14 23 -6 23 21 0 41 11 73 23 65 5 -3 7 -2 4 4
-11 18 35 52 58 43 17 -7 17 -9 3 -9 -26 -1 -51 -46 -46 -81 5 -32 -6 -29 -16
5 -3 11 -3 3 0 -17 4 -30 2 -38 -11 -38 -8 0 -15 -4 -15 -10 0 -5 -7 -7 -15
-4 -8 4 -15 1 -15 -6 0 -7 -8 -9 -20 -5 -14 4 -20 2 -20 -9 0 -9 11 -18 25
-22 16 -4 25 -13 25 -26 0 -10 4 -17 9 -13 11 6 41 -21 41 -37 0 -5 -6 -8 -12
-5 -7 2 -12 11 -10 18 2 8 0 11 -4 7 -4 -4 -13 -3 -21 4 -10 8 -17 8 -25 0 -7
-7 -21 -12 -33 -12 -39 0 -65 -28 -65 -70 0 -33 6 -43 49 -79 27 -23 53 -41
58 -41 6 0 15 -25 22 -55 10 -45 16 -55 33 -55 18 0 19 -4 14 -33 -13 -65 -12
-72 12 -75 37 -6 60 22 58 71 -1 23 -5 48 -9 55 -5 6 -6 16 -2 21 3 6 0 31 -6
56 -10 41 -10 48 8 68 48 52 62 122 33 159 -18 24 -19 28 -4 57 8 17 18 56 21
86 5 49 3 59 -17 80 -13 14 -31 25 -41 25 -10 0 -21 13 -28 32 -24 68 -63 84
-113 47z m53 2 c-11 -7 -9 -10 9 -16 14 -5 19 -10 12 -17 -6 -6 -5 -19 4 -36
7 -14 11 -29 8 -34 -10 -16 -22 2 -29 42 -7 43 -35 57 -35 18 -1 -23 -1 -23
-16 2 l-15 25 5 -24 c3 -17 2 -21 -6 -13 -6 6 -8 18 -4 28 4 9 9 14 13 11 3
-4 15 0 27 8 11 8 25 15 31 15 5 0 4 -4 -4 -9z m54 -60 c3 -5 1 -12 -5 -16 -5
-3 -10 1 -10 9 0 18 6 21 15 7z m-58 -35 c-4 -9 -12 -16 -19 -15 -10 0 -10 2
0 6 10 4 9 9 -5 20 -10 8 -12 12 -5 8 6 -3 12 -1 12 6 0 10 3 10 11 2 7 -7 9
-19 6 -27z m123 -41 c7 -8 9 -23 5 -32 -7 -17 -8 -16 -15 2 -7 15 -9 16 -9 4
-1 -22 -38 -31 -45 -12 -15 39 37 70 64 38z m-178 -49 c2 -19 0 -32 -4 -30 -8
5 -12 64 -4 64 2 0 6 -15 8 -34z m-22 -16 c0 -5 -4 -10 -10 -10 -5 0 -10 5
-10 10 0 6 5 10 10 10 6 0 10 -4 10 -10z m210 -7 c0 -10 -5 -25 -11 -33 -9
-13 -10 -12 -5 3 3 10 2 16 -3 12 -14 -8 -41 5 -41 21 0 9 11 14 30 14 22 0
30 -5 30 -17z m-33 -36 c11 -11 -10 -27 -40 -29 -15 -1 -27 -6 -27 -10 0 -4
-4 -8 -10 -8 -13 0 -13 33 1 47 12 12 64 12 76 0z m15 -39 c-6 -6 -21 -12 -34
-13 -13 -1 -30 -3 -38 -4 -13 -1 -13 -2 0 -11 13 -9 13 -10 0 -10 -8 0 -21 4
-28 9 -9 5 2 12 35 21 26 7 52 17 57 21 14 13 22 1 8 -13z m28 -93 c-1 -5 -6
-1 -12 9 -10 18 -12 17 -29 -15 l-17 -34 -15 35 c-15 34 -14 35 11 51 26 15
28 15 44 -10 10 -14 18 -30 18 -36z m-146 7 c15 -18 15 -20 -3 -36 -15 -14
-24 -15 -40 -7 -25 14 -63 15 -42 2 11 -7 10 -10 -5 -15 -11 -3 -7 -4 9 -2 15
2 27 -1 27 -5 0 -5 6 -6 13 -3 8 3 13 -4 14 -17 1 -12 -1 -19 -4 -15 -3 3 -14
1 -24 -5 -22 -11 -51 1 -55 22 -1 8 -3 19 -4 24 -6 27 1 47 15 42 8 -4 17 -1
21 5 5 7 2 8 -6 3 -9 -5 -11 -4 -6 4 4 6 12 9 17 6 5 -4 17 -1 26 4 24 14 28
14 47 -7z m115 -64 c-8 -13 -12 -26 -11 -30 1 -4 -7 -12 -19 -18 -15 -9 -24
-8 -35 1 -8 6 -14 8 -14 4 0 -4 10 -15 23 -26 16 -14 17 -17 5 -13 -23 8 -23
-5 -1 -22 10 -7 15 -16 10 -20 -10 -10 -38 28 -32 44 3 8 0 10 -7 6 -6 -4 -8
-3 -5 2 3 6 2 16 -4 24 -7 12 -9 11 -9 -5 0 -28 37 -85 55 -85 8 0 15 -4 15
-10 0 -5 -8 -7 -17 -4 -17 5 -17 5 0 -9 17 -14 16 -15 -4 -20 -11 -3 -18 -3
-15 0 3 4 1 12 -5 20 -6 7 -8 13 -4 13 5 0 1 8 -7 18 -9 9 -19 27 -23 40 -4
13 -9 21 -12 18 -3 -2 4 -30 16 -61 23 -60 27 -85 12 -70 -5 6 -18 42 -29 82
-21 75 -20 78 19 141 18 29 25 28 44 -8 18 -35 19 -44 3 -34 -7 4 -8 3 -4 -5
11 -17 29 0 46 45 9 22 16 31 18 21 2 -9 -2 -26 -9 -39z m-157 -50 c-9 -9 -9
-15 0 -27 8 -11 5 -10 -8 2 -16 15 -17 19 -4 27 21 13 26 12 12 -2z m141 -209
c0 -22 -6 -46 -13 -52 -10 -9 -12 -8 -7 5 7 20 -20 18 -35 -3 -7 -10 -8 -9 -2
6 4 11 9 35 12 52 2 18 8 31 12 28 5 -3 12 0 15 6 12 18 19 1 18 -42z"/>
<path d="M1495 400 c-16 -7 -17 -9 -3 -9 9 -1 20 4 23 9 7 11 7 11 -20 0z"/>
<path d="M2197 793 c-12 -11 -8 -23 9 -23 8 0 12 -4 9 -10 -3 -5 -1 -10 4 -10
6 0 11 6 11 14 0 8 5 18 11 22 8 4 9 -1 4 -17 -11 -33 -26 -41 -46 -23 -16 14
-18 14 -28 -5 -10 -17 -8 -23 9 -33 24 -15 26 -37 5 -64 -17 -22 -19 -15 -5
20 5 14 6 26 1 26 -5 0 -12 -11 -15 -25 -4 -14 -11 -25 -16 -25 -13 0 -13 37
0 45 6 3 10 12 10 18 0 7 -9 -1 -19 -17 -31 -46 -23 -76 26 -97 l41 -17 4 29
c4 22 1 29 -9 25 -10 -4 -11 -1 -3 14 5 10 10 31 10 45 0 20 4 26 14 22 10 -4
13 -1 10 7 -3 7 2 19 11 26 17 14 20 46 6 55 -5 3 -12 1 -16 -5 -3 -5 -13 -10
-21 -10 -8 0 -12 5 -9 10 7 11 2 13 -8 3z m-22 -175 c14 -6 25 -15 25 -20 0
-12 -17 -10 -32 5 -7 8 -20 16 -28 20 -9 3 -10 6 -3 6 7 1 24 -4 38 -11z"/>
<path d="M2275 770 c4 -6 13 -9 20 -8 15 3 17 -4 8 -28 -5 -13 -7 -13 -14 -2
-7 10 -9 8 -9 -6 0 -16 -2 -17 -17 -5 -15 13 -16 11 -10 -18 6 -31 1 -38 -25
-34 -4 0 -6 -9 -5 -22 0 -12 -3 -46 -7 -75 -7 -48 -6 -56 15 -78 21 -23 21
-24 3 -25 -10 -1 -29 0 -41 1 -31 2 -72 -30 -73 -58 0 -24 52 -123 74 -142 16
-13 66 -6 76 11 4 6 5 21 2 33 -3 16 -2 18 7 10 13 -12 13 -21 7 -94 -4 -57
-4 -58 -16 -40 -9 13 -10 13 -11 0 -1 -8 -5 1 -9 20 l-8 35 1 -35 c2 -30 5
-35 27 -35 19 0 26 6 30 25 3 16 6 6 10 -30 4 -45 8 -54 23 -52 13 2 17 -4 17
-28 0 -17 -5 -41 -11 -52 -8 -15 -8 -19 0 -14 6 4 11 3 11 -3 0 -5 -6 -12 -12
-14 -8 -3 -6 -6 5 -6 9 -1 17 5 17 12 0 8 3 8 9 -2 16 -25 38 -4 44 40 3 24 3
48 -1 54 -4 5 -7 82 -8 171 -1 137 -4 164 -19 188 -18 26 -18 29 -2 38 27 15
67 84 67 116 0 29 -31 68 -43 55 -4 -3 -7 -1 -7 6 0 7 -5 9 -10 6 -20 -12 -50
5 -47 28 1 16 -3 22 -16 21 -14 -2 -15 1 -6 12 15 18 3 34 -27 34 -15 0 -23
-4 -19 -10z m15 -79 c-16 -32 -11 -38 9 -11 l19 25 6 -25 c3 -14 7 -38 8 -54
2 -16 9 -31 16 -34 9 -3 11 3 6 23 -5 21 -4 26 7 23 8 -3 13 -13 13 -22 -1 -9
3 -16 8 -16 6 0 7 13 3 31 -6 24 -4 30 6 27 8 -3 13 -17 12 -34 -2 -22 0 -25
7 -14 7 11 9 6 6 -19 -2 -20 -11 -38 -22 -44 -25 -14 -75 -17 -98 -5 -14 8
-17 7 -10 -4 6 -11 5 -11 -9 1 -21 17 -21 25 -2 44 12 13 13 22 1 66 -9 36
-10 52 -2 55 22 9 26 6 16 -13z m80 -31 c0 -5 -8 -10 -17 -10 -15 0 -16 2 -3
10 19 12 20 12 20 0z m-110 -4 c0 -2 -8 -10 -17 -17 -16 -13 -17 -12 -4 4 13
16 21 21 21 13z m6 -41 c-3 -13 -7 -29 -11 -35 -8 -13 6 -85 14 -72 5 8 121
24 121 16 0 -9 -75 -44 -93 -43 -21 1 -20 2 3 10 22 8 22 8 -8 5 -28 -2 -35 1
-43 22 -17 45 -18 86 -2 105 21 23 24 22 19 -8z m171 -12 c-3 -10 -5 -4 -5 12
0 17 2 24 5 18 2 -7 2 -21 0 -30z m-51 -156 c8 -4 14 -16 14 -25 -1 -16 -1
-16 -11 1 -14 24 -26 21 -33 -9 -6 -21 -10 -23 -21 -14 -25 21 -22 54 5 66 18
8 26 8 29 0 2 -6 10 -15 17 -19z m-96 -20 c0 -6 -8 -3 -18 6 -10 10 -22 17
-27 17 -4 0 3 -9 17 -19 13 -11 30 -38 36 -60 17 -54 37 -67 28 -18 -6 30 -4
36 8 31 8 -3 20 4 29 16 13 19 14 18 14 -28 0 -26 4 -59 8 -72 l7 -25 -26 24
c-14 14 -26 19 -26 13 0 -6 4 -14 10 -17 5 -3 15 -15 20 -25 9 -16 8 -18 -6
-13 -14 5 -13 1 5 -23 27 -38 33 -70 15 -85 -11 -9 -17 -5 -29 24 -19 47 -19
52 3 36 13 -11 13 -8 -3 11 -11 14 -22 27 -24 30 -2 3 -1 -23 3 -58 3 -35 2
-61 -3 -58 -4 3 -11 44 -15 91 -4 55 -13 100 -26 126 -23 44 -31 50 -22 17 5
-21 4 -22 -11 -9 -9 7 -17 25 -17 40 0 20 -2 23 -10 11 -8 -12 -10 -10 -10 10
-1 24 -1 24 -10 3 -10 -25 -43 -46 -56 -35 -5 4 0 -3 10 -15 11 -13 24 -23 30
-23 6 0 4 5 -4 10 -11 7 -11 10 -2 10 7 0 10 5 7 10 -10 17 11 11 27 -7 27
-31 37 -58 28 -73 -7 -12 -15 -9 -41 15 l-32 30 22 -33 c13 -18 21 -35 18 -38
-6 -6 -47 50 -47 64 0 5 -6 15 -14 21 -25 21 -25 49 0 76 19 21 31 25 52 21
15 -3 34 -2 42 4 15 10 40 -11 40 -33z m100 -328 c0 -12 4 -17 11 -13 8 4 8 1
1 -13 -6 -11 -8 -29 -5 -41 6 -25 1 -27 -25 -11 -17 11 -20 45 -7 87 7 20 25
14 25 -9z"/>
<path d="M2299 613 c-4 -27 -1 -36 17 -48 26 -17 48 -20 39 -5 -3 5 0 7 8 4 8
-3 17 1 20 10 5 12 0 13 -26 5 -41 -12 -40 -12 -33 6 3 8 1 15 -4 15 -5 0 -10
10 -12 23 -3 18 -5 16 -9 -10z"/>
<path d="M2337 443 c-4 -3 -7 -11 -7 -17 0 -6 5 -5 12 2 6 6 9 14 7 17 -3 3
-9 2 -12 -2z"/>
<path d="M2185 431 c-3 -5 -1 -12 5 -16 5 -3 10 1 10 9 0 18 -6 21 -15 7z"/>
<path d="M2341 354 c0 -11 3 -14 6 -6 3 7 2 16 -1 19 -3 4 -6 -2 -5 -13z"/>
<path d="M2340 751 c0 -6 5 -11 11 -11 6 0 9 -9 6 -20 -3 -11 -1 -23 4 -26 15
-9 10 43 -6 56 -10 9 -15 9 -15 1z"/>
<path d="M22 528 c-17 -17 -15 -43 4 -58 22 -19 44 6 37 43 -6 29 -21 35 -41
15z m31 -18 c6 -22 -17 -48 -28 -30 -8 12 3 50 15 50 4 0 10 -9 13 -20z"/>
<path d="M1422 528 c-17 -17 -15 -43 4 -58 22 -19 44 6 37 43 -6 29 -21 35
-41 15z m31 -18 c6 -22 -17 -48 -28 -30 -8 12 3 50 15 50 4 0 10 -9 13 -20z"/>
<path d="M95 400 c-16 -7 -17 -9 -3 -9 9 -1 20 4 23 9 7 11 7 11 -20 0z"/>
</g>
</svg>
