<?xml version="1.0" standalone="no"?>
<!DOCTYPE svg PUBLIC "-//W3C//DTD SVG 20010904//EN"
 "http://www.w3.org/TR/2001/REC-SVG-20010904/DTD/svg10.dtd">
<svg version="1.0" xmlns="http://www.w3.org/2000/svg"
 width="33.000000pt" height="67.000000pt" viewBox="0 0 33.000000 67.000000"
 preserveAspectRatio="xMidYMid meet">
<metadata>
Created by potrace 1.10, written by Peter Selinger 2001-2011
</metadata>
<g transform="translate(0.000000,67.000000) scale(0.100000,-0.100000)"
fill="#000000" stroke="none">
<path d="M151 644 c-26 -33 -26 -40 -2 -47 24 -6 34 2 21 18 -7 8 -2 15 17 24
34 16 62 -6 44 -35 -10 -18 -10 -17 -11 4 0 34 -27 26 -34 -10 -3 -18 -8 -43
-10 -55 -3 -15 0 -23 8 -23 13 0 26 -30 26 -60 0 -13 -1 -13 -11 0 -8 12 -10
12 -8 -5 2 -19 -16 -75 -24 -75 -2 0 0 24 4 53 5 38 2 60 -9 82 -9 18 -11 30
-4 33 5 1 8 11 5 20 -5 21 -62 28 -93 12 -45 -24 -75 -150 -46 -194 13 -21 13
-26 1 -36 -8 -7 -15 -23 -15 -37 0 -32 26 -92 43 -99 12 -4 11 -11 -4 -40 -9
-19 -22 -41 -28 -48 -7 -9 -9 -32 -4 -67 8 -52 10 -54 41 -57 l32 -3 -6 43
c-6 40 -5 42 9 23 22 -27 51 -9 55 34 3 27 7 31 23 26 15 -5 35 6 74 40 81 68
75 107 -20 151 -47 21 -58 34 -43 51 16 20 34 16 66 -16 27 -28 52 -34 68 -18
4 4 0 7 -9 7 -9 0 -17 5 -17 11 0 5 4 8 9 5 5 -3 11 0 14 8 4 9 0 12 -13 9
-10 -3 -21 -15 -23 -27 -4 -19 -4 -19 -6 3 0 13 6 29 15 35 14 11 14 13 -2 27
-10 7 -15 10 -13 4 3 -5 -2 -18 -12 -27 -24 -23 -37 -3 -14 22 16 18 16 23 1
82 -15 61 -15 64 4 90 26 36 25 43 -9 67 -39 28 -65 26 -90 -5z m109 -29 c0
-8 -3 -16 -7 -18 -5 -3 -8 5 -8 18 0 13 3 21 8 18 4 -2 7 -10 7 -18z m-50 -36
c0 -5 6 -7 13 -4 6 4 4 0 -6 -8 -11 -9 -14 -17 -7 -20 6 -3 5 -4 -2 -3 -16 3
-24 46 -9 46 6 0 11 -5 11 -11z m-63 -35 c1 -16 5 -52 8 -79 6 -39 4 -54 -8
-63 -21 -18 -33 3 -13 23 10 11 13 26 9 53 -8 53 -20 72 -47 72 -28 0 -41 -14
-55 -60 l-11 -35 5 39 c5 44 27 73 59 78 40 7 51 2 53 -28z m-35 -21 c25 -22
23 -29 -12 -42 -36 -12 -49 4 -30 38 13 25 18 26 42 4z m116 -60 c-4 -51 4
-62 15 -18 4 19 5 19 6 -1 1 -22 -21 -47 -45 -50 -10 -2 -10 3 2 22 10 15 15
39 13 68 -2 24 0 42 5 39 4 -3 6 -30 4 -60z m-161 -13 c-3 -11 -1 -23 4 -26 5
-3 7 -10 3 -15 -3 -5 -10 -7 -15 -4 -13 9 -11 -1 6 -38 l16 -32 -21 24 c-13
16 -19 33 -16 45 3 12 6 31 6 44 0 12 5 22 11 22 6 0 9 -9 6 -20z m53 11 c0
-12 -29 -35 -36 -28 -11 10 5 37 21 37 8 0 15 -4 15 -9z m12 -23 c-7 -7 -12
-8 -12 -2 0 14 12 26 19 19 2 -3 -1 -11 -7 -17z m-13 -61 c7 -19 9 -42 5 -51
-8 -20 -36 -17 -41 4 -4 13 -3 13 6 0 7 -9 11 -10 11 -3 0 6 -5 15 -10 18 -6
4 -8 10 -5 15 3 5 1 11 -4 15 -14 8 -2 35 14 35 8 0 18 -15 24 -33z m38 -13
c-3 -3 -12 -4 -19 -1 -8 3 -5 6 6 6 11 1 17 -2 13 -5z m-105 -64 c-16 -25 -16
-25 4 -8 19 16 22 16 52 -2 37 -23 56 -26 28 -5 -10 7 -15 18 -11 24 10 18 25
13 19 -6 -5 -17 -5 -17 9 0 16 19 32 24 21 5 -5 -8 -2 -9 9 -5 26 10 21 -29
-5 -48 -21 -15 -21 -16 -3 -13 16 2 20 -3 20 -27 0 -16 -4 -30 -10 -31 -5 0
-18 -4 -28 -8 -9 -5 -30 -6 -44 -3 -26 5 -26 4 -8 -9 16 -12 16 -14 2 -14 -9
0 -21 10 -28 21 -8 15 -8 19 0 15 7 -5 10 2 9 18 -2 18 -8 26 -23 27 -20 0
-20 0 0 9 16 7 17 9 3 9 -24 1 -35 25 -30 66 3 27 7 31 17 22 10 -9 9 -17 -3
-37z m115 34 c-3 -3 -12 -4 -19 -1 -8 3 -5 6 6 6 11 1 17 -2 13 -5z m108 -64
c14 -22 13 -50 -1 -50 -8 0 -14 -5 -14 -10 0 -20 -65 -70 -84 -65 -12 2 -32
-7 -53 -25 -38 -33 -53 -38 -53 -15 0 9 21 25 48 37 26 12 51 24 56 26 5 3 5
-2 1 -9 -5 -8 1 -5 13 5 12 11 22 30 22 43 0 16 6 23 19 23 10 0 24 7 31 15
13 16 12 17 -22 19 -16 1 -24 8 -26 24 -3 23 -3 23 27 8 16 -9 33 -20 36 -26z
m-38 -26 c-3 -3 -12 -4 -19 -1 -8 3 -5 6 6 6 11 1 17 -2 13 -5z m-157 -95 c0
-5 -4 -9 -10 -9 -5 0 -10 7 -10 16 0 8 5 12 10 9 6 -3 10 -10 10 -16z m-29
-51 c10 -13 18 -38 19 -57 0 -33 -1 -34 -15 -15 -15 19 -15 19 -8 -1 3 -11 3
-17 -1 -14 -4 4 -9 17 -11 30 -3 13 -7 36 -11 52 -7 33 2 34 27 5z m80 -19
c-5 -13 -10 -17 -11 -9 0 13 -1 13 -10 0 -8 -12 -10 -12 -10 -1 0 13 31 43 38
37 1 -2 -2 -14 -7 -27z"/>
<path d="M159 296 c-1 -3 -2 -9 -3 -13 -1 -5 -5 -14 -10 -21 -7 -11 -4 -12 13
-3 11 7 21 16 21 21 0 10 -19 24 -21 16z"/>
<path d="M77 269 c7 -7 15 -10 18 -7 3 3 -2 9 -12 12 -14 6 -15 5 -6 -5z"/>
<path d="M115 250 c-4 -6 -10 -8 -14 -6 -4 3 -6 -5 -5 -17 1 -12 3 -26 3 -30
1 -5 5 -6 10 -3 5 4 11 1 13 -4 2 -6 11 -4 23 5 18 15 18 16 2 11 -31 -10 -42
6 -16 21 15 9 17 12 5 9 -13 -5 -17 -2 -12 9 6 17 0 20 -9 5z"/>
</g>
</svg>
