<?xml version="1.0" standalone="no"?>
<!DOCTYPE svg PUBLIC "-//W3C//DTD SVG 20010904//EN"
 "http://www.w3.org/TR/2001/REC-SVG-20010904/DTD/svg10.dtd">
<svg version="1.0" xmlns="http://www.w3.org/2000/svg"
 width="300.000000pt" height="76.000000pt" viewBox="0 0 300.000000 76.000000"
 preserveAspectRatio="xMidYMid meet">
<metadata>
Created by potrace 1.10, written by Peter Selinger 2001-2011
</metadata>
<g transform="translate(0.000000,76.000000) scale(0.100000,-0.100000)"
fill="#000000" stroke="none">
<path d="M184 746 c-3 -8 0 -25 7 -38 7 -13 12 -30 11 -38 -1 -10 1 -11 4 -2
11 24 24 12 24 -23 0 -24 6 -39 20 -47 24 -15 25 -24 5 -32 -11 -4 -15 0 -13
11 2 9 -2 18 -8 20 -7 2 -10 -7 -8 -24 2 -16 1 -20 -2 -8 -3 11 -16 31 -27 45
-12 13 -15 19 -5 12 10 -8 19 -9 22 -3 4 5 -2 12 -12 16 -14 4 -18 12 -14 32
4 19 2 24 -8 18 -7 -4 -16 -2 -22 6 -7 10 -8 8 -2 -6 4 -11 8 -31 8 -45 0 -14
11 -33 23 -43 23 -19 25 -55 3 -111 -14 -39 -19 -31 -8 14 6 22 7 48 3 57 -5
10 -9 21 -9 25 -2 15 -16 20 -16 5 0 -23 -20 -22 -21 1 0 10 -5 6 -11 -11 -9
-24 -15 -28 -38 -25 -20 3 -26 1 -23 -9 3 -7 9 -11 13 -8 5 3 10 -1 13 -7 3
-9 14 -6 37 11 25 18 34 21 41 10 4 -7 4 -20 0 -27 -5 -8 -6 -23 -4 -33 3 -11
0 -19 -6 -19 -7 0 -9 -4 -6 -10 10 -17 -18 -11 -53 10 -36 22 -42 35 -12 27
11 -3 18 -2 15 3 -2 4 -19 11 -37 15 -18 4 -27 9 -21 12 10 3 9 9 -3 20 -10
11 -13 25 -9 42 8 32 21 46 29 33 3 -6 -1 -17 -9 -25 -20 -20 -19 -27 4 -27
11 0 18 6 17 16 0 9 5 19 13 22 11 3 12 -2 7 -23 -6 -24 -5 -27 7 -17 8 7 12
23 9 41 -5 33 12 48 33 31 10 -8 15 -9 15 -2 0 6 -4 14 -10 17 -5 3 -10 14
-10 23 0 11 -8 18 -21 19 -16 2 -20 -3 -16 -18 5 -19 -6 -25 -55 -33 -28 -4
-48 -28 -48 -57 0 -32 40 -102 66 -117 15 -9 15 -11 -2 -28 -17 -17 -19 -35
-18 -174 0 -85 -4 -160 -9 -167 -5 -7 -5 -31 0 -55 8 -41 11 -43 46 -46 28 -2
37 1 37 12 0 8 -4 18 -10 21 -17 10 -12 75 5 75 11 0 15 13 16 53 1 38 3 45 8
27 5 -18 14 -25 31 -25 22 0 25 5 27 35 1 19 -1 26 -4 16 -5 -17 -32 -53 -34
-44 -7 29 -6 125 2 137 8 13 9 11 7 -10 -2 -14 5 -34 15 -43 9 -10 17 -12 17
-6 0 7 6 8 19 1 17 -9 24 -2 60 55 48 76 50 92 17 123 -20 19 -32 22 -65 17
-44 -6 -54 6 -21 24 13 7 20 21 20 41 0 26 6 33 45 50 55 24 57 40 14 109 -29
47 -49 63 -49 40 0 -20 -38 -10 -43 12 -4 12 -4 24 -1 27 3 3 7 -5 11 -17 6
-24 20 -30 20 -8 0 7 -9 18 -19 25 -15 9 -20 8 -24 -3z m101 -97 c9 -38 -13
-58 -32 -32 -23 30 -14 58 19 62 3 1 9 -13 13 -30z m-268 -76 c-3 -10 -5 -4
-5 12 0 17 2 24 5 18 2 -7 2 -21 0 -30z m293 27 c0 -5 -8 -10 -17 -10 -15 0
-16 2 -3 10 19 12 20 12 20 0z m-189 -160 c5 0 9 -4 9 -10 0 -5 -7 -10 -16
-10 -14 0 -14 -3 -4 -15 10 -12 10 -18 0 -30 -11 -13 -10 -14 5 -9 15 6 16 4
6 -15 -7 -12 -10 -30 -8 -39 2 -11 11 0 25 31 12 27 20 53 17 58 -9 13 14 51
26 43 6 -4 4 -13 -7 -25 -21 -23 -12 -24 21 -3 25 16 25 16 25 -12 0 -23 -2
-26 -10 -14 -8 12 -10 11 -10 -6 0 -11 -7 -29 -16 -40 -15 -19 -15 -18 -11 4
8 34 0 26 -22 -21 -11 -24 -23 -78 -27 -120 -7 -82 -24 -109 -18 -30 l3 48
-11 -43 c-8 -30 -16 -42 -27 -40 -24 5 -25 37 -2 68 14 20 17 30 8 33 -8 2 -7
9 6 21 22 23 22 44 0 23 -17 -15 -18 -13 -15 39 2 30 8 52 13 48 5 -3 9 6 9
20 0 14 -4 26 -10 26 -5 0 -7 7 -3 16 3 8 12 13 20 10 8 -3 19 -6 24 -6z m167
-33 c14 -11 7 -43 -16 -70 -9 -10 -17 -25 -18 -33 -3 -19 -25 -46 -32 -39 -3
3 3 14 13 25 10 11 13 20 8 20 -6 0 -16 -7 -23 -15 -7 -8 -17 -15 -22 -15 -13
0 -2 58 13 77 13 15 43 18 34 3 -4 -6 1 -7 11 -3 15 5 15 7 0 15 -9 5 -13 14
-10 20 4 7 2 8 -4 4 -8 -5 -12 1 -12 14 0 18 4 20 23 14 12 -3 28 -11 35 -17z
m-200 -354 c-2 -17 -1 -30 3 -27 4 2 10 0 14 -6 9 -14 -18 -12 -34 2 -11 10
-13 10 -7 1 4 -7 2 -13 -5 -13 -7 0 -9 9 -6 22 4 12 2 27 -4 34 -7 9 -6 19 3
33 12 20 14 20 26 4 7 -10 12 -32 10 -50z"/>
<path d="M256 635 c4 -8 8 -15 10 -15 2 0 4 7 4 15 0 8 -4 15 -10 15 -5 0 -7
-7 -4 -15z"/>
<path d="M236 747 c3 -10 9 -15 12 -12 3 3 0 11 -7 18 -10 9 -11 8 -5 -6z"/>
<path d="M838 750 c-9 -6 -22 -26 -28 -44 -10 -32 -9 -38 25 -82 36 -46 43
-83 17 -92 -9 -3 -12 4 -9 20 2 12 2 17 0 11 -8 -23 -20 -14 -16 11 5 25 -34
96 -53 96 -23 0 -54 -47 -54 -81 0 -43 19 -112 33 -121 6 -4 2 -16 -12 -34
-17 -21 -20 -35 -15 -63 8 -45 21 -71 47 -91 18 -15 19 -21 8 -64 -6 -26 -9
-51 -5 -57 3 -5 2 -15 -4 -22 -5 -7 -9 -29 -9 -49 -1 -43 24 -71 59 -66 24 3
26 15 12 71 -5 23 -3 27 14 27 17 0 23 10 33 55 7 30 16 55 21 55 5 0 30 16
54 36 38 32 44 42 44 75 0 41 -26 69 -66 69 -25 0 -59 34 -49 49 10 17 40 13
60 -9 14 -16 21 -17 32 -8 22 18 12 62 -14 66 -24 3 -33 -21 -13 -33 6 -4 7 1
3 11 -4 12 -2 15 8 12 8 -3 15 -12 17 -21 4 -20 -27 -16 -43 6 -7 10 -19 15
-29 11 -9 -3 -16 -1 -16 4 0 16 12 21 58 24 45 3 50 9 27 28 -8 7 -15 20 -15
28 0 9 -12 28 -26 43 -20 21 -24 31 -16 45 6 11 7 27 1 42 -6 15 -5 21 1 17 6
-3 10 -13 10 -21 0 -8 5 -14 10 -14 20 0 9 29 -19 49 -32 23 -57 26 -83 11z
m56 -16 c20 -20 21 -45 1 -38 -8 4 -12 10 -9 15 3 5 1 9 -4 9 -12 0 -22 -24
-22 -51 0 -25 -26 -24 -40 1 -6 12 -7 20 -1 20 5 0 12 -8 14 -17 3 -10 5 -4 6
13 1 19 7 34 17 38 8 3 12 10 9 16 -10 16 12 12 29 -6z m1 -64 c3 -5 0 -10 -7
-11 -9 0 -10 -2 -1 -5 7 -3 10 -11 7 -19 -3 -7 -1 -16 5 -20 16 -9 14 -68 -1
-60 -7 4 -4 -1 6 -9 13 -10 15 -16 7 -16 -8 0 -20 -8 -27 -17 -7 -10 -14 -13
-14 -6 0 6 4 14 9 17 13 9 6 62 -13 90 -12 19 -13 24 -2 20 10 -4 12 2 9 20
-5 26 10 36 22 16z m-91 -59 c24 -26 12 -48 -24 -43 -23 3 -30 10 -30 26 0 40
26 48 54 17z m-4 -65 c0 -8 -9 -18 -20 -21 -11 -3 -20 -12 -21 -18 -1 -7 -4
-1 -8 13 -10 32 -5 40 25 40 14 0 24 -6 24 -14z m160 4 c0 -5 -4 -10 -10 -10
-5 0 -10 5 -10 10 0 6 5 10 10 10 6 0 10 -4 10 -10z m-106 -54 c8 -14 8 -20
-1 -23 -7 -2 -9 -11 -6 -19 6 -16 -22 -20 -32 -4 -3 6 -14 10 -24 10 -10 0
-25 7 -32 16 -12 15 -11 16 11 9 22 -7 23 -6 12 8 -10 12 -10 16 0 20 25 11
61 2 72 -17z m-61 -69 c24 -13 24 -14 10 -48 l-15 -34 -17 33 c-9 18 -21 29
-26 25 -4 -4 -5 -2 -1 5 5 7 15 11 23 7 13 -4 14 -3 3 10 -15 18 -10 19 23 2z
m80 -19 c-24 -24 -37 -21 -27 6 3 9 16 16 27 16 l21 0 -21 -22z m69 -18 c20
-6 38 -16 41 -23 8 -20 -19 -74 -42 -87 -18 -9 -23 -7 -33 15 -14 30 1 47 37
41 11 -2 14 -1 6 1 -12 4 -12 6 0 14 11 7 10 9 -4 9 -9 0 -26 -6 -37 -12 -16
-11 -22 -9 -34 7 -29 40 -3 54 66 35z m-165 -57 l15 -38 19 38 c11 20 23 37
27 37 5 0 18 -18 31 -40 23 -42 25 -97 3 -92 -8 1 -11 -6 -7 -20 2 -13 -2 -36
-10 -53 -9 -16 -13 -22 -10 -12 19 68 19 73 1 58 -9 -8 -14 -16 -11 -19 8 -9
-16 -32 -34 -32 -13 1 -13 2 3 11 15 9 16 13 5 20 -10 6 -11 9 -1 9 15 0 52
59 51 80 0 8 -6 3 -12 -11 -9 -20 -17 -24 -31 -19 -18 6 -18 7 5 24 20 15 21
17 4 12 -11 -3 -25 -2 -31 2 -16 11 -44 55 -44 69 0 23 11 14 27 -24z m47
-108 c-6 -16 -24 -21 -24 -7 0 11 11 22 21 22 5 0 6 -7 3 -15z m-16 -107 c7
-7 12 -22 12 -34 0 -13 5 -26 10 -29 6 -3 10 -12 10 -18 0 -7 -4 -6 -10 3 -8
13 -10 13 -10 1 0 -11 -4 -9 -15 5 -15 19 -15 19 -9 -1 5 -14 4 -17 -4 -10 -9
8 -17 61 -13 88 2 11 15 9 29 -5z"/>
<path d="M810 480 c0 -5 5 -10 11 -10 5 0 7 5 4 10 -3 6 -8 10 -11 10 -2 0 -4
-4 -4 -10z"/>
<path d="M1521 734 c-12 -15 -21 -33 -21 -41 0 -10 -6 -13 -16 -9 -22 8 -51
-10 -68 -42 -17 -34 -29 -116 -21 -142 8 -25 25 -26 25 -2 0 12 6 9 20 -13 20
-29 20 -29 18 -5 -2 15 3 25 13 27 20 5 42 -60 26 -76 -15 -15 -30 -14 -21 1
4 7 3 8 -4 4 -6 -4 -19 5 -28 19 -16 24 -18 25 -35 9 -11 -10 -19 -28 -19 -41
0 -34 25 -89 47 -102 10 -6 13 -11 6 -11 -6 0 -15 -10 -19 -22 -3 -13 -13 -30
-20 -39 -11 -12 -12 -29 -7 -70 8 -52 9 -54 41 -57 l32 -3 -6 38 c-5 35 -3 40
20 51 14 6 26 9 26 6 0 -11 -28 -33 -34 -27 -3 4 -6 1 -6 -5 0 -17 35 -15 49
2 7 8 9 25 5 41 -6 25 -5 27 15 20 16 -5 29 -1 47 16 13 12 24 19 24 16 0 -4
14 5 30 20 34 30 40 71 13 95 -10 9 -36 24 -58 34 -51 23 -59 35 -33 52 18 13
22 13 30 -2 5 -9 13 -14 18 -11 5 3 12 -4 15 -15 5 -16 14 -20 33 -18 39 4 41
46 5 72 -14 11 -24 15 -20 10 3 -6 -2 -15 -12 -21 -13 -8 -22 -6 -38 7 -13 10
-18 21 -13 26 5 5 11 25 13 44 2 20 3 14 2 -13 -2 -51 6 -65 25 -42 9 11 9 27
-3 72 -13 50 -13 61 -1 78 28 40 28 48 -2 72 -38 30 -68 29 -93 -3z m67 0 c12
-8 22 -12 22 -8 0 5 5 3 11 -3 8 -8 8 -16 0 -30 -11 -16 -11 -15 -5 7 6 24 6
24 -10 5 -14 -18 -15 -18 -16 -2 0 32 -28 18 -35 -19 -7 -41 -20 -37 -20 7 0
20 6 31 19 35 15 5 16 8 5 15 -8 5 -9 9 -4 9 6 0 21 -7 33 -16z m-58 -44 c0
-5 -4 -10 -10 -10 -5 0 -10 5 -10 10 0 6 5 10 10 10 6 0 10 -4 10 -10z m60
-20 c12 -8 12 -10 -5 -11 -11 0 -14 -3 -7 -6 6 -2 12 -11 12 -20 0 -13 -2 -13
-15 1 -16 15 -21 46 -7 46 4 0 14 -5 22 -10z m-78 -40 c20 -39 24 -115 7 -125
-15 -10 -23 1 -14 22 10 24 6 95 -7 111 -26 31 -65 6 -78 -51 -7 -30 -8 -30
-9 -5 -1 32 45 90 68 86 9 -2 24 -19 33 -38z m36 1 c25 -21 41 -81 23 -81 -6
0 -10 -3 -9 -7 0 -5 -4 -19 -10 -33 -10 -21 -11 -16 -6 31 5 44 2 63 -11 83
-20 31 -16 33 13 7z m-50 -23 c2 -12 -6 -21 -22 -28 -31 -11 -34 -20 -5 -13
17 5 20 2 17 -13 -3 -13 -11 -18 -27 -16 -21 2 -22 0 -10 -15 12 -14 12 -16
-1 -11 -20 6 -23 29 -10 78 9 34 15 41 33 38 12 -2 23 -11 25 -20z m111 -92
c-9 -8 -10 -7 -5 7 3 10 7 24 7 30 1 7 3 4 6 -7 3 -10 -1 -23 -8 -30z m66 -36
c3 -6 -1 -7 -9 -4 -12 4 -16 0 -17 -17 0 -13 -3 -18 -6 -11 -11 28 17 56 32
32z m-242 -67 c-17 -25 -17 -25 4 -13 18 12 26 10 58 -9 25 -14 41 -19 48 -12
11 11 0 34 -14 26 -5 -3 -6 2 -3 12 5 16 4 16 -10 -1 -19 -24 -21 -8 -2 17 13
16 32 25 23 10 -6 -10 19 -34 27 -26 15 15 4 -33 -11 -50 -10 -11 -12 -17 -5
-13 17 10 27 -20 15 -47 -6 -13 -21 -23 -33 -24 -13 -1 -28 -7 -34 -13 -8 -8
-3 -8 19 0 l30 10 -37 -35 c-21 -19 -42 -35 -48 -35 -16 0 -12 30 5 36 8 4 12
10 9 16 -3 5 -11 4 -20 -3 -20 -16 -19 10 2 39 12 17 19 20 29 12 14 -12 45
-3 45 12 0 6 -6 5 -15 -2 -15 -13 -19 -8 -16 23 1 9 -3 17 -8 17 -6 0 -11 -4
-11 -10 0 -18 -22 -11 -45 14 -25 27 -24 89 1 79 11 -4 10 -10 -3 -30z m191
-24 c14 -11 26 -27 26 -34 0 -15 -91 -107 -98 -100 -2 2 3 14 12 27 9 12 16
30 16 39 0 10 11 20 26 23 21 6 24 9 14 21 -7 8 -18 15 -25 15 -6 0 -12 7 -12
15 0 20 9 19 41 -6z m-17 -35 c-3 -3 -12 -4 -19 -1 -8 3 -5 6 6 6 11 1 17 -2
13 -5z m-157 -199 c0 -23 -3 -27 -10 -15 -8 12 -10 12 -10 1 0 -8 -3 -12 -6
-8 -10 9 -23 90 -17 100 9 15 43 -47 43 -78z"/>
<path d="M2167 742 c-8 -9 -21 -30 -27 -46 -11 -30 -12 -29 48 -94 17 -19 16
-72 -3 -72 -8 0 -17 11 -20 25 -3 14 -7 35 -10 48 -3 12 -14 33 -24 47 l-20
25 -26 -25 c-23 -22 -26 -31 -23 -83 1 -32 6 -61 11 -64 4 -2 5 -8 2 -13 -3
-4 2 -13 10 -20 12 -10 12 -16 -6 -39 -17 -23 -19 -34 -10 -69 5 -23 17 -55
27 -70 18 -26 27 -102 12 -102 -5 0 -8 -7 -8 -15 0 -8 5 -15 12 -15 7 0 6 -6
-4 -17 -8 -10 -15 -35 -15 -55 -1 -43 24 -71 59 -66 24 3 26 15 12 71 -5 23
-3 27 14 27 17 0 23 10 33 55 7 30 16 55 21 55 5 0 29 16 53 36 35 28 44 43
47 72 3 42 -20 72 -57 72 -11 0 -26 5 -33 12 -9 9 -17 7 -35 -10 -25 -24 -37
-28 -37 -13 0 15 31 42 41 36 5 -4 9 3 9 14 0 27 31 28 55 1 17 -19 19 -19 37
-4 22 20 23 71 3 98 -8 11 -15 28 -15 37 0 10 -14 29 -32 43 l-32 25 22 24
c29 31 28 41 -7 66 -36 26 -63 27 -84 3z m61 -8 c12 -8 22 -12 22 -8 0 5 5 3
11 -3 8 -8 8 -16 0 -30 -11 -16 -11 -15 -5 7 6 24 6 24 -10 5 -14 -18 -15 -18
-16 -2 0 32 -28 18 -34 -18 -8 -42 -26 -38 -23 5 1 20 9 32 21 36 15 5 16 8 5
15 -8 5 -9 9 -4 9 6 0 21 -7 33 -16z m-71 -66 c-3 -7 -5 -2 -5 12 0 14 2 19 5
13 2 -7 2 -19 0 -25z m68 2 c3 -5 0 -10 -7 -10 -10 0 -10 -2 1 -9 7 -5 11 -13
7 -19 -3 -5 1 -15 10 -22 18 -16 11 -65 -14 -93 -23 -26 -26 -13 -5 19 10 16
12 25 6 21 -9 -6 -13 -1 -13 13 0 12 -4 29 -9 38 -17 33 6 92 24 62z m-91 -56
c26 -25 20 -44 -14 -44 -34 0 -49 22 -30 45 16 19 25 19 44 -1z m133 -51 c-3
-10 -5 -4 -5 12 0 17 2 24 5 18 2 -7 2 -21 0 -30z m-133 -11 c2 -4 -6 -17 -19
-28 -24 -22 -35 -15 -35 22 0 15 45 20 54 6z m166 -2 c0 -5 -4 -10 -10 -10 -5
0 -10 5 -10 10 0 6 5 10 10 10 6 0 10 -4 10 -10z m20 -34 c0 -9 -7 -12 -20 -9
-11 3 -20 1 -20 -3 0 -5 -11 -10 -25 -10 -16 -1 -25 3 -25 13 0 11 7 14 25 11
14 -3 28 -1 31 3 8 14 34 10 34 -5z m-142 -8 c12 -16 11 -68 -2 -68 -17 0 -86
34 -86 42 0 4 7 4 17 1 11 -4 14 -3 9 5 -17 28 40 46 62 20z m132 -33 c0 -11
-12 -13 -38 -6 -1 1 3 7 10 15 15 16 28 12 28 -9z m-166 -79 c-4 -12 -13 -29
-21 -38 -9 -10 -12 -25 -8 -37 9 -30 19 -26 30 12 14 44 36 40 61 -10 l22 -43
-21 -67 c-21 -73 -24 -79 -32 -71 -3 3 3 29 15 57 26 66 25 75 -2 31 -22 -34
-24 -40 -27 -60 0 -5 -8 -10 -17 -10 -14 0 -14 3 -4 15 8 9 8 15 2 15 -6 0 3
13 19 29 16 17 29 40 28 53 -1 22 -1 22 -10 -4 -7 -18 -15 -25 -25 -21 -13 5
-13 8 1 23 14 15 13 17 -7 16 -14 -1 -30 11 -45 33 -26 38 -30 60 -8 41 13
-10 14 -6 10 34 -5 45 -5 45 20 34 19 -9 24 -16 19 -32z m-44 20 c0 -2 -7 -9
-15 -16 -13 -11 -14 -10 -9 4 5 14 24 23 24 12z m208 -40 c27 -26 -18 -106
-53 -92 -17 6 -31 34 -21 43 3 3 20 6 38 6 18 -1 27 2 19 4 -11 5 -11 7 0 14
10 6 7 9 -11 9 -15 0 -31 -5 -38 -12 -18 -18 -57 20 -40 39 13 17 85 9 106
-11z m-156 -158 c-6 -6 -15 -8 -19 -4 -4 4 -1 11 7 16 19 12 27 3 12 -12z
m-16 -96 c6 -4 13 -18 16 -32 3 -14 9 -34 13 -45 5 -16 5 -17 -4 -5 -9 13 -11
13 -11 0 0 -13 -1 -13 -10 0 -8 12 -10 12 -10 1 0 -33 -13 2 -16 44 -3 45 1
51 22 37z"/>
<path d="M2200 631 c0 -6 4 -12 8 -15 5 -3 9 1 9 9 0 8 -4 15 -9 15 -4 0 -8
-4 -8 -9z"/>
<path d="M2140 480 c0 -6 7 -10 15 -10 8 0 15 2 15 4 0 2 -7 6 -15 10 -8 3
-15 1 -15 -4z"/>
<path d="M2875 748 c-4 -9 -15 -13 -34 -10 -16 2 -32 -1 -36 -8 -9 -14 3 -28
13 -15 12 17 34 16 55 -2 19 -18 19 -17 12 7 -7 23 -6 24 7 6 14 -17 15 -17
21 -2 4 10 11 14 17 11 5 -3 10 -2 10 3 0 6 -7 13 -16 16 -8 3 -12 2 -9 -4 9
-14 -8 -13 -23 2 -9 9 -13 8 -17 -4z"/>
<path d="M94 717 c-21 -18 -25 -29 -19 -43 6 -16 9 -14 17 14 6 23 14 32 23
28 8 -3 17 -1 20 5 4 5 10 7 15 4 5 -3 11 -1 15 5 12 20 -44 10 -71 -13z"/>
<path d="M2770 705 c-7 -8 -10 -24 -7 -35 4 -14 0 -20 -13 -20 -28 0 -70 -39
-70 -65 0 -29 58 -118 71 -110 15 10 10 -17 -8 -37 -13 -15 -16 -44 -17 -176
-1 -86 -4 -161 -7 -167 -3 -5 -4 -27 -1 -48 5 -40 28 -60 43 -36 6 10 9 10 9
2 0 -7 8 -13 18 -13 14 0 15 2 2 10 -10 6 -11 10 -3 10 10 0 10 6 1 25 -8 18
-8 39 1 81 16 84 13 121 -5 61 -16 -52 -37 -59 -42 -14 -2 17 4 32 17 44 26
21 27 35 4 26 -14 -5 -12 0 6 20 14 15 21 30 18 34 -4 3 -13 -2 -21 -12 -12
-17 -13 -12 -10 36 2 30 3 56 4 58 0 2 7 -2 15 -9 8 -6 19 -9 24 -6 6 4 8 -7
4 -30 -8 -50 13 -37 27 16 11 41 50 80 80 80 9 0 31 -5 49 -11 25 -9 31 -16
29 -33 -2 -11 -9 -20 -16 -18 -8 1 -11 -2 -7 -8 3 -5 -1 -20 -9 -32 -9 -12
-16 -19 -16 -14 0 4 -12 -2 -27 -14 -35 -27 -50 -12 -29 28 19 37 36 49 46 32
5 -8 10 -8 14 -2 3 5 -2 13 -11 16 -15 6 -15 8 -3 16 13 8 12 10 -3 10 -10 0
-15 5 -12 10 3 6 1 10 -6 10 -7 0 -9 -8 -6 -21 4 -16 2 -19 -10 -15 -10 4 -13
2 -10 -7 3 -7 -1 -21 -9 -32 -14 -18 -14 -18 -14 1 -1 44 -39 -54 -45 -116 -3
-36 -8 -77 -10 -92 -3 -16 0 -28 5 -28 6 0 10 24 11 53 1 38 3 45 8 27 5 -18
14 -25 31 -25 20 0 26 6 28 29 2 16 -2 34 -8 40 -9 8 -11 6 -7 -9 6 -19 -17
-64 -28 -54 -12 12 -8 129 4 141 11 11 13 8 9 -14 -6 -30 4 -42 39 -50 25 -7
37 5 76 74 33 57 34 78 3 107 -20 18 -30 21 -61 15 -21 -4 -44 -15 -53 -25 -9
-10 -19 -16 -24 -13 -8 5 15 34 27 34 17 0 53 57 49 77 -5 18 2 25 43 44 33
15 43 23 31 26 -10 3 -25 -3 -34 -11 -25 -25 -41 -18 -35 17 0 4 -6 7 -15 7
-9 0 -12 5 -8 12 4 6 0 16 -9 23 -8 6 -15 18 -14 26 1 7 -2 15 -7 16 -5 1 -13
7 -17 15 -7 10 -9 9 -9 -4 0 -9 5 -20 10 -23 6 -3 10 -14 10 -23 0 -13 -2 -13
-15 4 -8 10 -15 27 -15 37 0 10 -4 16 -9 12 -5 -3 -16 1 -24 10 -13 13 -16 13
-27 0z m17 -25 c1 -11 -2 -18 -8 -15 -11 7 -12 35 -1 35 4 0 8 -9 9 -20z m104
-108 c-4 -1 -6 -15 -3 -31 2 -16 -1 -37 -7 -48 -10 -15 -11 -13 -6 13 3 17 -1
45 -9 65 -13 30 -15 32 -22 15 -7 -19 -8 -19 -15 0 -7 17 -8 17 -8 2 -1 -10
-5 -18 -11 -18 -5 0 -7 -7 -4 -15 5 -12 0 -12 -28 -5 -41 12 -41 12 -33 0 9
-14 -11 -12 -23 3 -13 16 -4 64 14 71 16 6 29 -10 14 -19 -12 -8 -13 -35 -1
-35 5 0 8 7 7 16 0 9 5 19 13 22 11 3 12 -2 7 -23 -5 -20 -3 -26 6 -23 7 3 14
15 16 29 8 74 9 74 57 27 24 -24 41 -44 36 -46z m-116 58 c3 -5 1 -10 -4 -10
-6 0 -11 5 -11 10 0 6 2 10 4 10 3 0 8 -4 11 -10z m82 -118 c-2 -34 -16 -62
-32 -62 -3 0 -23 12 -43 26 -27 19 -31 25 -14 21 12 -3 22 -2 22 3 0 4 -14 10
-32 14 -34 7 -34 14 1 21 12 2 19 0 16 -6 -10 -16 19 -9 45 10 32 25 40 19 37
-27z m-43 -96 c-4 -11 -11 -27 -17 -35 -9 -11 -14 -8 -23 15 -15 37 -9 52 22
46 20 -4 23 -9 18 -26z m112 -138 c-18 -26 -22 -17 -5 14 6 11 13 17 16 15 3
-3 -2 -16 -11 -29z m-162 -180 c15 -47 14 -64 -2 -75 -15 -9 -18 -7 -20 13 -1
13 -2 27 -3 31 -6 35 16 61 25 31z"/>
<path d="M2808 503 c6 -2 18 -2 25 0 6 3 1 5 -13 5 -14 0 -19 -2 -12 -5z"/>
<path d="M2913 706 c-13 -6 -23 -17 -23 -24 0 -7 4 -11 9 -8 8 5 19 -31 24
-76 2 -22 7 -22 33 -3 17 13 18 14 1 15 -10 0 -21 10 -26 22 -6 17 -3 26 13
39 19 16 19 19 6 32 -11 10 -21 11 -37 3z"/>
<path d="M2974 636 c6 -20 14 -30 17 -24 8 12 -10 58 -21 58 -4 0 -2 -15 4
-34z"/>
<path d="M2940 641 c0 -6 4 -13 10 -16 6 -3 7 1 4 9 -7 18 -14 21 -14 7z"/>
<path d="M2172 570 c0 -14 2 -19 5 -12 2 6 2 18 0 25 -3 6 -5 1 -5 -13z"/>
<path d="M128 503 c7 -3 16 -2 19 1 4 3 -2 6 -13 5 -11 0 -14 -3 -6 -6z"/>
</g>
</svg>
