<?xml version="1.0" standalone="no"?>
<!DOCTYPE svg PUBLIC "-//W3C//DTD SVG 20010904//EN"
 "http://www.w3.org/TR/2001/REC-SVG-20010904/DTD/svg10.dtd">
<svg version="1.0" xmlns="http://www.w3.org/2000/svg"
 width="67.000000pt" height="80.000000pt" viewBox="0 0 67.000000 80.000000"
 preserveAspectRatio="xMidYMid meet">
<metadata>
Created by potrace 1.10, written by Peter Selinger 2001-2011
</metadata>
<g transform="translate(0.000000,80.000000) scale(0.100000,-0.100000)"
fill="#000000" stroke="none">
<path d="M6 792 c-2 -4 10 -6 27 -4 24 3 42 -4 71 -27 49 -39 59 -33 14 8 -24
22 -43 30 -70 31 -20 0 -39 -4 -42 -8z"/>
<path d="M520 777 c0 -5 -4 -5 -10 -2 -5 3 -10 1 -10 -4 0 -6 -6 -10 -12 -8
-7 1 -14 -7 -16 -18 -1 -11 -19 -31 -40 -45 -20 -13 -52 -37 -71 -52 l-34 -27
-74 61 c-76 61 -100 68 -110 28 -5 -19 -9 -17 -39 17 -26 30 -36 35 -46 25
-15 -15 -38 -16 -38 -1 0 5 5 7 12 3 7 -4 8 -3 4 4 -15 24 -32 11 -33 -25 0
-27 2 -32 9 -20 24 44 118 -2 118 -57 0 -19 14 -36 55 -67 48 -36 53 -43 42
-60 -9 -14 -9 -23 -1 -37 12 -17 26 -19 56 -7 34 14 42 -29 39 -208 -2 -118 0
-167 8 -167 8 0 11 -19 9 -53 l-3 -52 50 0 c39 0 50 4 53 18 3 12 -3 17 -20
16 -22 0 -22 -1 -3 -9 25 -11 21 -12 -33 -14 -43 -2 -44 -2 -38 27 3 16 6 33
6 38 0 5 5 9 11 9 5 0 9 -10 7 -22 -2 -11 2 -23 7 -25 7 -2 9 12 7 37 -4 37
-2 40 22 40 25 0 26 2 26 64 0 95 12 190 21 174 6 -8 9 4 9 32 l0 45 61 2 c68
2 122 33 140 81 8 22 6 30 -15 51 -22 21 -28 23 -50 13 -22 -10 -24 -9 -19 5
4 11 3 14 -5 9 -8 -4 -16 3 -22 19 -12 32 -12 38 -1 31 14 -9 20 16 9 37 -5
10 -7 21 -4 24 3 4 -3 12 -14 20 -26 18 -27 37 -1 23 27 -14 31 -13 24 7 -4
11 -3 14 6 9 7 -5 9 -16 5 -28 -4 -14 -2 -18 5 -14 7 5 11 -3 10 -21 0 -25 -1
-26 -9 -8 -8 19 -9 19 -9 -2 -1 -12 4 -23 11 -25 8 -3 7 -11 -5 -28 -9 -14
-17 -29 -17 -35 1 -26 39 55 45 95 5 36 3 49 -12 65 -17 20 -73 29 -73 12z
m-20 -62 c-11 -6 -18 -14 -14 -18 4 -4 -1 -16 -11 -27 -9 -10 -21 -34 -25 -52
l-8 -33 -1 31 c-1 18 8 43 21 59 l21 28 -22 -13 c-19 -10 -22 -9 -18 2 2 7 10
12 16 10 6 -1 16 9 23 23 9 20 14 23 25 13 12 -10 11 -13 -7 -23z m-290 -29
c0 4 16 -7 35 -26 19 -19 35 -30 35 -26 0 15 55 -36 67 -62 7 -15 12 -21 13
-14 0 6 3 12 8 12 4 0 7 -27 7 -61 l0 -60 -22 28 c-18 22 -20 30 -10 38 9 8 0
22 -37 60 -26 28 -44 41 -38 30 6 -11 20 -29 31 -39 12 -11 21 -30 21 -44 0
-14 16 -44 36 -68 28 -35 33 -47 25 -61 -8 -14 -10 -15 -11 -3 0 9 -16 39 -35
69 -19 29 -32 57 -29 62 3 5 2 8 -3 7 -5 -2 -37 29 -71 69 -57 66 -108 114
-72 67 14 -17 14 -18 -2 -6 -10 8 -14 20 -11 30 11 29 27 33 46 11 9 -12 17
-18 17 -13z m334 2 c4 -20 3 -28 -7 -28 -11 0 -16 35 -8 59 2 8 8 -4 15 -31z
m-116 -42 c-2 -28 -6 -33 -21 -30 -31 6 -40 -6 -21 -27 12 -14 19 -42 22 -102
2 -45 1 -79 -2 -76 -4 4 -7 26 -8 49 0 30 -3 38 -10 29 -6 -9 -7 2 -3 34 6 43
4 50 -19 68 -27 21 -34 39 -15 39 6 0 24 11 41 25 16 14 32 25 34 25 3 0 4
-15 2 -34z m92 -2 c13 -24 12 -27 -10 -44 -28 -21 -36 -19 -26 6 3 9 12 14 20
11 11 -4 11 -1 2 18 -7 16 -13 20 -18 12 -5 -8 -8 -6 -8 6 0 26 25 21 40 -9z
m-343 -9 c-5 14 0 11 18 -10 37 -44 30 -51 -15 -15 -22 17 -40 34 -40 37 0 4
10 -2 22 -13 21 -19 21 -19 15 1z m292 -42 c-15 -56 -20 -63 -13 -18 6 39 11
55 19 55 2 0 -1 -17 -6 -37z m-29 -42 c0 -21 -16 -2 -24 29 -7 24 -6 24 8 6 9
-11 16 -27 16 -35z m101 17 c14 2 30 -19 43 -60 3 -10 1 -18 -5 -18 -6 0 -8
-9 -4 -20 3 -11 3 -20 -2 -20 -13 0 -48 63 -44 79 2 11 -3 11 -24 -3 -19 -12
-35 -15 -53 -10 -25 7 -24 8 17 15 47 9 58 15 48 26 -4 4 -13 1 -19 -5 -17
-17 -29 -15 -22 3 4 8 10 12 15 9 5 -3 9 0 9 6 0 6 5 8 13 3 6 -4 19 -6 28 -5z
m103 -20 c8 -13 6 -23 -10 -45 -11 -14 -27 -28 -35 -30 -10 -3 -10 0 2 8 15
12 15 15 -2 45 -13 24 -15 34 -6 38 20 8 39 2 51 -16z m-364 -44 c0 -8 -5 -14
-11 -14 -5 0 -7 5 -4 10 3 6 1 10 -4 10 -6 0 -11 -8 -12 -17 0 -15 -2 -15 -8
2 -6 14 -4 22 8 26 20 8 31 2 31 -17z m242 -18 c11 -16 10 -28 -1 -21 -5 3
-12 1 -16 -5 -3 -5 -14 -10 -23 -9 -14 0 -13 2 3 9 11 5 17 9 13 11 -20 5 -29
7 -37 8 -5 0 -11 7 -14 14 -6 16 64 10 75 -7z m-85 -63 c-2 -16 -4 -5 -4 22 0
28 2 40 4 28 2 -13 2 -35 0 -50z m-87 -94 l-20 -44 5 40 c2 22 5 49 5 60 0 17
2 18 15 4 14 -14 14 -20 -5 -60z m65 41 c9 -41 -2 -102 -31 -174 -27 -67 -28
-69 -14 -61 6 3 10 2 10 -4 0 -5 -9 -9 -20 -8 -14 1 -19 8 -18 24 2 13 5 23 9
23 15 0 68 175 56 186 -3 3 -17 -32 -32 -78 -15 -46 -31 -87 -37 -93 -16 -15
-4 65 17 108 9 19 18 41 20 49 15 65 30 75 40 28z m-2 -198 c-5 -40 -15 -52
-27 -33 -6 9 22 86 29 79 2 -2 1 -22 -2 -46z"/>
<path d="M388 633 c7 -3 16 -2 19 1 4 3 -2 6 -13 5 -11 0 -14 -3 -6 -6z"/>
<path d="M541 540 c0 -14 4 -32 9 -40 9 -13 10 -13 9 0 -1 8 -5 26 -9 40 l-8
25 -1 -25z"/>
<path d="M616 535 c8 -37 10 -39 17 -21 3 8 -1 22 -9 33 -13 17 -14 16 -8 -12z"/>
<path d="M610 678 c0 -14 -7 -33 -15 -44 -21 -28 -18 -40 5 -19 11 10 20 25
20 34 0 13 2 14 9 2 5 -8 7 -20 4 -27 -3 -7 5 -23 16 -35 26 -28 26 -23 0 45
-23 62 -39 80 -39 44z"/>
</g>
</svg>
