<?xml version="1.0" standalone="no"?>
<!DOCTYPE svg PUBLIC "-//W3C//DTD SVG 20010904//EN"
 "http://www.w3.org/TR/2001/REC-SVG-20010904/DTD/svg10.dtd">
<svg version="1.0" xmlns="http://www.w3.org/2000/svg"
 width="68.000000pt" height="80.000000pt" viewBox="0 0 68.000000 80.000000"
 preserveAspectRatio="xMidYMid meet">
<metadata>
Created by potrace 1.10, written by Peter Selinger 2001-2011
</metadata>
<g transform="translate(0.000000,80.000000) scale(0.100000,-0.100000)"
fill="#000000" stroke="none">
<path d="M552 769 c-45 -40 -35 -47 13 -9 22 18 50 30 66 30 33 0 36 -7 12
-27 -10 -8 -12 -12 -5 -8 6 3 12 1 12 -4 0 -15 -23 -14 -38 1 -10 10 -20 5
-46 -25 -30 -34 -34 -36 -39 -17 -10 40 -34 33 -110 -28 l-74 -61 -34 27 c-19
15 -51 39 -71 52 -21 14 -39 34 -40 45 -2 11 -9 19 -16 18 -6 -2 -12 2 -12 8
0 5 -5 7 -10 4 -6 -3 -10 -3 -10 2 0 17 -56 8 -73 -12 -15 -16 -17 -29 -12
-65 6 -40 44 -121 45 -95 0 6 -8 21 -17 35 -12 17 -13 25 -5 28 7 2 12 11 12
20 0 15 -2 15 -10 2 -8 -12 -10 -9 -10 13 0 25 2 27 21 17 14 -8 18 -17 14
-28 -7 -19 -8 -22 -6 -40 0 -7 6 -10 11 -7 13 8 13 3 0 -30 -6 -16 -14 -23
-22 -19 -8 5 -9 2 -5 -9 5 -14 3 -15 -19 -5 -22 10 -28 8 -50 -13 -21 -21 -23
-29 -15 -51 18 -48 72 -79 140 -81 l61 -2 0 -45 c0 -28 3 -40 9 -32 9 16 21
-79 21 -174 0 -62 1 -64 26 -64 24 0 26 -3 22 -40 -2 -22 0 -40 4 -40 5 0 8
11 8 25 0 35 16 31 24 -6 3 -17 6 -35 6 -38 0 -6 -76 -7 -90 -2 -3 1 4 6 15
11 19 8 19 9 -3 9 -17 1 -23 -4 -20 -17 3 -13 14 -17 53 -17 l50 0 -3 53 c-2
33 1 52 9 52 8 0 10 49 8 168 -3 178 5 221 39 207 30 -12 44 -10 56 7 8 14 8
23 -1 37 -11 17 -6 24 42 60 41 31 55 48 55 67 0 55 86 98 115 57 11 -15 13
-10 11 32 l-1 50 -40 2 c-33 3 -46 -3 -73 -28z m-446 -15 c-4 -12 -2 -15 9
-10 52 21 51 21 32 -1 -9 -11 -14 -23 -10 -27 13 -13 10 -56 -4 -56 -9 0 -11
8 -7 25 5 19 0 30 -17 43 -12 11 -19 24 -15 30 11 18 19 14 12 -4z m84 -36 c0
-11 -12 -10 -30 2 -13 9 -13 11 0 19 14 9 29 -2 30 -21z m333 -28 c3 -11 -2
-25 -12 -32 -15 -12 -15 -11 -1 6 36 47 -15 -1 -72 -67 -34 -40 -66 -71 -71
-69 -5 1 -6 -2 -3 -7 3 -5 -10 -33 -29 -62 -19 -30 -35 -60 -35 -69 -1 -12 -3
-11 -11 3 -8 14 -4 25 20 54 17 21 31 42 31 48 0 5 -10 -3 -23 -18 l-22 -28 0
60 c0 55 6 74 18 54 2 -5 3 -3 1 3 -2 11 58 66 73 65 4 0 23 14 41 31 17 18
32 28 32 23 0 -5 7 0 15 12 17 25 41 21 48 -7z m-293 0 c0 -5 -8 -6 -17 -3
-16 6 -16 5 0 -17 9 -14 17 -38 16 -55 l-1 -30 -8 33 c-4 18 -15 41 -24 51
-17 19 -22 36 -7 26 5 -3 12 -1 16 5 7 11 25 4 25 -10z m60 -44 c7 -9 19 -16
26 -16 22 0 17 -17 -12 -39 -23 -18 -25 -25 -19 -68 4 -32 3 -43 -3 -34 -7 9
-10 1 -10 -29 -1 -23 -4 -45 -8 -49 -3 -3 -4 31 -2 76 3 60 10 88 22 102 19
21 10 33 -21 27 -16 -3 -19 2 -21 30 -2 31 -1 34 16 25 10 -5 24 -17 32 -25z
m-100 7 c0 -12 -3 -14 -8 -6 -5 8 -11 4 -18 -12 -9 -19 -9 -22 2 -18 8 3 17
-2 20 -11 10 -25 2 -27 -26 -6 -22 17 -23 20 -10 44 15 30 40 35 40 9z m303
-20 c-6 -16 -5 -17 13 -3 11 8 4 1 -15 -17 -43 -38 -51 -35 -21 6 24 35 32 39
23 14z m-279 -58 c7 -45 2 -38 -13 19 -6 22 -6 35 -1 30 4 -5 11 -27 14 -49z
m39 -7 c-5 -27 -23 -40 -23 -17 0 13 20 52 25 47 2 -1 1 -15 -2 -30z m-73 -3
c4 3 10 -2 14 -10 7 -18 -5 -20 -22 -3 -10 10 -15 10 -22 -2 -5 -8 -7 -18 -4
-22 3 -4 -3 -19 -12 -33 -13 -20 -20 -23 -35 -15 -19 10 -18 23 4 68 7 15 17
22 29 19 10 -3 21 0 25 6 5 8 8 8 11 -1 2 -7 7 -10 12 -7z m-106 -1 c13 -5 12
-10 -4 -39 -17 -30 -17 -34 -3 -39 9 -4 13 -9 9 -13 -8 -8 -44 25 -52 49 -3
10 0 25 6 33 14 16 21 18 44 9z m165 -40 c2 -2 -8 -6 -22 -9 -17 -5 -34 -1
-49 9 -22 16 -22 17 22 10 25 -4 47 -8 49 -10z m193 -27 c-5 -18 -7 -19 -10
-4 -2 9 -8 17 -13 17 -6 0 -7 -4 -4 -10 3 -5 1 -10 -4 -10 -12 0 -15 23 -5 32
3 3 13 4 23 1 14 -3 17 -11 13 -26z m-212 -8 c-7 -11 -18 -18 -25 -15 -8 3
-17 1 -20 -4 -3 -5 0 -10 7 -13 7 -2 2 -2 -12 0 -31 6 -32 7 -24 26 3 9 21 17
42 20 21 2 38 4 40 5 1 1 -2 -7 -8 -19z m-110 -29 c0 -5 -4 -10 -10 -10 -5 0
-10 5 -10 10 0 6 5 10 10 10 6 0 10 -4 10 -10z m127 -42 c-2 -13 -4 -5 -4 17
-1 22 1 32 4 23 2 -10 2 -28 0 -40z m48 -40 c12 -39 13 -42 34 -100 22 -59 27
-103 12 -94 -4 3 -18 38 -30 78 -31 101 -33 105 -38 91 -6 -17 26 -134 45
-163 9 -14 18 -36 19 -50 4 -24 3 -24 -15 5 -43 71 -69 171 -57 225 8 36 20
39 30 8z m54 -73 c0 -12 -8 -2 -20 24 -16 36 -17 46 -7 59 11 13 14 9 20 -24
4 -21 7 -48 7 -59z m-55 -139 c23 -46 23 -47 2 -40 -26 8 -22 1 -30 54 -8 52
-4 50 28 -14z"/>
<path d="M360 570 c-30 -33 -41 -51 -33 -55 19 -7 28 -2 25 13 -2 7 11 29 27
48 28 31 36 44 29 44 -2 0 -23 -23 -48 -50z"/>
<path d="M268 633 c7 -3 16 -2 19 1 4 3 -2 6 -13 5 -11 0 -14 -3 -6 -6z"/>
<path d="M121 550 c-1 -8 -4 -26 -7 -40 -5 -22 -4 -23 6 -7 6 10 9 28 7 40 -2
12 -5 15 -6 7z"/>
<path d="M42 543 c-6 -11 -7 -25 -3 -32 6 -9 10 -4 14 16 6 34 2 41 -11 16z"/>
<path d="M32 660 c-24 -54 -35 -90 -28 -90 5 0 28 48 39 80 5 13 6 13 6 -1 1
-17 41 -59 41 -43 0 6 -5 15 -11 21 -6 6 -15 26 -19 45 l-7 33 -21 -45z"/>
</g>
</svg>
