<?xml version="1.0" standalone="no"?>
<!DOCTYPE svg PUBLIC "-//W3C//DTD SVG 20010904//EN"
 "http://www.w3.org/TR/2001/REC-SVG-20010904/DTD/svg10.dtd">
<svg version="1.0" xmlns="http://www.w3.org/2000/svg"
 width="180.000000pt" height="80.000000pt" viewBox="0 0 180.000000 80.000000"
 preserveAspectRatio="xMidYMid meet">
<metadata>
Created by potrace 1.10, written by Peter Selinger 2001-2011
</metadata>
<g transform="translate(0.000000,80.000000) scale(0.100000,-0.100000)"
fill="#000000" stroke="none">
<path d="M190 789 c0 -5 -5 -7 -11 -3 -7 4 -10 1 -7 -7 3 -8 13 -14 24 -14 24
1 35 -15 28 -40 -4 -16 -3 -17 5 -5 6 8 11 11 11 5 0 -5 4 -3 10 5 13 21 19
10 13 -22 -3 -16 -12 -28 -20 -28 -13 0 -13 3 -2 18 12 15 12 16 -2 5 -17 -14
-29 -8 -29 14 0 23 -53 63 -67 51 -7 -6 -13 -17 -13 -24 0 -8 -4 -22 -9 -32
-4 -9 -15 -30 -23 -47 -9 -16 -18 -43 -22 -60 -7 -28 -6 -28 7 -11 9 12 19 16
27 11 10 -6 9 -10 -4 -17 -9 -5 -16 -19 -17 -31 0 -21 -1 -21 -9 -2 -5 11 -9
14 -9 8 -1 -7 -9 -13 -19 -13 -40 0 -53 -32 -49 -116 l3 -79 2 82 2 81 31 11
c29 10 34 8 64 -22 22 -22 40 -54 51 -93 9 -32 19 -53 22 -45 3 10 9 7 18 -10
10 -19 13 -20 14 -6 0 9 4 17 9 17 6 0 1 21 -10 46 -12 25 -18 48 -15 51 3 4
6 1 6 -5 0 -7 10 -12 23 -12 28 0 51 -36 44 -71 -3 -19 -5 -16 -6 10 -1 29 -3
32 -16 21 -18 -15 -20 -34 -3 -24 7 5 9 2 5 -8 -3 -9 0 -21 6 -27 13 -13 19
-163 6 -156 -4 3 -10 -8 -13 -25 -3 -16 -9 -43 -12 -60 -3 -16 -9 -30 -14 -30
-8 0 -7 14 4 80 7 37 3 32 -29 -40 l-15 -35 4 42 c2 23 14 56 26 74 22 30 22
31 2 20 -11 -6 -24 -20 -27 -32 -4 -11 -9 -18 -11 -16 -7 7 18 57 29 57 5 0 7
6 4 14 -3 8 -1 17 6 20 7 2 4 5 -7 5 -12 1 -16 6 -12 17 3 8 2 12 -4 9 -6 -4
-10 5 -10 20 0 15 -13 44 -29 64 -15 20 -33 52 -40 72 -6 20 -21 45 -33 55
l-20 19 21 -40 c12 -24 20 -56 20 -80 -1 -23 -4 -30 -6 -17 -2 12 -10 22 -16
22 -9 0 -9 2 0 8 9 6 7 18 -7 50 -19 42 -41 49 -39 14 0 -15 1 -15 8 1 6 17 8
16 19 -8 16 -34 15 -40 -3 -25 -13 11 -13 8 0 -23 8 -20 15 -44 15 -54 0 -15
-2 -15 -15 3 -8 10 -15 28 -16 39 0 11 -5 3 -10 -18 -7 -28 -5 -45 6 -67 10
-19 13 -46 10 -83 -4 -51 -3 -54 18 -53 12 1 28 5 35 9 15 10 16 91 0 116 -16
26 6 55 31 41 24 -12 53 -118 39 -144 -6 -11 -8 -40 -4 -70 4 -28 8 -71 9 -96
l2 -45 49 0 c35 0 50 4 53 15 4 12 2 12 -5 2 -8 -12 -75 -12 -87 0 -3 3 -3 18
1 32 l6 26 24 -25 c25 -27 45 -35 24 -10 -15 17 -6 45 13 45 9 0 17 18 23 53
10 65 6 275 -6 298 -8 13 -3 20 23 33 24 11 42 32 65 79 18 35 32 68 32 74 0
6 -25 33 -56 59 -30 26 -62 60 -70 76 -8 16 -19 26 -24 23 -6 -4 -10 -1 -10 4
0 6 -9 11 -20 11 -11 0 -20 -5 -20 -11z m15 -85 c10 -19 24 -34 32 -34 7 0 13
-5 13 -12 0 -20 18 5 23 32 4 21 4 20 6 -7 1 -36 -13 -50 -34 -33 -10 9 -19 9
-32 0 -16 -10 -16 -10 3 -5 15 4 24 -1 32 -20 7 -15 8 -24 3 -20 -5 3 -12 1
-16 -5 -3 -5 1 -10 9 -10 9 0 16 -7 16 -15 0 -21 -17 -19 -30 4 -13 25 -13 44
0 36 6 -3 10 -1 10 4 0 19 -30 12 -31 -6 -1 -12 -4 -10 -9 7 l-8 25 -1 -24
c-1 -14 6 -32 15 -42 15 -17 15 -20 -5 -45 -21 -27 -27 -45 -13 -43 4 1 24 1
46 0 31 -1 36 -4 27 -15 -9 -11 -18 -11 -47 -1 -53 18 -58 28 -32 60 12 16 18
26 12 22 -8 -4 -12 8 -12 38 -1 35 3 48 21 60 18 13 19 15 4 15 -10 0 -15 5
-12 10 3 6 -1 10 -9 10 -8 0 -18 -4 -21 -10 -3 -5 -11 -10 -17 -10 -6 0 -3 8
8 19 10 10 22 17 27 14 18 -10 5 13 -14 25 -19 12 -20 11 -14 -7 4 -12 2 -21
-4 -21 -12 0 -15 42 -5 53 11 10 40 -15 59 -49z m-79 -50 c-4 -18 -12 -34 -18
-34 -6 0 -8 9 -3 23 3 12 9 33 12 47 9 37 16 5 9 -36z m179 -20 c-32 -36 -43
-38 -26 -6 6 12 11 32 11 47 0 25 1 25 23 9 l22 -17 -30 -33z m-133 -21 c-3
-41 -10 -64 -24 -78 -12 -11 -18 -15 -14 -9 3 7 -1 15 -10 18 -8 3 -12 2 -9
-4 3 -6 1 -10 -4 -10 -17 0 -13 26 5 41 14 11 18 10 30 -6 13 -17 14 -13 14
36 0 46 5 69 15 69 1 0 0 -26 -3 -57z m-22 10 c0 -23 -4 -33 -9 -27 -9 8 -4
64 5 64 2 0 4 -17 4 -37z m220 -12 c-1 -14 -20 -35 -26 -28 -4 3 -1 15 7 24
12 16 12 17 -1 6 -11 -8 -21 -9 -30 -2 -13 8 -12 12 5 25 18 13 21 13 32 -3 7
-9 13 -19 13 -22z m-39 -29 c9 -10 13 -26 9 -36 -5 -15 -8 -14 -20 8 -7 14
-20 26 -27 26 -8 0 -11 5 -8 10 9 15 29 12 46 -8z m-27 -34 c35 -49 1 -82 -39
-38 -21 23 -44 28 -25 5 11 -13 8 -15 -14 -15 -23 0 -25 2 -15 24 8 16 17 22
30 19 11 -3 21 1 25 11 8 22 20 20 38 -6z m-152 -55 c10 -9 17 -28 17 -42 -1
-21 -2 -22 -6 -6 -3 11 -14 30 -26 43 -24 25 -12 30 15 5z m-72 -164 c0 -11 3
-19 8 -19 10 0 8 -87 -3 -97 -4 -5 -5 0 -2 10 4 11 1 17 -8 17 -9 0 -12 -6 -9
-17 4 -13 3 -15 -4 -5 -5 7 -7 35 -4 61 2 30 0 51 -7 55 -18 12 -12 24 9 19
11 -3 20 -14 20 -24z m177 -211 c-3 -7 -5 -2 -5 12 0 14 2 19 5 13 2 -7 2 -19
0 -25z"/>
<path d="M120 566 c0 -2 8 -10 18 -17 15 -13 16 -12 3 4 -13 16 -21 21 -21 13z"/>
<path d="M265 530 c3 -5 16 -15 28 -21 22 -12 22 -12 3 10 -19 21 -43 30 -31
11z"/>
<path d="M546 791 c-3 -5 -5 -28 -4 -51 1 -36 3 -40 13 -26 29 40 115 -4 115
-58 0 -19 14 -36 55 -67 48 -36 53 -43 42 -60 -9 -14 -9 -23 -1 -37 12 -17 26
-19 56 -7 34 14 42 -29 39 -207 -2 -119 0 -168 8 -168 8 0 11 -19 9 -53 l-3
-52 50 0 c39 0 50 4 53 18 3 12 -3 17 -20 16 -22 0 -22 -1 -3 -9 25 -11 21
-12 -33 -14 -43 -2 -44 -2 -38 27 3 16 6 33 6 38 0 5 5 9 10 9 6 0 10 -11 10
-25 0 -14 3 -25 8 -25 4 0 6 18 4 40 -4 37 -2 40 22 40 25 0 26 2 26 64 0 95
12 190 21 174 6 -8 9 4 9 32 l0 45 61 2 c49 2 68 8 96 29 60 45 66 96 22 191
l-22 48 -7 -32 c-9 -42 -39 -88 -50 -77 -14 16 -23 57 -11 50 6 -4 12 -1 12 6
2 18 1 21 -6 40 -4 11 0 20 14 28 19 10 21 8 21 -17 0 -22 -2 -25 -10 -13 -8
13 -10 13 -10 -2 0 -9 5 -18 12 -20 8 -3 7 -11 -5 -28 -9 -14 -17 -29 -17 -35
1 -26 39 55 45 95 5 36 3 49 -12 67 -18 20 -73 28 -73 10 0 -5 -4 -5 -10 -2
-5 3 -10 1 -10 -4 0 -6 -6 -10 -12 -9 -7 2 -14 -6 -16 -17 -1 -11 -19 -31 -40
-45 -20 -13 -52 -37 -71 -52 l-34 -27 -74 61 c-76 61 -100 68 -110 28 -5 -19
-9 -17 -39 17 -26 30 -36 35 -46 25 -15 -15 -38 -16 -38 -1 0 5 6 7 13 4 6 -4
4 0 -5 8 -25 20 -22 27 11 27 16 0 44 -12 66 -30 48 -38 58 -31 13 9 -24 22
-43 30 -70 31 -20 0 -39 -4 -42 -9z m555 -62 c-17 -14 -22 -25 -17 -44 4 -17
2 -25 -7 -25 -14 0 -17 37 -4 57 4 6 3 14 -3 18 -19 12 -11 26 9 15 27 -14 31
-13 24 8 -5 14 -4 15 8 4 12 -11 10 -16 -10 -33z m-61 -14 c-11 -6 -18 -14
-14 -17 3 -4 -3 -19 -15 -34 -11 -15 -21 -37 -21 -50 0 -12 -4 -25 -9 -28 -5
-3 -7 -16 -4 -29 7 -29 -12 -11 -22 20 -5 18 -3 22 9 17 12 -5 16 1 16 24 0
16 10 42 22 57 l21 28 -22 -13 c-19 -10 -22 -9 -18 2 2 7 10 12 16 10 6 -1 16
9 23 23 9 20 14 23 25 13 12 -10 11 -13 -7 -23z m-290 -29 c0 4 16 -7 35 -26
19 -19 35 -30 35 -26 0 15 55 -36 67 -62 7 -15 12 -21 13 -14 0 6 3 12 8 12 4
0 7 -27 7 -61 l0 -60 -22 28 c-18 22 -20 30 -10 38 9 8 0 22 -35 60 -53 55
-65 56 -17 0 18 -20 29 -41 26 -50 -4 -8 11 -36 33 -64 24 -30 37 -56 34 -65
-4 -11 -13 -2 -30 29 -13 25 -41 69 -63 98 -39 52 -155 179 -130 142 13 -18
12 -19 -3 -7 -10 8 -14 20 -11 30 11 29 27 33 46 11 9 -12 17 -18 17 -13z
m218 -40 c-1 -19 -5 -33 -9 -30 -4 2 -10 0 -14 -6 -3 -5 -12 -10 -18 -10 -7 0
-6 4 3 10 8 5 10 10 4 10 -21 0 -24 -14 -7 -32 11 -13 18 -43 21 -101 2 -45 1
-79 -2 -76 -4 4 -7 26 -8 49 0 30 -3 38 -10 29 -6 -9 -7 2 -3 34 6 43 4 50
-19 68 -27 21 -34 39 -15 39 6 0 24 11 41 25 16 14 32 25 34 25 3 0 4 -15 2
-34z m92 -2 c13 -24 12 -27 -10 -44 -28 -21 -36 -19 -26 6 3 9 12 14 20 11 11
-4 11 -1 2 18 -7 16 -13 20 -18 12 -5 -8 -8 -6 -8 6 0 26 25 21 40 -9z m121
-48 c15 -16 10 -29 -6 -16 -12 10 -21 10 -41 2 -22 -11 -24 -10 -15 6 6 10 17
24 25 32 9 7 17 20 17 29 1 9 4 3 6 -14 3 -16 9 -34 14 -39z m-464 39 c-5 14
0 11 18 -10 37 -44 30 -51 -15 -15 -22 17 -40 34 -40 37 0 4 10 -2 22 -13 21
-19 21 -19 15 1z m292 -42 c-15 -56 -20 -63 -13 -18 6 39 11 55 19 55 2 0 -1
-17 -6 -37z m71 -25 c15 2 49 -43 48 -63 -1 -5 -8 -15 -17 -22 -10 -8 -12 -12
-3 -13 13 0 17 -20 4 -20 -11 0 -47 61 -48 83 -2 25 -12 33 -26 19 -17 -17
-29 -15 -22 3 4 8 10 12 15 9 5 -3 9 0 9 6 0 6 5 8 13 3 6 -4 19 -6 27 -5z
m104 -20 c8 -13 6 -23 -10 -45 -11 -14 -27 -28 -35 -30 -10 -3 -10 0 2 8 15
12 15 15 -2 45 -13 24 -15 34 -6 38 20 8 39 2 51 -16z m-142 -24 c-16 -11 -31
-14 -50 -8 l-27 8 35 6 c59 12 66 11 42 -6z m-222 -20 c0 -8 -5 -14 -11 -14
-5 0 -7 5 -4 10 3 6 1 10 -4 10 -6 0 -11 -8 -12 -17 0 -15 -2 -15 -8 2 -6 14
-4 22 8 26 20 8 31 2 31 -17z m245 -21 c7 -19 6 -20 -25 -26 -14 -2 -19 -2
-12 0 7 3 10 8 7 13 -3 5 -12 7 -20 4 -7 -3 -18 3 -23 13 -9 17 -7 18 28 15
23 -2 41 -10 45 -19z m-88 -65 c-2 -13 -4 -5 -4 17 -1 22 1 32 4 23 2 -10 2
-28 0 -40z m-87 -89 l-20 -44 5 40 c2 22 5 49 5 60 0 17 2 18 15 4 14 -14 14
-20 -5 -60z m65 41 c12 -54 -13 -153 -57 -225 l-18 -30 2 28 c1 15 5 27 9 27
15 0 68 174 57 186 -3 2 -18 -34 -33 -81 -16 -48 -33 -89 -39 -92 -14 -9 0 76
19 115 9 18 18 38 20 45 16 64 30 73 40 27z m-2 -198 c-4 -31 -10 -42 -19 -38
-8 3 -14 1 -14 -4 0 -6 -4 -10 -8 -10 -5 0 2 23 16 50 14 28 26 49 28 48 1 -2
0 -23 -3 -46z"/>
<path d="M928 633 c7 -3 16 -2 19 1 4 3 -2 6 -13 5 -11 0 -14 -3 -6 -6z"/>
<path d="M1081 540 c0 -14 4 -32 9 -40 9 -13 10 -13 9 0 -1 8 -5 26 -9 40 l-8
25 -1 -25z"/>
<path d="M1156 535 c8 -37 10 -39 17 -21 3 8 -1 22 -9 33 -13 17 -14 16 -8
-12z"/>
<path d="M1600 789 c0 -5 -5 -7 -11 -3 -7 4 -10 1 -7 -7 3 -8 13 -14 24 -14
24 1 35 -14 29 -40 -3 -11 -2 -15 1 -8 3 7 12 9 21 6 11 -4 14 -2 9 5 -4 7 -2
12 4 12 7 0 9 -7 6 -16 -3 -9 -6 -22 -6 -30 0 -8 -7 -14 -16 -14 -14 0 -15 2
-3 18 12 15 12 16 -2 5 -17 -14 -29 -8 -29 14 0 23 -53 63 -67 51 -7 -6 -13
-17 -13 -24 0 -8 -4 -22 -9 -32 -4 -9 -15 -30 -23 -47 -9 -16 -18 -43 -22 -60
-7 -28 -6 -28 7 -11 9 12 19 16 27 11 10 -6 9 -10 -4 -17 -9 -5 -16 -19 -17
-31 0 -21 -1 -21 -9 -2 -5 11 -9 14 -9 8 -1 -7 -9 -13 -19 -13 -38 0 -52 -32
-52 -114 0 -42 4 -75 8 -72 18 11 42 -63 37 -117 -4 -51 -3 -54 18 -53 12 1
28 5 35 9 15 10 16 91 0 116 -16 26 6 55 31 42 25 -14 54 -117 40 -143 -7 -13
-9 -41 -5 -72 4 -28 8 -71 9 -96 l2 -45 49 0 c35 0 50 4 53 15 4 12 2 12 -5 2
-8 -12 -75 -12 -87 0 -3 3 -3 18 1 32 l6 26 24 -25 c25 -27 45 -35 24 -10 -15
17 -6 45 13 45 9 0 17 18 23 53 10 65 6 275 -6 298 -8 13 -3 20 23 33 24 11
42 32 65 79 18 35 32 68 32 74 0 6 -25 33 -56 59 -30 26 -62 60 -70 76 -8 16
-19 26 -24 23 -6 -4 -10 -1 -10 4 0 6 -9 11 -20 11 -11 0 -20 -5 -20 -11z m15
-85 c10 -19 24 -34 32 -34 7 0 13 -5 13 -12 0 -20 18 5 23 32 4 21 4 20 6 -7
1 -36 -13 -50 -34 -33 -10 9 -19 9 -32 0 -16 -10 -16 -10 3 -5 15 4 24 -1 32
-20 7 -15 8 -24 3 -20 -5 3 -12 1 -16 -5 -3 -5 1 -10 9 -10 9 0 16 -7 16 -15
0 -21 -17 -19 -30 4 -13 25 -13 44 0 36 6 -3 10 -1 10 4 0 19 -30 12 -31 -6
-1 -12 -4 -10 -9 7 l-8 25 -1 -24 c-1 -14 6 -32 15 -42 15 -17 15 -20 -5 -45
-30 -38 -27 -44 25 -44 38 0 44 -2 35 -14 -9 -11 -18 -11 -47 -1 -52 17 -58
28 -34 57 11 15 20 30 20 35 0 4 -4 2 -9 -6 -5 -8 -9 3 -9 33 -1 36 3 49 21
61 18 13 19 15 4 15 -10 0 -15 5 -12 10 3 6 -1 10 -9 10 -8 0 -18 -4 -21 -10
-3 -5 -11 -10 -17 -10 -6 0 -3 8 8 19 10 10 22 17 27 14 14 -8 7 7 -14 28
l-22 22 7 -27 c4 -18 3 -25 -4 -21 -11 7 -14 38 -4 48 11 10 40 -15 59 -49z
m-79 -50 c-4 -18 -12 -34 -18 -34 -6 0 -8 9 -3 23 3 12 9 33 12 47 9 37 16 5
9 -36z m179 -20 c-32 -36 -43 -38 -26 -6 6 12 11 32 11 47 0 25 1 25 23 9 l22
-17 -30 -33z m-133 -21 c-3 -41 -10 -64 -24 -78 -12 -11 -18 -15 -14 -9 3 7
-1 15 -10 18 -8 3 -12 2 -9 -4 3 -6 1 -10 -4 -10 -17 0 -13 26 5 41 14 11 18
10 30 -6 13 -17 14 -13 14 36 0 46 5 69 15 69 1 0 0 -26 -3 -57z m-22 10 c0
-23 -4 -33 -9 -27 -9 8 -4 64 5 64 2 0 4 -17 4 -37z m220 -12 c-1 -14 -20 -35
-26 -28 -4 3 -1 15 7 24 12 16 12 17 -1 6 -11 -8 -21 -9 -30 -2 -13 8 -12 12
5 25 18 13 21 13 32 -3 7 -9 13 -19 13 -22z m-39 -29 c9 -10 13 -26 9 -36 -5
-15 -8 -14 -20 8 -7 14 -20 26 -27 26 -8 0 -11 5 -8 10 9 15 29 12 46 -8z
m-27 -34 c35 -49 1 -82 -39 -38 -21 23 -44 28 -25 5 11 -13 8 -15 -14 -15 -23
0 -25 2 -15 24 8 16 17 22 30 19 11 -3 21 1 25 11 8 22 20 20 38 -6z m-185
-55 c12 -14 29 -51 38 -82 9 -31 18 -50 21 -42 3 10 9 7 18 -10 10 -19 13 -20
14 -6 0 9 4 17 10 17 6 0 5 10 -2 25 -6 13 -14 23 -17 21 -3 -2 -6 6 -6 18 0
18 5 21 26 18 31 -5 53 -39 46 -73 -3 -19 -5 -16 -6 10 -1 29 -3 32 -16 21
-18 -15 -20 -34 -3 -24 7 5 9 2 5 -8 -3 -9 0 -21 6 -27 13 -13 19 -163 6 -156
-4 3 -10 -8 -13 -25 -3 -16 -9 -44 -12 -60 -3 -17 -10 -30 -16 -30 -6 0 -8 10
-5 23 3 12 8 38 11 57 7 38 1 29 -28 -40 -13 -32 -14 -33 -15 -9 -1 14 9 46
22 71 19 38 21 47 9 58 -12 10 -12 14 0 21 10 7 9 9 -6 9 -12 0 -16 5 -12 16
3 8 2 12 -4 9 -6 -4 -10 5 -10 20 0 15 -13 44 -29 64 -15 20 -33 52 -40 72 -6
20 -21 45 -33 55 l-21 19 22 -42 c11 -23 21 -59 20 -80 l-1 -38 -8 42 c-11 52
-38 105 -50 98 -15 -9 -12 -27 10 -70 11 -22 20 -48 20 -60 -1 -20 -1 -20 -15
-1 -8 11 -15 28 -15 38 0 10 -6 29 -13 41 -19 33 -15 60 12 74 29 14 50 5 80
-34z m33 0 c10 -9 17 -28 17 -42 -1 -21 -2 -22 -6 -6 -3 11 -14 30 -26 43 -24
25 -12 30 15 5z m-82 -47 c0 -5 -7 -3 -15 4 -8 7 -15 22 -15 34 1 20 2 20 15
-4 8 -14 14 -29 15 -34z m-40 -42 c0 -13 -4 -24 -10 -24 -5 0 -10 14 -10 31 0
17 4 28 10 24 6 -3 10 -17 10 -31z m50 -75 c0 -11 3 -19 8 -19 10 0 8 -87 -3
-97 -4 -5 -5 0 -2 10 4 11 1 17 -8 17 -9 0 -12 -6 -9 -17 4 -13 3 -15 -4 -5
-5 7 -7 35 -4 61 2 30 0 51 -7 55 -18 12 -12 24 9 19 11 -3 20 -14 20 -24z
m130 -109 c0 -5 -4 -10 -9 -10 -5 0 -13 -9 -16 -21 -4 -11 -9 -18 -11 -16 -7
7 18 57 28 57 4 0 8 -4 8 -10z m47 -102 c-3 -7 -5 -2 -5 12 0 14 2 19 5 13 2
-7 2 -19 0 -25z"/>
<path d="M1530 566 c0 -2 8 -10 18 -17 15 -13 16 -12 3 4 -13 16 -21 21 -21
13z"/>
<path d="M1675 530 c3 -5 16 -15 28 -21 22 -12 22 -12 3 10 -19 21 -43 30 -31
11z"/>
</g>
</svg>
