<?xml version="1.0" standalone="no"?>
<!DOCTYPE svg PUBLIC "-//W3C//DTD SVG 20010904//EN"
 "http://www.w3.org/TR/2001/REC-SVG-20010904/DTD/svg10.dtd">
<svg version="1.0" xmlns="http://www.w3.org/2000/svg"
 width="180.000000pt" height="80.000000pt" viewBox="0 0 180.000000 80.000000"
 preserveAspectRatio="xMidYMid meet">
<metadata>
Created by potrace 1.10, written by Peter Selinger 2001-2011
</metadata>
<g transform="translate(0.000000,80.000000) scale(0.100000,-0.100000)"
fill="#000000" stroke="none">
<path d="M160 789 c0 -5 -4 -8 -10 -4 -5 3 -16 -7 -24 -23 -8 -16 -40 -50 -70
-76 -31 -26 -56 -53 -56 -59 0 -6 14 -39 32 -74 23 -47 41 -68 65 -79 26 -13
31 -20 23 -33 -12 -23 -16 -233 -6 -298 6 -35 14 -53 23 -53 19 0 28 -28 13
-45 -21 -25 -1 -17 24 10 l24 25 6 -26 c4 -14 4 -29 1 -32 -12 -12 -79 -12
-87 0 -7 10 -9 10 -5 -2 3 -11 18 -15 53 -15 l49 0 2 45 c1 25 5 68 9 96 4 30
2 59 -4 70 -14 26 15 132 39 144 25 14 47 -15 31 -41 -16 -25 -15 -106 1 -116
6 -4 22 -8 34 -9 21 -1 22 2 18 53 -5 54 19 128 37 117 4 -3 8 30 8 74 0 83
-14 112 -53 112 -9 0 -17 6 -18 13 0 6 -4 3 -9 -8 -8 -19 -9 -19 -9 2 -1 12
-8 26 -17 31 -13 7 -14 11 -4 17 8 5 18 1 27 -11 13 -17 14 -17 7 11 -4 17
-13 44 -22 60 -8 17 -19 38 -23 47 -5 10 -9 24 -9 32 0 7 -6 18 -12 24 -15 12
-68 -28 -68 -51 0 -22 -12 -28 -29 -14 -14 11 -14 10 -2 -5 12 -16 11 -18 -3
-18 -9 0 -16 6 -16 14 0 8 -3 21 -6 30 -3 9 -1 16 6 16 6 0 8 -5 4 -12 -5 -7
-2 -9 9 -5 9 3 18 1 21 -6 3 -7 4 -3 1 8 -6 26 5 41 29 40 11 0 21 6 24 14 3
8 0 11 -7 7 -6 -4 -11 -2 -11 3 0 6 -9 11 -20 11 -11 0 -20 -5 -20 -11z m90
-59 c0 -10 -5 -22 -10 -25 -7 -4 -8 3 -4 21 l7 27 -22 -22 c-21 -21 -28 -36
-13 -28 4 3 16 -4 26 -14 11 -11 14 -19 8 -19 -6 0 -14 5 -17 10 -3 6 -13 10
-21 10 -8 0 -12 -4 -9 -10 3 -5 -2 -10 -12 -10 -15 0 -14 -2 4 -15 18 -12 22
-25 21 -60 0 -30 -4 -42 -12 -38 -6 4 0 -6 12 -22 26 -32 21 -42 -32 -60 -29
-10 -38 -10 -47 1 -9 12 -3 14 35 14 52 0 55 6 25 44 -20 25 -20 28 -5 45 9
10 16 28 15 42 l-1 24 -8 -25 c-5 -17 -8 -19 -9 -7 -1 18 -31 25 -31 6 0 -5 5
-7 10 -4 13 8 13 -11 0 -36 -13 -23 -30 -25 -30 -4 0 8 7 15 16 15 8 0 12 5 9
10 -4 6 -11 8 -16 5 -5 -4 -4 5 3 20 8 19 17 24 32 20 19 -5 19 -5 3 5 -13 9
-22 9 -32 0 -21 -17 -35 -3 -34 33 2 27 2 28 6 7 5 -27 23 -52 23 -32 0 7 6
12 13 12 7 0 21 15 32 33 32 55 65 69 65 27z m36 -108 c-11 -10 -18 6 -22 50
l-5 43 16 -43 c9 -24 14 -46 11 -50z m-171 -7 c5 -13 -4 -8 -26 15 -34 35 -34
35 -14 52 19 16 20 15 26 -15 4 -18 10 -41 14 -52z m115 -13 c0 -50 1 -54 14
-37 12 16 16 17 30 6 18 -15 22 -41 5 -41 -5 0 -7 4 -4 10 3 6 -1 7 -9 4 -9
-3 -13 -11 -10 -18 4 -6 -2 -2 -14 9 -14 14 -21 37 -24 77 -3 31 -1 55 4 52 4
-3 8 -31 8 -62z m20 -6 c-7 -7 -10 4 -9 30 1 39 1 39 10 9 5 -18 5 -33 -1 -39z
m-170 25 c0 -14 -26 -20 -39 -10 -8 6 -8 5 -1 -3 12 -15 13 -28 1 -28 -15 0
-21 30 -11 51 9 15 15 17 30 9 11 -6 20 -15 20 -19z m25 -31 c3 -5 -1 -10 -10
-10 -8 0 -21 -12 -27 -26 -10 -22 -13 -23 -18 -8 -11 31 38 71 55 44z m19 -36
c4 -10 14 -14 25 -11 13 3 22 -3 30 -19 10 -22 8 -24 -15 -24 -22 0 -25 2 -14
15 19 23 -4 18 -25 -5 -40 -44 -74 -11 -39 38 18 26 30 28 38 6z m242 -36 c13
-9 10 -53 -4 -71 -5 -7 -13 -27 -17 -44 -3 -18 -11 -35 -16 -38 -16 -10 -10
29 11 70 22 44 25 61 10 70 -12 7 -53 -77 -41 -85 4 -3 1 -16 -6 -30 -12 -25
-13 -24 -13 13 0 21 10 57 21 80 l22 42 -21 -19 c-12 -10 -27 -35 -33 -55 -7
-20 -25 -52 -40 -72 -16 -20 -29 -49 -29 -64 0 -15 -4 -24 -10 -20 -6 3 -7 -1
-4 -9 4 -11 0 -16 -12 -16 -15 0 -16 -2 -6 -9 12 -7 12 -11 0 -21 -12 -11 -10
-20 9 -58 13 -25 23 -57 22 -71 0 -29 1 -31 -34 49 l-15 35 7 -35 c11 -61 11
-80 3 -80 -5 0 -11 13 -14 30 -3 16 -9 44 -12 60 -3 17 -9 28 -13 25 -13 -7
-7 143 6 156 6 6 9 18 6 27 -4 10 -2 13 5 8 17 -10 15 9 -3 24 -13 11 -15 8
-16 -21 -1 -26 -3 -29 -6 -10 -7 35 15 68 47 73 26 4 27 2 19 -20 -5 -13 -14
-32 -19 -43 -7 -13 -7 -19 0 -19 5 0 10 -8 10 -17 1 -14 4 -13 14 6 9 17 15
20 18 10 3 -8 13 13 23 46 30 97 84 140 131 103z m-113 -30 c-12 -13 -23 -32
-26 -43 -4 -17 -5 -16 -6 4 -1 25 24 61 42 61 6 0 1 -10 -10 -22z m86 -34
c-18 -22 -22 -11 -7 22 10 21 14 24 16 10 2 -9 -2 -24 -9 -32z m41 -44 c0 -16
-4 -30 -9 -30 -5 0 -8 12 -6 28 4 34 4 32 10 32 3 0 5 -13 5 -30z m-170 -10
c0 -5 -5 -10 -11 -10 -5 0 -7 5 -4 10 3 6 8 10 11 10 2 0 4 -4 4 -10z m130
-65 c-8 -9 -11 -31 -8 -59 3 -24 1 -50 -4 -58 -8 -10 -8 -9 -4 5 3 11 0 17 -9
17 -9 0 -12 -6 -8 -17 3 -10 2 -15 -2 -10 -11 10 -13 97 -3 97 5 0 8 9 8 19 0
11 8 21 18 23 24 6 27 1 12 -17z m-131 -131 c6 -15 10 -29 7 -31 -2 -2 -7 5
-11 16 -3 12 -11 21 -16 21 -5 0 -9 5 -9 10 0 19 17 10 29 -16z m-72 -86 c-3
-7 -5 -2 -5 12 0 14 2 19 5 13 2 -7 2 -19 0 -25z"/>
<path d="M249 553 c-13 -16 -12 -17 4 -4 9 7 17 15 17 17 0 8 -8 3 -21 -13z"/>
<path d="M94 519 c-19 -22 -19 -22 3 -10 24 12 39 31 25 31 -5 0 -17 -10 -28
-21z"/>
<path d="M1142 769 c-45 -40 -35 -47 13 -9 22 18 50 30 66 30 33 0 36 -7 12
-27 -10 -8 -12 -12 -5 -8 6 3 12 1 12 -4 0 -15 -23 -14 -38 1 -10 10 -20 5
-46 -25 -30 -34 -34 -36 -39 -17 -10 40 -34 33 -110 -28 l-74 -61 -34 27 c-70
56 -100 73 -117 68 -9 -3 -23 -2 -30 3 -10 6 -10 10 3 21 10 8 15 9 15 1 0 -6
5 -11 11 -11 6 0 9 8 7 18 -2 9 -10 16 -16 15 -7 -2 -12 2 -12 8 0 5 -4 7 -10
4 -5 -3 -10 -3 -10 2 0 17 -56 8 -73 -12 -15 -16 -17 -29 -12 -65 6 -40 44
-121 45 -95 0 6 -8 21 -17 35 -12 17 -13 25 -5 28 7 2 12 13 11 25 0 21 -1 21
-9 2 -8 -19 -9 -19 -9 3 -1 12 4 22 10 22 6 0 8 8 4 19 -3 11 0 23 6 27 9 5
10 2 6 -9 -7 -20 -3 -21 24 -7 26 14 25 -5 -1 -23 -11 -8 -17 -16 -14 -20 3
-3 1 -14 -4 -24 -11 -21 -5 -46 9 -37 11 7 11 1 -1 -31 -6 -16 -14 -23 -22
-19 -7 5 -9 2 -5 -8 5 -13 1 -14 -24 -4 -24 9 -32 8 -40 -4 -9 -12 -9 -11 -4
5 4 11 11 34 15 50 4 17 8 23 9 14 1 -17 41 -59 41 -43 0 6 -5 15 -11 21 -6 6
-15 26 -19 45 l-7 33 -22 -48 c-44 -95 -38 -146 22 -191 28 -21 47 -27 96 -29
l61 -2 0 -45 c0 -28 3 -40 9 -32 9 16 21 -79 21 -174 0 -62 1 -64 26 -64 24 0
26 -3 22 -40 -2 -25 0 -39 7 -37 5 2 9 14 7 25 -5 34 15 26 22 -9 3 -17 6 -35
6 -38 0 -6 -76 -7 -90 -2 -3 1 4 6 15 11 19 8 19 9 -3 9 -17 1 -23 -4 -20 -17
3 -13 14 -17 53 -17 l50 0 -3 53 c-2 33 1 52 9 52 8 0 10 49 8 168 -3 178 5
221 39 207 30 -12 44 -10 56 7 8 14 8 23 -1 37 -11 17 -6 24 42 60 41 31 55
48 55 67 0 55 86 98 115 57 11 -15 13 -10 11 32 l-1 50 -40 2 c-33 3 -46 -3
-73 -28z m-407 -85 c1 -14 -5 -24 -13 -24 -9 0 -12 6 -8 16 3 9 6 23 6 31 0
26 15 4 15 -23z m378 6 c3 -11 -2 -25 -12 -32 -15 -12 -15 -11 -1 6 35 46 -14
0 -69 -64 -33 -38 -63 -65 -67 -62 -4 4 -5 2 -1 -3 3 -6 -12 -37 -34 -70 -21
-33 -39 -66 -39 -75 -1 -12 -3 -12 -11 2 -8 14 -1 28 30 68 23 29 38 57 34 65
-3 9 8 30 26 50 48 56 36 55 -16 0 -36 -38 -45 -52 -36 -60 10 -8 8 -16 -10
-38 l-22 -28 0 60 c0 34 3 61 8 61 4 0 7 -6 7 -12 1 -7 6 -1 13 14 12 26 67
77 67 62 0 -4 16 7 35 26 19 19 35 30 35 25 0 -5 7 0 15 12 17 25 41 21 48 -7z
m-295 1 c3 -10 0 -10 -19 -1 l-22 13 21 -28 c12 -15 22 -41 22 -57 0 -24 4
-29 16 -24 12 5 15 2 10 -10 -3 -8 -6 -22 -6 -30 0 -8 -5 -14 -11 -14 -6 0 -9
9 -6 20 3 11 1 23 -4 26 -5 3 -9 16 -9 28 0 13 -9 35 -21 50 -11 14 -18 30
-15 35 8 13 39 7 44 -8z m62 -45 c7 -9 19 -16 26 -16 22 0 17 -17 -12 -39 -23
-18 -25 -25 -19 -68 4 -32 3 -43 -3 -34 -7 9 -10 1 -10 -29 -1 -23 -4 -45 -8
-49 -3 -3 -4 31 -2 76 3 58 10 88 21 101 17 18 14 32 -7 32 -6 0 -4 -5 4 -10
9 -6 10 -10 3 -10 -6 0 -15 5 -18 10 -4 6 -10 8 -14 6 -4 -3 -8 11 -9 30 -2
31 -1 34 16 25 10 -5 24 -17 32 -25z m-100 7 c0 -12 -3 -14 -8 -6 -5 8 -11 4
-18 -12 -9 -19 -9 -22 2 -18 8 3 17 -2 20 -11 10 -25 2 -27 -26 -6 -22 17 -23
20 -10 44 15 30 40 35 40 9z m303 -20 c-6 -16 -5 -17 13 -3 11 8 4 1 -15 -17
-43 -38 -51 -35 -21 6 24 35 32 39 23 14z m-279 -58 c7 -45 2 -38 -13 19 -6
22 -6 35 -1 30 4 -5 11 -27 14 -49z m-34 -10 c4 3 10 -2 14 -10 7 -18 -5 -20
-22 -3 -10 10 -15 10 -22 -2 -5 -8 -7 -18 -4 -22 3 -4 -3 -19 -12 -33 -13 -20
-20 -23 -35 -15 -19 10 -18 23 4 68 7 15 17 22 29 19 10 -3 21 0 25 6 5 8 8 8
11 -1 2 -7 7 -10 12 -7z m-106 -1 c13 -5 12 -10 -4 -39 -17 -30 -17 -34 -3
-39 9 -4 13 -9 9 -13 -8 -8 -44 25 -52 49 -3 10 0 25 6 33 14 16 21 18 44 9z
m146 -34 c20 0 22 -2 10 -10 -22 -14 -43 -12 -66 6 -18 15 -18 15 6 10 14 -3
36 -6 50 -6z m212 -33 c-5 -18 -7 -19 -10 -4 -2 9 -8 17 -13 17 -6 0 -7 -4 -4
-10 3 -5 1 -10 -4 -10 -12 0 -15 23 -5 32 3 3 13 4 23 1 14 -3 17 -11 13 -26z
m-208 -2 c-4 -8 -10 -16 -15 -16 -8 -1 -17 -3 -36 -8 -5 -2 1 -6 12 -11 16 -7
17 -9 3 -9 -9 -1 -20 4 -23 9 -4 6 -11 8 -16 5 -5 -4 -9 -3 -9 2 1 19 18 32
50 36 19 2 36 5 37 5 1 1 0 -5 -3 -13z m-114 -35 c0 -5 -4 -10 -10 -10 -5 0
-10 5 -10 10 0 6 5 10 10 10 6 0 10 -4 10 -10z m127 -42 c-2 -13 -4 -5 -4 17
-1 22 1 32 4 23 2 -10 2 -28 0 -40z m48 -40 c4 -13 9 -31 11 -41 2 -10 11 -28
19 -40 18 -28 33 -127 17 -112 -6 6 -22 47 -37 93 -15 46 -29 81 -32 78 -12
-11 41 -186 56 -186 4 0 7 -10 9 -23 1 -16 -4 -23 -18 -24 -11 -1 -20 2 -20 7
0 5 -6 7 -14 4 -9 -4 -15 7 -19 38 -3 23 -4 44 -2 46 2 2 13 -18 24 -44 12
-26 24 -44 27 -41 4 3 -3 27 -15 52 -12 25 -26 68 -32 96 -17 77 6 160 26 97z
m54 -73 c0 -12 -8 -2 -20 24 -16 36 -17 46 -7 59 11 13 14 9 20 -24 4 -21 7
-48 7 -59z"/>
<path d="M858 633 c7 -3 16 -2 19 1 4 3 -2 6 -13 5 -11 0 -14 -3 -6 -6z"/>
<path d="M711 550 c-1 -8 -4 -26 -7 -40 -5 -22 -4 -23 6 -7 6 10 9 28 7 40 -2
12 -5 15 -6 7z"/>
<path d="M632 543 c-6 -11 -7 -25 -3 -32 6 -9 10 -4 14 16 6 34 2 41 -11 16z"/>
<path d="M1570 789 c0 -5 -4 -8 -10 -4 -5 3 -16 -7 -24 -23 -8 -16 -40 -50
-70 -76 -31 -26 -56 -53 -56 -59 0 -6 14 -39 32 -74 23 -47 41 -68 65 -79 26
-13 31 -20 23 -33 -12 -23 -16 -233 -6 -298 6 -35 14 -53 23 -53 19 0 28 -28
13 -45 -21 -25 -1 -17 24 10 l24 25 6 -26 c4 -14 4 -29 1 -32 -12 -12 -79 -12
-87 0 -7 10 -9 10 -5 -2 3 -11 18 -15 53 -15 l49 0 2 45 c1 25 5 68 9 96 4 31
2 59 -5 72 -14 26 15 129 40 143 25 13 47 -16 31 -42 -16 -25 -15 -106 1 -116
6 -4 22 -8 34 -9 21 -1 22 2 18 53 -3 32 0 64 7 76 13 24 18 128 6 120 -5 -2
-8 -14 -8 -26 0 -12 -7 -31 -15 -41 -13 -18 -15 -18 -15 -3 0 10 7 34 15 54
13 31 13 34 0 23 -18 -15 -19 -9 -3 25 11 24 13 25 19 8 7 -16 8 -16 8 -1 1 9
-3 19 -8 22 -14 9 -37 -35 -47 -89 l-8 -50 -4 38 c-2 25 4 53 18 80 22 41 22
42 1 23 -11 -10 -26 -35 -32 -55 -7 -20 -25 -52 -40 -72 -16 -20 -29 -49 -29
-64 0 -15 -4 -24 -10 -20 -6 3 -7 -1 -4 -9 4 -11 0 -16 -12 -16 -15 0 -16 -2
-6 -9 12 -7 12 -11 0 -22 -13 -11 -11 -19 9 -54 12 -22 23 -53 22 -70 0 -33 2
-35 -34 45 l-15 35 6 -35 c12 -68 12 -80 4 -80 -5 0 -11 13 -14 30 -3 16 -9
44 -12 60 -3 17 -9 28 -12 26 -12 -7 -13 78 -1 136 10 52 13 56 30 45 11 -7
19 -19 19 -27 1 -9 6 -6 14 9 9 17 15 20 18 10 3 -8 13 13 22 45 11 39 29 71
51 93 30 30 36 32 63 22 30 -10 30 -11 31 -86 0 -42 3 -78 6 -81 3 -3 5 31 5
75 0 84 -14 113 -53 113 -9 0 -17 6 -18 13 0 6 -4 3 -9 -8 -8 -19 -9 -19 -9 2
-1 12 -8 26 -17 31 -13 7 -14 11 -4 17 8 5 18 1 27 -11 13 -17 14 -17 7 11 -4
17 -13 44 -22 60 -8 17 -19 38 -23 47 -5 10 -9 24 -9 32 0 7 -6 18 -12 24 -15
12 -68 -28 -68 -51 0 -22 -12 -28 -29 -14 -14 11 -14 10 -2 -5 12 -16 11 -18
-3 -18 -9 0 -16 6 -16 14 0 8 -3 21 -6 30 -3 9 -1 16 6 16 6 0 8 -5 4 -12 -5
-7 -2 -9 9 -5 9 3 18 1 21 -6 3 -7 4 -3 1 8 -6 26 5 41 29 40 11 0 21 6 24 14
3 8 0 11 -7 7 -6 -4 -11 -2 -11 3 0 6 -9 11 -20 11 -11 0 -20 -5 -20 -11z m90
-59 c0 -10 -5 -22 -10 -25 -7 -4 -8 3 -4 21 l7 27 -22 -22 c-21 -21 -28 -36
-13 -28 4 3 16 -4 26 -14 11 -11 14 -19 8 -19 -6 0 -14 5 -17 10 -3 6 -13 10
-21 10 -8 0 -12 -4 -9 -10 3 -5 -2 -10 -12 -10 -15 0 -14 -2 4 -15 18 -12 22
-25 21 -60 0 -30 -4 -42 -12 -38 -6 4 0 -6 12 -22 26 -32 21 -42 -32 -60 -29
-10 -38 -10 -47 1 -13 16 -10 17 44 14 42 -2 46 6 16 44 -20 25 -20 28 -5 45
9 10 16 28 15 42 l-1 24 -8 -25 c-5 -17 -8 -19 -9 -7 -1 18 -31 25 -31 6 0 -5
5 -7 10 -4 13 8 13 -11 0 -36 -13 -23 -30 -25 -30 -4 0 8 7 15 16 15 8 0 12 5
9 10 -4 6 -11 8 -16 5 -5 -4 -4 5 3 20 8 19 17 24 32 20 19 -5 19 -5 3 5 -13
9 -22 9 -32 0 -21 -17 -35 -3 -34 33 2 27 2 28 6 7 5 -27 23 -52 23 -32 0 7 6
12 13 12 7 0 21 15 32 33 32 55 65 69 65 27z m36 -108 c-11 -10 -18 6 -22 50
l-5 43 16 -43 c9 -24 14 -46 11 -50z m-171 -7 c5 -13 -4 -8 -26 15 -34 35 -34
35 -14 52 19 16 20 15 26 -15 4 -18 10 -41 14 -52z m115 -13 c0 -50 1 -54 14
-37 12 16 16 17 30 6 18 -15 22 -41 5 -41 -5 0 -7 4 -4 10 3 6 -1 7 -9 4 -9
-3 -13 -11 -10 -18 4 -6 -2 -2 -14 9 -14 14 -21 37 -24 77 -3 31 -1 55 4 52 4
-3 8 -31 8 -62z m20 -6 c-7 -7 -10 4 -9 30 1 39 1 39 10 9 5 -18 5 -33 -1 -39z
m-170 25 c0 -14 -26 -20 -39 -10 -8 6 -8 5 -1 -3 12 -15 13 -28 1 -28 -15 0
-21 30 -11 51 9 15 15 17 30 9 11 -6 20 -15 20 -19z m25 -31 c3 -5 0 -10 -8
-10 -7 0 -20 -12 -27 -26 -12 -22 -15 -23 -20 -8 -11 31 38 71 55 44z m19 -36
c4 -10 14 -14 25 -11 13 3 22 -3 30 -19 10 -22 8 -24 -15 -24 -22 0 -25 2 -14
15 19 23 -4 18 -25 -5 -40 -44 -74 -11 -39 38 18 26 30 28 38 6z m129 -66
c-12 -13 -23 -32 -26 -43 -4 -17 -5 -16 -6 4 -1 25 24 61 42 61 6 0 1 -10 -10
-22z m-68 -64 c-8 -20 -15 -39 -15 -42 0 -4 -8 5 -17 18 l-18 25 -6 -35 c-6
-34 -6 -34 -7 -5 -2 37 16 62 48 68 14 2 26 5 28 6 1 0 -5 -15 -13 -35z m155
-89 c-8 -9 -11 -32 -8 -59 3 -24 1 -50 -4 -58 -8 -10 -8 -9 -4 5 3 11 0 17 -9
17 -9 0 -12 -6 -8 -17 3 -10 2 -15 -2 -10 -11 10 -13 97 -3 97 5 0 8 9 8 20 0
14 7 20 21 20 18 0 19 -2 9 -15z m-131 -131 c6 -15 10 -29 7 -31 -2 -2 -7 5
-11 16 -3 12 -11 21 -16 21 -5 0 -9 5 -9 10 0 19 17 10 29 -16z m-72 -86 c-3
-7 -5 -2 -5 12 0 14 2 19 5 13 2 -7 2 -19 0 -25z"/>
<path d="M1659 553 c-13 -16 -12 -17 4 -4 16 13 21 21 13 21 -2 0 -10 -8 -17
-17z"/>
<path d="M1504 519 c-19 -22 -19 -22 3 -10 24 12 39 31 25 31 -5 0 -17 -10
-28 -21z"/>
</g>
</svg>
