<?xml version="1.0" standalone="no"?>
<!DOCTYPE svg PUBLIC "-//W3C//DTD SVG 20010904//EN"
 "http://www.w3.org/TR/2001/REC-SVG-20010904/DTD/svg10.dtd">
<svg version="1.0" xmlns="http://www.w3.org/2000/svg"
 width="55.000000pt" height="80.000000pt" viewBox="0 0 55.000000 80.000000"
 preserveAspectRatio="xMidYMid meet">
<metadata>
Created by potrace 1.10, written by Peter Selinger 2001-2011
</metadata>
<g transform="translate(0.000000,80.000000) scale(0.100000,-0.100000)"
fill="#000000" stroke="none">
<path d="M268 774 c-17 -8 -28 -23 -28 -35 0 -11 5 -17 10 -14 6 3 10 12 10
20 0 8 5 17 12 21 7 4 8 3 4 -4 -9 -14 6 -16 20 -3 5 6 18 2 33 -10 13 -10 21
-19 18 -19 -3 0 -2 -14 3 -31 9 -30 4 -63 -9 -55 -3 2 -7 -6 -8 -17 -1 -12 -5
-38 -9 -57 -3 -19 -3 -32 1 -28 14 13 52 139 44 144 -5 2 -6 11 -2 19 3 9 -1
15 -8 15 -10 0 -10 3 -1 12 16 16 15 23 -4 42 -19 20 -51 20 -86 0z"/>
<path d="M307 746 c4 -13 3 -17 -4 -13 -6 4 -14 1 -16 -5 -4 -10 -6 -10 -6 0
-1 7 -6 10 -11 7 -8 -5 -8 -11 0 -20 8 -9 7 -17 -3 -27 -12 -12 -12 -16 1 -27
10 -10 13 -27 9 -61 -5 -42 -3 -51 19 -71 20 -19 23 -29 18 -58 -10 -57 -66
-253 -81 -283 -12 -24 -11 -31 2 -52 9 -14 12 -27 7 -30 -9 -5 -23 -50 -27
-89 -2 -15 4 -18 34 -15 34 3 36 5 39 41 2 21 11 46 21 56 10 10 33 57 51 105
18 47 36 86 40 86 21 0 30 -34 30 -106 -1 -43 1 -99 2 -124 3 -43 4 -45 37
-48 47 -5 60 12 33 41 -20 22 -21 23 -3 34 21 13 41 83 41 142 0 21 -9 68 -20
103 -11 34 -20 72 -20 83 0 11 -9 34 -20 52 -18 30 -18 35 -5 74 19 52 20 173
3 186 -7 6 -26 13 -42 17 -26 6 -27 6 -12 -9 9 -9 15 -24 15 -33 -1 -15 -2
-15 -6 1 -2 9 -13 17 -24 17 -11 0 -17 5 -14 10 3 6 -1 10 -9 10 -9 0 -16 -4
-16 -10 0 -5 4 -10 9 -10 5 0 9 -34 9 -76 1 -63 5 -81 22 -99 11 -12 20 -24
20 -27 0 -11 -73 0 -81 13 -4 7 -11 10 -15 6 -4 -3 -1 -15 7 -24 11 -15 10
-15 -9 1 -12 11 -22 29 -22 41 0 11 -6 27 -12 33 -10 10 -10 17 0 33 11 17 11
20 0 14 -7 -3 -1 3 15 15 25 20 40 49 18 35 -5 -3 -12 3 -15 12 -3 11 -4 9 -3
-6 1 -13 -3 -26 -8 -28 -6 -2 -11 9 -10 23 0 17 7 29 18 33 16 6 16 8 2 26
-14 19 -15 19 -8 1z m156 -65 c-10 -15 -9 -20 2 -25 9 -3 15 -18 14 -38 l-1
-33 -9 33 c-5 17 -14 32 -20 32 -7 0 -8 -7 -3 -17 4 -10 8 -30 8 -45 1 -14 4
-24 9 -21 12 7 8 -12 -6 -31 -12 -17 -14 -16 -31 9 -10 15 -20 41 -23 59 -4
27 -2 34 15 38 14 4 23 17 28 43 5 26 10 33 18 25 7 -7 7 -16 -1 -29z m-33
-12 c0 -12 -20 -22 -28 -14 -3 3 0 10 8 15 10 7 11 10 3 10 -7 0 -13 8 -13 18
1 15 2 15 15 -2 8 -11 15 -23 15 -27z m-136 -115 c3 -8 2 -12 -4 -9 -6 3 -10
10 -10 16 0 14 7 11 14 -7z m121 -54 c16 -7 11 -9 -20 -9 -29 -1 -36 2 -25 9
17 11 19 11 45 0z m-62 -63 c-4 -22 -8 -25 -19 -16 -8 6 -14 20 -14 31 0 18 2
19 17 7 15 -13 15 -12 3 11 -11 22 -11 23 3 10 10 -10 14 -25 10 -43z m92 23
c-21 -23 -35 -26 -35 -6 0 13 15 21 44 25 5 0 1 -8 -9 -19z m-57 -47 c-1 -27
2 -58 6 -70 4 -14 3 -23 -3 -23 -6 0 -19 -17 -30 -39 -11 -21 -35 -51 -53 -67
-19 -16 -28 -25 -21 -20 8 5 13 4 13 -3 0 -6 4 -11 10 -11 5 0 7 6 4 13 -3 8
2 20 11 27 9 8 15 8 15 2 0 -6 -4 -13 -9 -16 -5 -3 -7 -16 -4 -29 3 -12 2 -19
-2 -15 -4 4 -16 -3 -26 -16 -23 -29 -25 -43 -4 -26 9 8 15 9 15 2 0 -15 -16
-23 -33 -16 -20 7 -27 60 -12 82 7 9 15 35 18 57 11 72 19 105 26 100 4 -2 6
-23 5 -47 -2 -27 0 -36 5 -24 6 16 6 73 -1 108 -2 7 4 13 12 13 9 0 16 -11 18
-27 4 -34 22 -37 23 -5 1 12 1 26 0 31 -2 11 9 66 14 66 2 0 3 -21 3 -47z m87
16 c0 -31 -17 -46 -52 -48 -23 -2 -13 37 15 58 36 27 37 26 37 -10z m50 -183
c7 -36 -21 -136 -43 -152 -14 -11 -15 -16 -4 -33 11 -19 10 -21 -10 -21 -19 0
-20 -2 -8 -11 13 -9 13 -10 0 -6 -21 5 -25 48 -6 59 18 10 21 28 5 28 -5 0 -7
-5 -4 -10 3 -6 1 -10 -5 -10 -20 0 -5 34 27 63 18 16 31 33 28 37 -3 5 -1 11
5 15 28 17 -10 41 -40 25 -13 -7 -21 -7 -25 0 -3 5 -1 10 5 10 6 0 8 6 4 13
-4 6 -4 9 1 5 11 -10 37 11 29 24 -3 5 -11 5 -19 -2 -10 -8 -18 -4 -34 16 -12
15 -21 29 -21 33 0 3 17 18 38 32 l36 27 18 -57 c10 -31 20 -69 23 -85z m-42
-64 c-11 -14 -26 -28 -34 -30 -11 -4 -12 -2 -2 10 9 10 9 18 2 25 -8 8 -7 13
2 18 7 5 10 4 5 -3 -3 -6 -2 -13 2 -16 5 -3 15 7 22 22 8 17 14 22 17 13 3 -7
-3 -25 -14 -39z m-211 -136 c2 -18 -2 -31 -11 -34 -8 -3 -11 0 -7 6 3 6 -3 12
-16 14 -21 3 -21 4 -4 21 11 10 15 24 11 35 -5 15 -4 15 9 2 8 -8 16 -28 18
-44z"/>
<path d="M430 306 c0 -2 8 -10 18 -17 15 -13 16 -12 3 4 -13 16 -21 21 -21 13z"/>
<path d="M190 654 c-25 -7 -36 -13 -25 -14 17 -2 16 -3 -5 -10 -24 -8 -24 -8
-2 -9 12 -1 22 -7 22 -15 0 -20 -19 -31 -32 -18 -6 6 -17 8 -24 5 -10 -4 -14
4 -14 26 0 30 -1 31 -42 30 -36 0 -39 -2 -20 -9 26 -11 29 -35 6 -44 -24 -9
-28 -7 -14 9 17 20 5 32 -15 15 -22 -18 -3 -34 43 -37 20 -1 59 -5 85 -9 26
-3 63 -3 82 0 31 6 35 11 35 37 0 27 -3 30 -22 24 -36 -11 -48 -29 -15 -21 22
5 28 3 24 -6 -2 -7 -11 -12 -20 -12 -9 1 -14 -2 -11 -7 3 -5 2 -9 -3 -9 -19 1
-31 17 -29 40 1 19 8 26 31 30 17 3 26 8 20 11 -5 3 -30 0 -55 -7z m-90 -24
c0 -5 -4 -10 -10 -10 -5 0 -10 5 -10 10 0 6 5 10 10 10 6 0 10 -4 10 -10z"/>
<path d="M316 615 c-9 -26 -7 -32 5 -12 6 10 9 21 6 23 -2 3 -7 -2 -11 -11z"/>
</g>
</svg>
