<?xml version="1.0" standalone="no"?>
<!DOCTYPE svg PUBLIC "-//W3C//DTD SVG 20010904//EN"
 "http://www.w3.org/TR/2001/REC-SVG-20010904/DTD/svg10.dtd">
<svg version="1.0" xmlns="http://www.w3.org/2000/svg"
 width="55.000000pt" height="80.000000pt" viewBox="0 0 55.000000 80.000000"
 preserveAspectRatio="xMidYMid meet">
<metadata>
Created by potrace 1.10, written by Peter Selinger 2001-2011
</metadata>
<g transform="translate(0.000000,80.000000) scale(0.100000,-0.100000)"
fill="#000000" stroke="none">
<path d="M196 774 c-19 -19 -20 -26 -4 -42 8 -8 9 -12 1 -12 -6 0 -13 5 -15
12 -2 6 -10 9 -16 7 -9 -3 -7 -11 7 -26 12 -12 17 -24 12 -27 -5 -3 0 -31 12
-62 27 -75 17 -106 -35 -109 -21 -1 -38 0 -38 2 0 2 9 16 19 31 18 25 25 66
22 145 -1 20 -6 27 -20 27 -11 0 -22 -8 -24 -17 -4 -16 -5 -16 -6 -1 0 9 6 24
15 33 15 15 14 15 -12 9 -16 -4 -35 -11 -41 -17 -18 -13 -17 -134 2 -186 13
-39 13 -44 -5 -74 -11 -18 -20 -41 -20 -52 0 -11 -9 -49 -20 -83 -11 -35 -20
-82 -20 -103 0 -59 20 -129 41 -142 18 -11 17 -12 -3 -34 -27 -29 -14 -46 33
-41 33 3 34 5 37 48 1 25 3 81 2 124 0 72 9 106 30 106 4 0 22 -39 40 -86 18
-48 41 -95 51 -105 10 -10 19 -35 21 -56 3 -36 5 -38 39 -41 30 -3 36 0 34 15
-4 39 -18 84 -27 89 -5 3 -2 16 7 30 13 21 14 28 2 52 -15 30 -71 226 -81 283
-5 29 -2 39 18 58 22 20 24 29 19 70 -4 34 -1 51 9 62 13 13 13 16 1 28 -10 9
-11 17 -5 23 7 7 7 19 1 35 -6 16 -5 22 1 18 6 -3 10 -12 10 -20 0 -8 5 -17
10 -20 6 -3 10 3 10 14 0 13 -12 26 -30 36 -37 19 -64 19 -84 -1z m74 -43 c0
-14 -2 -14 -10 -1 -5 8 -10 11 -10 5 0 -5 -5 -3 -10 5 -8 13 -10 12 -10 -2 0
-10 4 -18 10 -18 5 0 14 -10 21 -21 9 -17 8 -20 -2 -14 -9 6 -11 3 -6 -8 4
-11 1 -17 -9 -17 -11 0 -14 7 -10 23 3 12 3 16 0 9 -3 -6 -10 -10 -15 -6 -22
13 -6 -16 19 -36 15 -12 21 -18 14 -15 -11 6 -11 3 0 -14 10 -16 10 -23 0 -33
-6 -6 -12 -22 -12 -33 0 -12 -9 -30 -21 -41 l-21 -19 18 32 c18 31 18 33 0 80
-22 56 -26 93 -13 111 5 6 6 12 2 12 -4 0 3 9 16 19 26 21 49 12 49 -18z
m-138 -89 c17 -4 19 -11 15 -38 -3 -18 -13 -44 -23 -59 -17 -25 -19 -26 -31
-9 -14 19 -18 38 -5 31 4 -3 7 7 8 21 0 15 4 35 8 45 5 10 4 17 -3 17 -6 0
-15 -15 -20 -32 l-9 -33 -1 33 c-1 21 5 35 14 38 12 5 13 10 4 20 -6 8 -8 21
-4 31 6 14 10 10 18 -21 6 -25 17 -40 29 -44z m8 40 c-10 -4 -9 -6 1 -13 7 -4
10 -11 6 -15 -16 -16 -29 13 -15 35 8 13 14 17 17 9 2 -7 -2 -14 -9 -16z m121
-135 c-10 -9 -11 -8 -5 6 3 10 9 15 12 12 3 -3 0 -11 -7 -18z m-71 -53 c0 -2
-17 -4 -37 -3 -33 1 -35 2 -13 8 23 7 50 4 50 -5z m40 -45 c0 -9 -6 -22 -14
-28 -11 -9 -15 -6 -19 16 -6 33 11 62 24 41 5 -7 9 -20 9 -29z m-99 21 c5 0 9
-7 9 -15 0 -21 -14 -19 -36 7 -18 20 -18 21 -1 15 10 -4 23 -7 28 -7z m-20
-31 c29 -20 40 -60 17 -58 -36 2 -53 17 -53 48 0 17 2 31 3 31 2 0 17 -9 33
-21z m68 -37 c-3 -35 1 -62 11 -62 6 0 10 11 10 24 0 26 14 41 29 31 6 -3 6
-18 1 -36 -7 -25 -7 -29 4 -20 14 12 20 -4 33 -94 3 -22 11 -48 17 -57 7 -9
10 -32 8 -51 -3 -27 -8 -34 -25 -33 -11 1 -23 8 -25 16 -5 13 -3 13 11 1 26
-21 20 1 -9 32 -14 15 -22 31 -19 36 3 5 1 12 -5 16 -5 3 -10 11 -10 17 0 6 6
6 15 -2 9 -7 13 -20 10 -29 -5 -13 -4 -13 6 -4 7 7 18 9 24 5 6 -4 -4 6 -23
22 -18 16 -42 46 -53 67 -11 22 -24 39 -30 39 -6 0 -7 9 -3 23 4 12 6 42 6 67
-2 36 0 41 9 27 5 -9 9 -25 8 -35z m-39 -73 c0 -4 -9 -18 -21 -33 -16 -20 -24
-24 -34 -16 -8 7 -16 7 -19 2 -8 -13 18 -34 29 -24 5 4 5 1 1 -5 -4 -7 -2 -13
4 -13 6 0 8 -5 5 -10 -4 -7 -12 -7 -25 0 -30 16 -68 -8 -40 -25 6 -4 8 -10 5
-15 -3 -4 9 -20 27 -35 32 -27 48 -65 27 -65 -5 0 -7 5 -4 10 3 6 1 10 -4 10
-16 0 -13 -18 5 -28 19 -11 15 -54 -6 -59 -13 -4 -13 -3 0 6 12 9 11 11 -8 11
-20 0 -21 2 -10 21 11 17 10 22 -4 33 -18 13 -50 112 -45 142 1 10 11 49 22
86 l19 66 38 -26 c21 -15 38 -30 38 -33z m-60 -142 c0 -4 5 -5 10 -2 6 4 7 11
4 17 -5 7 -2 8 5 3 9 -5 10 -10 2 -18 -7 -7 -7 -14 0 -24 8 -9 8 -13 1 -13
-15 0 -52 50 -52 69 1 13 3 13 15 -3 8 -11 15 -24 15 -29z m225 -97 c-3 -5 2
-21 11 -35 16 -24 16 -25 -5 -25 -14 0 -20 -4 -15 -11 4 -7 1 -10 -7 -7 -16 6
-14 55 3 75 12 15 22 17 13 3z"/>
<path d="M220 625 c0 -5 5 -17 10 -25 5 -8 10 -10 10 -5 0 6 -5 17 -10 25 -5
8 -10 11 -10 5z"/>
<path d="M227 308 c-2 -7 -1 -22 3 -33 6 -16 8 -13 7 13 0 35 -2 39 -10 20z"/>
<path d="M99 293 c-13 -16 -12 -17 4 -4 9 7 17 15 17 17 0 8 -8 3 -21 -13z"/>
<path d="M304 659 c-2 -4 8 -9 23 -11 22 -2 28 -9 29 -28 2 -23 -10 -39 -29
-40 -5 0 -6 4 -3 9 3 5 -2 8 -11 7 -9 0 -18 5 -20 12 -4 9 2 11 24 6 33 -8 21
10 -14 21 -20 6 -23 3 -23 -24 0 -26 4 -31 35 -37 19 -3 56 -3 82 0 26 4 64 8
85 9 20 1 40 6 44 10 15 15 11 33 -7 34 -22 2 -24 -7 -6 -26 10 -11 9 -13 -6
-7 -10 3 -21 6 -23 6 -15 0 0 32 19 40 18 7 15 9 -20 9 -42 1 -43 0 -43 -30 0
-22 -4 -30 -14 -26 -7 3 -18 1 -24 -5 -6 -6 -15 -7 -21 -4 -19 12 -12 34 12
39 21 4 21 4 -3 6 -20 2 -22 4 -7 9 13 6 5 10 -28 18 -25 6 -48 7 -51 3z m166
-29 c0 -5 -4 -10 -10 -10 -5 0 -10 5 -10 10 0 6 5 10 10 10 6 0 10 -4 10 -10z"/>
</g>
</svg>
