<?xml version="1.0" standalone="no"?>
<!DOCTYPE svg PUBLIC "-//W3C//DTD SVG 20010904//EN"
 "http://www.w3.org/TR/2001/REC-SVG-20010904/DTD/svg10.dtd">
<svg version="1.0" xmlns="http://www.w3.org/2000/svg"
 width="248.000000pt" height="82.000000pt" viewBox="0 0 248.000000 82.000000"
 preserveAspectRatio="xMidYMid meet">
<metadata>
Created by potrace 1.10, written by Peter Selinger 2001-2011
</metadata>
<g transform="translate(0.000000,82.000000) scale(0.100000,-0.100000)"
fill="#000000" stroke="none">
<path d="M900 790 c-16 -16 -28 -19 -60 -14 -64 10 -80 -11 -80 -104 0 -57 5
-83 21 -112 20 -36 21 -39 5 -61 -9 -13 -16 -35 -16 -48 0 -14 -10 -55 -22
-93 -20 -62 -21 -72 -9 -120 7 -29 22 -73 32 -96 14 -33 16 -49 8 -64 -6 -10
-12 -28 -14 -39 -4 -18 1 -20 33 -17 35 3 37 5 45 48 5 25 16 53 24 62 8 9 13
20 10 25 -3 4 -12 31 -20 59 -12 41 -13 54 -2 74 12 23 14 21 55 -61 23 -46
52 -94 63 -107 14 -15 21 -36 22 -65 0 -40 2 -42 31 -45 54 -5 63 37 23 111
-5 9 -7 28 -3 41 3 14 -2 39 -15 64 -22 43 -74 241 -69 263 2 8 8 17 13 21 6
5 4 8 -5 8 -13 0 -13 1 0 10 13 9 13 10 0 10 -8 1 -4 6 10 11 19 8 27 6 37 -6
6 -10 9 -24 5 -33 -5 -15 -7 -14 -10 3 -6 32 -22 42 -22 14 0 -14 -5 -30 -12
-37 -18 -18 12 -16 40 4 25 17 28 36 8 53 -8 7 -18 35 -22 64 l-7 52 -18 -42
c-10 -24 -21 -43 -24 -43 -3 0 -1 9 5 21 10 17 5 87 -5 77 -2 -2 -7 -28 -10
-58 -7 -59 -20 -90 -37 -90 -7 0 -6 5 2 15 7 8 10 29 8 45 -4 24 -1 30 10 25
8 -3 12 0 10 7 -2 6 -12 12 -22 14 -34 5 -38 20 -9 32 25 11 26 11 10 -2 -10
-8 -14 -17 -9 -20 14 -8 35 20 36 49 1 14 4 25 9 25 30 0 31 -1 16 -13 -13
-10 -13 -16 -2 -37 l13 -25 0 31 c0 18 8 38 20 49 25 22 25 39 3 56 -15 11
-16 11 -5 -1 6 -8 12 -21 12 -29 0 -14 -2 -14 -10 -1 -5 8 -12 11 -17 7 -4 -5
-1 -12 6 -16 9 -6 10 -11 2 -15 -6 -4 -11 -3 -11 3 0 6 -17 13 -37 17 -21 4
-32 9 -25 11 6 3 10 9 7 14 -4 5 1 6 10 3 21 -9 51 16 33 27 -22 14 -47 10
-68 -11z m-40 -46 c0 -7 5 -25 12 -39 8 -19 14 -22 20 -13 7 10 9 9 5 -2 -7
-27 -31 -16 -40 20 -5 19 -14 41 -19 48 -8 9 -7 11 6 6 9 -3 16 -12 16 -20z
m75 -7 c4 5 5 0 2 -10 -4 -10 -7 -23 -7 -28 0 -5 -5 -9 -11 -9 -7 0 -9 9 -6
21 4 17 3 19 -6 10 -17 -17 -31 -13 -17 4 11 13 10 14 -4 9 -9 -3 -16 -2 -16
3 0 19 13 22 34 7 13 -8 26 -11 31 -7z m-102 6 c2 -5 7 -20 11 -35 5 -23 3
-28 -13 -28 -10 0 -22 -8 -26 -17 -5 -15 -4 -16 6 -5 20 19 56 15 62 -8 8 -31
-16 -44 -51 -26 -47 24 -49 54 -7 89 6 5 3 7 -7 3 -18 -5 -25 13 -11 27 9 9
31 9 36 0z m-31 -135 c6 6 18 8 27 4 13 -5 11 -7 -8 -12 -23 -5 -23 -6 -5 -20
10 -8 15 -10 11 -4 -4 7 5 14 24 18 17 3 28 10 25 15 -4 5 2 8 11 7 10 -2 20
-11 21 -21 5 -22 -18 -66 -30 -59 -5 3 -17 2 -26 -2 -13 -6 -9 -9 18 -15 l35
-7 -35 1 c-22 1 -34 7 -32 15 1 6 -2 12 -7 12 -12 0 -61 73 -60 91 0 7 5 3 10
-10 7 -18 13 -21 21 -13z m196 -33 c-1 -1 -13 -6 -25 -9 l-23 -7 23 25 c17 20
23 22 25 10 2 -9 2 -17 0 -19z m-156 -124 c-4 -36 -6 -40 -23 -30 -11 6 -19
21 -19 37 0 21 -2 24 -10 12 -6 -9 -10 -10 -10 -3 0 22 30 44 49 34 13 -7 16
-19 13 -50z m74 43 c-5 -14 -4 -15 9 -4 8 7 16 10 16 6 5 -23 4 -32 -4 -43 -5
-7 -13 -13 -17 -13 -9 0 -20 52 -13 62 8 15 15 8 9 -8z m-36 -59 c0 -14 -4
-25 -10 -25 -11 0 -14 33 -3 43 11 11 13 8 13 -18z m65 -59 c-1 -36 2 -63 7
-60 5 3 7 8 4 12 -2 4 0 16 5 27 5 13 8 -3 10 -50 1 -58 3 -64 9 -35 l7 35 2
-35 c0 -20 -5 -42 -11 -49 -11 -11 -9 -12 8 -7 23 7 35 -9 39 -51 4 -42 -11
-43 -46 0 -42 52 -75 102 -60 93 19 -12 12 8 -12 34 -13 14 -22 31 -20 37 2 6
-1 14 -6 18 -14 8 -14 55 -1 55 6 0 10 -7 10 -15 0 -8 5 -15 10 -15 6 0 10 11
10 25 0 19 15 37 36 45 0 0 0 -29 -1 -64z m-92 -33 c3 -17 1 -23 -9 -19 -7 3
-11 0 -8 -7 2 -7 -3 -21 -12 -32 -8 -11 -12 -14 -8 -6 5 10 3 12 -6 6 -9 -5
-10 -1 -6 16 l7 24 -14 -23 c-7 -12 -16 -20 -20 -17 -4 3 -4 2 -1 -3 3 -4 9
-7 12 -8 18 -2 42 -17 42 -26 0 -6 -8 -7 -17 -3 -10 3 -22 7 -28 8 -5 1 -14 7
-18 12 -8 9 -7 2 4 -45 2 -8 8 -18 12 -21 5 -3 9 -13 11 -21 3 -25 26 -47 42
-41 8 3 14 0 14 -5 0 -21 -41 -25 -56 -5 -18 24 -48 121 -46 151 2 25 31 131
40 146 8 13 59 -51 65 -81z m-39 -117 c17 6 27 -8 31 -42 1 -15 -2 -23 -9 -21
-14 4 -56 66 -56 81 0 6 5 3 11 -6 5 -9 16 -15 23 -12z m7 -73 c13 -16 12 -17
-3 -4 -10 7 -18 15 -18 17 0 8 8 3 21 -13z m220 -47 c-7 -8 -8 -16 -3 -18 16
-6 25 -50 10 -47 -26 3 -39 -1 -33 -11 3 -5 1 -10 -4 -10 -6 0 -11 6 -11 14 0
20 36 86 47 86 3 0 0 -6 -6 -14z m-201 -15 c0 -14 -30 -41 -45 -41 -31 0 4 40
43 49 1 1 2 -3 2 -8z m-10 -51 c0 -5 -8 -10 -17 -10 -15 0 -16 2 -3 10 19 12
20 12 20 0z"/>
<path d="M810 490 c0 -6 7 -10 15 -10 8 0 15 2 15 4 0 2 -7 6 -15 10 -8 3 -15
1 -15 -4z"/>
<path d="M997 189 c7 -7 15 -10 18 -7 3 3 -2 9 -12 12 -14 6 -15 5 -6 -5z"/>
<path d="M810 214 c0 -17 17 -36 24 -26 3 5 -1 15 -9 22 -8 7 -15 9 -15 4z"/>
<path d="M176 775 c-17 -19 -33 -25 -63 -25 -57 0 -73 -22 -73 -99 0 -43 6
-74 21 -103 20 -39 20 -43 5 -69 -9 -15 -16 -38 -16 -51 0 -12 -9 -47 -20 -76
-11 -29 -20 -70 -20 -92 0 -45 34 -142 58 -166 15 -15 14 -18 -3 -30 -34 -25
-27 -44 17 -44 31 0 41 4 45 20 3 11 10 20 15 20 6 0 8 12 5 30 -4 16 -2 32 3
35 6 4 3 21 -6 43 -32 74 -34 93 -16 117 17 22 17 22 61 -59 24 -44 53 -91 64
-104 14 -15 21 -36 22 -65 0 -40 2 -42 31 -45 54 -5 62 31 24 109 -4 8 -4 23
1 32 7 12 1 33 -19 74 -16 32 -39 94 -51 137 -23 82 -20 95 20 96 36 0 50 41
24 70 -8 9 -18 44 -21 79 -8 72 -20 89 -17 25 0 -24 -3 -46 -8 -49 -4 -3 -7
19 -5 50 2 44 7 59 24 71 35 24 21 81 -16 67 -9 -4 -13 -2 -9 4 7 11 -13 23
-39 23 -8 0 -25 -11 -38 -25z m70 -18 c4 -4 -1 -9 -10 -13 -9 -3 -16 -14 -17
-23 0 -12 -2 -11 -8 4 -5 11 -4 22 0 23 5 2 7 7 4 12 -6 10 21 7 31 -3z m35
-40 c-11 -10 -12 -7 -7 13 6 21 5 22 -4 7 -6 -9 -16 -15 -21 -11 -6 4 -3 13 8
24 17 17 18 17 27 -2 6 -13 5 -23 -3 -31z m-82 7 c8 -18 8 -30 1 -39 -5 -6 -7
-14 -4 -18 3 -3 -4 -8 -16 -12 -25 -8 -46 7 -35 25 5 8 11 6 19 -5 11 -15 13
-14 25 12 10 22 10 25 0 16 -10 -10 -15 -8 -24 10 -7 12 -10 25 -8 30 9 16 30
6 42 -19z m-56 -4 c3 -11 2 -22 -3 -25 -4 -3 -10 6 -12 20 -6 30 7 34 15 5z
m-28 -9 c3 -5 0 -13 -5 -16 -7 -5 -5 -11 6 -19 16 -12 15 -13 -5 -19 -11 -3
-21 -11 -20 -19 0 -10 2 -10 6 0 8 20 51 14 58 -8 8 -24 -2 -43 -17 -34 -6 4
-8 2 -4 -4 7 -11 -31 -28 -41 -18 -4 3 2 6 13 7 16 0 16 2 -4 10 -13 5 -20 13
-17 19 3 5 1 10 -4 10 -6 0 -10 11 -9 25 1 14 7 25 13 25 5 0 4 4 -4 9 -8 5
-11 16 -8 25 7 17 32 22 42 7z m132 -16 c-9 -7 -14 -15 -10 -18 3 -4 -1 -7
-10 -7 -20 0 -21 4 -5 29 6 11 18 17 26 13 13 -4 12 -7 -1 -17z m-9 -62 c2
-12 -3 -20 -12 -20 -12 0 -13 3 -4 14 20 25 -2 27 -29 2 -14 -13 -23 -19 -20
-12 4 6 2 14 -3 16 -6 3 -5 4 2 3 7 -1 19 4 27 11 17 18 35 12 39 -14z m-129
-73 c13 0 32 7 41 15 10 9 34 18 54 20 33 5 36 3 27 -14 -6 -10 -8 -20 -6 -23
3 -3 -3 -12 -13 -21 -17 -16 -18 -14 -16 21 2 22 1 27 -3 12 -3 -14 -10 -31
-16 -38 -13 -16 -76 -9 -89 10 -17 26 -38 67 -37 75 0 4 8 -7 16 -24 12 -24
23 -33 42 -33z m149 -20 c-19 -16 -20 -19 -5 -20 11 0 17 -8 17 -24 0 -27 -15
-42 -25 -26 -3 5 0 10 7 10 9 0 9 3 -2 10 -13 9 -13 10 0 10 9 1 5 6 -10 15
-14 8 -19 14 -12 15 8 0 12 9 10 22 -2 13 2 23 9 23 6 0 15 4 20 8 4 5 9 2 11
-7 2 -9 -7 -25 -20 -36z m42 -21 c6 -11 9 -25 6 -32 -2 -7 -5 -5 -5 5 -1 9
-11 24 -23 32 -18 13 -19 16 -6 16 10 0 22 -9 28 -21z m-142 -16 c-10 -2 -26
-2 -35 0 -10 3 -2 5 17 5 19 0 27 -2 18 -5z m72 0 c-1 -14 -49 -43 -55 -34 -3
5 4 12 15 16 11 3 20 11 20 16 0 5 5 9 10 9 6 0 10 -3 10 -7z m-99 -23 c4 0 6
-7 2 -15 -5 -14 -8 -14 -24 1 -11 10 -19 12 -19 6 0 -7 9 -17 20 -24 18 -11
29 -58 14 -58 -21 0 -44 24 -44 48 0 21 -2 24 -10 12 -5 -8 -10 -11 -10 -6 0
17 34 47 48 41 7 -3 18 -5 23 -5z m99 -24 c0 -8 -11 -21 -25 -30 -23 -15 -25
-15 -25 0 0 21 30 55 41 48 5 -3 9 -11 9 -18z m-73 -38 c-2 -13 -4 -5 -4 17
-1 22 1 32 4 23 2 -10 2 -28 0 -40z m-23 -64 c9 -22 -19 -59 -44 -58 -23 2
-24 1 -5 -13 19 -14 19 -15 -5 -8 l-25 6 25 -20 c14 -11 21 -23 17 -27 -4 -4
-16 1 -27 11 -11 10 -20 13 -20 7 0 -6 8 -15 18 -21 9 -5 16 -12 15 -15 -6
-14 -2 -26 8 -26 6 0 9 7 5 15 -3 8 -1 15 3 15 5 0 11 -7 15 -15 3 -8 0 -15
-6 -15 -7 0 -3 -7 8 -15 16 -12 17 -14 2 -15 -16 0 -68 53 -68 70 0 5 -6 15
-14 23 -13 12 -12 23 7 84 l22 69 32 -20 c17 -12 34 -26 37 -32z m91 46 c4 -6
1 -18 -7 -27 -11 -14 -11 -16 1 -9 11 7 12 0 6 -35 -4 -24 -4 -40 1 -36 4 4
10 20 12 35 6 49 12 36 13 -29 1 -50 3 -58 9 -34 l8 30 1 -37 c0 -20 -3 -40
-9 -43 -5 -3 -10 -12 -10 -18 1 -7 9 -2 20 11 11 13 21 18 25 12 3 -5 1 -10
-6 -10 -7 0 -3 -10 9 -23 12 -13 20 -26 16 -29 -9 -10 -12 -58 -3 -58 4 0 9 6
12 13 2 6 4 1 4 -13 0 -14 3 -33 7 -42 7 -15 3 -18 -19 -18 -15 0 -24 -4 -20
-10 3 -5 1 -10 -4 -10 -15 0 -14 26 1 50 10 16 9 24 -8 47 -68 93 -96 137 -71
115 18 -17 27 -20 32 -11 5 7 4 10 -2 6 -10 -7 -59 43 -55 56 1 4 -2 7 -8 7
-6 0 -9 3 -8 8 1 4 -3 17 -11 30 -7 13 -10 31 -8 40 3 12 5 10 6 -6 1 -26 21
-20 21 7 0 30 32 52 45 31z m-145 -235 c4 3 14 -3 21 -12 12 -14 12 -16 0 -8
-10 5 -12 4 -7 -4 6 -9 11 -9 22 0 12 10 14 8 11 -12 -3 -15 -12 -25 -24 -27
-17 -2 -27 10 -52 64 -38 81 -40 107 -4 42 14 -26 29 -45 33 -43z m60 -85 c0
-5 -4 -10 -10 -10 -5 0 -10 -9 -10 -20 0 -14 -6 -20 -22 -19 -22 0 -22 1 -3 9
17 7 17 9 3 9 -21 1 -23 12 -6 29 15 15 48 16 48 2z"/>
<path d="M86 323 c-6 -14 -5 -15 5 -6 7 7 10 15 7 18 -3 3 -9 -2 -12 -12z"/>
<path d="M280 186 c0 -2 8 -10 18 -17 15 -13 16 -12 3 4 -13 16 -21 21 -21 13z"/>
<path d="M1596 775 c-17 -19 -33 -25 -63 -25 -57 0 -73 -22 -73 -99 0 -43 6
-74 21 -103 20 -39 20 -43 5 -69 -9 -15 -16 -38 -16 -51 0 -12 -9 -47 -20 -76
-11 -29 -20 -70 -20 -92 0 -45 34 -142 58 -166 15 -15 14 -18 -3 -30 -34 -25
-27 -44 17 -44 31 0 41 4 45 20 3 11 10 20 15 20 6 0 8 12 5 30 -4 16 -2 32 3
35 6 4 3 21 -6 43 -32 74 -34 93 -16 117 17 22 17 22 61 -59 24 -44 53 -91 64
-104 14 -15 21 -36 22 -65 0 -40 2 -42 31 -45 54 -5 62 31 24 109 -4 8 -4 23
1 32 7 12 1 33 -19 74 -16 32 -39 94 -51 137 -23 82 -20 95 20 96 36 0 50 41
24 70 -8 9 -18 44 -21 79 -8 72 -20 89 -17 25 0 -24 -3 -46 -8 -49 -4 -3 -7
19 -5 50 2 44 7 59 24 71 35 24 21 81 -16 67 -9 -4 -13 -2 -9 4 7 11 -13 23
-39 23 -8 0 -25 -11 -38 -25z m70 -18 c4 -4 -1 -9 -10 -13 -9 -3 -16 -14 -17
-23 0 -12 -2 -11 -8 4 -5 11 -4 22 0 23 5 2 7 7 4 12 -6 10 21 7 31 -3z m35
-40 c-11 -10 -12 -7 -7 13 6 21 5 22 -4 7 -6 -9 -16 -15 -21 -11 -6 4 -3 13 8
24 17 17 18 17 27 -2 6 -13 5 -23 -3 -31z m-95 17 c-3 -8 -2 -13 3 -10 13 9
23 -25 11 -39 -5 -6 -7 -14 -4 -18 3 -3 -4 -8 -16 -12 -25 -8 -46 7 -35 25 6
9 10 8 18 -5 8 -14 11 -15 18 -4 12 19 11 32 -1 24 -5 -3 -10 -3 -10 2 0 4 -3
18 -6 31 -5 16 -2 22 11 22 11 0 15 -5 11 -16z m-43 -14 c3 -11 2 -22 -3 -25
-4 -3 -10 6 -12 20 -6 30 7 34 15 5z m-28 -9 c3 -5 0 -13 -5 -16 -7 -5 -5 -11
6 -19 16 -12 15 -13 -5 -19 -11 -3 -21 -11 -21 -19 0 -10 2 -10 10 2 7 12 16
12 48 4 30 -8 41 -7 51 3 17 18 35 12 39 -14 2 -12 -3 -20 -12 -20 -12 0 -13
3 -4 14 6 7 8 17 4 20 -4 4 -10 3 -14 -2 -12 -16 -47 -41 -38 -27 4 6 3 12 -2
12 -5 0 -12 -9 -15 -21 -4 -13 -10 -18 -18 -13 -7 4 -10 3 -5 -4 7 -11 -31
-28 -41 -18 -4 3 2 6 13 7 16 0 16 2 -4 10 -13 5 -20 13 -17 19 3 5 1 10 -4
10 -6 0 -10 11 -9 25 1 14 7 25 13 25 5 0 4 4 -4 9 -8 5 -11 16 -8 25 7 17 32
22 42 7z m132 -16 c-9 -7 -14 -15 -10 -18 3 -4 -1 -7 -10 -7 -20 0 -21 4 -5
29 6 11 18 17 26 13 13 -4 12 -7 -1 -17z m-136 -135 c15 0 31 5 34 11 13 19
58 31 67 17 6 -10 8 -10 8 0 0 6 5 12 10 12 7 0 7 -6 1 -19 -6 -10 -8 -20 -6
-23 3 -3 -3 -12 -13 -21 -17 -16 -18 -14 -16 21 2 22 1 27 -3 12 -3 -14 -10
-31 -16 -38 -13 -16 -76 -9 -89 10 -17 26 -38 67 -37 75 0 4 8 -7 16 -24 13
-25 23 -33 44 -33z m147 -20 c-19 -16 -20 -19 -5 -20 11 0 17 -8 17 -24 0 -27
-15 -42 -25 -26 -3 5 0 10 7 10 9 0 9 3 -2 10 -13 9 -13 10 0 10 9 1 5 6 -10
15 -14 8 -19 14 -12 15 8 0 12 9 10 22 -2 13 2 23 9 23 6 0 15 4 20 8 4 5 9 2
11 -7 2 -9 -7 -25 -20 -36z m42 -21 c6 -11 9 -25 6 -32 -2 -7 -5 -5 -5 5 -1 9
-11 24 -23 32 -18 13 -19 16 -6 16 10 0 22 -9 28 -21z m-142 -16 c-10 -2 -26
-2 -35 0 -10 3 -2 5 17 5 19 0 27 -2 18 -5z m72 0 c-1 -14 -49 -43 -55 -34 -3
5 4 12 15 16 11 3 20 11 20 16 0 5 5 9 10 9 6 0 10 -3 10 -7z m-99 -23 c4 0 6
-7 2 -15 -5 -14 -8 -14 -24 1 -11 10 -19 12 -19 6 0 -7 9 -17 20 -24 18 -11
29 -58 14 -58 -21 0 -44 24 -44 48 0 21 -2 24 -10 12 -5 -8 -10 -11 -10 -6 0
17 34 47 48 41 7 -3 18 -5 23 -5z m99 -24 c0 -8 -11 -21 -25 -30 -22 -14 -25
-14 -25 -1 0 19 31 56 42 49 4 -3 8 -11 8 -18z m-73 -38 c-2 -13 -4 -5 -4 17
-1 22 1 32 4 23 2 -10 2 -28 0 -40z m-23 -64 c9 -22 -19 -59 -44 -58 -23 2
-24 1 -5 -13 19 -14 19 -15 -5 -8 l-25 6 25 -20 c14 -11 21 -23 17 -27 -4 -4
-17 1 -28 12 -23 20 -23 18 0 -28 15 -29 38 -40 27 -13 -3 8 -1 15 3 15 5 0
11 -7 15 -15 3 -8 0 -15 -6 -15 -7 0 -3 -7 8 -15 16 -12 17 -14 2 -15 -16 0
-68 53 -68 70 0 5 -6 15 -14 23 -13 12 -12 23 7 84 l22 69 32 -20 c17 -12 34
-26 37 -32z m91 46 c4 -6 1 -18 -7 -27 -11 -14 -11 -16 1 -9 11 7 12 0 6 -35
-4 -24 -4 -40 1 -36 4 4 10 20 12 35 6 49 12 36 13 -29 1 -50 3 -58 9 -34 l8
30 1 -37 c0 -20 -3 -40 -9 -43 -5 -3 -10 -12 -10 -18 1 -7 9 -2 20 11 11 13
21 18 25 12 3 -5 1 -10 -6 -10 -8 0 -4 -9 8 -22 15 -18 18 -30 13 -55 -7 -31
3 -47 13 -20 2 6 4 1 4 -13 0 -14 3 -33 7 -42 7 -15 3 -18 -19 -18 -15 0 -24
-4 -20 -10 3 -5 1 -10 -4 -10 -15 0 -14 26 1 50 10 16 9 24 -8 47 -57 77 -95
135 -85 129 6 -4 11 -3 11 2 0 6 -7 13 -16 16 -8 3 -12 10 -9 16 3 5 2 10 -3
10 -5 0 -12 8 -15 18 -3 9 -10 32 -16 50 -6 19 -6 30 0 27 5 -4 9 -15 9 -26 0
-11 5 -17 10 -14 6 3 10 14 10 24 0 30 32 52 45 31z m-166 -216 c10 -13 21
-21 23 -18 3 2 11 -3 19 -13 12 -14 12 -16 0 -8 -10 5 -12 4 -7 -4 6 -9 11 -9
22 0 12 10 14 8 11 -12 -3 -15 -12 -25 -24 -27 -17 -2 -27 10 -52 64 -17 36
-31 71 -30 78 0 6 4 0 10 -12 5 -13 17 -35 28 -48z m81 -104 c0 -5 -4 -10 -10
-10 -5 0 -10 -9 -10 -20 0 -14 -6 -20 -22 -19 -22 0 -22 1 -3 9 17 7 17 9 3 9
-21 1 -23 12 -6 29 15 15 48 16 48 2z"/>
<path d="M1506 323 c-6 -14 -5 -15 5 -6 7 7 10 15 7 18 -3 3 -9 -2 -12 -12z"/>
<path d="M1630 237 c0 -2 6 -10 14 -16 11 -9 16 -9 22 1 4 7 4 10 -1 6 -4 -4
-14 -3 -22 3 -7 6 -13 9 -13 6z"/>
<path d="M1700 186 c0 -2 8 -10 18 -17 15 -13 16 -12 3 4 -13 16 -21 21 -21
13z"/>
<path d="M2282 760 c-19 -21 -36 -30 -57 -30 -20 0 -40 -9 -53 -23 -30 -32
-30 -121 -2 -178 19 -36 19 -42 5 -62 -8 -12 -15 -34 -15 -48 0 -15 -11 -51
-25 -81 -31 -67 -31 -85 2 -180 21 -58 33 -78 48 -81 18 -3 18 -4 -6 -16 -14
-7 -26 -19 -26 -27 0 -19 66 -18 92 2 17 13 18 17 6 36 -11 18 -11 22 2 29 15
9 10 36 -20 109 -12 30 -9 50 8 65 15 15 20 10 64 -72 26 -48 55 -96 64 -107
9 -10 16 -32 16 -50 0 -27 4 -31 31 -34 47 -5 60 18 36 66 -13 27 -16 45 -10
56 6 11 1 33 -20 74 -25 50 -78 212 -70 216 60 25 78 53 60 90 -15 31 -32 108
-25 119 3 4 -2 16 -11 26 -15 17 -15 19 0 32 10 8 20 12 23 9 3 -3 7 5 9 18 6
44 -37 65 -52 25 -4 -10 -2 -13 8 -10 8 3 17 1 20 -6 3 -7 3 -1 0 13 -5 20 -4
23 6 13 7 -6 10 -18 7 -27 -6 -14 -30 -16 -43 -3 -30 30 -32 -28 -3 -59 20
-21 21 -25 7 -46 -11 -16 -13 -30 -6 -47 5 -16 5 -28 -2 -35 -5 -5 -10 -7 -10
-2 0 4 -12 -6 -26 -23 -21 -25 -33 -31 -62 -29 l-37 1 35 4 c42 6 60 19 60 45
0 16 5 19 21 15 16 -4 19 -2 14 11 -15 35 -17 52 -7 52 5 0 12 9 15 21 4 15 0
23 -14 26 -10 3 -19 10 -19 15 0 5 -4 6 -10 3 -5 -3 -10 -2 -10 4 0 5 5 13 11
17 6 3 9 15 6 25 -3 11 -1 19 5 19 5 0 6 5 2 12 -4 7 -3 8 5 4 6 -4 19 -2 27
5 12 10 12 14 2 20 -25 16 -50 9 -76 -21z m11 -42 c-4 -19 -3 -20 6 -8 6 8 11
10 11 5 0 -6 -5 -16 -11 -22 -8 -8 -6 -19 5 -39 8 -16 15 -22 16 -14 0 13 2
13 9 1 7 -11 3 -18 -16 -28 -40 -20 -48 -16 -62 32 -7 25 -23 52 -34 60 -16
11 -18 15 -6 15 21 0 53 -36 44 -49 -3 -6 -2 -11 3 -11 5 0 14 -12 21 -26 18
-40 23 -22 6 19 -8 21 -12 37 -8 37 5 0 2 4 -5 8 -15 10 -5 42 13 42 8 0 11
-8 8 -22z m75 -25 c-6 -7 -14 -13 -19 -13 -5 0 -9 6 -9 13 0 7 9 13 19 13 15
0 17 -3 9 -13z m-151 -23 c-3 -12 1 -24 11 -30 15 -9 15 -12 -6 -27 l-22 -18
32 0 c27 0 34 -4 36 -24 3 -16 0 -21 -9 -16 -8 5 -10 4 -5 -3 4 -7 2 -12 -4
-12 -6 0 -13 7 -16 15 -4 8 -10 12 -15 9 -5 -3 -17 0 -26 5 -10 6 -15 11 -12
11 4 0 4 15 -1 33 -9 40 4 77 26 77 11 0 15 -6 11 -20z m106 -85 c4 -8 1 -17
-5 -21 -7 -4 -8 -3 -4 4 9 16 -7 15 -22 0 -9 -9 -12 -8 -12 6 0 9 4 15 9 11 5
-3 12 -1 16 5 8 14 12 13 18 -5z m44 -7 c-3 -8 -6 -5 -6 6 -1 11 2 17 5 13 3
-3 4 -12 1 -19z m6 -54 c-17 -13 -17 -14 6 -11 18 1 24 -4 28 -23 3 -22 2 -23
-9 -8 -7 9 -24 19 -38 23 l-25 6 24 -19 c25 -20 24 -52 -1 -52 -9 0 -8 3 2 10
13 9 13 10 0 10 -13 0 -13 1 0 10 8 5 11 10 5 10 -5 0 -16 4 -24 9 -11 7 -8
16 15 45 21 27 30 32 32 20 2 -8 -5 -22 -15 -30z m-137 13 c4 -4 -2 -7 -14 -7
-11 0 -24 5 -27 10 -7 11 30 8 41 -3z m64 -7 c0 -18 -47 -33 -77 -25 l-28 8
33 7 c18 4 36 10 39 14 10 10 33 7 33 -4z m40 -59 c0 -5 -8 -11 -17 -15 -10
-3 -25 -9 -33 -12 -8 -3 -4 4 10 15 27 22 40 26 40 12z m-97 -9 c5 -1 5 -7 2
-12 -4 -7 -14 -7 -28 0 -22 10 -22 10 1 -6 28 -21 30 -64 3 -64 -20 0 -31 18
-31 53 0 18 -2 19 -10 7 -11 -17 -13 -10 -5 13 5 12 32 15 68 9z m91 -27 c3
-8 -4 -21 -17 -30 -20 -14 -22 -14 -25 0 -4 16 14 45 28 45 4 0 10 -7 14 -15z
m-67 -42 c-3 -10 -5 -2 -5 17 0 19 2 27 5 18 2 -10 2 -26 0 -35z m-24 -77
c-18 -32 -25 -36 -42 -24 -9 7 -13 8 -8 3 4 -5 -5 -14 -19 -20 l-27 -11 34
-17 c28 -13 30 -17 12 -17 -12 0 -25 5 -29 11 -5 8 -10 6 -16 -5 -7 -13 -3
-26 17 -52 14 -18 23 -34 19 -34 -3 0 -1 -7 6 -15 8 -10 17 -12 24 -6 7 6 16
4 24 -5 10 -11 8 -15 -9 -24 -16 -9 -26 -8 -45 4 -13 9 -23 20 -22 24 1 4 -6
24 -15 46 -28 63 -28 87 -2 144 14 30 25 63 25 72 0 14 10 8 40 -22 22 -22 37
-46 33 -52z m94 54 c1 -11 -3 -20 -9 -20 -7 0 -6 -5 1 -14 7 -8 9 -25 5 -42
-4 -16 -3 -25 2 -21 6 3 11 23 12 43 5 76 14 47 10 -33 -2 -46 0 -83 4 -83 5
0 9 15 9 33 2 31 2 31 6 4 3 -16 -1 -35 -8 -43 -8 -10 -8 -14 0 -14 6 0 15 10
20 22 7 20 8 19 14 -11 4 -18 4 -38 1 -45 -3 -6 2 -2 12 9 16 20 16 20 10 -5
-15 -57 -15 -62 -2 -57 9 4 13 -1 11 -11 -1 -9 2 -23 8 -29 7 -10 3 -13 -17
-13 -16 0 -25 -4 -21 -10 3 -5 1 -10 -4 -10 -21 0 -9 42 14 51 6 2 -1 15 -14
29 -13 14 -20 18 -16 10 8 -13 7 -13 -8 -1 -18 15 -23 26 -7 16 6 -3 10 -3 10
0 0 10 -43 69 -52 73 -5 2 -13 13 -20 25 -10 20 -10 21 5 8 28 -22 19 -2 -18
43 -24 30 -35 52 -34 72 l2 29 4 -27 c6 -37 23 -36 23 1 0 23 5 31 23 34 12 2
22 5 22 6 1 0 1 -8 2 -19z m-130 -106 c-3 -3 -12 -4 -19 -1 -8 3 -5 6 6 6 11
1 17 -2 13 -5z m-17 -86 c0 -5 5 -8 11 -8 7 0 5 10 -5 25 -16 24 -12 32 10 17
17 -11 25 -42 11 -42 -8 0 -6 -4 3 -10 20 -13 4 -13 -21 0 -10 6 -26 25 -34
43 l-16 32 20 -25 c11 -14 21 -28 21 -32z m55 -108 c10 -16 -21 -40 -49 -38
l-25 2 21 23 c23 25 43 29 53 13z"/>
<path d="M960 765 c-8 -9 -8 -15 -2 -15 12 0 26 19 19 26 -2 2 -10 -2 -17 -11z"/>
</g>
</svg>
