<?xml version="1.0" standalone="no"?>
<!DOCTYPE svg PUBLIC "-//W3C//DTD SVG 20010904//EN"
 "http://www.w3.org/TR/2001/REC-SVG-20010904/DTD/svg10.dtd">
<svg version="1.0" xmlns="http://www.w3.org/2000/svg"
 width="248.000000pt" height="82.000000pt" viewBox="0 0 248.000000 82.000000"
 preserveAspectRatio="xMidYMid meet">
<metadata>
Created by potrace 1.10, written by Peter Selinger 2001-2011
</metadata>
<g transform="translate(0.000000,82.000000) scale(0.100000,-0.100000)"
fill="#000000" stroke="none">
<path d="M1512 801 c-18 -11 12 -36 33 -27 9 3 14 2 10 -3 -3 -5 1 -12 7 -14
7 -3 3 -6 -8 -6 -12 -1 -27 6 -34 14 -11 13 -15 12 -31 -6 -13 -16 -19 -18
-19 -8 0 8 6 21 13 29 10 12 9 12 -5 1 -23 -17 -23 -34 2 -56 12 -11 20 -31
20 -49 l0 -31 13 25 c11 21 11 27 -2 37 -15 12 -14 13 17 13 4 0 7 -11 8 -25
1 -29 22 -57 36 -49 5 3 1 12 -9 20 -16 13 -15 13 10 2 29 -12 25 -27 -9 -32
-10 -2 -20 -8 -22 -14 -2 -7 2 -10 10 -7 11 5 14 -1 10 -25 -2 -16 1 -37 8
-45 8 -10 9 -15 2 -15 -17 0 -30 31 -37 90 -3 30 -8 56 -10 58 -10 10 -15 -60
-5 -77 6 -12 8 -21 5 -21 -3 0 -14 19 -24 43 l-18 42 -7 -52 c-4 -29 -14 -57
-22 -64 -20 -17 -17 -36 8 -53 28 -20 58 -22 40 -4 -7 7 -12 23 -12 37 0 28
-16 18 -22 -14 -3 -17 -5 -18 -10 -3 -4 9 -1 23 5 33 10 12 18 14 37 6 14 -5
18 -10 10 -11 -13 0 -13 -1 0 -10 13 -9 13 -10 0 -10 -9 0 -11 -3 -5 -8 6 -4
11 -13 13 -21 5 -22 -47 -220 -69 -263 -13 -25 -18 -50 -15 -64 4 -13 2 -32
-3 -41 -40 -74 -31 -116 23 -111 29 3 31 5 31 45 1 29 8 50 22 65 11 13 40 61
63 107 41 82 43 84 55 61 11 -20 10 -33 -2 -74 -8 -28 -17 -55 -20 -59 -3 -5
2 -16 10 -25 8 -9 19 -37 24 -62 8 -43 10 -45 45 -48 32 -3 37 -1 33 17 -2 11
-8 29 -14 39 -8 15 -6 31 8 64 10 23 25 67 32 96 12 48 11 58 -9 120 -12 38
-22 79 -22 93 0 13 -7 35 -16 48 -16 22 -15 25 5 61 16 29 21 55 21 112 0 93
-16 114 -80 104 -32 -5 -44 -2 -60 14 -21 21 -46 25 -68 11z m130 -43 c-5 -7
-15 -30 -20 -50 -10 -36 -9 -38 12 -38 12 0 28 -6 35 -12 10 -11 11 -10 6 5
-4 9 -16 17 -26 17 -16 0 -18 5 -13 28 9 35 19 46 38 39 23 -9 21 -38 -1 -31
-11 4 -14 2 -8 -3 42 -35 40 -65 -7 -89 -35 -18 -59 -5 -51 26 3 11 0 20 -6
20 -8 0 -7 10 4 30 8 16 15 36 15 44 0 8 6 17 13 19 19 8 20 8 9 -5z m-117 -8
c3 -5 -1 -10 -9 -10 -9 0 -16 -5 -16 -11 0 -5 -4 -7 -10 -4 -6 4 -5 11 3 20
14 17 24 18 32 5z m85 -12 c0 -5 -7 -7 -16 -4 -14 5 -15 4 -4 -9 14 -17 0 -21
-17 -4 -9 9 -10 7 -6 -10 3 -12 1 -21 -6 -21 -6 0 -11 4 -11 9 0 5 -3 17 -7
27 -4 11 -2 15 4 11 5 -4 19 0 29 7 20 15 34 12 34 -6z m96 -125 c-3 -10 -18
-31 -33 -48 -16 -16 -28 -34 -28 -40 0 -5 -16 -11 -35 -12 l-35 -1 35 6 c24 5
31 10 22 15 -7 5 -19 6 -26 4 -16 -6 -39 33 -34 58 1 10 11 19 21 21 9 1 15
-2 11 -7 -3 -5 8 -12 25 -15 19 -4 28 -11 24 -18 -4 -6 1 -4 11 4 18 14 18 15
-5 20 -19 5 -21 7 -8 12 9 4 22 1 28 -5 9 -9 13 -6 18 11 3 13 8 21 10 18 3
-2 2 -13 -1 -23z m-203 -27 c15 -23 15 -24 -3 -19 -11 3 -20 14 -20 24 0 25 4
24 23 -5z m70 -118 c-3 -16 -9 -28 -13 -28 -15 0 -32 30 -26 46 5 13 9 14 21
4 13 -11 14 -10 9 6 -5 13 -4 16 4 9 6 -5 8 -22 5 -37z m111 26 c9 -8 16 -21
16 -27 0 -7 -4 -6 -10 3 -8 12 -10 9 -10 -12 0 -16 -8 -31 -19 -37 -17 -10
-19 -6 -23 30 -3 35 6 55 29 59 1 0 9 -7 17 -16z m-64 -71 c0 -7 -4 -13 -10
-13 -5 0 -10 12 -10 28 0 21 2 24 10 12 5 -8 10 -21 10 -27z m-50 -28 c0 -14
5 -25 10 -25 6 0 10 7 10 15 0 8 5 15 10 15 26 0 1 -72 -49 -140 -25 -35 -25
-35 -2 -15 l24 20 -19 -30 c-27 -43 -87 -115 -92 -110 -9 8 -9 65 -1 71 5 3 9
15 9 27 0 20 0 20 14 1 13 -16 17 -17 28 -5 7 8 8 11 2 8 -14 -8 -24 15 -23
51 1 23 3 22 9 -8 6 -29 8 -22 9 34 1 68 7 83 14 36 2 -13 9 -26 16 -28 10 -3
10 0 2 16 -6 11 -10 40 -8 65 2 39 4 44 20 36 9 -6 17 -21 17 -34z m144 -37
c22 -77 22 -94 3 -158 -22 -71 -39 -94 -66 -85 -25 8 -28 27 -4 23 10 -2 18 3
18 12 1 8 7 14 14 12 7 -1 10 2 7 7 -4 5 1 17 10 25 8 9 12 16 8 16 -5 0 -3 5
4 12 7 7 12 21 12 33 -1 13 -9 4 -26 -28 -14 -26 -29 -45 -35 -42 -5 4 -8 1
-7 -6 2 -6 -2 -13 -8 -16 -7 -2 -10 6 -9 21 4 34 14 48 31 42 8 -3 19 4 25 15
10 19 9 20 -11 9 -12 -6 -24 -9 -28 -6 -7 8 30 36 40 30 4 -2 10 1 14 7 4 7 3
9 -3 6 -6 -4 -18 10 -27 31 -16 36 -16 17 0 -22 5 -15 4 -17 -6 -11 -9 6 -11
4 -6 -6 4 -8 0 -5 -8 6 -9 11 -14 25 -12 32 3 8 -1 10 -12 6 -14 -6 -15 -4 -5
9 7 8 10 18 7 21 -4 4 6 23 21 43 15 19 31 32 35 27 4 -4 15 -34 24 -65z
m-250 -280 c19 -36 20 -58 5 -58 -5 0 -7 5 -4 10 6 10 -7 14 -33 11 -15 -3 -6
41 10 47 5 2 3 11 -4 20 -9 10 -9 13 -1 9 6 -4 19 -21 27 -39z m227 -9 c7 -15
6 -19 -5 -19 -16 0 -46 26 -46 40 0 15 40 -2 51 -21z m-11 -35 c0 -2 -7 -4
-15 -4 -8 0 -15 4 -15 10 0 5 7 7 15 4 8 -4 15 -8 15 -10z"/>
<path d="M1650 490 c-13 -8 -12 -10 3 -10 9 0 17 5 17 10 0 12 -1 12 -20 0z"/>
<path d="M1470 190 c-9 -6 -10 -10 -3 -10 6 0 15 5 18 10 8 12 4 12 -15 0z"/>
<path d="M1650 205 c-11 -13 -10 -14 4 -9 9 3 16 10 16 15 0 13 -6 11 -20 -6z"/>
<path d="M812 793 c-6 -2 -9 -10 -5 -16 4 -6 0 -8 -9 -4 -37 14 -51 -43 -16
-67 17 -12 22 -27 24 -71 2 -31 -1 -53 -5 -50 -5 3 -8 25 -8 49 3 64 -9 47
-17 -25 -3 -35 -13 -70 -21 -79 -26 -29 -12 -70 24 -70 40 -1 43 -14 20 -96
-12 -43 -35 -105 -51 -137 -20 -41 -26 -62 -19 -74 5 -9 5 -24 1 -32 -38 -78
-30 -114 24 -109 29 3 31 5 31 45 1 29 8 50 22 65 11 13 40 60 64 104 44 81
44 81 61 59 18 -24 16 -43 -16 -117 -9 -22 -12 -39 -6 -43 5 -3 7 -19 3 -35
-3 -18 -1 -30 5 -30 5 0 12 -9 15 -20 4 -16 14 -20 45 -20 44 0 51 19 17 44
-17 12 -18 15 -3 30 24 24 58 121 58 166 0 22 -9 63 -20 92 -11 29 -20 64 -20
76 0 13 -7 36 -16 51 -15 26 -15 30 5 69 15 29 21 60 21 105 0 76 -16 97 -75
97 -27 0 -44 7 -61 25 -22 24 -44 29 -72 18z m1 -66 c-3 -6 -12 -2 -21 9 -13
18 -14 18 -7 -6 6 -19 5 -22 -5 -14 -7 7 -9 21 -5 32 6 20 7 20 25 5 10 -9 16
-21 13 -26z m31 32 c-2 -4 0 -9 5 -11 4 -1 5 -12 0 -23 -6 -15 -8 -16 -8 -4
-1 9 -8 20 -17 23 -18 7 -11 23 10 23 8 0 13 -4 10 -8z m56 -16 c0 -5 -3 -18
-6 -31 -5 -18 -9 -20 -21 -11 -12 11 -12 9 -2 -15 12 -25 14 -26 25 -11 8 11
14 13 19 5 11 -18 -10 -33 -35 -25 -12 4 -19 9 -16 12 3 4 1 12 -5 20 -9 10
-7 19 5 38 16 24 36 34 36 18z m32 -28 c-2 -14 -8 -23 -12 -20 -10 6 -1 45 10
45 4 0 5 -11 2 -25z m-82 -37 c0 -5 -7 -8 -16 -8 -8 0 -13 4 -10 9 3 5 -2 12
-11 15 -15 6 -15 9 -3 16 13 8 39 -13 40 -32z m137 26 c3 -9 0 -20 -8 -25 -8
-5 -9 -9 -4 -9 6 0 12 -11 13 -25 1 -14 -3 -25 -9 -25 -5 0 -7 -5 -4 -10 3 -6
-4 -14 -17 -19 -20 -8 -20 -10 -4 -10 11 -1 17 -4 13 -7 -10 -10 -48 7 -41 18
4 6 2 8 -4 4 -15 -9 -25 10 -17 34 7 22 50 28 58 8 4 -10 6 -10 6 0 1 8 -9 16
-20 19 -20 6 -21 7 -5 19 11 8 13 14 6 19 -5 3 -8 11 -5 16 10 15 35 10 42 -7z
m-125 -57 c7 -8 19 -12 26 -11 7 1 8 0 2 -3 -5 -2 -7 -10 -3 -16 3 -7 -6 -1
-20 12 -27 25 -49 23 -29 -2 9 -10 8 -14 -3 -14 -15 0 -21 28 -8 40 10 10 20
8 35 -6z m134 -64 c-27 -50 -33 -55 -68 -60 -38 -5 -53 7 -61 47 -4 15 -5 10
-3 -12 2 -35 1 -37 -16 -21 -10 9 -16 18 -13 21 2 3 0 13 -6 23 -6 13 -6 19 1
19 5 0 10 -6 10 -12 0 -10 2 -10 8 0 9 14 54 2 67 -17 3 -6 19 -11 34 -11 22
0 31 7 41 30 7 17 15 29 17 26 2 -2 -2 -17 -11 -33z m-181 -8 c6 0 9 -10 7
-23 -2 -13 2 -22 10 -22 7 -1 2 -7 -12 -15 -15 -9 -19 -14 -10 -15 13 0 13 -1
0 -10 -11 -7 -11 -10 -2 -10 7 0 10 -5 7 -10 -10 -16 -25 -1 -25 26 0 16 6 24
18 24 14 1 14 3 -5 19 -24 20 -33 59 -10 44 6 -4 17 -8 22 -8z m-33 -51 c-12
-8 -22 -23 -23 -32 0 -10 -3 -12 -5 -5 -8 18 15 53 34 53 13 0 12 -3 -6 -16z
m68 -23 c0 -5 9 -13 20 -16 11 -4 18 -11 15 -16 -4 -5 -17 -1 -30 8 -26 19
-32 33 -15 33 6 0 10 -4 10 -9z m88 2 c-10 -2 -26 -2 -35 0 -10 3 -2 5 17 5
19 0 27 -2 18 -5z m44 -30 c10 -9 18 -21 18 -27 0 -6 -5 -4 -10 4 -8 12 -10 9
-10 -12 0 -24 -23 -48 -44 -48 -15 0 -4 47 14 58 11 7 20 17 20 24 0 6 -8 4
-19 -6 -16 -14 -19 -15 -24 -2 -4 9 1 17 11 19 9 3 19 5 21 6 3 0 13 -6 23
-16z m-104 -48 c-2 -11 -7 -11 -27 4 -17 13 -22 24 -17 36 6 17 8 17 27 -4 11
-12 19 -28 17 -36z m29 -7 c-2 -13 -4 -5 -4 17 -1 22 1 32 4 23 2 -10 2 -28 0
-40z m-31 -34 c14 -48 17 -50 24 -24 6 18 8 20 9 7 1 -10 -4 -28 -11 -40 -7
-12 -13 -28 -14 -34 -3 -20 -57 -72 -67 -66 -6 4 -7 1 -2 -6 5 -9 14 -6 32 11
25 22 -3 -22 -71 -115 -17 -23 -18 -31 -8 -47 15 -24 16 -50 1 -50 -5 0 -7 4
-4 10 4 6 -5 10 -20 10 -22 0 -26 3 -19 18 4 9 7 28 7 42 0 14 2 19 4 13 10
-27 20 -11 13 19 -5 26 -2 38 13 56 12 13 16 22 8 22 -7 0 -9 5 -6 10 4 6 14
1 25 -12 11 -13 19 -18 20 -11 0 6 -4 15 -10 18 -5 3 -9 23 -9 43 l1 37 8 -30
c6 -24 8 -16 9 34 1 65 7 78 13 29 2 -15 7 -31 11 -35 5 -4 5 12 1 36 -6 36
-5 43 7 36 11 -7 12 -6 3 6 -6 8 -11 22 -11 31 0 13 4 15 19 7 11 -6 21 -17
24 -25z m148 -131 c-8 -8 -14 -18 -14 -23 0 -17 -52 -70 -68 -70 -15 1 -14 3
2 15 11 8 15 15 8 15 -6 0 -9 7 -6 15 4 8 10 15 15 15 4 0 6 -7 3 -15 -4 -8
-2 -15 3 -15 13 0 36 49 38 77 1 17 -2 20 -16 12 -27 -14 -35 -11 -14 5 18 13
18 14 -5 12 -16 -1 -28 7 -36 23 -14 27 -8 51 11 51 6 0 20 9 30 20 18 20 19
19 41 -51 20 -62 21 -74 8 -86z m-37 -10 c-9 -9 -19 -14 -23 -11 -10 10 6 28
24 28 15 0 15 -1 -1 -17z m22 -77 c-25 -54 -35 -66 -52 -64 -12 2 -21 12 -24
27 -3 20 -1 22 11 12 12 -10 21 -3 50 35 20 26 36 54 37 63 0 9 3 11 5 5 3 -6
-10 -41 -27 -78z m-29 0 c0 -2 -8 -10 -17 -17 -16 -13 -17 -12 -4 4 13 16 21
21 21 13z m-12 -88 c17 -17 15 -28 -5 -29 -15 0 -15 -2 2 -9 19 -8 19 -9 -2
-9 -17 -1 -23 5 -23 19 0 11 -4 20 -10 20 -5 0 -10 5 -10 10 0 14 33 13 48 -2z"/>
<path d="M759 173 c-13 -16 -12 -17 4 -4 16 13 21 21 13 21 -2 0 -10 -8 -17
-17z"/>
<path d="M960 331 c0 -6 4 -13 10 -16 6 -3 7 1 4 9 -7 18 -14 21 -14 7z"/>
<path d="M2232 793 c-6 -2 -9 -10 -5 -16 4 -6 0 -8 -9 -4 -37 14 -51 -43 -16
-67 17 -12 22 -27 24 -71 2 -31 -1 -53 -5 -50 -5 3 -8 25 -8 49 3 64 -9 47
-17 -25 -3 -35 -13 -70 -21 -79 -26 -29 -12 -70 25 -70 39 -1 42 -14 19 -96
-12 -43 -35 -105 -51 -137 -20 -41 -26 -62 -19 -74 5 -9 5 -24 1 -32 -38 -78
-30 -114 24 -109 29 3 31 5 31 45 1 29 8 50 22 65 11 13 40 60 64 104 44 81
44 81 61 59 18 -24 16 -43 -16 -117 -9 -22 -12 -39 -6 -43 5 -3 7 -19 3 -35
-3 -18 -1 -30 5 -30 5 0 12 -9 15 -20 4 -16 14 -20 45 -20 44 0 51 19 17 44
-17 12 -18 15 -3 30 24 24 58 121 58 166 0 22 -9 63 -20 92 -11 29 -20 64 -20
76 0 13 -7 36 -16 51 -15 26 -15 30 5 69 15 29 21 60 21 105 0 76 -16 97 -75
97 -27 0 -44 7 -61 25 -22 24 -44 29 -72 18z m1 -66 c-3 -6 -12 -2 -21 9 -13
18 -14 18 -7 -6 6 -19 5 -22 -5 -14 -7 7 -9 21 -5 32 6 20 7 20 25 5 10 -9 16
-21 13 -26z m31 32 c-2 -4 0 -9 5 -11 4 -1 5 -12 0 -23 -6 -15 -8 -16 -8 -4
-1 9 -8 20 -17 23 -18 7 -11 23 10 23 8 0 13 -4 10 -8z m56 -16 c0 -5 -3 -18
-6 -31 -5 -18 -9 -20 -21 -11 -12 11 -12 9 -2 -15 12 -25 14 -26 25 -11 8 11
14 13 19 5 11 -18 -10 -33 -35 -25 -12 4 -19 9 -16 12 3 4 1 12 -5 20 -9 10
-7 19 5 38 16 24 36 34 36 18z m32 -28 c-2 -14 -8 -23 -12 -20 -10 6 -1 45 10
45 4 0 5 -11 2 -25z m-82 -37 c0 -5 -7 -8 -16 -8 -8 0 -13 4 -10 9 3 5 -2 12
-11 15 -15 6 -15 9 -3 16 13 8 39 -13 40 -32z m137 26 c3 -9 0 -20 -8 -25 -8
-5 -9 -9 -4 -9 6 0 12 -11 13 -25 1 -14 -3 -25 -9 -25 -5 0 -7 -5 -4 -10 3 -6
-4 -14 -17 -19 -20 -8 -20 -10 -4 -10 11 -1 17 -4 13 -7 -10 -10 -48 7 -41 18
4 6 2 8 -4 4 -15 -9 -25 10 -17 34 7 22 50 28 58 8 4 -10 6 -10 6 0 1 8 -9 16
-20 19 -20 6 -21 7 -5 19 11 8 13 14 6 19 -5 3 -8 11 -5 16 10 15 35 10 42 -7z
m-125 -57 c7 -8 19 -12 26 -11 7 1 8 0 2 -3 -5 -2 -7 -10 -3 -16 8 -13 -28 12
-39 28 -4 5 -10 6 -14 2 -4 -3 -2 -13 4 -20 9 -10 8 -14 -3 -14 -15 0 -21 28
-8 40 10 10 20 8 35 -6z m134 -64 c-27 -50 -33 -55 -68 -60 -38 -5 -53 7 -61
47 -4 15 -5 10 -3 -12 2 -35 1 -37 -16 -21 -10 9 -16 18 -13 21 2 3 0 13 -6
23 -9 17 -6 19 27 14 20 -2 44 -11 54 -20 29 -26 66 -19 80 15 7 17 15 29 17
26 2 -2 -2 -17 -11 -33z m-181 -8 c6 0 9 -10 7 -23 -2 -13 2 -22 10 -22 7 -1
2 -7 -12 -15 -15 -9 -19 -14 -10 -15 13 0 13 -1 0 -10 -11 -7 -11 -10 -2 -10
7 0 10 -5 7 -10 -10 -16 -25 -1 -25 26 0 16 6 24 18 24 14 1 14 3 -5 19 -24
20 -33 59 -10 44 6 -4 17 -8 22 -8z m-33 -51 c-12 -8 -22 -23 -23 -32 0 -10
-3 -12 -5 -5 -8 18 15 53 34 53 13 0 12 -3 -6 -16z m68 -23 c0 -5 9 -13 20
-16 11 -4 18 -11 15 -16 -4 -5 -17 -1 -30 8 -26 19 -32 33 -15 33 6 0 10 -4
10 -9z m88 2 c-10 -2 -26 -2 -35 0 -10 3 -2 5 17 5 19 0 27 -2 18 -5z m44 -30
c10 -9 18 -21 18 -27 0 -6 -5 -4 -10 4 -8 12 -10 9 -10 -12 0 -24 -23 -48 -44
-48 -15 0 -4 47 14 58 11 7 20 17 20 24 0 6 -8 4 -19 -6 -16 -14 -19 -15 -24
-2 -4 9 1 17 11 19 9 3 19 5 21 6 3 0 13 -6 23 -16z m-104 -48 c-2 -11 -7 -11
-27 4 -17 13 -22 24 -17 36 6 17 8 17 27 -4 11 -12 19 -28 17 -36z m29 -7 c-2
-13 -4 -5 -4 17 -1 22 1 32 4 23 2 -10 2 -28 0 -40z m-36 -29 c4 -8 11 -23 15
-34 6 -19 7 -18 14 5 5 14 8 19 9 11 1 -22 -22 -81 -32 -81 -4 0 -5 -5 -2 -10
3 -6 -1 -13 -9 -16 -9 -3 -16 -10 -16 -16 0 -5 5 -6 11 -2 10 6 -28 -52 -85
-129 -17 -23 -18 -31 -8 -47 15 -24 16 -50 1 -50 -5 0 -7 4 -4 10 4 6 -5 10
-20 10 -22 0 -26 3 -19 17 4 10 7 29 7 43 0 14 2 19 4 13 10 -28 20 -11 13 22
-5 24 -4 38 6 45 7 7 11 17 8 25 -3 7 -1 16 4 19 6 3 13 -1 16 -10 4 -10 2
-13 -7 -8 -6 4 -9 3 -4 -1 4 -5 -1 -18 -10 -29 -15 -18 -14 -18 8 2 14 12 29
19 32 15 4 -3 7 -1 7 5 0 6 -4 14 -10 17 -5 3 -9 23 -9 43 l1 37 8 -30 c6 -24
8 -16 9 34 1 65 7 78 13 29 2 -15 7 -31 11 -35 5 -4 5 12 1 36 -6 36 -5 43 7
36 12 -8 12 -6 1 8 -15 17 -7 40 11 34 6 -2 14 -10 18 -18z m160 -129 c-5 -3
-16 -20 -25 -38 -10 -19 -20 -32 -23 -29 -2 3 1 16 8 29 8 12 14 33 14 45 1
17 -2 20 -16 12 -27 -14 -35 -11 -14 5 18 13 18 14 -5 12 -16 -1 -28 7 -36 23
-15 30 -11 41 29 66 l32 20 22 -69 c12 -39 19 -73 14 -76z m-44 -17 c-9 -9
-19 -14 -23 -11 -10 10 6 28 24 28 15 0 15 -1 -1 -17z m26 -69 c-40 -83 -42
-86 -60 -75 -20 11 -27 45 -8 37 7 -2 19 2 25 10 7 8 9 14 4 14 -5 0 1 7 12
15 12 8 27 29 35 46 7 18 14 28 16 22 2 -5 -9 -36 -24 -69z m-45 34 c-2 -6
-10 -14 -16 -16 -7 -2 -10 2 -6 12 7 18 28 22 22 4z m5 -30 c-4 -7 -8 -16 -8
-20 0 -3 -4 -10 -9 -15 -5 -5 -6 -3 -2 5 5 8 1 12 -11 12 -17 1 -17 2 1 15 24
18 40 19 29 3z m-5 -100 c17 -17 15 -28 -5 -29 -15 0 -15 -2 2 -9 19 -8 19 -9
-2 -9 -17 -1 -23 5 -23 19 0 11 -4 20 -10 20 -5 0 -10 5 -10 10 0 14 33 13 48
-2z"/>
<path d="M2255 230 c-4 -6 -11 -7 -17 -4 -7 4 -8 2 -4 -5 6 -9 11 -9 22 0 14
11 18 19 10 19 -3 0 -8 -5 -11 -10z"/>
<path d="M2380 331 c0 -6 4 -13 10 -16 6 -3 7 1 4 9 -7 18 -14 21 -14 7z"/>
<path d="M122 781 c-10 -6 -10 -10 2 -20 8 -7 21 -9 27 -5 8 4 9 3 5 -4 -4 -7
-3 -12 2 -12 6 0 8 -8 5 -19 -3 -10 0 -22 6 -25 6 -4 11 -12 11 -17 0 -6 -4
-7 -10 -4 -5 3 -10 2 -10 -3 0 -5 -9 -12 -19 -15 -14 -3 -18 -11 -14 -26 3
-12 10 -21 15 -21 10 0 8 -17 -7 -52 -5 -13 -2 -15 14 -11 16 4 21 1 21 -15 0
-26 18 -39 60 -45 l35 -4 -37 -1 c-29 -2 -41 4 -62 29 -14 17 -26 27 -26 23 0
-5 -5 -3 -10 2 -7 7 -8 19 -1 37 6 15 6 29 1 32 -5 3 -11 -5 -13 -17 -2 -13
-4 -4 -3 19 1 23 9 50 19 61 26 29 20 82 -7 55 -13 -13 -37 -11 -43 3 -3 9 0
21 7 27 10 10 11 7 6 -13 -3 -14 -3 -20 0 -13 3 7 12 9 20 6 10 -3 12 0 8 10
-8 22 -31 28 -44 12 -13 -16 -10 -60 5 -60 6 0 16 -4 23 -9 11 -6 10 -12 -3
-26 -9 -10 -15 -23 -12 -27 7 -11 -10 -88 -25 -119 -18 -37 0 -65 60 -90 8 -4
-45 -166 -70 -216 -21 -41 -26 -63 -20 -74 6 -11 3 -29 -10 -56 -24 -48 -11
-71 36 -66 27 3 31 7 31 34 0 18 7 40 16 50 9 11 38 59 64 107 44 82 49 87 64
72 17 -15 20 -35 8 -65 -30 -73 -35 -100 -20 -109 13 -7 13 -11 2 -29 -12 -19
-11 -23 6 -36 26 -20 92 -21 92 -2 0 8 -12 20 -26 27 -24 12 -24 13 -6 16 15
3 27 23 48 81 33 95 33 113 2 180 -14 30 -25 66 -25 81 0 14 -7 36 -15 48 -14
20 -14 26 5 62 29 59 28 150 -3 179 -13 12 -36 22 -53 22 -20 0 -38 9 -56 30
-26 30 -51 37 -76 21z m93 -59 c3 -9 0 -19 -7 -24 -7 -4 -10 -8 -5 -8 4 0 0
-16 -8 -37 -17 -41 -12 -59 6 -19 7 14 16 26 21 26 5 0 6 5 3 11 -10 15 24 49
49 49 19 0 19 -1 -4 -13 -16 -8 -30 -29 -40 -60 -16 -50 -24 -54 -63 -34 -19
10 -23 17 -16 28 7 12 9 12 9 -1 1 -8 8 -2 16 14 11 20 13 31 5 39 -6 6 -11
16 -11 22 0 5 5 3 11 -5 9 -12 10 -11 6 6 -5 24 19 29 28 6z m-75 -29 c0 -7
-4 -13 -9 -13 -5 0 -13 6 -19 13 -8 10 -6 13 9 13 10 0 19 -6 19 -13z m159
-21 c6 -11 6 -33 1 -55 -4 -20 -5 -37 -1 -37 3 0 -2 -5 -12 -11 -9 -5 -21 -8
-26 -5 -5 3 -11 -1 -15 -9 -3 -8 -10 -15 -16 -15 -6 0 -8 5 -4 12 5 7 3 8 -5
3 -9 -5 -12 0 -9 16 2 20 9 24 36 24 l32 0 -22 18 c-20 15 -21 19 -8 30 9 6
14 20 12 30 -5 23 24 22 37 -1z m-106 -85 c4 3 7 -2 7 -12 0 -15 -3 -16 -12
-7 -15 15 -31 16 -22 0 4 -7 3 -8 -4 -4 -6 4 -9 13 -5 22 4 10 9 12 18 4 6 -5
15 -7 18 -3z m-43 -89 c0 -4 -10 -10 -21 -13 -17 -6 -19 -9 -8 -16 12 -7 11
-9 -1 -9 -13 0 -13 -1 0 -10 10 -7 11 -10 2 -10 -25 0 -26 32 -1 52 l24 19
-25 -6 c-14 -4 -31 -14 -38 -23 -11 -15 -12 -14 -9 8 4 19 10 24 28 23 22 -3
23 -2 7 11 -10 7 -18 22 -18 32 0 14 7 11 30 -16 16 -19 29 -38 30 -42z m135
41 c-4 -5 -15 -9 -26 -9 -26 0 -17 15 10 17 12 1 19 -2 16 -8z m-30 -18 l30
-8 -28 -8 c-17 -4 -38 -3 -53 4 -31 14 -32 36 -1 26 12 -3 36 -10 52 -14z
m-75 -62 c14 -11 18 -18 10 -15 -8 3 -23 9 -32 12 -10 4 -18 10 -18 15 0 14
13 10 40 -12z m122 -4 c4 -5 8 -14 8 -20 0 -5 -5 -3 -10 5 -8 12 -10 11 -10
-7 0 -35 -11 -53 -31 -53 -27 0 -25 43 4 64 22 16 22 16 0 6 -13 -6 -24 -6
-27 -1 -13 20 52 26 66 6z m-122 -20 c6 -8 10 -21 8 -30 -3 -14 -5 -14 -25 0
-13 9 -20 22 -17 30 8 19 18 19 34 0z m37 -42 c-3 -10 -5 -2 -5 17 0 19 2 27
5 18 2 -10 2 -26 0 -35z m122 -84 c22 -50 22 -60 -6 -139 -21 -62 -51 -87 -82
-70 -17 9 -19 13 -9 24 9 10 17 11 26 4 12 -10 13 -9 16 12 0 6 7 14 14 19 22
14 43 62 33 78 -6 11 -10 12 -15 4 -4 -6 -17 -11 -29 -11 -18 0 -16 4 12 17
l34 17 -27 11 c-14 6 -23 15 -19 20 5 5 1 4 -8 -3 -12 -9 -18 -9 -27 0 -20 20
-13 49 21 81 l32 32 6 -25 c4 -14 16 -46 28 -71z m-149 40 c0 -37 20 -38 21
-1 l2 27 4 -28 c3 -21 -4 -39 -31 -72 -38 -46 -47 -67 -19 -44 15 13 15 12 5
-8 -7 -12 -15 -23 -20 -25 -9 -4 -52 -63 -52 -73 0 -3 5 -3 10 0 16 10 11 -1
-7 -16 -14 -12 -16 -12 -9 1 4 8 1 7 -8 -4 -11 -13 -12 -25 -5 -43 12 -32 11
-43 -2 -43 -5 0 -7 4 -4 10 4 6 -5 10 -21 10 -20 0 -24 3 -17 13 6 6 9 20 8
29 -2 11 2 15 11 11 9 -3 13 0 10 8 -12 38 -16 73 -7 60 7 -11 11 -5 17 24 6
35 8 37 15 17 5 -12 14 -22 20 -22 8 0 8 4 0 14 -7 8 -11 27 -8 43 4 27 4 27
6 -4 0 -18 4 -33 9 -33 4 0 5 37 4 82 -4 81 5 109 10 34 1 -20 6 -40 12 -43 5
-4 6 5 2 21 -4 17 -2 34 5 42 7 9 8 14 1 14 -6 0 -10 8 -9 18 1 14 7 17 24 14
18 -3 23 -11 23 -33z m107 -85 c-3 -3 -12 -4 -19 -1 -8 3 -5 6 6 6 11 1 17 -2
13 -5z m18 -64 c-8 -16 -24 -34 -34 -40 -25 -13 -41 -13 -21 0 9 6 11 10 3 10
-14 0 -6 31 11 42 22 15 26 7 10 -17 -9 -14 -12 -25 -7 -25 5 0 17 14 26 30
23 39 32 39 12 0z m-35 -135 c10 -12 10 -15 -1 -15 -11 0 -11 -2 1 -10 13 -8
12 -10 -3 -10 -23 0 -50 26 -42 40 9 15 31 12 45 -5z"/>
</g>
</svg>
