<?xml version="1.0" standalone="no"?>
<!DOCTYPE svg PUBLIC "-//W3C//DTD SVG 20010904//EN"
 "http://www.w3.org/TR/2001/REC-SVG-20010904/DTD/svg10.dtd">
<svg version="1.0" xmlns="http://www.w3.org/2000/svg"
 width="37.000000pt" height="78.000000pt" viewBox="0 0 37.000000 78.000000"
 preserveAspectRatio="xMidYMid meet">
<metadata>
Created by potrace 1.10, written by Peter Selinger 2001-2011
</metadata>
<g transform="translate(0.000000,78.000000) scale(0.100000,-0.100000)"
fill="#000000" stroke="none">
<path d="M200 760 c-24 -24 -26 -40 -6 -40 23 0 30 -20 13 -37 -13 -13 -15
-12 -21 10 -10 41 -87 51 -110 15 -7 -13 -17 -62 -20 -111 -7 -87 -7 -87 18
-97 31 -12 31 -10 5 -55 -14 -23 -19 -45 -16 -63 6 -31 -15 -145 -39 -215 -12
-37 -13 -51 -4 -62 9 -11 8 -21 -6 -44 -15 -25 -15 -32 -5 -45 8 -9 18 -16 23
-16 13 0 38 26 38 41 0 7 -9 2 -19 -10 -19 -22 -19 -22 -26 -2 -9 28 3 44 27
38 33 -9 56 23 89 124 17 52 33 96 35 98 2 3 15 -6 28 -19 23 -21 24 -24 9
-46 -10 -15 -13 -35 -10 -53 4 -21 2 -31 -9 -35 -11 -4 -13 -15 -8 -48 4 -24
11 -51 16 -61 11 -22 65 -24 65 -2 0 9 -10 15 -24 15 -14 0 -21 -4 -18 -10 3
-5 1 -10 -4 -10 -15 0 -14 43 2 59 10 11 9 12 -2 6 -11 -6 -13 -4 -8 9 5 14 3
17 -8 12 -16 -6 -21 9 -6 19 13 8 41 -23 41 -45 0 -10 4 -21 8 -24 5 -3 6 8 4
25 -3 18 0 29 7 29 14 0 71 120 71 150 0 12 -9 38 -20 60 -11 22 -20 47 -20
56 0 9 -10 32 -22 52 -19 31 -23 33 -33 18 -7 -9 -17 -16 -24 -16 -6 0 4 15
22 34 32 32 34 38 36 112 1 43 4 81 7 83 3 3 4 -28 2 -69 l-3 -75 34 -17 c26
-13 38 -15 48 -6 11 9 10 13 -4 25 -10 8 -12 11 -4 7 9 -4 12 -3 7 4 -4 6 -13
9 -21 6 -8 -4 -12 -10 -9 -15 3 -5 0 -9 -5 -9 -18 0 -13 19 8 32 19 12 19 12
0 36 -10 14 -19 32 -19 40 0 9 -8 24 -17 34 -16 18 -15 19 5 34 35 24 22 81
-16 67 -9 -4 -13 -2 -9 4 7 11 -13 23 -39 23 -8 0 -23 -9 -34 -20z m70 -20 c3
0 -2 -6 -10 -13 -8 -7 -22 -27 -31 -44 -16 -30 -16 -31 8 -44 23 -12 24 -18
20 -72 -3 -34 -11 -65 -21 -76 -18 -19 -72 -26 -96 -11 -10 7 -11 10 -2 10 6
0 12 5 12 10 0 6 -12 8 -27 4 l-28 -6 25 15 c14 7 30 11 35 8 13 -7 47 -1 63
11 9 8 12 6 12 -5 0 -16 -19 -27 -53 -28 -17 -1 -16 -3 8 -10 21 -6 33 -5 41
4 16 17 28 123 15 132 -7 4 -9 -1 -5 -12 3 -10 -4 -3 -16 15 -21 31 -22 34 -5
52 10 11 15 26 12 35 -4 8 -2 15 4 15 6 0 8 4 5 9 -5 8 3 8 34 1z m31 -43
c-11 -10 -12 -7 -7 13 6 21 5 22 -4 7 -6 -9 -16 -15 -21 -11 -6 4 -3 13 8 24
17 17 18 17 27 -2 6 -13 5 -23 -3 -31z m-126 -22 c11 -23 28 -53 38 -68 9 -14
17 -34 16 -44 0 -11 -3 -13 -6 -5 -2 6 -13 12 -24 12 -20 0 -26 15 -9 25 6 3
10 1 10 -4 0 -6 5 -11 11 -11 8 0 7 5 -1 15 -12 14 -15 14 -30 0 -9 -8 -18
-15 -21 -15 -2 0 -4 26 -4 57 0 51 -3 59 -25 71 l-25 13 25 -3 c18 -2 31 -15
45 -43z m-30 8 c7 -19 -1 -28 -31 -37 -24 -7 -41 19 -25 38 15 18 49 17 56 -1z
m122 -8 c-9 -7 -14 -15 -10 -18 3 -4 -1 -7 -10 -7 -20 0 -21 4 -5 29 6 11 18
17 26 13 13 -4 12 -7 -1 -17z m-127 -47 c-1 -30 -16 -41 -41 -28 -22 12 -22
13 -4 26 23 17 45 18 45 2z m157 -10 c-3 -8 -6 -5 -6 6 -1 11 2 17 5 13 3 -3
4 -12 1 -19z m13 -27 c0 -6 -4 -13 -10 -16 -5 -3 -10 1 -10 9 0 9 5 16 10 16
6 0 10 -4 10 -9z m-184 -11 c19 0 19 -49 0 -56 -8 -3 -24 -1 -35 6 -32 17 -26
68 7 55 7 -3 20 -5 28 -5z m43 -32 c1 14 41 17 41 2 0 -5 -3 -10 -7 -11 -5 0
-18 -2 -30 -5 -19 -3 -23 1 -22 19 0 21 1 21 9 2 5 -11 9 -14 9 -7z m144 -2
c-14 -19 -19 -21 -21 -9 -2 9 2 19 10 24 24 16 29 9 11 -15z m-223 -32 c0 -2
-7 -4 -15 -4 -8 0 -15 4 -15 10 0 5 7 7 15 4 8 -4 15 -8 15 -10z m53 -66 c15
-7 27 -16 27 -20 0 -11 -7 -10 -33 3 -21 10 -21 9 1 -10 17 -14 22 -27 17 -41
-8 -24 -18 -25 -35 -5 -7 8 -9 15 -4 15 4 0 3 5 -3 11 -6 6 -9 19 -6 28 3 12
1 11 -11 -3 -9 -11 -16 -24 -16 -30 0 -5 -3 -7 -6 -3 -6 6 26 67 36 67 3 0 18
-6 33 -12z m122 -36 c17 -20 17 -22 2 -16 -11 4 -26 -1 -37 -11 -19 -17 -20
-17 -20 5 0 12 8 29 17 36 10 7 18 12 18 11 0 -1 9 -12 20 -25z m-79 -48 c-3
-8 -11 -14 -18 -14 -9 0 -9 3 0 12 7 7 13 21 13 33 1 17 2 18 6 2 3 -10 2 -25
-1 -33z m-58 -11 c14 -3 18 -11 14 -31 -4 -26 -4 -26 12 -7 24 30 20 -2 -5
-36 -11 -16 -17 -29 -13 -29 3 0 1 -7 -6 -15 -7 -8 -9 -15 -5 -15 4 0 1 -7 -6
-17 -8 -9 -14 -23 -15 -32 -1 -34 -16 -81 -24 -76 -5 3 -11 1 -15 -5 -4 -6
-10 -8 -15 -5 -6 3 -1 29 10 57 24 64 17 76 -10 17 -28 -63 -25 -41 10 64 17
50 28 97 26 104 -3 8 -1 11 4 8 6 -3 10 -1 10 4 0 6 -4 11 -9 11 -4 0 -6 12
-3 27 5 27 5 27 14 4 4 -13 16 -25 26 -28z m148 0 c3 -20 0 -22 -26 -19 -17 2
-33 -1 -36 -6 -3 -5 11 -7 35 -5 36 4 41 1 55 -26 16 -34 11 -57 -13 -57 -9 0
-29 -7 -45 -15 -30 -16 -30 -16 -11 5 10 11 28 20 39 21 13 0 6 6 -19 14 l-40
13 39 1 c40 1 45 8 10 14 -10 1 -25 7 -33 11 -11 7 -12 6 -6 -5 7 -11 6 -12
-7 -2 -8 7 -17 10 -20 7 -3 -2 -8 2 -11 10 -7 18 49 68 71 64 8 -2 17 -13 18
-25z m18 -146 c-17 -54 -36 -88 -47 -84 -7 2 -11 11 -11 20 1 9 -2 14 -7 11
-5 -3 -7 5 -6 18 2 13 11 23 20 23 9 0 22 7 29 15 11 12 10 12 -7 0 -18 -14
-19 -13 -8 1 19 23 45 20 37 -4z"/>
<path d="M101 674 c0 -11 3 -14 6 -6 3 7 2 16 -1 19 -3 4 -6 -2 -5 -13z"/>
<path d="M91 289 c-6 -18 -11 -37 -10 -43 0 -6 7 7 15 28 8 22 12 41 10 43 -2
2 -9 -10 -15 -28z"/>
</g>
</svg>
